%TF.GenerationSoftware,KiCad,Pcbnew,9.0.3*%
%TF.CreationDate,2025-09-25T19:21:43-04:00*%
%TF.ProjectId,buckboost,6275636b-626f-46f7-9374-2e6b69636164,rev?*%
%TF.SameCoordinates,Original*%
%TF.FileFunction,Paste,Top*%
%TF.FilePolarity,Positive*%
%FSLAX46Y46*%
G04 Gerber Fmt 4.6, Leading zero omitted, Abs format (unit mm)*
G04 Created by KiCad (PCBNEW 9.0.3) date 2025-09-25 19:21:43*
%MOMM*%
%LPD*%
G01*
G04 APERTURE LIST*
G04 Aperture macros list*
%AMRoundRect*
0 Rectangle with rounded corners*
0 $1 Rounding radius*
0 $2 $3 $4 $5 $6 $7 $8 $9 X,Y pos of 4 corners*
0 Add a 4 corners polygon primitive as box body*
4,1,4,$2,$3,$4,$5,$6,$7,$8,$9,$2,$3,0*
0 Add four circle primitives for the rounded corners*
1,1,$1+$1,$2,$3*
1,1,$1+$1,$4,$5*
1,1,$1+$1,$6,$7*
1,1,$1+$1,$8,$9*
0 Add four rect primitives between the rounded corners*
20,1,$1+$1,$2,$3,$4,$5,0*
20,1,$1+$1,$4,$5,$6,$7,0*
20,1,$1+$1,$6,$7,$8,$9,0*
20,1,$1+$1,$8,$9,$2,$3,0*%
G04 Aperture macros list end*
%ADD10C,0.010000*%
%ADD11R,2.700000X0.800000*%
%ADD12RoundRect,0.250000X-0.450000X0.350000X-0.450000X-0.350000X0.450000X-0.350000X0.450000X0.350000X0*%
%ADD13R,0.600000X0.240000*%
%ADD14RoundRect,0.250000X0.350000X0.450000X-0.350000X0.450000X-0.350000X-0.450000X0.350000X-0.450000X0*%
%ADD15RoundRect,0.250000X-0.475000X0.337500X-0.475000X-0.337500X0.475000X-0.337500X0.475000X0.337500X0*%
%ADD16RoundRect,0.250000X0.412500X0.650000X-0.412500X0.650000X-0.412500X-0.650000X0.412500X-0.650000X0*%
%ADD17RoundRect,0.250000X-0.350000X-0.450000X0.350000X-0.450000X0.350000X0.450000X-0.350000X0.450000X0*%
%ADD18RoundRect,0.250000X-0.337500X-0.475000X0.337500X-0.475000X0.337500X0.475000X-0.337500X0.475000X0*%
%ADD19RoundRect,0.250000X0.337500X0.475000X-0.337500X0.475000X-0.337500X-0.475000X0.337500X-0.475000X0*%
G04 APERTURE END LIST*
D10*
%TO.C,U9*%
X118624862Y-72850000D02*
X118375000Y-72850000D01*
X118375000Y-72511510D01*
X118624862Y-72511510D01*
X118624862Y-72850000D01*
G36*
X118624862Y-72850000D02*
G01*
X118375000Y-72850000D01*
X118375000Y-72511510D01*
X118624862Y-72511510D01*
X118624862Y-72850000D01*
G37*
X118624874Y-69790000D02*
X118375000Y-69790000D01*
X118375000Y-69448290D01*
X118624874Y-69448290D01*
X118624874Y-69790000D01*
G36*
X118624874Y-69790000D02*
G01*
X118375000Y-69790000D01*
X118375000Y-69448290D01*
X118624874Y-69448290D01*
X118624874Y-69790000D01*
G37*
X119125212Y-72850000D02*
X118875000Y-72850000D01*
X118875000Y-72510770D01*
X119125212Y-72510770D01*
X119125212Y-72850000D01*
G36*
X119125212Y-72850000D02*
G01*
X118875000Y-72850000D01*
X118875000Y-72510770D01*
X119125212Y-72510770D01*
X119125212Y-72850000D01*
G37*
X119125597Y-69790000D02*
X118875000Y-69790000D01*
X118875000Y-69447290D01*
X119125597Y-69447290D01*
X119125597Y-69790000D01*
G36*
X119125597Y-69790000D02*
G01*
X118875000Y-69790000D01*
X118875000Y-69447290D01*
X119125597Y-69447290D01*
X119125597Y-69790000D01*
G37*
X119500321Y-71050000D02*
X118000000Y-71050000D01*
X118000000Y-69989500D01*
X119500321Y-69989500D01*
X119500321Y-71050000D01*
G36*
X119500321Y-71050000D02*
G01*
X118000000Y-71050000D01*
X118000000Y-69989500D01*
X119500321Y-69989500D01*
X119500321Y-71050000D01*
G37*
X119500891Y-72310000D02*
X118000000Y-72310000D01*
X118000000Y-71250119D01*
X119500891Y-71250119D01*
X119500891Y-72310000D01*
G36*
X119500891Y-72310000D02*
G01*
X118000000Y-72310000D01*
X118000000Y-71250119D01*
X119500891Y-71250119D01*
X119500891Y-72310000D01*
G37*
%TD*%
D11*
%TO.C,L3*%
X124000000Y-72200000D03*
X124000000Y-70000000D03*
%TD*%
D12*
%TO.C,R27*%
X109600000Y-70800000D03*
X109600000Y-72800000D03*
%TD*%
D13*
%TO.C,U9*%
X120150000Y-72150000D03*
X120150000Y-71650000D03*
X120150000Y-71150000D03*
X120150000Y-70650000D03*
X120150000Y-70150000D03*
X117350000Y-70150000D03*
X117350000Y-70650000D03*
X117350000Y-71150000D03*
X117350000Y-71650000D03*
X117350000Y-72150000D03*
%TD*%
D14*
%TO.C,R5*%
X114450000Y-72750000D03*
X112450000Y-72750000D03*
%TD*%
D15*
%TO.C,C33*%
X109600000Y-75362500D03*
X109600000Y-77437500D03*
%TD*%
D16*
%TO.C,C4*%
X114800000Y-77400000D03*
X111675000Y-77400000D03*
%TD*%
D17*
%TO.C,R4*%
X122350000Y-77250000D03*
X124350000Y-77250000D03*
%TD*%
D18*
%TO.C,C3*%
X122325000Y-75200000D03*
X124400000Y-75200000D03*
%TD*%
D19*
%TO.C,C1*%
X109600000Y-68800000D03*
X107525000Y-68800000D03*
%TD*%
M02*
