%TF.GenerationSoftware,KiCad,Pcbnew,9.0.3*%
%TF.CreationDate,2025-09-25T19:21:43-04:00*%
%TF.ProjectId,buckboost,6275636b-626f-46f7-9374-2e6b69636164,rev?*%
%TF.SameCoordinates,Original*%
%TF.FileFunction,Legend,Top*%
%TF.FilePolarity,Positive*%
%FSLAX46Y46*%
G04 Gerber Fmt 4.6, Leading zero omitted, Abs format (unit mm)*
G04 Created by KiCad (PCBNEW 9.0.3) date 2025-09-25 19:21:43*
%MOMM*%
%LPD*%
G01*
G04 APERTURE LIST*
%ADD10C,0.150000*%
%ADD11C,0.120000*%
%ADD12C,0.127000*%
%ADD13C,0.300000*%
G04 APERTURE END LIST*
D10*
X125538095Y-74006819D02*
X126109523Y-74006819D01*
X125823809Y-75006819D02*
X125823809Y-74006819D01*
X126442857Y-75006819D02*
X126442857Y-74006819D01*
X126442857Y-74006819D02*
X126823809Y-74006819D01*
X126823809Y-74006819D02*
X126919047Y-74054438D01*
X126919047Y-74054438D02*
X126966666Y-74102057D01*
X126966666Y-74102057D02*
X127014285Y-74197295D01*
X127014285Y-74197295D02*
X127014285Y-74340152D01*
X127014285Y-74340152D02*
X126966666Y-74435390D01*
X126966666Y-74435390D02*
X126919047Y-74483009D01*
X126919047Y-74483009D02*
X126823809Y-74530628D01*
X126823809Y-74530628D02*
X126442857Y-74530628D01*
X127966666Y-75006819D02*
X127395238Y-75006819D01*
X127680952Y-75006819D02*
X127680952Y-74006819D01*
X127680952Y-74006819D02*
X127585714Y-74149676D01*
X127585714Y-74149676D02*
X127490476Y-74244914D01*
X127490476Y-74244914D02*
X127395238Y-74292533D01*
X115338095Y-72006819D02*
X115909523Y-72006819D01*
X115623809Y-73006819D02*
X115623809Y-72006819D01*
X116242857Y-73006819D02*
X116242857Y-72006819D01*
X116242857Y-72006819D02*
X116623809Y-72006819D01*
X116623809Y-72006819D02*
X116719047Y-72054438D01*
X116719047Y-72054438D02*
X116766666Y-72102057D01*
X116766666Y-72102057D02*
X116814285Y-72197295D01*
X116814285Y-72197295D02*
X116814285Y-72340152D01*
X116814285Y-72340152D02*
X116766666Y-72435390D01*
X116766666Y-72435390D02*
X116719047Y-72483009D01*
X116719047Y-72483009D02*
X116623809Y-72530628D01*
X116623809Y-72530628D02*
X116242857Y-72530628D01*
X117195238Y-72102057D02*
X117242857Y-72054438D01*
X117242857Y-72054438D02*
X117338095Y-72006819D01*
X117338095Y-72006819D02*
X117576190Y-72006819D01*
X117576190Y-72006819D02*
X117671428Y-72054438D01*
X117671428Y-72054438D02*
X117719047Y-72102057D01*
X117719047Y-72102057D02*
X117766666Y-72197295D01*
X117766666Y-72197295D02*
X117766666Y-72292533D01*
X117766666Y-72292533D02*
X117719047Y-72435390D01*
X117719047Y-72435390D02*
X117147619Y-73006819D01*
X117147619Y-73006819D02*
X117766666Y-73006819D01*
X127154819Y-71266666D02*
X127154819Y-71742856D01*
X127154819Y-71742856D02*
X126154819Y-71742856D01*
X126154819Y-71028570D02*
X126154819Y-70409523D01*
X126154819Y-70409523D02*
X126535771Y-70742856D01*
X126535771Y-70742856D02*
X126535771Y-70599999D01*
X126535771Y-70599999D02*
X126583390Y-70504761D01*
X126583390Y-70504761D02*
X126631009Y-70457142D01*
X126631009Y-70457142D02*
X126726247Y-70409523D01*
X126726247Y-70409523D02*
X126964342Y-70409523D01*
X126964342Y-70409523D02*
X127059580Y-70457142D01*
X127059580Y-70457142D02*
X127107200Y-70504761D01*
X127107200Y-70504761D02*
X127154819Y-70599999D01*
X127154819Y-70599999D02*
X127154819Y-70885713D01*
X127154819Y-70885713D02*
X127107200Y-70980951D01*
X127107200Y-70980951D02*
X127059580Y-71028570D01*
X111704819Y-72442857D02*
X111228628Y-72776190D01*
X111704819Y-73014285D02*
X110704819Y-73014285D01*
X110704819Y-73014285D02*
X110704819Y-72633333D01*
X110704819Y-72633333D02*
X110752438Y-72538095D01*
X110752438Y-72538095D02*
X110800057Y-72490476D01*
X110800057Y-72490476D02*
X110895295Y-72442857D01*
X110895295Y-72442857D02*
X111038152Y-72442857D01*
X111038152Y-72442857D02*
X111133390Y-72490476D01*
X111133390Y-72490476D02*
X111181009Y-72538095D01*
X111181009Y-72538095D02*
X111228628Y-72633333D01*
X111228628Y-72633333D02*
X111228628Y-73014285D01*
X110800057Y-72061904D02*
X110752438Y-72014285D01*
X110752438Y-72014285D02*
X110704819Y-71919047D01*
X110704819Y-71919047D02*
X110704819Y-71680952D01*
X110704819Y-71680952D02*
X110752438Y-71585714D01*
X110752438Y-71585714D02*
X110800057Y-71538095D01*
X110800057Y-71538095D02*
X110895295Y-71490476D01*
X110895295Y-71490476D02*
X110990533Y-71490476D01*
X110990533Y-71490476D02*
X111133390Y-71538095D01*
X111133390Y-71538095D02*
X111704819Y-72109523D01*
X111704819Y-72109523D02*
X111704819Y-71490476D01*
X110704819Y-71157142D02*
X110704819Y-70490476D01*
X110704819Y-70490476D02*
X111704819Y-70919047D01*
X117352005Y-73781875D02*
X117352005Y-74592030D01*
X117352005Y-74592030D02*
X117399662Y-74687342D01*
X117399662Y-74687342D02*
X117447318Y-74734999D01*
X117447318Y-74734999D02*
X117542630Y-74782655D01*
X117542630Y-74782655D02*
X117733255Y-74782655D01*
X117733255Y-74782655D02*
X117828567Y-74734999D01*
X117828567Y-74734999D02*
X117876224Y-74687342D01*
X117876224Y-74687342D02*
X117923880Y-74592030D01*
X117923880Y-74592030D02*
X117923880Y-73781875D01*
X118448098Y-74782655D02*
X118638722Y-74782655D01*
X118638722Y-74782655D02*
X118734035Y-74734999D01*
X118734035Y-74734999D02*
X118781691Y-74687342D01*
X118781691Y-74687342D02*
X118877003Y-74544374D01*
X118877003Y-74544374D02*
X118924660Y-74353749D01*
X118924660Y-74353749D02*
X118924660Y-73972499D01*
X118924660Y-73972499D02*
X118877003Y-73877187D01*
X118877003Y-73877187D02*
X118829347Y-73829531D01*
X118829347Y-73829531D02*
X118734035Y-73781875D01*
X118734035Y-73781875D02*
X118543410Y-73781875D01*
X118543410Y-73781875D02*
X118448098Y-73829531D01*
X118448098Y-73829531D02*
X118400441Y-73877187D01*
X118400441Y-73877187D02*
X118352785Y-73972499D01*
X118352785Y-73972499D02*
X118352785Y-74210780D01*
X118352785Y-74210780D02*
X118400441Y-74306093D01*
X118400441Y-74306093D02*
X118448098Y-74353749D01*
X118448098Y-74353749D02*
X118543410Y-74401405D01*
X118543410Y-74401405D02*
X118734035Y-74401405D01*
X118734035Y-74401405D02*
X118829347Y-74353749D01*
X118829347Y-74353749D02*
X118877003Y-74306093D01*
X118877003Y-74306093D02*
X118924660Y-74210780D01*
X113283333Y-74854819D02*
X112950000Y-74378628D01*
X112711905Y-74854819D02*
X112711905Y-73854819D01*
X112711905Y-73854819D02*
X113092857Y-73854819D01*
X113092857Y-73854819D02*
X113188095Y-73902438D01*
X113188095Y-73902438D02*
X113235714Y-73950057D01*
X113235714Y-73950057D02*
X113283333Y-74045295D01*
X113283333Y-74045295D02*
X113283333Y-74188152D01*
X113283333Y-74188152D02*
X113235714Y-74283390D01*
X113235714Y-74283390D02*
X113188095Y-74331009D01*
X113188095Y-74331009D02*
X113092857Y-74378628D01*
X113092857Y-74378628D02*
X112711905Y-74378628D01*
X114188095Y-73854819D02*
X113711905Y-73854819D01*
X113711905Y-73854819D02*
X113664286Y-74331009D01*
X113664286Y-74331009D02*
X113711905Y-74283390D01*
X113711905Y-74283390D02*
X113807143Y-74235771D01*
X113807143Y-74235771D02*
X114045238Y-74235771D01*
X114045238Y-74235771D02*
X114140476Y-74283390D01*
X114140476Y-74283390D02*
X114188095Y-74331009D01*
X114188095Y-74331009D02*
X114235714Y-74426247D01*
X114235714Y-74426247D02*
X114235714Y-74664342D01*
X114235714Y-74664342D02*
X114188095Y-74759580D01*
X114188095Y-74759580D02*
X114140476Y-74807200D01*
X114140476Y-74807200D02*
X114045238Y-74854819D01*
X114045238Y-74854819D02*
X113807143Y-74854819D01*
X113807143Y-74854819D02*
X113711905Y-74807200D01*
X113711905Y-74807200D02*
X113664286Y-74759580D01*
X111639580Y-77042857D02*
X111687200Y-77090476D01*
X111687200Y-77090476D02*
X111734819Y-77233333D01*
X111734819Y-77233333D02*
X111734819Y-77328571D01*
X111734819Y-77328571D02*
X111687200Y-77471428D01*
X111687200Y-77471428D02*
X111591961Y-77566666D01*
X111591961Y-77566666D02*
X111496723Y-77614285D01*
X111496723Y-77614285D02*
X111306247Y-77661904D01*
X111306247Y-77661904D02*
X111163390Y-77661904D01*
X111163390Y-77661904D02*
X110972914Y-77614285D01*
X110972914Y-77614285D02*
X110877676Y-77566666D01*
X110877676Y-77566666D02*
X110782438Y-77471428D01*
X110782438Y-77471428D02*
X110734819Y-77328571D01*
X110734819Y-77328571D02*
X110734819Y-77233333D01*
X110734819Y-77233333D02*
X110782438Y-77090476D01*
X110782438Y-77090476D02*
X110830057Y-77042857D01*
X110734819Y-76709523D02*
X110734819Y-76090476D01*
X110734819Y-76090476D02*
X111115771Y-76423809D01*
X111115771Y-76423809D02*
X111115771Y-76280952D01*
X111115771Y-76280952D02*
X111163390Y-76185714D01*
X111163390Y-76185714D02*
X111211009Y-76138095D01*
X111211009Y-76138095D02*
X111306247Y-76090476D01*
X111306247Y-76090476D02*
X111544342Y-76090476D01*
X111544342Y-76090476D02*
X111639580Y-76138095D01*
X111639580Y-76138095D02*
X111687200Y-76185714D01*
X111687200Y-76185714D02*
X111734819Y-76280952D01*
X111734819Y-76280952D02*
X111734819Y-76566666D01*
X111734819Y-76566666D02*
X111687200Y-76661904D01*
X111687200Y-76661904D02*
X111639580Y-76709523D01*
X110734819Y-75757142D02*
X110734819Y-75138095D01*
X110734819Y-75138095D02*
X111115771Y-75471428D01*
X111115771Y-75471428D02*
X111115771Y-75328571D01*
X111115771Y-75328571D02*
X111163390Y-75233333D01*
X111163390Y-75233333D02*
X111211009Y-75185714D01*
X111211009Y-75185714D02*
X111306247Y-75138095D01*
X111306247Y-75138095D02*
X111544342Y-75138095D01*
X111544342Y-75138095D02*
X111639580Y-75185714D01*
X111639580Y-75185714D02*
X111687200Y-75233333D01*
X111687200Y-75233333D02*
X111734819Y-75328571D01*
X111734819Y-75328571D02*
X111734819Y-75614285D01*
X111734819Y-75614285D02*
X111687200Y-75709523D01*
X111687200Y-75709523D02*
X111639580Y-75757142D01*
X113070833Y-79609580D02*
X113023214Y-79657200D01*
X113023214Y-79657200D02*
X112880357Y-79704819D01*
X112880357Y-79704819D02*
X112785119Y-79704819D01*
X112785119Y-79704819D02*
X112642262Y-79657200D01*
X112642262Y-79657200D02*
X112547024Y-79561961D01*
X112547024Y-79561961D02*
X112499405Y-79466723D01*
X112499405Y-79466723D02*
X112451786Y-79276247D01*
X112451786Y-79276247D02*
X112451786Y-79133390D01*
X112451786Y-79133390D02*
X112499405Y-78942914D01*
X112499405Y-78942914D02*
X112547024Y-78847676D01*
X112547024Y-78847676D02*
X112642262Y-78752438D01*
X112642262Y-78752438D02*
X112785119Y-78704819D01*
X112785119Y-78704819D02*
X112880357Y-78704819D01*
X112880357Y-78704819D02*
X113023214Y-78752438D01*
X113023214Y-78752438D02*
X113070833Y-78800057D01*
X113927976Y-79038152D02*
X113927976Y-79704819D01*
X113689881Y-78657200D02*
X113451786Y-79371485D01*
X113451786Y-79371485D02*
X114070833Y-79371485D01*
X123183333Y-76054819D02*
X122850000Y-75578628D01*
X122611905Y-76054819D02*
X122611905Y-75054819D01*
X122611905Y-75054819D02*
X122992857Y-75054819D01*
X122992857Y-75054819D02*
X123088095Y-75102438D01*
X123088095Y-75102438D02*
X123135714Y-75150057D01*
X123135714Y-75150057D02*
X123183333Y-75245295D01*
X123183333Y-75245295D02*
X123183333Y-75388152D01*
X123183333Y-75388152D02*
X123135714Y-75483390D01*
X123135714Y-75483390D02*
X123088095Y-75531009D01*
X123088095Y-75531009D02*
X122992857Y-75578628D01*
X122992857Y-75578628D02*
X122611905Y-75578628D01*
X124040476Y-75388152D02*
X124040476Y-76054819D01*
X123802381Y-75007200D02*
X123564286Y-75721485D01*
X123564286Y-75721485D02*
X124183333Y-75721485D01*
X123195833Y-73879580D02*
X123148214Y-73927200D01*
X123148214Y-73927200D02*
X123005357Y-73974819D01*
X123005357Y-73974819D02*
X122910119Y-73974819D01*
X122910119Y-73974819D02*
X122767262Y-73927200D01*
X122767262Y-73927200D02*
X122672024Y-73831961D01*
X122672024Y-73831961D02*
X122624405Y-73736723D01*
X122624405Y-73736723D02*
X122576786Y-73546247D01*
X122576786Y-73546247D02*
X122576786Y-73403390D01*
X122576786Y-73403390D02*
X122624405Y-73212914D01*
X122624405Y-73212914D02*
X122672024Y-73117676D01*
X122672024Y-73117676D02*
X122767262Y-73022438D01*
X122767262Y-73022438D02*
X122910119Y-72974819D01*
X122910119Y-72974819D02*
X123005357Y-72974819D01*
X123005357Y-72974819D02*
X123148214Y-73022438D01*
X123148214Y-73022438D02*
X123195833Y-73070057D01*
X123529167Y-72974819D02*
X124148214Y-72974819D01*
X124148214Y-72974819D02*
X123814881Y-73355771D01*
X123814881Y-73355771D02*
X123957738Y-73355771D01*
X123957738Y-73355771D02*
X124052976Y-73403390D01*
X124052976Y-73403390D02*
X124100595Y-73451009D01*
X124100595Y-73451009D02*
X124148214Y-73546247D01*
X124148214Y-73546247D02*
X124148214Y-73784342D01*
X124148214Y-73784342D02*
X124100595Y-73879580D01*
X124100595Y-73879580D02*
X124052976Y-73927200D01*
X124052976Y-73927200D02*
X123957738Y-73974819D01*
X123957738Y-73974819D02*
X123672024Y-73974819D01*
X123672024Y-73974819D02*
X123576786Y-73927200D01*
X123576786Y-73927200D02*
X123529167Y-73879580D01*
X108395833Y-70839580D02*
X108348214Y-70887200D01*
X108348214Y-70887200D02*
X108205357Y-70934819D01*
X108205357Y-70934819D02*
X108110119Y-70934819D01*
X108110119Y-70934819D02*
X107967262Y-70887200D01*
X107967262Y-70887200D02*
X107872024Y-70791961D01*
X107872024Y-70791961D02*
X107824405Y-70696723D01*
X107824405Y-70696723D02*
X107776786Y-70506247D01*
X107776786Y-70506247D02*
X107776786Y-70363390D01*
X107776786Y-70363390D02*
X107824405Y-70172914D01*
X107824405Y-70172914D02*
X107872024Y-70077676D01*
X107872024Y-70077676D02*
X107967262Y-69982438D01*
X107967262Y-69982438D02*
X108110119Y-69934819D01*
X108110119Y-69934819D02*
X108205357Y-69934819D01*
X108205357Y-69934819D02*
X108348214Y-69982438D01*
X108348214Y-69982438D02*
X108395833Y-70030057D01*
X109348214Y-70934819D02*
X108776786Y-70934819D01*
X109062500Y-70934819D02*
X109062500Y-69934819D01*
X109062500Y-69934819D02*
X108967262Y-70077676D01*
X108967262Y-70077676D02*
X108872024Y-70172914D01*
X108872024Y-70172914D02*
X108776786Y-70220533D01*
X122174819Y-80733333D02*
X122889104Y-80733333D01*
X122889104Y-80733333D02*
X123031961Y-80780952D01*
X123031961Y-80780952D02*
X123127200Y-80876190D01*
X123127200Y-80876190D02*
X123174819Y-81019047D01*
X123174819Y-81019047D02*
X123174819Y-81114285D01*
X123174819Y-79733333D02*
X123174819Y-80304761D01*
X123174819Y-80019047D02*
X122174819Y-80019047D01*
X122174819Y-80019047D02*
X122317676Y-80114285D01*
X122317676Y-80114285D02*
X122412914Y-80209523D01*
X122412914Y-80209523D02*
X122460533Y-80304761D01*
D11*
%TO.C,TP1*%
X127750000Y-76200000D02*
G75*
G02*
X125850000Y-76200000I-950000J0D01*
G01*
X125850000Y-76200000D02*
G75*
G02*
X127750000Y-76200000I950000J0D01*
G01*
%TO.C,TP2*%
X117550000Y-74200000D02*
G75*
G02*
X115650000Y-74200000I-950000J0D01*
G01*
X115650000Y-74200000D02*
G75*
G02*
X117550000Y-74200000I950000J0D01*
G01*
D12*
%TO.C,L3*%
X122330000Y-72600000D02*
X122330000Y-69600000D01*
X125670000Y-72600000D02*
X125670000Y-69600000D01*
D11*
%TO.C,R27*%
X108865000Y-71572936D02*
X108865000Y-72027064D01*
X110335000Y-71572936D02*
X110335000Y-72027064D01*
D12*
%TO.C,U9*%
X117250000Y-69650000D02*
X117250000Y-69800000D01*
X117250000Y-72650000D02*
X117250000Y-72500000D01*
X118050000Y-69650000D02*
X117250000Y-69650000D01*
X118050000Y-72650000D02*
X117250000Y-72650000D01*
X119450000Y-69650000D02*
X120250000Y-69650000D01*
X119450000Y-72650000D02*
X120250000Y-72650000D01*
X120250000Y-69650000D02*
X120250000Y-69800000D01*
X120250000Y-72650000D02*
X120250000Y-72500000D01*
D13*
X121000000Y-72100000D02*
G75*
G02*
X120900000Y-72100000I-50000J0D01*
G01*
X120900000Y-72100000D02*
G75*
G02*
X121000000Y-72100000I50000J0D01*
G01*
D11*
%TO.C,R5*%
X113677064Y-72015000D02*
X113222936Y-72015000D01*
X113677064Y-73485000D02*
X113222936Y-73485000D01*
%TO.C,C33*%
X108865000Y-76138748D02*
X108865000Y-76661252D01*
X110335000Y-76138748D02*
X110335000Y-76661252D01*
%TO.C,C4*%
X113948752Y-76490000D02*
X112526248Y-76490000D01*
X113948752Y-78310000D02*
X112526248Y-78310000D01*
%TO.C,R4*%
X123122936Y-76515000D02*
X123577064Y-76515000D01*
X123122936Y-77985000D02*
X123577064Y-77985000D01*
%TO.C,C3*%
X123101248Y-74465000D02*
X123623752Y-74465000D01*
X123101248Y-75935000D02*
X123623752Y-75935000D01*
%TO.C,C1*%
X108823752Y-68065000D02*
X108301248Y-68065000D01*
X108823752Y-69535000D02*
X108301248Y-69535000D01*
%TO.C,J1*%
X113880000Y-79020000D02*
X113880000Y-81780000D01*
X119070000Y-79020000D02*
X113880000Y-79020000D01*
X119070000Y-79020000D02*
X119070000Y-81780000D01*
X119070000Y-81780000D02*
X113880000Y-81780000D01*
X120340000Y-79020000D02*
X121720000Y-79020000D01*
X121720000Y-79020000D02*
X121720000Y-80400000D01*
%TD*%
M02*
