%TF.GenerationSoftware,KiCad,Pcbnew,9.0.3*%
%TF.CreationDate,2025-09-11T11:03:10-04:00*%
%TF.ProjectId,14TSSOPBreakout,31345453-534f-4504-9272-65616b6f7574,rev?*%
%TF.SameCoordinates,Original*%
%TF.FileFunction,Copper,L1,Top*%
%TF.FilePolarity,Positive*%
%FSLAX46Y46*%
G04 Gerber Fmt 4.6, Leading zero omitted, Abs format (unit mm)*
G04 Created by KiCad (PCBNEW 9.0.3) date 2025-09-11 11:03:10*
%MOMM*%
%LPD*%
G01*
G04 APERTURE LIST*
G04 Aperture macros list*
%AMRoundRect*
0 Rectangle with rounded corners*
0 $1 Rounding radius*
0 $2 $3 $4 $5 $6 $7 $8 $9 X,Y pos of 4 corners*
0 Add a 4 corners polygon primitive as box body*
4,1,4,$2,$3,$4,$5,$6,$7,$8,$9,$2,$3,0*
0 Add four circle primitives for the rounded corners*
1,1,$1+$1,$2,$3*
1,1,$1+$1,$4,$5*
1,1,$1+$1,$6,$7*
1,1,$1+$1,$8,$9*
0 Add four rect primitives between the rounded corners*
20,1,$1+$1,$2,$3,$4,$5,0*
20,1,$1+$1,$4,$5,$6,$7,0*
20,1,$1+$1,$6,$7,$8,$9,0*
20,1,$1+$1,$8,$9,$2,$3,0*%
G04 Aperture macros list end*
%TA.AperFunction,ComponentPad*%
%ADD10C,1.700000*%
%TD*%
%TA.AperFunction,ComponentPad*%
%ADD11R,1.700000X1.700000*%
%TD*%
%TA.AperFunction,SMDPad,CuDef*%
%ADD12RoundRect,0.100000X-0.637500X-0.100000X0.637500X-0.100000X0.637500X0.100000X-0.637500X0.100000X0*%
%TD*%
%TA.AperFunction,Conductor*%
%ADD13C,0.200000*%
%TD*%
G04 APERTURE END LIST*
D10*
%TO.P,REF\u002A\u002A,1*%
%TO.N,N/C*%
X152400000Y-76200000D03*
%TO.P,REF\u002A\u002A,2*%
X152400000Y-78740000D03*
%TO.P,REF\u002A\u002A,3*%
X152400000Y-81280000D03*
%TO.P,REF\u002A\u002A,4*%
X152400000Y-83820000D03*
%TO.P,REF\u002A\u002A,5*%
X152400000Y-86360000D03*
%TO.P,REF\u002A\u002A,6*%
X152400000Y-88900000D03*
%TO.P,REF\u002A\u002A,7*%
X152400000Y-91440000D03*
%TD*%
D11*
%TO.P,REF\u002A\u002A,1*%
%TO.N,N/C*%
X137160000Y-76200000D03*
D10*
%TO.P,REF\u002A\u002A,2*%
X137160000Y-78740000D03*
%TO.P,REF\u002A\u002A,3*%
X137160000Y-81280000D03*
%TO.P,REF\u002A\u002A,4*%
X137160000Y-83820000D03*
%TO.P,REF\u002A\u002A,5*%
X137160000Y-86360000D03*
%TO.P,REF\u002A\u002A,6*%
X137160000Y-88900000D03*
%TO.P,REF\u002A\u002A,7*%
X137160000Y-91440000D03*
%TD*%
D12*
%TO.P,REF\u002A\u002A,1*%
%TO.N,N/C*%
X141917500Y-81870000D03*
%TO.P,REF\u002A\u002A,2*%
X141917500Y-82520000D03*
%TO.P,REF\u002A\u002A,3*%
X141917500Y-83170000D03*
%TO.P,REF\u002A\u002A,4*%
X141917500Y-83820000D03*
%TO.P,REF\u002A\u002A,5*%
X141917500Y-84470000D03*
%TO.P,REF\u002A\u002A,6*%
X141917500Y-85120000D03*
%TO.P,REF\u002A\u002A,7*%
X141917500Y-85770000D03*
%TO.P,REF\u002A\u002A,8*%
X147642500Y-85770000D03*
%TO.P,REF\u002A\u002A,9*%
X147642500Y-85120000D03*
%TO.P,REF\u002A\u002A,10*%
X147642500Y-84470000D03*
%TO.P,REF\u002A\u002A,11*%
X147642500Y-83820000D03*
%TO.P,REF\u002A\u002A,12*%
X147642500Y-83170000D03*
%TO.P,REF\u002A\u002A,13*%
X147642500Y-82520000D03*
%TO.P,REF\u002A\u002A,14*%
X147642500Y-81870000D03*
%TD*%
D13*
%TO.N,*%
X148860000Y-85770000D02*
X147632500Y-85770000D01*
X149290000Y-86200000D02*
X148860000Y-85770000D01*
X152390000Y-91440000D02*
X149290000Y-88340000D01*
X149290000Y-88340000D02*
X149290000Y-86200000D01*
X149890000Y-85900000D02*
X149110000Y-85120000D01*
X152390000Y-88900000D02*
X149890000Y-86400000D01*
X149890000Y-86400000D02*
X149890000Y-85900000D01*
X149110000Y-85120000D02*
X147632500Y-85120000D01*
X152390000Y-86360000D02*
X150500000Y-84470000D01*
X149890000Y-81900000D02*
X149270000Y-82520000D01*
X152390000Y-83820000D02*
X147632500Y-83820000D01*
X152390000Y-81280000D02*
X152390000Y-81300000D01*
X149270000Y-82520000D02*
X147632500Y-82520000D01*
X149890000Y-81240000D02*
X149890000Y-81900000D01*
X150520000Y-83170000D02*
X147632500Y-83170000D01*
X152390000Y-78740000D02*
X149890000Y-81240000D01*
X150500000Y-84470000D02*
X147632500Y-84470000D01*
X152390000Y-81300000D02*
X150520000Y-83170000D01*
X148920000Y-81870000D02*
X147632500Y-81870000D01*
X152390000Y-76200000D02*
X149390000Y-79200000D01*
X149390000Y-81400000D02*
X148920000Y-81870000D01*
X149390000Y-79200000D02*
X149390000Y-81400000D01*
X140690000Y-85770000D02*
X141917500Y-85770000D01*
X140260000Y-86200000D02*
X140690000Y-85770000D01*
X137160000Y-91440000D02*
X140260000Y-88340000D01*
X140260000Y-88340000D02*
X140260000Y-86200000D01*
X140440000Y-85120000D02*
X141917500Y-85120000D01*
X139660000Y-85900000D02*
X140440000Y-85120000D01*
X139660000Y-86400000D02*
X139660000Y-85900000D01*
X137160000Y-88900000D02*
X139660000Y-86400000D01*
X140280000Y-82520000D02*
X141917500Y-82520000D01*
X139660000Y-81240000D02*
X139660000Y-81900000D01*
X139660000Y-81900000D02*
X140280000Y-82520000D01*
X137160000Y-78740000D02*
X139660000Y-81240000D01*
X139030000Y-83170000D02*
X141917500Y-83170000D01*
X137160000Y-81300000D02*
X139030000Y-83170000D01*
X137160000Y-81280000D02*
X137160000Y-81300000D01*
X139050000Y-84470000D02*
X141917500Y-84470000D01*
X137160000Y-86360000D02*
X139050000Y-84470000D01*
X137160000Y-83820000D02*
X141917500Y-83820000D01*
X140630000Y-81870000D02*
X141917500Y-81870000D01*
X140160000Y-81400000D02*
X140630000Y-81870000D01*
X140160000Y-79200000D02*
X140160000Y-81400000D01*
X137160000Y-76200000D02*
X140160000Y-79200000D01*
%TD*%
M02*
