<?xml version="1.0" standalone="no"?>
 <!DOCTYPE svg PUBLIC "-//W3C//DTD SVG 1.1//EN" 
 "http://www.w3.org/Graphics/SVG/1.1/DTD/svg11.dtd"> 
<svg
  xmlns:svg="http://www.w3.org/2000/svg"
  xmlns="http://www.w3.org/2000/svg"
  xmlns:xlink="http://www.w3.org/1999/xlink"
  version="1.1"
  width="297.0022mm" height="210.0072mm" viewBox="0.0000 0.0000 297.0022 210.0072">
<title>SVG Image created as LoRa Water Quality Management System Sensor Node-B_Mask.svg date 2025/11/23 13:52:41 </title>
  <desc>Image generated by PCBNEW </desc>
<g style="fill:#000000; fill-opacity:1.0000;stroke:#000000; stroke-opacity:1.0000;
stroke-linecap:round; stroke-linejoin:round;"
 transform="translate(0 0) scale(1 1)">
</g>
<g style="fill:#000000; fill-opacity:1.0000; stroke:none;">
<circle cx="81.0245" cy="132.8595" r="2.8000" /> 
<path style="fill:#000000; fill-opacity:1.0000; stroke:none;fill-rule:evenodd;"
d="M 186.9810,122.9110
186.9848,122.8919
186.9956,122.8756
187.0119,122.8648
187.0310,122.8610
188.4290,122.8610
188.4481,122.8648
188.4644,122.8756
188.4752,122.8919
188.4790,122.9110
188.4790,124.3090
188.4752,124.3281
188.4644,124.3444
188.4481,124.3552
188.4290,124.3590
187.0310,124.3590
187.0119,124.3552
186.9956,124.3444
186.9848,124.3281
186.9810,124.3090
Z" /> 
</g>
<g style="fill:#000000; fill-opacity:1.0000; stroke:none;">
<circle cx="190.2700" cy="123.6100" r="0.8010" /> 
</g>
<g style="fill:#000000; fill-opacity:1.0000; stroke:none;">
<circle cx="182.6500" cy="128.6900" r="1.6020" /> 
</g>
<g style="fill:#000000; fill-opacity:1.0000; stroke:none;">
<circle cx="192.8100" cy="128.6900" r="1.6020" /> 
<path style="fill:#000000; fill-opacity:1.0000; stroke:none;fill-rule:evenodd;"
d="M 129.6370,132.8170
129.6370,134.8420
127.6120,134.8420
127.6120,132.8170
Z" /> 
</g>
<g style="fill:#000000; fill-opacity:1.0000; stroke:none;">
<circle cx="124.8145" cy="133.8295" r="1.0125" /> 
</g>
<g style="fill:#000000; fill-opacity:1.0000; stroke:none;">
<circle cx="121.0045" cy="133.8295" r="1.0125" /> 
</g>
<g style="fill:#000000; fill-opacity:1.0000; stroke:none;">
<circle cx="99.7245" cy="136.2595" r="1.1000" /> 
</g>
<g style="fill:#000000; fill-opacity:1.0000; stroke:none;">
<circle cx="99.4245" cy="133.2295" r="0.9250" /> 
</g>
<g style="fill:#000000; fill-opacity:1.0000; stroke:none;">
<circle cx="94.5745" cy="133.2295" r="0.9250" /> 
</g>
<g style="fill:#000000; fill-opacity:1.0000; stroke:none;">
<circle cx="94.2745" cy="136.2595" r="1.1000" /> 
<path style="fill:#000000; fill-opacity:1.0000; stroke:none;fill-rule:evenodd;"
d="M 106.6895,136.9895
106.6742,137.0660
106.6309,137.1309
106.5660,137.1742
106.4895,137.1895
105.2895,137.1895
105.2129,137.1742
105.1480,137.1309
105.1047,137.0660
105.0895,136.9895
105.0895,135.7895
105.1047,135.7129
105.1480,135.6480
105.2129,135.6047
105.2895,135.5895
106.4895,135.5895
106.5660,135.6047
106.6309,135.6480
106.6742,135.7129
106.6895,135.7895
Z" /> 
</g>
<g style="fill:#000000; fill-opacity:1.0000; stroke:none;">
<circle cx="105.8895" cy="133.8495" r="0.8000" /> 
<path style="fill:#000000; fill-opacity:1.0000; stroke:none;fill-rule:evenodd;"
d="M 105.2856,132.1056
105.2505,132.1056
105.1784,132.0758
105.1232,132.0206
105.0933,131.9485
105.0933,131.9133
105.0895,131.9095
105.0895,130.7095
105.0933,130.7056
105.0933,130.6705
105.1232,130.5984
105.1784,130.5432
105.2505,130.5133
105.2856,130.5133
105.2895,130.5095
105.8895,130.5095
105.8895,130.5133
105.9679,130.5133
106.1217,130.5439
106.2666,130.6039
106.3970,130.6911
106.5079,130.8020
106.5950,130.9324
106.6550,131.0772
106.6856,131.2311
106.6856,131.3879
106.6550,131.5417
106.5950,131.6866
106.5079,131.8170
106.3970,131.9279
106.2666,132.0150
106.1217,132.0750
105.9679,132.1056
105.8895,132.1056
105.8895,132.1095
105.2895,132.1095
Z" /> 
</g>
<g style="fill:#000000; fill-opacity:1.0000; stroke:none;">
<circle cx="105.8895" cy="128.7695" r="0.8000" /> 
</g>
<g style="fill:#000000; fill-opacity:1.0000; stroke:none;">
<circle cx="105.8895" cy="126.2295" r="0.8000" /> 
</g>
<g style="fill:#000000; fill-opacity:1.0000; stroke:none;">
<circle cx="105.8895" cy="123.6895" r="0.8000" /> 
</g>
<g style="fill:#000000; fill-opacity:1.0000; stroke:none;">
<circle cx="105.8895" cy="121.1495" r="0.8000" /> 
<path style="fill:#000000; fill-opacity:1.0000; stroke:none;fill-rule:evenodd;"
d="M 105.2856,119.4056
105.2505,119.4056
105.1784,119.3758
105.1232,119.3206
105.0933,119.2485
105.0933,119.2133
105.0895,119.2095
105.0895,118.0095
105.0933,118.0056
105.0933,117.9705
105.1232,117.8984
105.1784,117.8432
105.2505,117.8133
105.2856,117.8133
105.2895,117.8095
105.8895,117.8095
105.8895,117.8133
105.9679,117.8133
106.1217,117.8439
106.2666,117.9039
106.3970,117.9911
106.5079,118.1020
106.5950,118.2324
106.6550,118.3772
106.6856,118.5311
106.6856,118.6879
106.6550,118.8417
106.5950,118.9866
106.5079,119.1170
106.3970,119.2279
106.2666,119.3150
106.1217,119.3750
105.9679,119.4056
105.8895,119.4056
105.8895,119.4095
105.2895,119.4095
Z" /> 
</g>
<g style="fill:#000000; fill-opacity:1.0000; stroke:none;">
<circle cx="105.8895" cy="116.0695" r="0.8000" /> 
</g>
<g style="fill:#000000; fill-opacity:1.0000; stroke:none;">
<circle cx="105.8895" cy="113.5295" r="0.8000" /> 
</g>
<g style="fill:#000000; fill-opacity:1.0000; stroke:none;">
<circle cx="105.8895" cy="110.9895" r="0.8000" /> 
</g>
<g style="fill:#000000; fill-opacity:1.0000; stroke:none;">
<circle cx="105.8895" cy="108.4495" r="0.8000" /> 
<path style="fill:#000000; fill-opacity:1.0000; stroke:none;fill-rule:evenodd;"
d="M 105.2856,106.7056
105.2505,106.7056
105.1784,106.6758
105.1232,106.6206
105.0933,106.5485
105.0933,106.5133
105.0895,106.5095
105.0895,105.3095
105.0933,105.3056
105.0933,105.2705
105.1232,105.1984
105.1784,105.1432
105.2505,105.1133
105.2856,105.1133
105.2895,105.1095
105.8895,105.1095
105.8895,105.1133
105.9679,105.1133
106.1217,105.1439
106.2666,105.2039
106.3970,105.2911
106.5079,105.4020
106.5950,105.5324
106.6550,105.6772
106.6856,105.8311
106.6856,105.9879
106.6550,106.1417
106.5950,106.2866
106.5079,106.4170
106.3970,106.5279
106.2666,106.6150
106.1217,106.6750
105.9679,106.7056
105.8895,106.7056
105.8895,106.7095
105.2895,106.7095
Z" /> 
</g>
<g style="fill:#000000; fill-opacity:1.0000; stroke:none;">
<circle cx="105.8895" cy="103.3695" r="0.8000" /> 
</g>
<g style="fill:#000000; fill-opacity:1.0000; stroke:none;">
<circle cx="105.8895" cy="100.8295" r="0.8000" /> 
</g>
<g style="fill:#000000; fill-opacity:1.0000; stroke:none;">
<circle cx="105.8895" cy="98.2895" r="0.8000" /> 
</g>
<g style="fill:#000000; fill-opacity:1.0000; stroke:none;">
<circle cx="105.8895" cy="95.7495" r="0.8000" /> 
<path style="fill:#000000; fill-opacity:1.0000; stroke:none;fill-rule:evenodd;"
d="M 105.2856,94.0056
105.2505,94.0056
105.1784,93.9758
105.1232,93.9206
105.0933,93.8485
105.0933,93.8133
105.0895,93.8095
105.0895,92.6095
105.0933,92.6056
105.0933,92.5705
105.1232,92.4984
105.1784,92.4432
105.2505,92.4133
105.2856,92.4133
105.2895,92.4095
105.8895,92.4095
105.8895,92.4133
105.9679,92.4133
106.1217,92.4439
106.2666,92.5039
106.3970,92.5911
106.5079,92.7020
106.5950,92.8324
106.6550,92.9772
106.6856,93.1311
106.6856,93.2879
106.6550,93.4417
106.5950,93.5866
106.5079,93.7170
106.3970,93.8279
106.2666,93.9150
106.1217,93.9750
105.9679,94.0056
105.8895,94.0056
105.8895,94.0095
105.2895,94.0095
Z" /> 
</g>
<g style="fill:#000000; fill-opacity:1.0000; stroke:none;">
<circle cx="105.8895" cy="90.6695" r="0.8000" /> 
</g>
<g style="fill:#000000; fill-opacity:1.0000; stroke:none;">
<circle cx="105.8895" cy="88.1295" r="0.8000" /> 
</g>
<g style="fill:#000000; fill-opacity:1.0000; stroke:none;">
<circle cx="88.1095" cy="88.1295" r="0.8000" /> 
</g>
<g style="fill:#000000; fill-opacity:1.0000; stroke:none;">
<circle cx="88.1095" cy="90.6695" r="0.8000" /> 
<path style="fill:#000000; fill-opacity:1.0000; stroke:none;fill-rule:evenodd;"
d="M 88.1095,94.0056
88.0311,94.0056
87.8772,93.9750
87.7324,93.9150
87.6020,93.8279
87.4911,93.7170
87.4039,93.5866
87.3439,93.4417
87.3133,93.2879
87.3133,93.1311
87.3439,92.9772
87.4039,92.8324
87.4911,92.7020
87.6020,92.5911
87.7324,92.5039
87.8772,92.4439
88.0311,92.4133
88.1095,92.4133
88.1095,92.4095
88.7095,92.4095
88.7133,92.4133
88.7485,92.4133
88.8206,92.4432
88.8758,92.4984
88.9056,92.5705
88.9056,92.6056
88.9095,92.6095
88.9095,93.8095
88.9056,93.8133
88.9056,93.8485
88.8758,93.9206
88.8206,93.9758
88.7485,94.0056
88.7133,94.0056
88.7095,94.0095
88.1095,94.0095
Z" /> 
</g>
<g style="fill:#000000; fill-opacity:1.0000; stroke:none;">
<circle cx="88.1095" cy="95.7495" r="0.8000" /> 
</g>
<g style="fill:#000000; fill-opacity:1.0000; stroke:none;">
<circle cx="88.1095" cy="98.2895" r="0.8000" /> 
</g>
<g style="fill:#000000; fill-opacity:1.0000; stroke:none;">
<circle cx="88.1095" cy="100.8295" r="0.8000" /> 
</g>
<g style="fill:#000000; fill-opacity:1.0000; stroke:none;">
<circle cx="88.1095" cy="103.3695" r="0.8000" /> 
<path style="fill:#000000; fill-opacity:1.0000; stroke:none;fill-rule:evenodd;"
d="M 88.1095,106.7056
88.0311,106.7056
87.8772,106.6750
87.7324,106.6150
87.6020,106.5279
87.4911,106.4170
87.4039,106.2866
87.3439,106.1417
87.3133,105.9879
87.3133,105.8311
87.3439,105.6772
87.4039,105.5324
87.4911,105.4020
87.6020,105.2911
87.7324,105.2039
87.8772,105.1439
88.0311,105.1133
88.1095,105.1133
88.1095,105.1095
88.7095,105.1095
88.7133,105.1133
88.7485,105.1133
88.8206,105.1432
88.8758,105.1984
88.9056,105.2705
88.9056,105.3056
88.9095,105.3095
88.9095,106.5095
88.9056,106.5133
88.9056,106.5485
88.8758,106.6206
88.8206,106.6758
88.7485,106.7056
88.7133,106.7056
88.7095,106.7095
88.1095,106.7095
Z" /> 
</g>
<g style="fill:#000000; fill-opacity:1.0000; stroke:none;">
<circle cx="88.1095" cy="108.4495" r="0.8000" /> 
</g>
<g style="fill:#000000; fill-opacity:1.0000; stroke:none;">
<circle cx="88.1095" cy="110.9895" r="0.8000" /> 
</g>
<g style="fill:#000000; fill-opacity:1.0000; stroke:none;">
<circle cx="88.1095" cy="113.5295" r="0.8000" /> 
</g>
<g style="fill:#000000; fill-opacity:1.0000; stroke:none;">
<circle cx="88.1095" cy="116.0695" r="0.8000" /> 
<path style="fill:#000000; fill-opacity:1.0000; stroke:none;fill-rule:evenodd;"
d="M 88.1095,119.4056
88.0311,119.4056
87.8772,119.3750
87.7324,119.3150
87.6020,119.2279
87.4911,119.1170
87.4039,118.9866
87.3439,118.8417
87.3133,118.6879
87.3133,118.5311
87.3439,118.3772
87.4039,118.2324
87.4911,118.1020
87.6020,117.9911
87.7324,117.9039
87.8772,117.8439
88.0311,117.8133
88.1095,117.8133
88.1095,117.8095
88.7095,117.8095
88.7133,117.8133
88.7485,117.8133
88.8206,117.8432
88.8758,117.8984
88.9056,117.9705
88.9056,118.0056
88.9095,118.0095
88.9095,119.2095
88.9056,119.2133
88.9056,119.2485
88.8758,119.3206
88.8206,119.3758
88.7485,119.4056
88.7133,119.4056
88.7095,119.4095
88.1095,119.4095
Z" /> 
</g>
<g style="fill:#000000; fill-opacity:1.0000; stroke:none;">
<circle cx="88.1095" cy="121.1495" r="0.8000" /> 
</g>
<g style="fill:#000000; fill-opacity:1.0000; stroke:none;">
<circle cx="88.1095" cy="123.6895" r="0.8000" /> 
</g>
<g style="fill:#000000; fill-opacity:1.0000; stroke:none;">
<circle cx="88.1095" cy="126.2295" r="0.8000" /> 
</g>
<g style="fill:#000000; fill-opacity:1.0000; stroke:none;">
<circle cx="88.1095" cy="128.7695" r="0.8000" /> 
<path style="fill:#000000; fill-opacity:1.0000; stroke:none;fill-rule:evenodd;"
d="M 88.1095,132.1056
88.0311,132.1056
87.8772,132.0750
87.7324,132.0150
87.6020,131.9279
87.4911,131.8170
87.4039,131.6866
87.3439,131.5417
87.3133,131.3879
87.3133,131.2311
87.3439,131.0772
87.4039,130.9324
87.4911,130.8020
87.6020,130.6911
87.7324,130.6039
87.8772,130.5439
88.0311,130.5133
88.1095,130.5133
88.1095,130.5095
88.7095,130.5095
88.7133,130.5133
88.7485,130.5133
88.8206,130.5432
88.8758,130.5984
88.9056,130.6705
88.9056,130.7056
88.9095,130.7095
88.9095,131.9095
88.9056,131.9133
88.9056,131.9485
88.8758,132.0206
88.8206,132.0758
88.7485,132.1056
88.7133,132.1056
88.7095,132.1095
88.1095,132.1095
Z" /> 
</g>
<g style="fill:#000000; fill-opacity:1.0000; stroke:none;">
<circle cx="88.1095" cy="133.8495" r="0.8000" /> 
</g>
<g style="fill:#000000; fill-opacity:1.0000; stroke:none;">
<circle cx="88.1095" cy="136.3895" r="0.8000" /> 
<path style="fill:#000000; fill-opacity:1.0000; stroke:none;fill-rule:evenodd;"
d="M 147.7945,64.3795
149.4945,64.3795
149.4945,66.0795
147.7945,66.0795
Z" /> 
</g>
<g style="fill:#000000; fill-opacity:1.0000; stroke:none;">
<circle cx="146.1045" cy="65.2295" r="0.8500" /> 
<path style="fill:#000000; fill-opacity:1.0000; stroke:none;fill-rule:evenodd;"
d="M 147.9345,109.2595
146.2345,109.2595
146.2345,107.5595
147.9345,107.5595
Z" /> 
</g>
<g style="fill:#000000; fill-opacity:1.0000; stroke:none;">
<circle cx="149.6245" cy="108.4095" r="0.8500" /> 
</g>
<g style="fill:#000000; fill-opacity:1.0000; stroke:none;">
<circle cx="152.1645" cy="108.4095" r="0.8500" /> 
<path style="fill:#000000; fill-opacity:1.0000; stroke:none;fill-rule:evenodd;"
d="M 197.5295,103.5545
195.9295,103.5545
195.9295,101.9545
197.5295,101.9545
Z" /> 
</g>
<g style="fill:#000000; fill-opacity:1.0000; stroke:none;">
<circle cx="196.7295" cy="105.2545" r="0.8000" /> 
</g>
<g style="fill:#000000; fill-opacity:1.0000; stroke:none;">
<circle cx="198.7295" cy="105.2545" r="0.8000" /> 
</g>
<g style="fill:#000000; fill-opacity:1.0000; stroke:none;">
<circle cx="198.7295" cy="102.7545" r="0.8000" /> 
</g>
<g style="fill:#000000; fill-opacity:1.0000; stroke:none;">
<circle cx="201.5895" cy="98.0045" r="2.0000" /> 
</g>
<g style="fill:#000000; fill-opacity:1.0000; stroke:none;">
<circle cx="201.5895" cy="110.0045" r="2.0000" /> 
</g>
<g style="fill:#000000; fill-opacity:1.0000; stroke:none;">
<circle cx="201.0245" cy="132.8595" r="2.8000" /> 
</g>
<g style="fill:#000000; fill-opacity:1.0000; stroke:none;">
<circle cx="120.0245" cy="62.3495" r="1.3020" /> 
</g>
<g style="fill:#000000; fill-opacity:1.0000; stroke:none;">
<circle cx="117.4845" cy="64.8895" r="1.3020" /> 
</g>
<g style="fill:#000000; fill-opacity:1.0000; stroke:none;">
<circle cx="122.5645" cy="64.8895" r="1.3020" /> 
</g>
<g style="fill:#000000; fill-opacity:1.0000; stroke:none;">
<circle cx="122.5645" cy="59.8095" r="1.3020" /> 
</g>
<g style="fill:#000000; fill-opacity:1.0000; stroke:none;">
<circle cx="117.4845" cy="59.8095" r="1.3020" /> 
<path style="fill:#000000; fill-opacity:1.0000; stroke:none;fill-rule:evenodd;"
d="M 169.6370,132.8170
169.6370,134.8420
167.6120,134.8420
167.6120,132.8170
Z" /> 
</g>
<g style="fill:#000000; fill-opacity:1.0000; stroke:none;">
<circle cx="164.8145" cy="133.8295" r="1.0125" /> 
</g>
<g style="fill:#000000; fill-opacity:1.0000; stroke:none;">
<circle cx="161.0045" cy="133.8295" r="1.0125" /> 
<path style="fill:#000000; fill-opacity:1.0000; stroke:none;fill-rule:evenodd;"
d="M 149.6370,132.8170
149.6370,134.8420
147.6120,134.8420
147.6120,132.8170
Z" /> 
</g>
<g style="fill:#000000; fill-opacity:1.0000; stroke:none;">
<circle cx="144.8145" cy="133.8295" r="1.0125" /> 
</g>
<g style="fill:#000000; fill-opacity:1.0000; stroke:none;">
<circle cx="141.0045" cy="133.8295" r="1.0125" /> 
</g>
<g style="fill:#000000; fill-opacity:1.0000; stroke:none;">
<circle cx="81.0245" cy="62.8595" r="2.8000" /> 
</g>
<g style="fill:#000000; fill-opacity:1.0000; stroke:none;">
<circle cx="201.0445" cy="62.9595" r="2.8000" /> 
<path style="fill:#000000; fill-opacity:1.0000; stroke:none;fill-rule:evenodd;"
d="M 201.8045,86.3795
203.9045,86.3795
203.9045,88.4795
201.8045,88.4795
Z" /> 
</g>
<g style="fill:#000000; fill-opacity:1.0000; stroke:none;">
<circle cx="202.8545" cy="91.2395" r="1.0500" /> 
<path style="fill:#000000; fill-opacity:1.0000; stroke:none;fill-rule:evenodd;"
d="M 160.4488,68.7602
160.4488,70.2588
158.9502,70.2588
158.9502,68.7602
Z" /> 
</g>
<g style="fill:#000000; fill-opacity:1.0000; stroke:none;">
<circle cx="153.1995" cy="69.5095" r="0.7493" /> 
</g>
<g style="fill:#000000; fill-opacity:1.0000; stroke:none;">
<circle cx="159.6995" cy="65.0095" r="0.7493" /> 
</g>
<g style="fill:#000000; fill-opacity:1.0000; stroke:none;">
<circle cx="153.1995" cy="65.0095" r="0.7493" /> 
<path style="fill:#000000; fill-opacity:1.0000; stroke:none;fill-rule:evenodd;"
d="M 147.7695,68.0395
149.4695,68.0395
149.4695,69.7395
147.7695,69.7395
Z" /> 
</g>
<g style="fill:#000000; fill-opacity:1.0000; stroke:none;">
<circle cx="146.0795" cy="68.8895" r="0.8500" /> 
<path style="fill:#000000; fill-opacity:1.0000; stroke:none;fill-rule:evenodd;"
d="M 125.8500,130.6000
125.7543,130.5810
125.6732,130.5268
125.6190,130.4457
125.6000,130.3500
125.6000,129.6500
125.6190,129.5543
125.6732,129.4732
125.7543,129.4190
125.8500,129.4000
126.7500,129.4000
126.8457,129.4190
126.9268,129.4732
126.9810,129.5543
127.0000,129.6500
127.0000,130.3500
126.9810,130.4457
126.9268,130.5268
126.8457,130.5810
126.7500,130.6000
Z" /> 
<path style="fill:#000000; fill-opacity:1.0000; stroke:none;fill-rule:evenodd;"
d="M 125.8500,128.6000
125.7543,128.5810
125.6732,128.5268
125.6190,128.4457
125.6000,128.3500
125.6000,127.6500
125.6190,127.5543
125.6732,127.4732
125.7543,127.4190
125.8500,127.4000
126.7500,127.4000
126.8457,127.4190
126.9268,127.4732
126.9810,127.5543
127.0000,127.6500
127.0000,128.3500
126.9810,128.4457
126.9268,128.5268
126.8457,128.5810
126.7500,128.6000
Z" /> 
<path style="fill:#000000; fill-opacity:1.0000; stroke:none;fill-rule:evenodd;"
d="M 186.0500,115.5501
186.1457,115.5692
186.2268,115.6234
186.2810,115.7045
186.3000,115.8001
186.3000,116.6251
186.2810,116.7208
186.2268,116.8019
186.1457,116.8561
186.0500,116.8751
184.7500,116.8751
184.6543,116.8561
184.5732,116.8019
184.5190,116.7208
184.5000,116.6251
184.5000,115.8001
184.5190,115.7045
184.5732,115.6234
184.6543,115.5692
184.7500,115.5501
Z" /> 
<path style="fill:#000000; fill-opacity:1.0000; stroke:none;fill-rule:evenodd;"
d="M 186.0500,118.6751
186.1457,118.6942
186.2268,118.7484
186.2810,118.8295
186.3000,118.9251
186.3000,119.7501
186.2810,119.8458
186.2268,119.9269
186.1457,119.9811
186.0500,120.0001
184.7500,120.0001
184.6543,119.9811
184.5732,119.9269
184.5190,119.8458
184.5000,119.7501
184.5000,118.9251
184.5190,118.8295
184.5732,118.7484
184.6543,118.6942
184.7500,118.6751
Z" /> 
<path style="fill:#000000; fill-opacity:1.0000; stroke:none;fill-rule:evenodd;"
d="M 197.1058,115.2609
197.1058,115.7943
195.2770,115.7943
195.2770,115.2609
Z" /> 
<path style="fill:#000000; fill-opacity:1.0000; stroke:none;fill-rule:evenodd;"
d="M 197.1058,116.5309
197.1058,117.0643
195.2770,117.0643
195.2770,116.5309
Z" /> 
<path style="fill:#000000; fill-opacity:1.0000; stroke:none;fill-rule:evenodd;"
d="M 197.1058,117.8010
197.1058,118.3344
195.2770,118.3344
195.2770,117.8010
Z" /> 
<path style="fill:#000000; fill-opacity:1.0000; stroke:none;fill-rule:evenodd;"
d="M 197.1058,119.0709
197.1058,119.6043
195.2770,119.6043
195.2770,119.0709
Z" /> 
<path style="fill:#000000; fill-opacity:1.0000; stroke:none;fill-rule:evenodd;"
d="M 189.7144,119.0709
189.7144,119.6043
187.8856,119.6043
187.8856,119.0709
Z" /> 
<path style="fill:#000000; fill-opacity:1.0000; stroke:none;fill-rule:evenodd;"
d="M 189.7144,117.8010
189.7144,118.3344
187.8856,118.3344
187.8856,117.8010
Z" /> 
<path style="fill:#000000; fill-opacity:1.0000; stroke:none;fill-rule:evenodd;"
d="M 189.7144,116.5309
189.7144,117.0643
187.8856,117.0643
187.8856,116.5309
Z" /> 
<path style="fill:#000000; fill-opacity:1.0000; stroke:none;fill-rule:evenodd;"
d="M 189.7144,115.2609
189.7144,115.7943
187.8856,115.7943
187.8856,115.2609
Z" /> 
<path style="fill:#000000; fill-opacity:1.0000; stroke:none;fill-rule:evenodd;"
d="M 200.5500,115.9751
200.6457,115.9942
200.7268,116.0484
200.7810,116.1295
200.8000,116.2251
200.8000,117.0501
200.7810,117.1458
200.7268,117.2269
200.6457,117.2811
200.5500,117.3001
199.2500,117.3001
199.1543,117.2811
199.0732,117.2269
199.0190,117.1458
199.0000,117.0501
199.0000,116.2251
199.0190,116.1295
199.0732,116.0484
199.1543,115.9942
199.2500,115.9751
Z" /> 
<path style="fill:#000000; fill-opacity:1.0000; stroke:none;fill-rule:evenodd;"
d="M 200.5500,119.1001
200.6457,119.1192
200.7268,119.1734
200.7810,119.2545
200.8000,119.3501
200.8000,120.1751
200.7810,120.2708
200.7268,120.3519
200.6457,120.4061
200.5500,120.4251
199.2500,120.4251
199.1543,120.4061
199.0732,120.3519
199.0190,120.2708
199.0000,120.1751
199.0000,119.3501
199.0190,119.2545
199.0732,119.1734
199.1543,119.1192
199.2500,119.1001
Z" /> 
<path style="fill:#000000; fill-opacity:1.0000; stroke:none;fill-rule:evenodd;"
d="M 188.1125,111.9876
188.1315,111.8920
188.1857,111.8109
188.2668,111.7567
188.3625,111.7376
189.1875,111.7376
189.2832,111.7567
189.3643,111.8109
189.4185,111.8920
189.4375,111.9876
189.4375,113.2876
189.4185,113.3833
189.3643,113.4644
189.2832,113.5186
189.1875,113.5376
188.3625,113.5376
188.2668,113.5186
188.1857,113.4644
188.1315,113.3833
188.1125,113.2876
Z" /> 
<path style="fill:#000000; fill-opacity:1.0000; stroke:none;fill-rule:evenodd;"
d="M 191.2375,111.9876
191.2565,111.8920
191.3107,111.8109
191.3918,111.7567
191.4875,111.7376
192.3125,111.7376
192.4082,111.7567
192.4893,111.8109
192.5435,111.8920
192.5625,111.9876
192.5625,113.2876
192.5435,113.3833
192.4893,113.4644
192.4082,113.5186
192.3125,113.5376
191.4875,113.5376
191.3918,113.5186
191.3107,113.4644
191.2565,113.3833
191.2375,113.2876
Z" /> 
<path style="fill:#000000; fill-opacity:1.0000; stroke:none;fill-rule:evenodd;"
d="M 123.8500,130.6000
123.7543,130.5810
123.6732,130.5268
123.6190,130.4457
123.6000,130.3500
123.6000,129.6500
123.6190,129.5543
123.6732,129.4732
123.7543,129.4190
123.8500,129.4000
124.7500,129.4000
124.8457,129.4190
124.9268,129.4732
124.9810,129.5543
125.0000,129.6500
125.0000,130.3500
124.9810,130.4457
124.9268,130.5268
124.8457,130.5810
124.7500,130.6000
Z" /> 
<path style="fill:#000000; fill-opacity:1.0000; stroke:none;fill-rule:evenodd;"
d="M 123.8500,128.6000
123.7543,128.5810
123.6732,128.5268
123.6190,128.4457
123.6000,128.3500
123.6000,127.6500
123.6190,127.5543
123.6732,127.4732
123.7543,127.4190
123.8500,127.4000
124.7500,127.4000
124.8457,127.4190
124.9268,127.4732
124.9810,127.5543
125.0000,127.6500
125.0000,128.3500
124.9810,128.4457
124.9268,128.5268
124.8457,128.5810
124.7500,128.6000
Z" /> 
</g> 
</svg>
