<?xml version="1.0" standalone="no"?>
 <!DOCTYPE svg PUBLIC "-//W3C//DTD SVG 1.1//EN" 
 "http://www.w3.org/Graphics/SVG/1.1/DTD/svg11.dtd"> 
<svg
  xmlns:svg="http://www.w3.org/2000/svg"
  xmlns="http://www.w3.org/2000/svg"
  xmlns:xlink="http://www.w3.org/1999/xlink"
  version="1.1"
  width="297.0022mm" height="210.0072mm" viewBox="0.0000 0.0000 297.0022 210.0072">
<title>SVG Image created as LoRa Water Quality Management System Sensor Node-B_Silkscreen.svg date 2025/11/23 13:52:41 </title>
  <desc>Image generated by PCBNEW </desc>
<g style="fill:#000000; fill-opacity:1.0000;stroke:#000000; stroke-opacity:1.0000;
stroke-linecap:round; stroke-linejoin:round;"
 transform="translate(0 0) scale(1 1)">
</g>
<g style="fill:none; 
stroke:#000000; stroke-width:0.1000; stroke-opacity:1; 
stroke-linecap:round; stroke-linejoin:round;">
<text x="194.8000" y="133.6000"
transform="scale(-1 1) translate(-389.600000 0)"
textLength="21.7491" font-size="0.8533" lengthAdjust="spacingAndGlyphs"
text-anchor="start" opacity="0" stroke-opacity="0">Powered by magic smoke - do not release.</text>
<g class="stroked-text"><desc>Powered by magic smoke - do not release.</desc>
<path d="M194.5818 133.5165
L194.5818 132.8765
" />
<path d="M194.5818 132.8765
L194.3380 132.8765
" />
<path d="M194.3380 132.8765
L194.2771 132.9070
" />
<path d="M194.2771 132.9070
L194.2466 132.9374
" />
<path d="M194.2466 132.9374
L194.2161 132.9984
" />
<path d="M194.2161 132.9984
L194.2161 133.0898
" />
<path d="M194.2161 133.0898
L194.2466 133.1508
" />
<path d="M194.2466 133.1508
L194.2771 133.1812
" />
<path d="M194.2771 133.1812
L194.3380 133.2117
" />
<path d="M194.3380 133.2117
L194.5818 133.2117
" />
<path d="M193.8504 133.5165
L193.9114 133.4860
" />
<path d="M193.9114 133.4860
L193.9418 133.4555
" />
<path d="M193.9418 133.4555
L193.9723 133.3946
" />
<path d="M193.9723 133.3946
L193.9723 133.2117
" />
<path d="M193.9723 133.2117
L193.9418 133.1508
" />
<path d="M193.9418 133.1508
L193.9114 133.1203
" />
<path d="M193.9114 133.1203
L193.8504 133.0898
" />
<path d="M193.8504 133.0898
L193.7590 133.0898
" />
<path d="M193.7590 133.0898
L193.6980 133.1203
" />
<path d="M193.6980 133.1203
L193.6675 133.1508
" />
<path d="M193.6675 133.1508
L193.6371 133.2117
" />
<path d="M193.6371 133.2117
L193.6371 133.3946
" />
<path d="M193.6371 133.3946
L193.6675 133.4555
" />
<path d="M193.6675 133.4555
L193.6980 133.4860
" />
<path d="M193.6980 133.4860
L193.7590 133.5165
" />
<path d="M193.7590 133.5165
L193.8504 133.5165
" />
<path d="M193.4237 133.0898
L193.3018 133.5165
" />
<path d="M193.3018 133.5165
L193.1799 133.2117
" />
<path d="M193.1799 133.2117
L193.0580 133.5165
" />
<path d="M193.0580 133.5165
L192.9361 133.0898
" />
<path d="M192.4485 133.4860
L192.5094 133.5165
" />
<path d="M192.5094 133.5165
L192.6314 133.5165
" />
<path d="M192.6314 133.5165
L192.6923 133.4860
" />
<path d="M192.6923 133.4860
L192.7228 133.4250
" />
<path d="M192.7228 133.4250
L192.7228 133.1812
" />
<path d="M192.7228 133.1812
L192.6923 133.1203
" />
<path d="M192.6923 133.1203
L192.6314 133.0898
" />
<path d="M192.6314 133.0898
L192.5094 133.0898
" />
<path d="M192.5094 133.0898
L192.4485 133.1203
" />
<path d="M192.4485 133.1203
L192.4180 133.1812
" />
<path d="M192.4180 133.1812
L192.4180 133.2422
" />
<path d="M192.4180 133.2422
L192.7228 133.3031
" />
<path d="M192.1437 133.5165
L192.1437 133.0898
" />
<path d="M192.1437 133.2117
L192.1133 133.1508
" />
<path d="M192.1133 133.1508
L192.0828 133.1203
" />
<path d="M192.0828 133.1203
L192.0218 133.0898
" />
<path d="M192.0218 133.0898
L191.9609 133.0898
" />
<path d="M191.5037 133.4860
L191.5647 133.5165
" />
<path d="M191.5647 133.5165
L191.6866 133.5165
" />
<path d="M191.6866 133.5165
L191.7475 133.4860
" />
<path d="M191.7475 133.4860
L191.7780 133.4250
" />
<path d="M191.7780 133.4250
L191.7780 133.1812
" />
<path d="M191.7780 133.1812
L191.7475 133.1203
" />
<path d="M191.7475 133.1203
L191.6866 133.0898
" />
<path d="M191.6866 133.0898
L191.5647 133.0898
" />
<path d="M191.5647 133.0898
L191.5037 133.1203
" />
<path d="M191.5037 133.1203
L191.4733 133.1812
" />
<path d="M191.4733 133.1812
L191.4733 133.2422
" />
<path d="M191.4733 133.2422
L191.7780 133.3031
" />
<path d="M190.9247 133.5165
L190.9247 132.8765
" />
<path d="M190.9247 133.4860
L190.9856 133.5165
" />
<path d="M190.9856 133.5165
L191.1075 133.5165
" />
<path d="M191.1075 133.5165
L191.1685 133.4860
" />
<path d="M191.1685 133.4860
L191.1990 133.4555
" />
<path d="M191.1990 133.4555
L191.2294 133.3946
" />
<path d="M191.2294 133.3946
L191.2294 133.2117
" />
<path d="M191.2294 133.2117
L191.1990 133.1508
" />
<path d="M191.1990 133.1508
L191.1685 133.1203
" />
<path d="M191.1685 133.1203
L191.1075 133.0898
" />
<path d="M191.1075 133.0898
L190.9856 133.0898
" />
<path d="M190.9856 133.0898
L190.9247 133.1203
" />
<path d="M190.1323 133.5165
L190.1323 132.8765
" />
<path d="M190.1323 133.1203
L190.0714 133.0898
" />
<path d="M190.0714 133.0898
L189.9494 133.0898
" />
<path d="M189.9494 133.0898
L189.8885 133.1203
" />
<path d="M189.8885 133.1203
L189.8580 133.1508
" />
<path d="M189.8580 133.1508
L189.8275 133.2117
" />
<path d="M189.8275 133.2117
L189.8275 133.3946
" />
<path d="M189.8275 133.3946
L189.8580 133.4555
" />
<path d="M189.8580 133.4555
L189.8885 133.4860
" />
<path d="M189.8885 133.4860
L189.9494 133.5165
" />
<path d="M189.9494 133.5165
L190.0714 133.5165
" />
<path d="M190.0714 133.5165
L190.1323 133.4860
" />
<path d="M189.6142 133.0898
L189.4618 133.5165
" />
<path d="M189.3094 133.0898
L189.4618 133.5165
" />
<path d="M189.4618 133.5165
L189.5228 133.6689
" />
<path d="M189.5228 133.6689
L189.5533 133.6993
" />
<path d="M189.5533 133.6993
L189.6142 133.7298
" />
<path d="M188.5780 133.5165
L188.5780 133.0898
" />
<path d="M188.5780 133.1508
L188.5475 133.1203
" />
<path d="M188.5475 133.1203
L188.4866 133.0898
" />
<path d="M188.4866 133.0898
L188.3952 133.0898
" />
<path d="M188.3952 133.0898
L188.3342 133.1203
" />
<path d="M188.3342 133.1203
L188.3037 133.1812
" />
<path d="M188.3037 133.1812
L188.3037 133.5165
" />
<path d="M188.3037 133.1812
L188.2733 133.1203
" />
<path d="M188.2733 133.1203
L188.2123 133.0898
" />
<path d="M188.2123 133.0898
L188.1209 133.0898
" />
<path d="M188.1209 133.0898
L188.0599 133.1203
" />
<path d="M188.0599 133.1203
L188.0294 133.1812
" />
<path d="M188.0294 133.1812
L188.0294 133.5165
" />
<path d="M187.4504 133.5165
L187.4504 133.1812
" />
<path d="M187.4504 133.1812
L187.4809 133.1203
" />
<path d="M187.4809 133.1203
L187.5418 133.0898
" />
<path d="M187.5418 133.0898
L187.6637 133.0898
" />
<path d="M187.6637 133.0898
L187.7247 133.1203
" />
<path d="M187.4504 133.4860
L187.5114 133.5165
" />
<path d="M187.5114 133.5165
L187.6637 133.5165
" />
<path d="M187.6637 133.5165
L187.7247 133.4860
" />
<path d="M187.7247 133.4860
L187.7552 133.4250
" />
<path d="M187.7552 133.4250
L187.7552 133.3641
" />
<path d="M187.7552 133.3641
L187.7247 133.3031
" />
<path d="M187.7247 133.3031
L187.6637 133.2727
" />
<path d="M187.6637 133.2727
L187.5114 133.2727
" />
<path d="M187.5114 133.2727
L187.4504 133.2422
" />
<path d="M186.8714 133.0898
L186.8714 133.6079
" />
<path d="M186.8714 133.6079
L186.9018 133.6689
" />
<path d="M186.9018 133.6689
L186.9323 133.6993
" />
<path d="M186.9323 133.6993
L186.9933 133.7298
" />
<path d="M186.9933 133.7298
L187.0847 133.7298
" />
<path d="M187.0847 133.7298
L187.1456 133.6993
" />
<path d="M186.8714 133.4860
L186.9323 133.5165
" />
<path d="M186.9323 133.5165
L187.0542 133.5165
" />
<path d="M187.0542 133.5165
L187.1152 133.4860
" />
<path d="M187.1152 133.4860
L187.1456 133.4555
" />
<path d="M187.1456 133.4555
L187.1761 133.3946
" />
<path d="M187.1761 133.3946
L187.1761 133.2117
" />
<path d="M187.1761 133.2117
L187.1456 133.1508
" />
<path d="M187.1456 133.1508
L187.1152 133.1203
" />
<path d="M187.1152 133.1203
L187.0542 133.0898
" />
<path d="M187.0542 133.0898
L186.9323 133.0898
" />
<path d="M186.9323 133.0898
L186.8714 133.1203
" />
<path d="M186.5666 133.5165
L186.5666 133.0898
" />
<path d="M186.5666 132.8765
L186.5971 132.9070
" />
<path d="M186.5971 132.9070
L186.5666 132.9374
" />
<path d="M186.5666 132.9374
L186.5361 132.9070
" />
<path d="M186.5361 132.9070
L186.5666 132.8765
" />
<path d="M186.5666 132.8765
L186.5666 132.9374
" />
<path d="M185.9875 133.4860
L186.0485 133.5165
" />
<path d="M186.0485 133.5165
L186.1704 133.5165
" />
<path d="M186.1704 133.5165
L186.2314 133.4860
" />
<path d="M186.2314 133.4860
L186.2618 133.4555
" />
<path d="M186.2618 133.4555
L186.2923 133.3946
" />
<path d="M186.2923 133.3946
L186.2923 133.2117
" />
<path d="M186.2923 133.2117
L186.2618 133.1508
" />
<path d="M186.2618 133.1508
L186.2314 133.1203
" />
<path d="M186.2314 133.1203
L186.1704 133.0898
" />
<path d="M186.1704 133.0898
L186.0485 133.0898
" />
<path d="M186.0485 133.0898
L185.9875 133.1203
" />
<path d="M185.2561 133.4860
L185.1952 133.5165
" />
<path d="M185.1952 133.5165
L185.0733 133.5165
" />
<path d="M185.0733 133.5165
L185.0123 133.4860
" />
<path d="M185.0123 133.4860
L184.9818 133.4250
" />
<path d="M184.9818 133.4250
L184.9818 133.3946
" />
<path d="M184.9818 133.3946
L185.0123 133.3336
" />
<path d="M185.0123 133.3336
L185.0733 133.3031
" />
<path d="M185.0733 133.3031
L185.1647 133.3031
" />
<path d="M185.1647 133.3031
L185.2256 133.2727
" />
<path d="M185.2256 133.2727
L185.2561 133.2117
" />
<path d="M185.2561 133.2117
L185.2561 133.1812
" />
<path d="M185.2561 133.1812
L185.2256 133.1203
" />
<path d="M185.2256 133.1203
L185.1647 133.0898
" />
<path d="M185.1647 133.0898
L185.0733 133.0898
" />
<path d="M185.0733 133.0898
L185.0123 133.1203
" />
<path d="M184.7075 133.5165
L184.7075 133.0898
" />
<path d="M184.7075 133.1508
L184.6771 133.1203
" />
<path d="M184.6771 133.1203
L184.6161 133.0898
" />
<path d="M184.6161 133.0898
L184.5247 133.0898
" />
<path d="M184.5247 133.0898
L184.4637 133.1203
" />
<path d="M184.4637 133.1203
L184.4333 133.1812
" />
<path d="M184.4333 133.1812
L184.4333 133.5165
" />
<path d="M184.4333 133.1812
L184.4028 133.1203
" />
<path d="M184.4028 133.1203
L184.3418 133.0898
" />
<path d="M184.3418 133.0898
L184.2504 133.0898
" />
<path d="M184.2504 133.0898
L184.1894 133.1203
" />
<path d="M184.1894 133.1203
L184.1590 133.1812
" />
<path d="M184.1590 133.1812
L184.1590 133.5165
" />
<path d="M183.7628 133.5165
L183.8237 133.4860
" />
<path d="M183.8237 133.4860
L183.8542 133.4555
" />
<path d="M183.8542 133.4555
L183.8847 133.3946
" />
<path d="M183.8847 133.3946
L183.8847 133.2117
" />
<path d="M183.8847 133.2117
L183.8542 133.1508
" />
<path d="M183.8542 133.1508
L183.8237 133.1203
" />
<path d="M183.8237 133.1203
L183.7628 133.0898
" />
<path d="M183.7628 133.0898
L183.6714 133.0898
" />
<path d="M183.6714 133.0898
L183.6104 133.1203
" />
<path d="M183.6104 133.1203
L183.5799 133.1508
" />
<path d="M183.5799 133.1508
L183.5494 133.2117
" />
<path d="M183.5494 133.2117
L183.5494 133.3946
" />
<path d="M183.5494 133.3946
L183.5799 133.4555
" />
<path d="M183.5799 133.4555
L183.6104 133.4860
" />
<path d="M183.6104 133.4860
L183.6714 133.5165
" />
<path d="M183.6714 133.5165
L183.7628 133.5165
" />
<path d="M183.2752 133.5165
L183.2752 132.8765
" />
<path d="M183.2142 133.2727
L183.0314 133.5165
" />
<path d="M183.0314 133.0898
L183.2752 133.3336
" />
<path d="M182.5133 133.4860
L182.5742 133.5165
" />
<path d="M182.5742 133.5165
L182.6961 133.5165
" />
<path d="M182.6961 133.5165
L182.7571 133.4860
" />
<path d="M182.7571 133.4860
L182.7875 133.4250
" />
<path d="M182.7875 133.4250
L182.7875 133.1812
" />
<path d="M182.7875 133.1812
L182.7571 133.1203
" />
<path d="M182.7571 133.1203
L182.6961 133.0898
" />
<path d="M182.6961 133.0898
L182.5742 133.0898
" />
<path d="M182.5742 133.0898
L182.5133 133.1203
" />
<path d="M182.5133 133.1203
L182.4828 133.1812
" />
<path d="M182.4828 133.1812
L182.4828 133.2422
" />
<path d="M182.4828 133.2422
L182.7875 133.3031
" />
<path d="M181.7209 133.2727
L181.2333 133.2727
" />
<path d="M180.1666 133.5165
L180.1666 132.8765
" />
<path d="M180.1666 133.4860
L180.2275 133.5165
" />
<path d="M180.2275 133.5165
L180.3494 133.5165
" />
<path d="M180.3494 133.5165
L180.4104 133.4860
" />
<path d="M180.4104 133.4860
L180.4409 133.4555
" />
<path d="M180.4409 133.4555
L180.4714 133.3946
" />
<path d="M180.4714 133.3946
L180.4714 133.2117
" />
<path d="M180.4714 133.2117
L180.4409 133.1508
" />
<path d="M180.4409 133.1508
L180.4104 133.1203
" />
<path d="M180.4104 133.1203
L180.3494 133.0898
" />
<path d="M180.3494 133.0898
L180.2275 133.0898
" />
<path d="M180.2275 133.0898
L180.1666 133.1203
" />
<path d="M179.7704 133.5165
L179.8314 133.4860
" />
<path d="M179.8314 133.4860
L179.8618 133.4555
" />
<path d="M179.8618 133.4555
L179.8923 133.3946
" />
<path d="M179.8923 133.3946
L179.8923 133.2117
" />
<path d="M179.8923 133.2117
L179.8618 133.1508
" />
<path d="M179.8618 133.1508
L179.8314 133.1203
" />
<path d="M179.8314 133.1203
L179.7704 133.0898
" />
<path d="M179.7704 133.0898
L179.6790 133.0898
" />
<path d="M179.6790 133.0898
L179.6180 133.1203
" />
<path d="M179.6180 133.1203
L179.5875 133.1508
" />
<path d="M179.5875 133.1508
L179.5571 133.2117
" />
<path d="M179.5571 133.2117
L179.5571 133.3946
" />
<path d="M179.5571 133.3946
L179.5875 133.4555
" />
<path d="M179.5875 133.4555
L179.6180 133.4860
" />
<path d="M179.6180 133.4860
L179.6790 133.5165
" />
<path d="M179.6790 133.5165
L179.7704 133.5165
" />
<path d="M178.7952 133.0898
L178.7952 133.5165
" />
<path d="M178.7952 133.1508
L178.7647 133.1203
" />
<path d="M178.7647 133.1203
L178.7037 133.0898
" />
<path d="M178.7037 133.0898
L178.6123 133.0898
" />
<path d="M178.6123 133.0898
L178.5514 133.1203
" />
<path d="M178.5514 133.1203
L178.5209 133.1812
" />
<path d="M178.5209 133.1812
L178.5209 133.5165
" />
<path d="M178.1247 133.5165
L178.1856 133.4860
" />
<path d="M178.1856 133.4860
L178.2161 133.4555
" />
<path d="M178.2161 133.4555
L178.2466 133.3946
" />
<path d="M178.2466 133.3946
L178.2466 133.2117
" />
<path d="M178.2466 133.2117
L178.2161 133.1508
" />
<path d="M178.2161 133.1508
L178.1856 133.1203
" />
<path d="M178.1856 133.1203
L178.1247 133.0898
" />
<path d="M178.1247 133.0898
L178.0333 133.0898
" />
<path d="M178.0333 133.0898
L177.9723 133.1203
" />
<path d="M177.9723 133.1203
L177.9418 133.1508
" />
<path d="M177.9418 133.1508
L177.9114 133.2117
" />
<path d="M177.9114 133.2117
L177.9114 133.3946
" />
<path d="M177.9114 133.3946
L177.9418 133.4555
" />
<path d="M177.9418 133.4555
L177.9723 133.4860
" />
<path d="M177.9723 133.4860
L178.0333 133.5165
" />
<path d="M178.0333 133.5165
L178.1247 133.5165
" />
<path d="M177.7285 133.0898
L177.4847 133.0898
" />
<path d="M177.6371 132.8765
L177.6371 133.4250
" />
<path d="M177.6371 133.4250
L177.6066 133.4860
" />
<path d="M177.6066 133.4860
L177.5456 133.5165
" />
<path d="M177.5456 133.5165
L177.4847 133.5165
" />
<path d="M176.7837 133.5165
L176.7837 133.0898
" />
<path d="M176.7837 133.2117
L176.7533 133.1508
" />
<path d="M176.7533 133.1508
L176.7228 133.1203
" />
<path d="M176.7228 133.1203
L176.6618 133.0898
" />
<path d="M176.6618 133.0898
L176.6009 133.0898
" />
<path d="M176.1437 133.4860
L176.2047 133.5165
" />
<path d="M176.2047 133.5165
L176.3266 133.5165
" />
<path d="M176.3266 133.5165
L176.3875 133.4860
" />
<path d="M176.3875 133.4860
L176.4180 133.4250
" />
<path d="M176.4180 133.4250
L176.4180 133.1812
" />
<path d="M176.4180 133.1812
L176.3875 133.1203
" />
<path d="M176.3875 133.1203
L176.3266 133.0898
" />
<path d="M176.3266 133.0898
L176.2047 133.0898
" />
<path d="M176.2047 133.0898
L176.1437 133.1203
" />
<path d="M176.1437 133.1203
L176.1133 133.1812
" />
<path d="M176.1133 133.1812
L176.1133 133.2422
" />
<path d="M176.1133 133.2422
L176.4180 133.3031
" />
<path d="M175.7475 133.5165
L175.8085 133.4860
" />
<path d="M175.8085 133.4860
L175.8390 133.4250
" />
<path d="M175.8390 133.4250
L175.8390 132.8765
" />
<path d="M175.2599 133.4860
L175.3209 133.5165
" />
<path d="M175.3209 133.5165
L175.4428 133.5165
" />
<path d="M175.4428 133.5165
L175.5037 133.4860
" />
<path d="M175.5037 133.4860
L175.5342 133.4250
" />
<path d="M175.5342 133.4250
L175.5342 133.1812
" />
<path d="M175.5342 133.1812
L175.5037 133.1203
" />
<path d="M175.5037 133.1203
L175.4428 133.0898
" />
<path d="M175.4428 133.0898
L175.3209 133.0898
" />
<path d="M175.3209 133.0898
L175.2599 133.1203
" />
<path d="M175.2599 133.1203
L175.2294 133.1812
" />
<path d="M175.2294 133.1812
L175.2294 133.2422
" />
<path d="M175.2294 133.2422
L175.5342 133.3031
" />
<path d="M174.6809 133.5165
L174.6809 133.1812
" />
<path d="M174.6809 133.1812
L174.7114 133.1203
" />
<path d="M174.7114 133.1203
L174.7723 133.0898
" />
<path d="M174.7723 133.0898
L174.8942 133.0898
" />
<path d="M174.8942 133.0898
L174.9552 133.1203
" />
<path d="M174.6809 133.4860
L174.7418 133.5165
" />
<path d="M174.7418 133.5165
L174.8942 133.5165
" />
<path d="M174.8942 133.5165
L174.9552 133.4860
" />
<path d="M174.9552 133.4860
L174.9856 133.4250
" />
<path d="M174.9856 133.4250
L174.9856 133.3641
" />
<path d="M174.9856 133.3641
L174.9552 133.3031
" />
<path d="M174.9552 133.3031
L174.8942 133.2727
" />
<path d="M174.8942 133.2727
L174.7418 133.2727
" />
<path d="M174.7418 133.2727
L174.6809 133.2422
" />
<path d="M174.4066 133.4860
L174.3456 133.5165
" />
<path d="M174.3456 133.5165
L174.2237 133.5165
" />
<path d="M174.2237 133.5165
L174.1628 133.4860
" />
<path d="M174.1628 133.4860
L174.1323 133.4250
" />
<path d="M174.1323 133.4250
L174.1323 133.3946
" />
<path d="M174.1323 133.3946
L174.1628 133.3336
" />
<path d="M174.1628 133.3336
L174.2237 133.3031
" />
<path d="M174.2237 133.3031
L174.3152 133.3031
" />
<path d="M174.3152 133.3031
L174.3761 133.2727
" />
<path d="M174.3761 133.2727
L174.4066 133.2117
" />
<path d="M174.4066 133.2117
L174.4066 133.1812
" />
<path d="M174.4066 133.1812
L174.3761 133.1203
" />
<path d="M174.3761 133.1203
L174.3152 133.0898
" />
<path d="M174.3152 133.0898
L174.2237 133.0898
" />
<path d="M174.2237 133.0898
L174.1628 133.1203
" />
<path d="M173.6142 133.4860
L173.6752 133.5165
" />
<path d="M173.6752 133.5165
L173.7971 133.5165
" />
<path d="M173.7971 133.5165
L173.8580 133.4860
" />
<path d="M173.8580 133.4860
L173.8885 133.4250
" />
<path d="M173.8885 133.4250
L173.8885 133.1812
" />
<path d="M173.8885 133.1812
L173.8580 133.1203
" />
<path d="M173.8580 133.1203
L173.7971 133.0898
" />
<path d="M173.7971 133.0898
L173.6752 133.0898
" />
<path d="M173.6752 133.0898
L173.6142 133.1203
" />
<path d="M173.6142 133.1203
L173.5837 133.1812
" />
<path d="M173.5837 133.1812
L173.5837 133.2422
" />
<path d="M173.5837 133.2422
L173.8885 133.3031
" />
<path d="M173.3095 133.4555
L173.2790 133.4860
" />
<path d="M173.2790 133.4860
L173.3095 133.5165
" />
<path d="M173.3095 133.5165
L173.3399 133.4860
" />
<path d="M173.3399 133.4860
L173.3095 133.4555
" />
<path d="M173.3095 133.4555
L173.3095 133.5165
" />
</g></g>
<g style="fill:none; 
stroke:#000000; stroke-width:0.2500; stroke-opacity:1; 
stroke-linecap:round; stroke-linejoin:round;">
<text x="137.0545" y="78.5795"
transform="scale(-1 1) translate(-274.108948 0)"
textLength="15.6833" font-size="2.6667" lengthAdjust="spacingAndGlyphs"
text-anchor="start" opacity="0" stroke-opacity="0">Rev 1.3/A</text>
<g class="stroked-text"><desc>Rev 1.3/A</desc>
<path d="M135.2710 78.3217
L135.9376 77.3693
" />
<path d="M136.4138 78.3217
L136.4138 76.3217
" />
<path d="M136.4138 76.3217
L135.6519 76.3217
" />
<path d="M135.6519 76.3217
L135.4614 76.4169
" />
<path d="M135.4614 76.4169
L135.3662 76.5122
" />
<path d="M135.3662 76.5122
L135.2710 76.7027
" />
<path d="M135.2710 76.7027
L135.2710 76.9884
" />
<path d="M135.2710 76.9884
L135.3662 77.1789
" />
<path d="M135.3662 77.1789
L135.4614 77.2741
" />
<path d="M135.4614 77.2741
L135.6519 77.3693
" />
<path d="M135.6519 77.3693
L136.4138 77.3693
" />
<path d="M133.6519 78.2265
L133.8424 78.3217
" />
<path d="M133.8424 78.3217
L134.2233 78.3217
" />
<path d="M134.2233 78.3217
L134.4138 78.2265
" />
<path d="M134.4138 78.2265
L134.5090 78.0360
" />
<path d="M134.5090 78.0360
L134.5090 77.2741
" />
<path d="M134.5090 77.2741
L134.4138 77.0836
" />
<path d="M134.4138 77.0836
L134.2233 76.9884
" />
<path d="M134.2233 76.9884
L133.8424 76.9884
" />
<path d="M133.8424 76.9884
L133.6519 77.0836
" />
<path d="M133.6519 77.0836
L133.5567 77.2741
" />
<path d="M133.5567 77.2741
L133.5567 77.4646
" />
<path d="M133.5567 77.4646
L134.5090 77.6550
" />
<path d="M132.8900 76.9884
L132.4138 78.3217
" />
<path d="M132.4138 78.3217
L131.9376 76.9884
" />
<path d="M128.6043 78.3217
L129.7471 78.3217
" />
<path d="M129.1757 78.3217
L129.1757 76.3217
" />
<path d="M129.1757 76.3217
L129.3662 76.6074
" />
<path d="M129.3662 76.6074
L129.5567 76.7979
" />
<path d="M129.5567 76.7979
L129.7471 76.8931
" />
<path d="M127.7471 78.1312
L127.6519 78.2265
" />
<path d="M127.6519 78.2265
L127.7471 78.3217
" />
<path d="M127.7471 78.3217
L127.8424 78.2265
" />
<path d="M127.8424 78.2265
L127.7471 78.1312
" />
<path d="M127.7471 78.1312
L127.7471 78.3217
" />
<path d="M126.9852 76.3217
L125.7471 76.3217
" />
<path d="M125.7471 76.3217
L126.4138 77.0836
" />
<path d="M126.4138 77.0836
L126.1281 77.0836
" />
<path d="M126.1281 77.0836
L125.9376 77.1789
" />
<path d="M125.9376 77.1789
L125.8424 77.2741
" />
<path d="M125.8424 77.2741
L125.7471 77.4646
" />
<path d="M125.7471 77.4646
L125.7471 77.9408
" />
<path d="M125.7471 77.9408
L125.8424 78.1312
" />
<path d="M125.8424 78.1312
L125.9376 78.2265
" />
<path d="M125.9376 78.2265
L126.1281 78.3217
" />
<path d="M126.1281 78.3217
L126.6995 78.3217
" />
<path d="M126.6995 78.3217
L126.8900 78.2265
" />
<path d="M126.8900 78.2265
L126.9852 78.1312
" />
<path d="M123.4614 76.2265
L125.1757 78.7979
" />
<path d="M122.8900 77.7503
L121.9376 77.7503
" />
<path d="M123.0805 78.3217
L122.4138 76.3217
" />
<path d="M122.4138 76.3217
L121.7471 78.3217
" />
</g><text x="197.0245" y="64.4395"
transform="scale(-1 1) translate(-394.048948 0)"
textLength="19.4929" font-size="2.6667" lengthAdjust="spacingAndGlyphs"
text-anchor="start" opacity="0" stroke-opacity="0">LWQMS Node</text>
<g class="stroked-text"><desc>LWQMS Node</desc>
<path d="M195.4314 64.1817
L196.3838 64.1817
" />
<path d="M196.3838 64.1817
L196.3838 62.1817
" />
<path d="M194.9552 62.1817
L194.4790 64.1817
" />
<path d="M194.4790 64.1817
L194.0981 62.7531
" />
<path d="M194.0981 62.7531
L193.7171 64.1817
" />
<path d="M193.7171 64.1817
L193.2410 62.1817
" />
<path d="M191.1457 64.3722
L191.3362 64.2769
" />
<path d="M191.3362 64.2769
L191.5267 64.0865
" />
<path d="M191.5267 64.0865
L191.8124 63.8008
" />
<path d="M191.8124 63.8008
L192.0029 63.7055
" />
<path d="M192.0029 63.7055
L192.1933 63.7055
" />
<path d="M192.0981 64.1817
L192.2886 64.0865
" />
<path d="M192.2886 64.0865
L192.4790 63.8960
" />
<path d="M192.4790 63.8960
L192.5743 63.5150
" />
<path d="M192.5743 63.5150
L192.5743 62.8484
" />
<path d="M192.5743 62.8484
L192.4790 62.4674
" />
<path d="M192.4790 62.4674
L192.2886 62.2769
" />
<path d="M192.2886 62.2769
L192.0981 62.1817
" />
<path d="M192.0981 62.1817
L191.7171 62.1817
" />
<path d="M191.7171 62.1817
L191.5267 62.2769
" />
<path d="M191.5267 62.2769
L191.3362 62.4674
" />
<path d="M191.3362 62.4674
L191.2410 62.8484
" />
<path d="M191.2410 62.8484
L191.2410 63.5150
" />
<path d="M191.2410 63.5150
L191.3362 63.8960
" />
<path d="M191.3362 63.8960
L191.5267 64.0865
" />
<path d="M191.5267 64.0865
L191.7171 64.1817
" />
<path d="M191.7171 64.1817
L192.0981 64.1817
" />
<path d="M190.3838 64.1817
L190.3838 62.1817
" />
<path d="M190.3838 62.1817
L189.7171 63.6103
" />
<path d="M189.7171 63.6103
L189.0505 62.1817
" />
<path d="M189.0505 62.1817
L189.0505 64.1817
" />
<path d="M188.1933 64.0865
L187.9076 64.1817
" />
<path d="M187.9076 64.1817
L187.4314 64.1817
" />
<path d="M187.4314 64.1817
L187.2410 64.0865
" />
<path d="M187.2410 64.0865
L187.1457 63.9912
" />
<path d="M187.1457 63.9912
L187.0505 63.8008
" />
<path d="M187.0505 63.8008
L187.0505 63.6103
" />
<path d="M187.0505 63.6103
L187.1457 63.4198
" />
<path d="M187.1457 63.4198
L187.2410 63.3246
" />
<path d="M187.2410 63.3246
L187.4314 63.2293
" />
<path d="M187.4314 63.2293
L187.8124 63.1341
" />
<path d="M187.8124 63.1341
L188.0029 63.0388
" />
<path d="M188.0029 63.0388
L188.0981 62.9436
" />
<path d="M188.0981 62.9436
L188.1933 62.7531
" />
<path d="M188.1933 62.7531
L188.1933 62.5627
" />
<path d="M188.1933 62.5627
L188.0981 62.3722
" />
<path d="M188.0981 62.3722
L188.0029 62.2769
" />
<path d="M188.0029 62.2769
L187.8124 62.1817
" />
<path d="M187.8124 62.1817
L187.3362 62.1817
" />
<path d="M187.3362 62.1817
L187.0505 62.2769
" />
<path d="M184.6695 64.1817
L184.6695 62.1817
" />
<path d="M184.6695 62.1817
L183.5267 64.1817
" />
<path d="M183.5267 64.1817
L183.5267 62.1817
" />
<path d="M182.2886 64.1817
L182.4790 64.0865
" />
<path d="M182.4790 64.0865
L182.5743 63.9912
" />
<path d="M182.5743 63.9912
L182.6695 63.8008
" />
<path d="M182.6695 63.8008
L182.6695 63.2293
" />
<path d="M182.6695 63.2293
L182.5743 63.0388
" />
<path d="M182.5743 63.0388
L182.4790 62.9436
" />
<path d="M182.4790 62.9436
L182.2886 62.8484
" />
<path d="M182.2886 62.8484
L182.0029 62.8484
" />
<path d="M182.0029 62.8484
L181.8124 62.9436
" />
<path d="M181.8124 62.9436
L181.7171 63.0388
" />
<path d="M181.7171 63.0388
L181.6219 63.2293
" />
<path d="M181.6219 63.2293
L181.6219 63.8008
" />
<path d="M181.6219 63.8008
L181.7171 63.9912
" />
<path d="M181.7171 63.9912
L181.8124 64.0865
" />
<path d="M181.8124 64.0865
L182.0029 64.1817
" />
<path d="M182.0029 64.1817
L182.2886 64.1817
" />
<path d="M179.9076 64.1817
L179.9076 62.1817
" />
<path d="M179.9076 64.0865
L180.0981 64.1817
" />
<path d="M180.0981 64.1817
L180.4790 64.1817
" />
<path d="M180.4790 64.1817
L180.6695 64.0865
" />
<path d="M180.6695 64.0865
L180.7648 63.9912
" />
<path d="M180.7648 63.9912
L180.8600 63.8008
" />
<path d="M180.8600 63.8008
L180.8600 63.2293
" />
<path d="M180.8600 63.2293
L180.7648 63.0388
" />
<path d="M180.7648 63.0388
L180.6695 62.9436
" />
<path d="M180.6695 62.9436
L180.4790 62.8484
" />
<path d="M180.4790 62.8484
L180.0981 62.8484
" />
<path d="M180.0981 62.8484
L179.9076 62.9436
" />
<path d="M178.1933 64.0865
L178.3838 64.1817
" />
<path d="M178.3838 64.1817
L178.7648 64.1817
" />
<path d="M178.7648 64.1817
L178.9552 64.0865
" />
<path d="M178.9552 64.0865
L179.0505 63.8960
" />
<path d="M179.0505 63.8960
L179.0505 63.1341
" />
<path d="M179.0505 63.1341
L178.9552 62.9436
" />
<path d="M178.9552 62.9436
L178.7648 62.8484
" />
<path d="M178.7648 62.8484
L178.3838 62.8484
" />
<path d="M178.3838 62.8484
L178.1933 62.9436
" />
<path d="M178.1933 62.9436
L178.0981 63.1341
" />
<path d="M178.0981 63.1341
L178.0981 63.3246
" />
<path d="M178.0981 63.3246
L179.0505 63.5150
" />
</g></g>
<g style="fill:none; 
stroke:#000000; stroke-width:0.1875; stroke-opacity:1; 
stroke-linecap:round; stroke-linejoin:round;">
<text x="196.9745" y="68.8647"
transform="scale(-1 1) translate(-393.948940 0)"
textLength="14.4768" font-size="2.0000" lengthAdjust="spacingAndGlyphs"
text-anchor="start" opacity="0" stroke-opacity="0">Yet another </text>
<g class="stroked-text"><desc>Yet another </desc>
<path d="M196.2083 67.9571
L196.2083 68.6714
" />
<path d="M196.7083 67.1714
L196.2083 67.9571
" />
<path d="M196.2083 67.9571
L195.7083 67.1714
" />
<path d="M194.6368 68.6000
L194.7797 68.6714
" />
<path d="M194.7797 68.6714
L195.0654 68.6714
" />
<path d="M195.0654 68.6714
L195.2083 68.6000
" />
<path d="M195.2083 68.6000
L195.2797 68.4571
" />
<path d="M195.2797 68.4571
L195.2797 67.8857
" />
<path d="M195.2797 67.8857
L195.2083 67.7428
" />
<path d="M195.2083 67.7428
L195.0654 67.6714
" />
<path d="M195.0654 67.6714
L194.7797 67.6714
" />
<path d="M194.7797 67.6714
L194.6368 67.7428
" />
<path d="M194.6368 67.7428
L194.5654 67.8857
" />
<path d="M194.5654 67.8857
L194.5654 68.0285
" />
<path d="M194.5654 68.0285
L195.2797 68.1714
" />
<path d="M194.1368 67.6714
L193.5654 67.6714
" />
<path d="M193.9225 67.1714
L193.9225 68.4571
" />
<path d="M193.9225 68.4571
L193.8511 68.6000
" />
<path d="M193.8511 68.6000
L193.7083 68.6714
" />
<path d="M193.7083 68.6714
L193.5654 68.6714
" />
<path d="M191.2797 68.6714
L191.2797 67.8857
" />
<path d="M191.2797 67.8857
L191.3511 67.7428
" />
<path d="M191.3511 67.7428
L191.4940 67.6714
" />
<path d="M191.4940 67.6714
L191.7797 67.6714
" />
<path d="M191.7797 67.6714
L191.9225 67.7428
" />
<path d="M191.2797 68.6000
L191.4225 68.6714
" />
<path d="M191.4225 68.6714
L191.7797 68.6714
" />
<path d="M191.7797 68.6714
L191.9225 68.6000
" />
<path d="M191.9225 68.6000
L191.9940 68.4571
" />
<path d="M191.9940 68.4571
L191.9940 68.3143
" />
<path d="M191.9940 68.3143
L191.9225 68.1714
" />
<path d="M191.9225 68.1714
L191.7797 68.1000
" />
<path d="M191.7797 68.1000
L191.4225 68.1000
" />
<path d="M191.4225 68.1000
L191.2797 68.0285
" />
<path d="M190.5654 67.6714
L190.5654 68.6714
" />
<path d="M190.5654 67.8143
L190.4940 67.7428
" />
<path d="M190.4940 67.7428
L190.3511 67.6714
" />
<path d="M190.3511 67.6714
L190.1368 67.6714
" />
<path d="M190.1368 67.6714
L189.9940 67.7428
" />
<path d="M189.9940 67.7428
L189.9225 67.8857
" />
<path d="M189.9225 67.8857
L189.9225 68.6714
" />
<path d="M188.9940 68.6714
L189.1368 68.6000
" />
<path d="M189.1368 68.6000
L189.2083 68.5285
" />
<path d="M189.2083 68.5285
L189.2797 68.3857
" />
<path d="M189.2797 68.3857
L189.2797 67.9571
" />
<path d="M189.2797 67.9571
L189.2083 67.8143
" />
<path d="M189.2083 67.8143
L189.1368 67.7428
" />
<path d="M189.1368 67.7428
L188.9940 67.6714
" />
<path d="M188.9940 67.6714
L188.7797 67.6714
" />
<path d="M188.7797 67.6714
L188.6368 67.7428
" />
<path d="M188.6368 67.7428
L188.5654 67.8143
" />
<path d="M188.5654 67.8143
L188.4940 67.9571
" />
<path d="M188.4940 67.9571
L188.4940 68.3857
" />
<path d="M188.4940 68.3857
L188.5654 68.5285
" />
<path d="M188.5654 68.5285
L188.6368 68.6000
" />
<path d="M188.6368 68.6000
L188.7797 68.6714
" />
<path d="M188.7797 68.6714
L188.9940 68.6714
" />
<path d="M188.0654 67.6714
L187.4940 67.6714
" />
<path d="M187.8511 67.1714
L187.8511 68.4571
" />
<path d="M187.8511 68.4571
L187.7797 68.6000
" />
<path d="M187.7797 68.6000
L187.6368 68.6714
" />
<path d="M187.6368 68.6714
L187.4940 68.6714
" />
<path d="M186.9940 68.6714
L186.9940 67.1714
" />
<path d="M186.3511 68.6714
L186.3511 67.8857
" />
<path d="M186.3511 67.8857
L186.4225 67.7428
" />
<path d="M186.4225 67.7428
L186.5654 67.6714
" />
<path d="M186.5654 67.6714
L186.7797 67.6714
" />
<path d="M186.7797 67.6714
L186.9225 67.7428
" />
<path d="M186.9225 67.7428
L186.9940 67.8143
" />
<path d="M185.0654 68.6000
L185.2083 68.6714
" />
<path d="M185.2083 68.6714
L185.4940 68.6714
" />
<path d="M185.4940 68.6714
L185.6368 68.6000
" />
<path d="M185.6368 68.6000
L185.7083 68.4571
" />
<path d="M185.7083 68.4571
L185.7083 67.8857
" />
<path d="M185.7083 67.8857
L185.6368 67.7428
" />
<path d="M185.6368 67.7428
L185.4940 67.6714
" />
<path d="M185.4940 67.6714
L185.2083 67.6714
" />
<path d="M185.2083 67.6714
L185.0654 67.7428
" />
<path d="M185.0654 67.7428
L184.9940 67.8857
" />
<path d="M184.9940 67.8857
L184.9940 68.0285
" />
<path d="M184.9940 68.0285
L185.7083 68.1714
" />
<path d="M184.3511 68.6714
L184.3511 67.6714
" />
<path d="M184.3511 67.9571
L184.2797 67.8143
" />
<path d="M184.2797 67.8143
L184.2083 67.7428
" />
<path d="M184.2083 67.7428
L184.0654 67.6714
" />
<path d="M184.0654 67.6714
L183.9225 67.6714
" />
</g><text x="196.9745" y="71.2796"
transform="scale(-1 1) translate(-393.948940 0)"
textLength="31.2625" font-size="2.0000" lengthAdjust="spacingAndGlyphs"
text-anchor="start" opacity="0" stroke-opacity="0">groundbreaking project by </text>
<g class="stroked-text"><desc>groundbreaking project by </desc>
<path d="M195.8511 70.0863
L195.8511 71.3006
" />
<path d="M195.8511 71.3006
L195.9225 71.4435
" />
<path d="M195.9225 71.4435
L195.9940 71.5149
" />
<path d="M195.9940 71.5149
L196.1368 71.5863
" />
<path d="M196.1368 71.5863
L196.3511 71.5863
" />
<path d="M196.3511 71.5863
L196.4940 71.5149
" />
<path d="M195.8511 71.0149
L195.9940 71.0863
" />
<path d="M195.9940 71.0863
L196.2797 71.0863
" />
<path d="M196.2797 71.0863
L196.4225 71.0149
" />
<path d="M196.4225 71.0149
L196.4940 70.9435
" />
<path d="M196.4940 70.9435
L196.5654 70.8006
" />
<path d="M196.5654 70.8006
L196.5654 70.3720
" />
<path d="M196.5654 70.3720
L196.4940 70.2292
" />
<path d="M196.4940 70.2292
L196.4225 70.1577
" />
<path d="M196.4225 70.1577
L196.2797 70.0863
" />
<path d="M196.2797 70.0863
L195.9940 70.0863
" />
<path d="M195.9940 70.0863
L195.8511 70.1577
" />
<path d="M195.1368 71.0863
L195.1368 70.0863
" />
<path d="M195.1368 70.3720
L195.0654 70.2292
" />
<path d="M195.0654 70.2292
L194.9940 70.1577
" />
<path d="M194.9940 70.1577
L194.8511 70.0863
" />
<path d="M194.8511 70.0863
L194.7083 70.0863
" />
<path d="M193.9940 71.0863
L194.1368 71.0149
" />
<path d="M194.1368 71.0149
L194.2083 70.9435
" />
<path d="M194.2083 70.9435
L194.2797 70.8006
" />
<path d="M194.2797 70.8006
L194.2797 70.3720
" />
<path d="M194.2797 70.3720
L194.2083 70.2292
" />
<path d="M194.2083 70.2292
L194.1368 70.1577
" />
<path d="M194.1368 70.1577
L193.9940 70.0863
" />
<path d="M193.9940 70.0863
L193.7797 70.0863
" />
<path d="M193.7797 70.0863
L193.6368 70.1577
" />
<path d="M193.6368 70.1577
L193.5654 70.2292
" />
<path d="M193.5654 70.2292
L193.4940 70.3720
" />
<path d="M193.4940 70.3720
L193.4940 70.8006
" />
<path d="M193.4940 70.8006
L193.5654 70.9435
" />
<path d="M193.5654 70.9435
L193.6368 71.0149
" />
<path d="M193.6368 71.0149
L193.7797 71.0863
" />
<path d="M193.7797 71.0863
L193.9940 71.0863
" />
<path d="M192.2083 70.0863
L192.2083 71.0863
" />
<path d="M192.8511 70.0863
L192.8511 70.8720
" />
<path d="M192.8511 70.8720
L192.7797 71.0149
" />
<path d="M192.7797 71.0149
L192.6368 71.0863
" />
<path d="M192.6368 71.0863
L192.4225 71.0863
" />
<path d="M192.4225 71.0863
L192.2797 71.0149
" />
<path d="M192.2797 71.0149
L192.2083 70.9435
" />
<path d="M191.4940 70.0863
L191.4940 71.0863
" />
<path d="M191.4940 70.2292
L191.4225 70.1577
" />
<path d="M191.4225 70.1577
L191.2797 70.0863
" />
<path d="M191.2797 70.0863
L191.0654 70.0863
" />
<path d="M191.0654 70.0863
L190.9225 70.1577
" />
<path d="M190.9225 70.1577
L190.8511 70.3006
" />
<path d="M190.8511 70.3006
L190.8511 71.0863
" />
<path d="M189.4940 71.0863
L189.4940 69.5863
" />
<path d="M189.4940 71.0149
L189.6368 71.0863
" />
<path d="M189.6368 71.0863
L189.9225 71.0863
" />
<path d="M189.9225 71.0863
L190.0654 71.0149
" />
<path d="M190.0654 71.0149
L190.1368 70.9435
" />
<path d="M190.1368 70.9435
L190.2083 70.8006
" />
<path d="M190.2083 70.8006
L190.2083 70.3720
" />
<path d="M190.2083 70.3720
L190.1368 70.2292
" />
<path d="M190.1368 70.2292
L190.0654 70.1577
" />
<path d="M190.0654 70.1577
L189.9225 70.0863
" />
<path d="M189.9225 70.0863
L189.6368 70.0863
" />
<path d="M189.6368 70.0863
L189.4940 70.1577
" />
<path d="M188.7797 71.0863
L188.7797 69.5863
" />
<path d="M188.7797 70.1577
L188.6368 70.0863
" />
<path d="M188.6368 70.0863
L188.3511 70.0863
" />
<path d="M188.3511 70.0863
L188.2083 70.1577
" />
<path d="M188.2083 70.1577
L188.1368 70.2292
" />
<path d="M188.1368 70.2292
L188.0654 70.3720
" />
<path d="M188.0654 70.3720
L188.0654 70.8006
" />
<path d="M188.0654 70.8006
L188.1368 70.9435
" />
<path d="M188.1368 70.9435
L188.2083 71.0149
" />
<path d="M188.2083 71.0149
L188.3511 71.0863
" />
<path d="M188.3511 71.0863
L188.6368 71.0863
" />
<path d="M188.6368 71.0863
L188.7797 71.0149
" />
<path d="M187.4225 71.0863
L187.4225 70.0863
" />
<path d="M187.4225 70.3720
L187.3511 70.2292
" />
<path d="M187.3511 70.2292
L187.2797 70.1577
" />
<path d="M187.2797 70.1577
L187.1368 70.0863
" />
<path d="M187.1368 70.0863
L186.9940 70.0863
" />
<path d="M185.9225 71.0149
L186.0654 71.0863
" />
<path d="M186.0654 71.0863
L186.3511 71.0863
" />
<path d="M186.3511 71.0863
L186.4940 71.0149
" />
<path d="M186.4940 71.0149
L186.5654 70.8720
" />
<path d="M186.5654 70.8720
L186.5654 70.3006
" />
<path d="M186.5654 70.3006
L186.4940 70.1577
" />
<path d="M186.4940 70.1577
L186.3511 70.0863
" />
<path d="M186.3511 70.0863
L186.0654 70.0863
" />
<path d="M186.0654 70.0863
L185.9225 70.1577
" />
<path d="M185.9225 70.1577
L185.8511 70.3006
" />
<path d="M185.8511 70.3006
L185.8511 70.4435
" />
<path d="M185.8511 70.4435
L186.5654 70.5863
" />
<path d="M184.5654 71.0863
L184.5654 70.3006
" />
<path d="M184.5654 70.3006
L184.6368 70.1577
" />
<path d="M184.6368 70.1577
L184.7797 70.0863
" />
<path d="M184.7797 70.0863
L185.0654 70.0863
" />
<path d="M185.0654 70.0863
L185.2083 70.1577
" />
<path d="M184.5654 71.0149
L184.7083 71.0863
" />
<path d="M184.7083 71.0863
L185.0654 71.0863
" />
<path d="M185.0654 71.0863
L185.2083 71.0149
" />
<path d="M185.2083 71.0149
L185.2797 70.8720
" />
<path d="M185.2797 70.8720
L185.2797 70.7292
" />
<path d="M185.2797 70.7292
L185.2083 70.5863
" />
<path d="M185.2083 70.5863
L185.0654 70.5149
" />
<path d="M185.0654 70.5149
L184.7083 70.5149
" />
<path d="M184.7083 70.5149
L184.5654 70.4435
" />
<path d="M183.8511 71.0863
L183.8511 69.5863
" />
<path d="M183.7083 70.5149
L183.2797 71.0863
" />
<path d="M183.2797 70.0863
L183.8511 70.6577
" />
<path d="M182.6368 71.0863
L182.6368 70.0863
" />
<path d="M182.6368 69.5863
L182.7083 69.6577
" />
<path d="M182.7083 69.6577
L182.6368 69.7292
" />
<path d="M182.6368 69.7292
L182.5654 69.6577
" />
<path d="M182.5654 69.6577
L182.6368 69.5863
" />
<path d="M182.6368 69.5863
L182.6368 69.7292
" />
<path d="M181.9225 70.0863
L181.9225 71.0863
" />
<path d="M181.9225 70.2292
L181.8511 70.1577
" />
<path d="M181.8511 70.1577
L181.7083 70.0863
" />
<path d="M181.7083 70.0863
L181.4940 70.0863
" />
<path d="M181.4940 70.0863
L181.3511 70.1577
" />
<path d="M181.3511 70.1577
L181.2797 70.3006
" />
<path d="M181.2797 70.3006
L181.2797 71.0863
" />
<path d="M179.9225 70.0863
L179.9225 71.3006
" />
<path d="M179.9225 71.3006
L179.9940 71.4435
" />
<path d="M179.9940 71.4435
L180.0654 71.5149
" />
<path d="M180.0654 71.5149
L180.2083 71.5863
" />
<path d="M180.2083 71.5863
L180.4225 71.5863
" />
<path d="M180.4225 71.5863
L180.5654 71.5149
" />
<path d="M179.9225 71.0149
L180.0654 71.0863
" />
<path d="M180.0654 71.0863
L180.3511 71.0863
" />
<path d="M180.3511 71.0863
L180.4940 71.0149
" />
<path d="M180.4940 71.0149
L180.5654 70.9435
" />
<path d="M180.5654 70.9435
L180.6368 70.8006
" />
<path d="M180.6368 70.8006
L180.6368 70.3720
" />
<path d="M180.6368 70.3720
L180.5654 70.2292
" />
<path d="M180.5654 70.2292
L180.4940 70.1577
" />
<path d="M180.4940 70.1577
L180.3511 70.0863
" />
<path d="M180.3511 70.0863
L180.0654 70.0863
" />
<path d="M180.0654 70.0863
L179.9225 70.1577
" />
<path d="M178.0654 70.0863
L178.0654 71.5863
" />
<path d="M178.0654 70.1577
L177.9225 70.0863
" />
<path d="M177.9225 70.0863
L177.6368 70.0863
" />
<path d="M177.6368 70.0863
L177.4940 70.1577
" />
<path d="M177.4940 70.1577
L177.4225 70.2292
" />
<path d="M177.4225 70.2292
L177.3511 70.3720
" />
<path d="M177.3511 70.3720
L177.3511 70.8006
" />
<path d="M177.3511 70.8006
L177.4225 70.9435
" />
<path d="M177.4225 70.9435
L177.4940 71.0149
" />
<path d="M177.4940 71.0149
L177.6368 71.0863
" />
<path d="M177.6368 71.0863
L177.9225 71.0863
" />
<path d="M177.9225 71.0863
L178.0654 71.0149
" />
<path d="M176.7083 71.0863
L176.7083 70.0863
" />
<path d="M176.7083 70.3720
L176.6368 70.2292
" />
<path d="M176.6368 70.2292
L176.5654 70.1577
" />
<path d="M176.5654 70.1577
L176.4225 70.0863
" />
<path d="M176.4225 70.0863
L176.2797 70.0863
" />
<path d="M175.5654 71.0863
L175.7083 71.0149
" />
<path d="M175.7083 71.0149
L175.7797 70.9435
" />
<path d="M175.7797 70.9435
L175.8511 70.8006
" />
<path d="M175.8511 70.8006
L175.8511 70.3720
" />
<path d="M175.8511 70.3720
L175.7797 70.2292
" />
<path d="M175.7797 70.2292
L175.7083 70.1577
" />
<path d="M175.7083 70.1577
L175.5654 70.0863
" />
<path d="M175.5654 70.0863
L175.3511 70.0863
" />
<path d="M175.3511 70.0863
L175.2083 70.1577
" />
<path d="M175.2083 70.1577
L175.1368 70.2292
" />
<path d="M175.1368 70.2292
L175.0654 70.3720
" />
<path d="M175.0654 70.3720
L175.0654 70.8006
" />
<path d="M175.0654 70.8006
L175.1368 70.9435
" />
<path d="M175.1368 70.9435
L175.2083 71.0149
" />
<path d="M175.2083 71.0149
L175.3511 71.0863
" />
<path d="M175.3511 71.0863
L175.5654 71.0863
" />
<path d="M174.4225 70.0863
L174.4225 71.3720
" />
<path d="M174.4225 71.3720
L174.4940 71.5149
" />
<path d="M174.4940 71.5149
L174.6368 71.5863
" />
<path d="M174.6368 71.5863
L174.7083 71.5863
" />
<path d="M174.4225 69.5863
L174.4940 69.6577
" />
<path d="M174.4940 69.6577
L174.4225 69.7292
" />
<path d="M174.4225 69.7292
L174.3511 69.6577
" />
<path d="M174.3511 69.6577
L174.4225 69.5863
" />
<path d="M174.4225 69.5863
L174.4225 69.7292
" />
<path d="M173.1368 71.0149
L173.2797 71.0863
" />
<path d="M173.2797 71.0863
L173.5654 71.0863
" />
<path d="M173.5654 71.0863
L173.7083 71.0149
" />
<path d="M173.7083 71.0149
L173.7797 70.8720
" />
<path d="M173.7797 70.8720
L173.7797 70.3006
" />
<path d="M173.7797 70.3006
L173.7083 70.1577
" />
<path d="M173.7083 70.1577
L173.5654 70.0863
" />
<path d="M173.5654 70.0863
L173.2797 70.0863
" />
<path d="M173.2797 70.0863
L173.1368 70.1577
" />
<path d="M173.1368 70.1577
L173.0654 70.3006
" />
<path d="M173.0654 70.3006
L173.0654 70.4435
" />
<path d="M173.0654 70.4435
L173.7797 70.5863
" />
<path d="M171.7797 71.0149
L171.9225 71.0863
" />
<path d="M171.9225 71.0863
L172.2083 71.0863
" />
<path d="M172.2083 71.0863
L172.3511 71.0149
" />
<path d="M172.3511 71.0149
L172.4225 70.9435
" />
<path d="M172.4225 70.9435
L172.4940 70.8006
" />
<path d="M172.4940 70.8006
L172.4940 70.3720
" />
<path d="M172.4940 70.3720
L172.4225 70.2292
" />
<path d="M172.4225 70.2292
L172.3511 70.1577
" />
<path d="M172.3511 70.1577
L172.2083 70.0863
" />
<path d="M172.2083 70.0863
L171.9225 70.0863
" />
<path d="M171.9225 70.0863
L171.7797 70.1577
" />
<path d="M171.3511 70.0863
L170.7797 70.0863
" />
<path d="M171.1368 69.5863
L171.1368 70.8720
" />
<path d="M171.1368 70.8720
L171.0654 71.0149
" />
<path d="M171.0654 71.0149
L170.9225 71.0863
" />
<path d="M170.9225 71.0863
L170.7797 71.0863
" />
<path d="M169.1368 71.0863
L169.1368 69.5863
" />
<path d="M169.1368 70.1577
L168.9940 70.0863
" />
<path d="M168.9940 70.0863
L168.7083 70.0863
" />
<path d="M168.7083 70.0863
L168.5654 70.1577
" />
<path d="M168.5654 70.1577
L168.4940 70.2292
" />
<path d="M168.4940 70.2292
L168.4225 70.3720
" />
<path d="M168.4225 70.3720
L168.4225 70.8006
" />
<path d="M168.4225 70.8006
L168.4940 70.9435
" />
<path d="M168.4940 70.9435
L168.5654 71.0149
" />
<path d="M168.5654 71.0149
L168.7083 71.0863
" />
<path d="M168.7083 71.0863
L168.9940 71.0863
" />
<path d="M168.9940 71.0863
L169.1368 71.0149
" />
<path d="M167.9225 70.0863
L167.5654 71.0863
" />
<path d="M167.2083 70.0863
L167.5654 71.0863
" />
<path d="M167.5654 71.0863
L167.7083 71.4435
" />
<path d="M167.7083 71.4435
L167.7797 71.5149
" />
<path d="M167.7797 71.5149
L167.9225 71.5863
" />
</g><text x="196.9745" y="73.6946"
transform="scale(-1 1) translate(-393.948940 0)"
textLength="34.1196" font-size="2.0000" lengthAdjust="spacingAndGlyphs"
text-anchor="start" opacity="0" stroke-opacity="0">Matthew Sharp, Cole Hadley, </text>
<g class="stroked-text"><desc>Matthew Sharp, Cole Hadley, </desc>
<path d="M196.4940 73.5012
L196.4940 72.0012
" />
<path d="M196.4940 72.0012
L195.9940 73.0727
" />
<path d="M195.9940 73.0727
L195.4940 72.0012
" />
<path d="M195.4940 72.0012
L195.4940 73.5012
" />
<path d="M194.1368 73.5012
L194.1368 72.7155
" />
<path d="M194.1368 72.7155
L194.2083 72.5727
" />
<path d="M194.2083 72.5727
L194.3511 72.5012
" />
<path d="M194.3511 72.5012
L194.6368 72.5012
" />
<path d="M194.6368 72.5012
L194.7797 72.5727
" />
<path d="M194.1368 73.4298
L194.2797 73.5012
" />
<path d="M194.2797 73.5012
L194.6368 73.5012
" />
<path d="M194.6368 73.5012
L194.7797 73.4298
" />
<path d="M194.7797 73.4298
L194.8511 73.2869
" />
<path d="M194.8511 73.2869
L194.8511 73.1441
" />
<path d="M194.8511 73.1441
L194.7797 73.0012
" />
<path d="M194.7797 73.0012
L194.6368 72.9298
" />
<path d="M194.6368 72.9298
L194.2797 72.9298
" />
<path d="M194.2797 72.9298
L194.1368 72.8584
" />
<path d="M193.6368 72.5012
L193.0654 72.5012
" />
<path d="M193.4225 72.0012
L193.4225 73.2869
" />
<path d="M193.4225 73.2869
L193.3511 73.4298
" />
<path d="M193.3511 73.4298
L193.2083 73.5012
" />
<path d="M193.2083 73.5012
L193.0654 73.5012
" />
<path d="M192.7797 72.5012
L192.2083 72.5012
" />
<path d="M192.5654 72.0012
L192.5654 73.2869
" />
<path d="M192.5654 73.2869
L192.4940 73.4298
" />
<path d="M192.4940 73.4298
L192.3511 73.5012
" />
<path d="M192.3511 73.5012
L192.2083 73.5012
" />
<path d="M191.7083 73.5012
L191.7083 72.0012
" />
<path d="M191.0654 73.5012
L191.0654 72.7155
" />
<path d="M191.0654 72.7155
L191.1368 72.5727
" />
<path d="M191.1368 72.5727
L191.2797 72.5012
" />
<path d="M191.2797 72.5012
L191.4940 72.5012
" />
<path d="M191.4940 72.5012
L191.6368 72.5727
" />
<path d="M191.6368 72.5727
L191.7083 72.6441
" />
<path d="M189.7797 73.4298
L189.9225 73.5012
" />
<path d="M189.9225 73.5012
L190.2083 73.5012
" />
<path d="M190.2083 73.5012
L190.3511 73.4298
" />
<path d="M190.3511 73.4298
L190.4225 73.2869
" />
<path d="M190.4225 73.2869
L190.4225 72.7155
" />
<path d="M190.4225 72.7155
L190.3511 72.5727
" />
<path d="M190.3511 72.5727
L190.2083 72.5012
" />
<path d="M190.2083 72.5012
L189.9225 72.5012
" />
<path d="M189.9225 72.5012
L189.7797 72.5727
" />
<path d="M189.7797 72.5727
L189.7083 72.7155
" />
<path d="M189.7083 72.7155
L189.7083 72.8584
" />
<path d="M189.7083 72.8584
L190.4225 73.0012
" />
<path d="M189.2083 72.5012
L188.9225 73.5012
" />
<path d="M188.9225 73.5012
L188.6368 72.7869
" />
<path d="M188.6368 72.7869
L188.3511 73.5012
" />
<path d="M188.3511 73.5012
L188.0654 72.5012
" />
<path d="M186.4225 73.4298
L186.2083 73.5012
" />
<path d="M186.2083 73.5012
L185.8511 73.5012
" />
<path d="M185.8511 73.5012
L185.7083 73.4298
" />
<path d="M185.7083 73.4298
L185.6368 73.3584
" />
<path d="M185.6368 73.3584
L185.5654 73.2155
" />
<path d="M185.5654 73.2155
L185.5654 73.0727
" />
<path d="M185.5654 73.0727
L185.6368 72.9298
" />
<path d="M185.6368 72.9298
L185.7083 72.8584
" />
<path d="M185.7083 72.8584
L185.8511 72.7869
" />
<path d="M185.8511 72.7869
L186.1368 72.7155
" />
<path d="M186.1368 72.7155
L186.2797 72.6441
" />
<path d="M186.2797 72.6441
L186.3511 72.5727
" />
<path d="M186.3511 72.5727
L186.4225 72.4298
" />
<path d="M186.4225 72.4298
L186.4225 72.2869
" />
<path d="M186.4225 72.2869
L186.3511 72.1441
" />
<path d="M186.3511 72.1441
L186.2797 72.0727
" />
<path d="M186.2797 72.0727
L186.1368 72.0012
" />
<path d="M186.1368 72.0012
L185.7797 72.0012
" />
<path d="M185.7797 72.0012
L185.5654 72.0727
" />
<path d="M184.9225 73.5012
L184.9225 72.0012
" />
<path d="M184.2797 73.5012
L184.2797 72.7155
" />
<path d="M184.2797 72.7155
L184.3511 72.5727
" />
<path d="M184.3511 72.5727
L184.4940 72.5012
" />
<path d="M184.4940 72.5012
L184.7083 72.5012
" />
<path d="M184.7083 72.5012
L184.8511 72.5727
" />
<path d="M184.8511 72.5727
L184.9225 72.6441
" />
<path d="M182.9225 73.5012
L182.9225 72.7155
" />
<path d="M182.9225 72.7155
L182.9940 72.5727
" />
<path d="M182.9940 72.5727
L183.1368 72.5012
" />
<path d="M183.1368 72.5012
L183.4225 72.5012
" />
<path d="M183.4225 72.5012
L183.5654 72.5727
" />
<path d="M182.9225 73.4298
L183.0654 73.5012
" />
<path d="M183.0654 73.5012
L183.4225 73.5012
" />
<path d="M183.4225 73.5012
L183.5654 73.4298
" />
<path d="M183.5654 73.4298
L183.6368 73.2869
" />
<path d="M183.6368 73.2869
L183.6368 73.1441
" />
<path d="M183.6368 73.1441
L183.5654 73.0012
" />
<path d="M183.5654 73.0012
L183.4225 72.9298
" />
<path d="M183.4225 72.9298
L183.0654 72.9298
" />
<path d="M183.0654 72.9298
L182.9225 72.8584
" />
<path d="M182.2083 73.5012
L182.2083 72.5012
" />
<path d="M182.2083 72.7869
L182.1368 72.6441
" />
<path d="M182.1368 72.6441
L182.0654 72.5727
" />
<path d="M182.0654 72.5727
L181.9225 72.5012
" />
<path d="M181.9225 72.5012
L181.7797 72.5012
" />
<path d="M181.2797 72.5012
L181.2797 74.0012
" />
<path d="M181.2797 72.5727
L181.1368 72.5012
" />
<path d="M181.1368 72.5012
L180.8511 72.5012
" />
<path d="M180.8511 72.5012
L180.7083 72.5727
" />
<path d="M180.7083 72.5727
L180.6368 72.6441
" />
<path d="M180.6368 72.6441
L180.5654 72.7869
" />
<path d="M180.5654 72.7869
L180.5654 73.2155
" />
<path d="M180.5654 73.2155
L180.6368 73.3584
" />
<path d="M180.6368 73.3584
L180.7083 73.4298
" />
<path d="M180.7083 73.4298
L180.8511 73.5012
" />
<path d="M180.8511 73.5012
L181.1368 73.5012
" />
<path d="M181.1368 73.5012
L181.2797 73.4298
" />
<path d="M179.8511 73.4298
L179.8511 73.5012
" />
<path d="M179.8511 73.5012
L179.9225 73.6441
" />
<path d="M179.9225 73.6441
L179.9940 73.7155
" />
<path d="M177.2083 73.3584
L177.2797 73.4298
" />
<path d="M177.2797 73.4298
L177.4940 73.5012
" />
<path d="M177.4940 73.5012
L177.6368 73.5012
" />
<path d="M177.6368 73.5012
L177.8511 73.4298
" />
<path d="M177.8511 73.4298
L177.9940 73.2869
" />
<path d="M177.9940 73.2869
L178.0654 73.1441
" />
<path d="M178.0654 73.1441
L178.1368 72.8584
" />
<path d="M178.1368 72.8584
L178.1368 72.6441
" />
<path d="M178.1368 72.6441
L178.0654 72.3584
" />
<path d="M178.0654 72.3584
L177.9940 72.2155
" />
<path d="M177.9940 72.2155
L177.8511 72.0727
" />
<path d="M177.8511 72.0727
L177.6368 72.0012
" />
<path d="M177.6368 72.0012
L177.4940 72.0012
" />
<path d="M177.4940 72.0012
L177.2797 72.0727
" />
<path d="M177.2797 72.0727
L177.2083 72.1441
" />
<path d="M176.3511 73.5012
L176.4940 73.4298
" />
<path d="M176.4940 73.4298
L176.5654 73.3584
" />
<path d="M176.5654 73.3584
L176.6368 73.2155
" />
<path d="M176.6368 73.2155
L176.6368 72.7869
" />
<path d="M176.6368 72.7869
L176.5654 72.6441
" />
<path d="M176.5654 72.6441
L176.4940 72.5727
" />
<path d="M176.4940 72.5727
L176.3511 72.5012
" />
<path d="M176.3511 72.5012
L176.1368 72.5012
" />
<path d="M176.1368 72.5012
L175.9940 72.5727
" />
<path d="M175.9940 72.5727
L175.9225 72.6441
" />
<path d="M175.9225 72.6441
L175.8511 72.7869
" />
<path d="M175.8511 72.7869
L175.8511 73.2155
" />
<path d="M175.8511 73.2155
L175.9225 73.3584
" />
<path d="M175.9225 73.3584
L175.9940 73.4298
" />
<path d="M175.9940 73.4298
L176.1368 73.5012
" />
<path d="M176.1368 73.5012
L176.3511 73.5012
" />
<path d="M174.9940 73.5012
L175.1368 73.4298
" />
<path d="M175.1368 73.4298
L175.2083 73.2869
" />
<path d="M175.2083 73.2869
L175.2083 72.0012
" />
<path d="M173.8511 73.4298
L173.9940 73.5012
" />
<path d="M173.9940 73.5012
L174.2797 73.5012
" />
<path d="M174.2797 73.5012
L174.4225 73.4298
" />
<path d="M174.4225 73.4298
L174.4940 73.2869
" />
<path d="M174.4940 73.2869
L174.4940 72.7155
" />
<path d="M174.4940 72.7155
L174.4225 72.5727
" />
<path d="M174.4225 72.5727
L174.2797 72.5012
" />
<path d="M174.2797 72.5012
L173.9940 72.5012
" />
<path d="M173.9940 72.5012
L173.8511 72.5727
" />
<path d="M173.8511 72.5727
L173.7797 72.7155
" />
<path d="M173.7797 72.7155
L173.7797 72.8584
" />
<path d="M173.7797 72.8584
L174.4940 73.0012
" />
<path d="M171.9940 73.5012
L171.9940 72.0012
" />
<path d="M171.9940 72.7155
L171.1368 72.7155
" />
<path d="M171.1368 73.5012
L171.1368 72.0012
" />
<path d="M169.7797 73.5012
L169.7797 72.7155
" />
<path d="M169.7797 72.7155
L169.8511 72.5727
" />
<path d="M169.8511 72.5727
L169.9940 72.5012
" />
<path d="M169.9940 72.5012
L170.2797 72.5012
" />
<path d="M170.2797 72.5012
L170.4225 72.5727
" />
<path d="M169.7797 73.4298
L169.9225 73.5012
" />
<path d="M169.9225 73.5012
L170.2797 73.5012
" />
<path d="M170.2797 73.5012
L170.4225 73.4298
" />
<path d="M170.4225 73.4298
L170.4940 73.2869
" />
<path d="M170.4940 73.2869
L170.4940 73.1441
" />
<path d="M170.4940 73.1441
L170.4225 73.0012
" />
<path d="M170.4225 73.0012
L170.2797 72.9298
" />
<path d="M170.2797 72.9298
L169.9225 72.9298
" />
<path d="M169.9225 72.9298
L169.7797 72.8584
" />
<path d="M168.4225 73.5012
L168.4225 72.0012
" />
<path d="M168.4225 73.4298
L168.5654 73.5012
" />
<path d="M168.5654 73.5012
L168.8511 73.5012
" />
<path d="M168.8511 73.5012
L168.9940 73.4298
" />
<path d="M168.9940 73.4298
L169.0654 73.3584
" />
<path d="M169.0654 73.3584
L169.1368 73.2155
" />
<path d="M169.1368 73.2155
L169.1368 72.7869
" />
<path d="M169.1368 72.7869
L169.0654 72.6441
" />
<path d="M169.0654 72.6441
L168.9940 72.5727
" />
<path d="M168.9940 72.5727
L168.8511 72.5012
" />
<path d="M168.8511 72.5012
L168.5654 72.5012
" />
<path d="M168.5654 72.5012
L168.4225 72.5727
" />
<path d="M167.4940 73.5012
L167.6368 73.4298
" />
<path d="M167.6368 73.4298
L167.7083 73.2869
" />
<path d="M167.7083 73.2869
L167.7083 72.0012
" />
<path d="M166.3511 73.4298
L166.4940 73.5012
" />
<path d="M166.4940 73.5012
L166.7797 73.5012
" />
<path d="M166.7797 73.5012
L166.9225 73.4298
" />
<path d="M166.9225 73.4298
L166.9940 73.2869
" />
<path d="M166.9940 73.2869
L166.9940 72.7155
" />
<path d="M166.9940 72.7155
L166.9225 72.5727
" />
<path d="M166.9225 72.5727
L166.7797 72.5012
" />
<path d="M166.7797 72.5012
L166.4940 72.5012
" />
<path d="M166.4940 72.5012
L166.3511 72.5727
" />
<path d="M166.3511 72.5727
L166.2797 72.7155
" />
<path d="M166.2797 72.7155
L166.2797 72.8584
" />
<path d="M166.2797 72.8584
L166.9940 73.0012
" />
<path d="M165.7797 72.5012
L165.4225 73.5012
" />
<path d="M165.0654 72.5012
L165.4225 73.5012
" />
<path d="M165.4225 73.5012
L165.5654 73.8584
" />
<path d="M165.5654 73.8584
L165.6368 73.9298
" />
<path d="M165.6368 73.9298
L165.7797 74.0012
" />
<path d="M164.4225 73.4298
L164.4225 73.5012
" />
<path d="M164.4225 73.5012
L164.4940 73.6441
" />
<path d="M164.4940 73.6441
L164.5654 73.7155
" />
</g><text x="196.9745" y="76.1095"
transform="scale(-1 1) translate(-393.948940 0)"
textLength="33.9054" font-size="2.0000" lengthAdjust="spacingAndGlyphs"
text-anchor="start" opacity="0" stroke-opacity="0">and Patricio Benitez Palermo</text>
<g class="stroked-text"><desc>and Patricio Benitez Palermo</desc>
<path d="M195.8511 75.9161
L195.8511 75.1304
" />
<path d="M195.8511 75.1304
L195.9225 74.9876
" />
<path d="M195.9225 74.9876
L196.0654 74.9161
" />
<path d="M196.0654 74.9161
L196.3511 74.9161
" />
<path d="M196.3511 74.9161
L196.4940 74.9876
" />
<path d="M195.8511 75.8447
L195.9940 75.9161
" />
<path d="M195.9940 75.9161
L196.3511 75.9161
" />
<path d="M196.3511 75.9161
L196.4940 75.8447
" />
<path d="M196.4940 75.8447
L196.5654 75.7019
" />
<path d="M196.5654 75.7019
L196.5654 75.5590
" />
<path d="M196.5654 75.5590
L196.4940 75.4161
" />
<path d="M196.4940 75.4161
L196.3511 75.3447
" />
<path d="M196.3511 75.3447
L195.9940 75.3447
" />
<path d="M195.9940 75.3447
L195.8511 75.2733
" />
<path d="M195.1368 74.9161
L195.1368 75.9161
" />
<path d="M195.1368 75.0590
L195.0654 74.9876
" />
<path d="M195.0654 74.9876
L194.9225 74.9161
" />
<path d="M194.9225 74.9161
L194.7083 74.9161
" />
<path d="M194.7083 74.9161
L194.5654 74.9876
" />
<path d="M194.5654 74.9876
L194.4940 75.1304
" />
<path d="M194.4940 75.1304
L194.4940 75.9161
" />
<path d="M193.1368 75.9161
L193.1368 74.4161
" />
<path d="M193.1368 75.8447
L193.2797 75.9161
" />
<path d="M193.2797 75.9161
L193.5654 75.9161
" />
<path d="M193.5654 75.9161
L193.7083 75.8447
" />
<path d="M193.7083 75.8447
L193.7797 75.7733
" />
<path d="M193.7797 75.7733
L193.8511 75.6304
" />
<path d="M193.8511 75.6304
L193.8511 75.2019
" />
<path d="M193.8511 75.2019
L193.7797 75.0590
" />
<path d="M193.7797 75.0590
L193.7083 74.9876
" />
<path d="M193.7083 74.9876
L193.5654 74.9161
" />
<path d="M193.5654 74.9161
L193.2797 74.9161
" />
<path d="M193.2797 74.9161
L193.1368 74.9876
" />
<path d="M191.2797 75.9161
L191.2797 74.4161
" />
<path d="M191.2797 74.4161
L190.7083 74.4161
" />
<path d="M190.7083 74.4161
L190.5654 74.4876
" />
<path d="M190.5654 74.4876
L190.4940 74.5590
" />
<path d="M190.4940 74.5590
L190.4225 74.7019
" />
<path d="M190.4225 74.7019
L190.4225 74.9161
" />
<path d="M190.4225 74.9161
L190.4940 75.0590
" />
<path d="M190.4940 75.0590
L190.5654 75.1304
" />
<path d="M190.5654 75.1304
L190.7083 75.2019
" />
<path d="M190.7083 75.2019
L191.2797 75.2019
" />
<path d="M189.1368 75.9161
L189.1368 75.1304
" />
<path d="M189.1368 75.1304
L189.2083 74.9876
" />
<path d="M189.2083 74.9876
L189.3511 74.9161
" />
<path d="M189.3511 74.9161
L189.6368 74.9161
" />
<path d="M189.6368 74.9161
L189.7797 74.9876
" />
<path d="M189.1368 75.8447
L189.2797 75.9161
" />
<path d="M189.2797 75.9161
L189.6368 75.9161
" />
<path d="M189.6368 75.9161
L189.7797 75.8447
" />
<path d="M189.7797 75.8447
L189.8511 75.7019
" />
<path d="M189.8511 75.7019
L189.8511 75.5590
" />
<path d="M189.8511 75.5590
L189.7797 75.4161
" />
<path d="M189.7797 75.4161
L189.6368 75.3447
" />
<path d="M189.6368 75.3447
L189.2797 75.3447
" />
<path d="M189.2797 75.3447
L189.1368 75.2733
" />
<path d="M188.6368 74.9161
L188.0654 74.9161
" />
<path d="M188.4225 74.4161
L188.4225 75.7019
" />
<path d="M188.4225 75.7019
L188.3511 75.8447
" />
<path d="M188.3511 75.8447
L188.2083 75.9161
" />
<path d="M188.2083 75.9161
L188.0654 75.9161
" />
<path d="M187.5654 75.9161
L187.5654 74.9161
" />
<path d="M187.5654 75.2019
L187.4940 75.0590
" />
<path d="M187.4940 75.0590
L187.4225 74.9876
" />
<path d="M187.4225 74.9876
L187.2797 74.9161
" />
<path d="M187.2797 74.9161
L187.1368 74.9161
" />
<path d="M186.6368 75.9161
L186.6368 74.9161
" />
<path d="M186.6368 74.4161
L186.7083 74.4876
" />
<path d="M186.7083 74.4876
L186.6368 74.5590
" />
<path d="M186.6368 74.5590
L186.5654 74.4876
" />
<path d="M186.5654 74.4876
L186.6368 74.4161
" />
<path d="M186.6368 74.4161
L186.6368 74.5590
" />
<path d="M185.2797 75.8447
L185.4225 75.9161
" />
<path d="M185.4225 75.9161
L185.7083 75.9161
" />
<path d="M185.7083 75.9161
L185.8511 75.8447
" />
<path d="M185.8511 75.8447
L185.9225 75.7733
" />
<path d="M185.9225 75.7733
L185.9940 75.6304
" />
<path d="M185.9940 75.6304
L185.9940 75.2019
" />
<path d="M185.9940 75.2019
L185.9225 75.0590
" />
<path d="M185.9225 75.0590
L185.8511 74.9876
" />
<path d="M185.8511 74.9876
L185.7083 74.9161
" />
<path d="M185.7083 74.9161
L185.4225 74.9161
" />
<path d="M185.4225 74.9161
L185.2797 74.9876
" />
<path d="M184.6368 75.9161
L184.6368 74.9161
" />
<path d="M184.6368 74.4161
L184.7083 74.4876
" />
<path d="M184.7083 74.4876
L184.6368 74.5590
" />
<path d="M184.6368 74.5590
L184.5654 74.4876
" />
<path d="M184.5654 74.4876
L184.6368 74.4161
" />
<path d="M184.6368 74.4161
L184.6368 74.5590
" />
<path d="M183.7083 75.9161
L183.8511 75.8447
" />
<path d="M183.8511 75.8447
L183.9225 75.7733
" />
<path d="M183.9225 75.7733
L183.9940 75.6304
" />
<path d="M183.9940 75.6304
L183.9940 75.2019
" />
<path d="M183.9940 75.2019
L183.9225 75.0590
" />
<path d="M183.9225 75.0590
L183.8511 74.9876
" />
<path d="M183.8511 74.9876
L183.7083 74.9161
" />
<path d="M183.7083 74.9161
L183.4940 74.9161
" />
<path d="M183.4940 74.9161
L183.3511 74.9876
" />
<path d="M183.3511 74.9876
L183.2797 75.0590
" />
<path d="M183.2797 75.0590
L183.2083 75.2019
" />
<path d="M183.2083 75.2019
L183.2083 75.6304
" />
<path d="M183.2083 75.6304
L183.2797 75.7733
" />
<path d="M183.2797 75.7733
L183.3511 75.8447
" />
<path d="M183.3511 75.8447
L183.4940 75.9161
" />
<path d="M183.4940 75.9161
L183.7083 75.9161
" />
<path d="M180.9225 75.1304
L180.7083 75.2019
" />
<path d="M180.7083 75.2019
L180.6368 75.2733
" />
<path d="M180.6368 75.2733
L180.5654 75.4161
" />
<path d="M180.5654 75.4161
L180.5654 75.6304
" />
<path d="M180.5654 75.6304
L180.6368 75.7733
" />
<path d="M180.6368 75.7733
L180.7083 75.8447
" />
<path d="M180.7083 75.8447
L180.8511 75.9161
" />
<path d="M180.8511 75.9161
L181.4225 75.9161
" />
<path d="M181.4225 75.9161
L181.4225 74.4161
" />
<path d="M181.4225 74.4161
L180.9225 74.4161
" />
<path d="M180.9225 74.4161
L180.7797 74.4876
" />
<path d="M180.7797 74.4876
L180.7083 74.5590
" />
<path d="M180.7083 74.5590
L180.6368 74.7019
" />
<path d="M180.6368 74.7019
L180.6368 74.8447
" />
<path d="M180.6368 74.8447
L180.7083 74.9876
" />
<path d="M180.7083 74.9876
L180.7797 75.0590
" />
<path d="M180.7797 75.0590
L180.9225 75.1304
" />
<path d="M180.9225 75.1304
L181.4225 75.1304
" />
<path d="M179.3511 75.8447
L179.4940 75.9161
" />
<path d="M179.4940 75.9161
L179.7797 75.9161
" />
<path d="M179.7797 75.9161
L179.9225 75.8447
" />
<path d="M179.9225 75.8447
L179.9940 75.7019
" />
<path d="M179.9940 75.7019
L179.9940 75.1304
" />
<path d="M179.9940 75.1304
L179.9225 74.9876
" />
<path d="M179.9225 74.9876
L179.7797 74.9161
" />
<path d="M179.7797 74.9161
L179.4940 74.9161
" />
<path d="M179.4940 74.9161
L179.3511 74.9876
" />
<path d="M179.3511 74.9876
L179.2797 75.1304
" />
<path d="M179.2797 75.1304
L179.2797 75.2733
" />
<path d="M179.2797 75.2733
L179.9940 75.4161
" />
<path d="M178.6368 74.9161
L178.6368 75.9161
" />
<path d="M178.6368 75.0590
L178.5654 74.9876
" />
<path d="M178.5654 74.9876
L178.4225 74.9161
" />
<path d="M178.4225 74.9161
L178.2083 74.9161
" />
<path d="M178.2083 74.9161
L178.0654 74.9876
" />
<path d="M178.0654 74.9876
L177.9940 75.1304
" />
<path d="M177.9940 75.1304
L177.9940 75.9161
" />
<path d="M177.2797 75.9161
L177.2797 74.9161
" />
<path d="M177.2797 74.4161
L177.3511 74.4876
" />
<path d="M177.3511 74.4876
L177.2797 74.5590
" />
<path d="M177.2797 74.5590
L177.2083 74.4876
" />
<path d="M177.2083 74.4876
L177.2797 74.4161
" />
<path d="M177.2797 74.4161
L177.2797 74.5590
" />
<path d="M176.7797 74.9161
L176.2083 74.9161
" />
<path d="M176.5654 74.4161
L176.5654 75.7019
" />
<path d="M176.5654 75.7019
L176.4940 75.8447
" />
<path d="M176.4940 75.8447
L176.3511 75.9161
" />
<path d="M176.3511 75.9161
L176.2083 75.9161
" />
<path d="M175.1368 75.8447
L175.2797 75.9161
" />
<path d="M175.2797 75.9161
L175.5654 75.9161
" />
<path d="M175.5654 75.9161
L175.7083 75.8447
" />
<path d="M175.7083 75.8447
L175.7797 75.7019
" />
<path d="M175.7797 75.7019
L175.7797 75.1304
" />
<path d="M175.7797 75.1304
L175.7083 74.9876
" />
<path d="M175.7083 74.9876
L175.5654 74.9161
" />
<path d="M175.5654 74.9161
L175.2797 74.9161
" />
<path d="M175.2797 74.9161
L175.1368 74.9876
" />
<path d="M175.1368 74.9876
L175.0654 75.1304
" />
<path d="M175.0654 75.1304
L175.0654 75.2733
" />
<path d="M175.0654 75.2733
L175.7797 75.4161
" />
<path d="M174.5654 74.9161
L173.7797 74.9161
" />
<path d="M173.7797 74.9161
L174.5654 75.9161
" />
<path d="M174.5654 75.9161
L173.7797 75.9161
" />
<path d="M172.0654 75.9161
L172.0654 74.4161
" />
<path d="M172.0654 74.4161
L171.4940 74.4161
" />
<path d="M171.4940 74.4161
L171.3511 74.4876
" />
<path d="M171.3511 74.4876
L171.2797 74.5590
" />
<path d="M171.2797 74.5590
L171.2083 74.7019
" />
<path d="M171.2083 74.7019
L171.2083 74.9161
" />
<path d="M171.2083 74.9161
L171.2797 75.0590
" />
<path d="M171.2797 75.0590
L171.3511 75.1304
" />
<path d="M171.3511 75.1304
L171.4940 75.2019
" />
<path d="M171.4940 75.2019
L172.0654 75.2019
" />
<path d="M169.9225 75.9161
L169.9225 75.1304
" />
<path d="M169.9225 75.1304
L169.9940 74.9876
" />
<path d="M169.9940 74.9876
L170.1368 74.9161
" />
<path d="M170.1368 74.9161
L170.4225 74.9161
" />
<path d="M170.4225 74.9161
L170.5654 74.9876
" />
<path d="M169.9225 75.8447
L170.0654 75.9161
" />
<path d="M170.0654 75.9161
L170.4225 75.9161
" />
<path d="M170.4225 75.9161
L170.5654 75.8447
" />
<path d="M170.5654 75.8447
L170.6368 75.7019
" />
<path d="M170.6368 75.7019
L170.6368 75.5590
" />
<path d="M170.6368 75.5590
L170.5654 75.4161
" />
<path d="M170.5654 75.4161
L170.4225 75.3447
" />
<path d="M170.4225 75.3447
L170.0654 75.3447
" />
<path d="M170.0654 75.3447
L169.9225 75.2733
" />
<path d="M168.9940 75.9161
L169.1368 75.8447
" />
<path d="M169.1368 75.8447
L169.2083 75.7019
" />
<path d="M169.2083 75.7019
L169.2083 74.4161
" />
<path d="M167.8511 75.8447
L167.9940 75.9161
" />
<path d="M167.9940 75.9161
L168.2797 75.9161
" />
<path d="M168.2797 75.9161
L168.4225 75.8447
" />
<path d="M168.4225 75.8447
L168.4940 75.7019
" />
<path d="M168.4940 75.7019
L168.4940 75.1304
" />
<path d="M168.4940 75.1304
L168.4225 74.9876
" />
<path d="M168.4225 74.9876
L168.2797 74.9161
" />
<path d="M168.2797 74.9161
L167.9940 74.9161
" />
<path d="M167.9940 74.9161
L167.8511 74.9876
" />
<path d="M167.8511 74.9876
L167.7797 75.1304
" />
<path d="M167.7797 75.1304
L167.7797 75.2733
" />
<path d="M167.7797 75.2733
L168.4940 75.4161
" />
<path d="M167.1368 75.9161
L167.1368 74.9161
" />
<path d="M167.1368 75.2019
L167.0654 75.0590
" />
<path d="M167.0654 75.0590
L166.9940 74.9876
" />
<path d="M166.9940 74.9876
L166.8511 74.9161
" />
<path d="M166.8511 74.9161
L166.7083 74.9161
" />
<path d="M166.2083 75.9161
L166.2083 74.9161
" />
<path d="M166.2083 75.0590
L166.1368 74.9876
" />
<path d="M166.1368 74.9876
L165.9940 74.9161
" />
<path d="M165.9940 74.9161
L165.7797 74.9161
" />
<path d="M165.7797 74.9161
L165.6368 74.9876
" />
<path d="M165.6368 74.9876
L165.5654 75.1304
" />
<path d="M165.5654 75.1304
L165.5654 75.9161
" />
<path d="M165.5654 75.1304
L165.4940 74.9876
" />
<path d="M165.4940 74.9876
L165.3511 74.9161
" />
<path d="M165.3511 74.9161
L165.1368 74.9161
" />
<path d="M165.1368 74.9161
L164.9940 74.9876
" />
<path d="M164.9940 74.9876
L164.9225 75.1304
" />
<path d="M164.9225 75.1304
L164.9225 75.9161
" />
<path d="M163.9940 75.9161
L164.1368 75.8447
" />
<path d="M164.1368 75.8447
L164.2083 75.7733
" />
<path d="M164.2083 75.7733
L164.2797 75.6304
" />
<path d="M164.2797 75.6304
L164.2797 75.2019
" />
<path d="M164.2797 75.2019
L164.2083 75.0590
" />
<path d="M164.2083 75.0590
L164.1368 74.9876
" />
<path d="M164.1368 74.9876
L163.9940 74.9161
" />
<path d="M163.9940 74.9161
L163.7797 74.9161
" />
<path d="M163.7797 74.9161
L163.6368 74.9876
" />
<path d="M163.6368 74.9876
L163.5654 75.0590
" />
<path d="M163.5654 75.0590
L163.4940 75.2019
" />
<path d="M163.4940 75.2019
L163.4940 75.6304
" />
<path d="M163.4940 75.6304
L163.5654 75.7733
" />
<path d="M163.5654 75.7733
L163.6368 75.8447
" />
<path d="M163.6368 75.8447
L163.7797 75.9161
" />
<path d="M163.7797 75.9161
L163.9940 75.9161
" />
</g></g>
<g style="fill:none; 
stroke:#000000; stroke-width:0.1500; stroke-opacity:1; 
stroke-linecap:round; stroke-linejoin:round;">
<g transform="rotate(-90.000000 126.3000 131.7000)">
<text x="126.3000" y="132.0200"
transform="scale(-1 1) translate(-252.600000 0)"
textLength="1.5715" font-size="0.8533" lengthAdjust="spacingAndGlyphs"
text-anchor="middle" opacity="0" stroke-opacity="0">R3</text>
</g>
<g class="stroked-text"><desc>R3</desc>
<path d="M126.5883 131.5933
L126.2835 131.3800
" />
<path d="M126.5883 131.2276
L125.9483 131.2276
" />
<path d="M125.9483 131.2276
L125.9483 131.4714
" />
<path d="M125.9483 131.4714
L125.9788 131.5324
" />
<path d="M125.9788 131.5324
L126.0092 131.5629
" />
<path d="M126.0092 131.5629
L126.0702 131.5933
" />
<path d="M126.0702 131.5933
L126.1616 131.5933
" />
<path d="M126.1616 131.5933
L126.2226 131.5629
" />
<path d="M126.2226 131.5629
L126.2530 131.5324
" />
<path d="M126.2530 131.5324
L126.2835 131.4714
" />
<path d="M126.2835 131.4714
L126.2835 131.2276
" />
<path d="M125.9483 131.8067
L125.9483 132.2029
" />
<path d="M125.9483 132.2029
L126.1921 131.9895
" />
<path d="M126.1921 131.9895
L126.1921 132.0810
" />
<path d="M126.1921 132.0810
L126.2226 132.1419
" />
<path d="M126.2226 132.1419
L126.2530 132.1724
" />
<path d="M126.2530 132.1724
L126.3140 132.2029
" />
<path d="M126.3140 132.2029
L126.4664 132.2029
" />
<path d="M126.4664 132.2029
L126.5273 132.1724
" />
<path d="M126.5273 132.1724
L126.5578 132.1419
" />
<path d="M126.5578 132.1419
L126.5883 132.0810
" />
<path d="M126.5883 132.0810
L126.5883 131.8981
" />
<path d="M126.5883 131.8981
L126.5578 131.8371
" />
<path d="M126.5578 131.8371
L126.5273 131.8067
" />
</g><g transform="rotate(-90.000000 183.5500 117.7751)">
<text x="183.5500" y="118.0951"
transform="scale(-1 1) translate(-367.100000 0)"
textLength="2.1810" font-size="0.8533" lengthAdjust="spacingAndGlyphs"
text-anchor="middle" opacity="0" stroke-opacity="0">C38</text>
</g>
<g class="stroked-text"><desc>C38</desc>
<path d="M183.7773 117.3637
L183.8078 117.3332
" />
<path d="M183.8078 117.3332
L183.8383 117.2418
" />
<path d="M183.8383 117.2418
L183.8383 117.1809
" />
<path d="M183.8383 117.1809
L183.8078 117.0894
" />
<path d="M183.8078 117.0894
L183.7468 117.0285
" />
<path d="M183.7468 117.0285
L183.6859 116.9980
" />
<path d="M183.6859 116.9980
L183.5640 116.9675
" />
<path d="M183.5640 116.9675
L183.4726 116.9675
" />
<path d="M183.4726 116.9675
L183.3507 116.9980
" />
<path d="M183.3507 116.9980
L183.2897 117.0285
" />
<path d="M183.2897 117.0285
L183.2288 117.0894
" />
<path d="M183.2288 117.0894
L183.1983 117.1809
" />
<path d="M183.1983 117.1809
L183.1983 117.2418
" />
<path d="M183.1983 117.2418
L183.2288 117.3332
" />
<path d="M183.2288 117.3332
L183.2592 117.3637
" />
<path d="M183.1983 117.5771
L183.1983 117.9732
" />
<path d="M183.1983 117.9732
L183.4421 117.7599
" />
<path d="M183.4421 117.7599
L183.4421 117.8513
" />
<path d="M183.4421 117.8513
L183.4726 117.9123
" />
<path d="M183.4726 117.9123
L183.5030 117.9428
" />
<path d="M183.5030 117.9428
L183.5640 117.9732
" />
<path d="M183.5640 117.9732
L183.7164 117.9732
" />
<path d="M183.7164 117.9732
L183.7773 117.9428
" />
<path d="M183.7773 117.9428
L183.8078 117.9123
" />
<path d="M183.8078 117.9123
L183.8383 117.8513
" />
<path d="M183.8383 117.8513
L183.8383 117.6685
" />
<path d="M183.8383 117.6685
L183.8078 117.6075
" />
<path d="M183.8078 117.6075
L183.7773 117.5771
" />
<path d="M183.4726 118.3390
L183.4421 118.2780
" />
<path d="M183.4421 118.2780
L183.4116 118.2475
" />
<path d="M183.4116 118.2475
L183.3507 118.2171
" />
<path d="M183.3507 118.2171
L183.3202 118.2171
" />
<path d="M183.3202 118.2171
L183.2592 118.2475
" />
<path d="M183.2592 118.2475
L183.2288 118.2780
" />
<path d="M183.2288 118.2780
L183.1983 118.3390
" />
<path d="M183.1983 118.3390
L183.1983 118.4609
" />
<path d="M183.1983 118.4609
L183.2288 118.5218
" />
<path d="M183.2288 118.5218
L183.2592 118.5523
" />
<path d="M183.2592 118.5523
L183.3202 118.5828
" />
<path d="M183.3202 118.5828
L183.3507 118.5828
" />
<path d="M183.3507 118.5828
L183.4116 118.5523
" />
<path d="M183.4116 118.5523
L183.4421 118.5218
" />
<path d="M183.4421 118.5218
L183.4726 118.4609
" />
<path d="M183.4726 118.4609
L183.4726 118.3390
" />
<path d="M183.4726 118.3390
L183.5030 118.2780
" />
<path d="M183.5030 118.2780
L183.5335 118.2475
" />
<path d="M183.5335 118.2475
L183.5945 118.2171
" />
<path d="M183.5945 118.2171
L183.7164 118.2171
" />
<path d="M183.7164 118.2171
L183.7773 118.2475
" />
<path d="M183.7773 118.2475
L183.8078 118.2780
" />
<path d="M183.8078 118.2780
L183.8383 118.3390
" />
<path d="M183.8383 118.3390
L183.8383 118.4609
" />
<path d="M183.8383 118.4609
L183.8078 118.5218
" />
<path d="M183.8078 118.5218
L183.7773 118.5523
" />
<path d="M183.7773 118.5523
L183.7164 118.5828
" />
<path d="M183.7164 118.5828
L183.5945 118.5828
" />
<path d="M183.5945 118.5828
L183.5335 118.5523
" />
<path d="M183.5335 118.5523
L183.5030 118.5218
" />
<path d="M183.5030 118.5218
L183.4726 118.4609
" />
</g><text x="192.4957" y="117.7526"
transform="scale(-1 1) translate(-384.991400 0)"
textLength="2.2115" font-size="0.8533" lengthAdjust="spacingAndGlyphs"
text-anchor="middle" opacity="0" stroke-opacity="0">U12</text>
<g class="stroked-text"><desc>U12</desc>
<path d="M193.2881 117.0809
L193.2881 117.5990
" />
<path d="M193.2881 117.5990
L193.2576 117.6600
" />
<path d="M193.2576 117.6600
L193.2271 117.6904
" />
<path d="M193.2271 117.6904
L193.1662 117.7209
" />
<path d="M193.1662 117.7209
L193.0443 117.7209
" />
<path d="M193.0443 117.7209
L192.9833 117.6904
" />
<path d="M192.9833 117.6904
L192.9528 117.6600
" />
<path d="M192.9528 117.6600
L192.9224 117.5990
" />
<path d="M192.9224 117.5990
L192.9224 117.0809
" />
<path d="M192.2824 117.7209
L192.6481 117.7209
" />
<path d="M192.4652 117.7209
L192.4652 117.0809
" />
<path d="M192.4652 117.0809
L192.5262 117.1724
" />
<path d="M192.5262 117.1724
L192.5871 117.2333
" />
<path d="M192.5871 117.2333
L192.6481 117.2638
" />
<path d="M192.0386 117.1419
L192.0081 117.1114
" />
<path d="M192.0081 117.1114
L191.9471 117.0809
" />
<path d="M191.9471 117.0809
L191.7947 117.0809
" />
<path d="M191.7947 117.0809
L191.7338 117.1114
" />
<path d="M191.7338 117.1114
L191.7033 117.1419
" />
<path d="M191.7033 117.1419
L191.6728 117.2028
" />
<path d="M191.6728 117.2028
L191.6728 117.2638
" />
<path d="M191.6728 117.2638
L191.7033 117.3552
" />
<path d="M191.7033 117.3552
L192.0690 117.7209
" />
<path d="M192.0690 117.7209
L191.6728 117.7209
" />
</g><text x="196.4454" y="114.3512"
transform="scale(-1 1) translate(-392.890800 0)"
textLength="1.0119" font-size="1.3333" lengthAdjust="spacingAndGlyphs"
text-anchor="middle" opacity="0" stroke-opacity="0">*</text>
<g class="stroked-text"><desc>*</desc>
<path d="M196.4454 113.3061
L196.4454 113.5442
" />
<path d="M196.6835 113.4489
L196.4454 113.5442
" />
<path d="M196.4454 113.5442
L196.2073 113.4489
" />
<path d="M196.5883 113.7346
L196.4454 113.5442
" />
<path d="M196.4454 113.5442
L196.3025 113.7346
" />
</g><text x="196.4454" y="115.0000"
transform="scale(-1 1) translate(-392.890798 0)"
textLength="1.0119" font-size="1.3333" lengthAdjust="spacingAndGlyphs"
text-anchor="middle" opacity="0" stroke-opacity="0">*</text>
<g class="stroked-text"><desc>*</desc>
<path d="M196.4454 113.9548
L196.4454 114.1929
" />
<path d="M196.6835 114.0977
L196.4454 114.1929
" />
<path d="M196.4454 114.1929
L196.2073 114.0977
" />
<path d="M196.5883 114.3834
L196.4454 114.1929
" />
<path d="M196.4454 114.1929
L196.3025 114.3834
" />
</g><g transform="rotate(-90.000000 198.3000 118.2001)">
<text x="198.3000" y="118.5202"
transform="scale(-1 1) translate(-396.600000 0)"
textLength="2.1810" font-size="0.8533" lengthAdjust="spacingAndGlyphs"
text-anchor="middle" opacity="0" stroke-opacity="0">C37</text>
</g>
<g class="stroked-text"><desc>C37</desc>
<path d="M198.5273 117.7887
L198.5578 117.7582
" />
<path d="M198.5578 117.7582
L198.5883 117.6668
" />
<path d="M198.5883 117.6668
L198.5883 117.6059
" />
<path d="M198.5883 117.6059
L198.5578 117.5144
" />
<path d="M198.5578 117.5144
L198.4968 117.4535
" />
<path d="M198.4968 117.4535
L198.4359 117.4230
" />
<path d="M198.4359 117.4230
L198.3140 117.3925
" />
<path d="M198.3140 117.3925
L198.2226 117.3925
" />
<path d="M198.2226 117.3925
L198.1007 117.4230
" />
<path d="M198.1007 117.4230
L198.0397 117.4535
" />
<path d="M198.0397 117.4535
L197.9788 117.5144
" />
<path d="M197.9788 117.5144
L197.9483 117.6059
" />
<path d="M197.9483 117.6059
L197.9483 117.6668
" />
<path d="M197.9483 117.6668
L197.9788 117.7582
" />
<path d="M197.9788 117.7582
L198.0092 117.7887
" />
<path d="M197.9483 118.0021
L197.9483 118.3982
" />
<path d="M197.9483 118.3982
L198.1921 118.1849
" />
<path d="M198.1921 118.1849
L198.1921 118.2763
" />
<path d="M198.1921 118.2763
L198.2226 118.3373
" />
<path d="M198.2226 118.3373
L198.2530 118.3678
" />
<path d="M198.2530 118.3678
L198.3140 118.3982
" />
<path d="M198.3140 118.3982
L198.4664 118.3982
" />
<path d="M198.4664 118.3982
L198.5273 118.3678
" />
<path d="M198.5273 118.3678
L198.5578 118.3373
" />
<path d="M198.5578 118.3373
L198.5883 118.2763
" />
<path d="M198.5883 118.2763
L198.5883 118.0935
" />
<path d="M198.5883 118.0935
L198.5578 118.0325
" />
<path d="M198.5578 118.0325
L198.5273 118.0021
" />
<path d="M197.9483 118.6116
L197.9483 119.0382
" />
<path d="M197.9483 119.0382
L198.5883 118.7640
" />
</g><text x="190.3375" y="110.9577"
transform="scale(-1 1) translate(-380.675000 0)"
textLength="2.1810" font-size="0.8533" lengthAdjust="spacingAndGlyphs"
text-anchor="middle" opacity="0" stroke-opacity="0">C48</text>
<g class="stroked-text"><desc>C48</desc>
<path d="M190.7489 110.8650
L190.7794 110.8954
" />
<path d="M190.7794 110.8954
L190.8708 110.9259
" />
<path d="M190.8708 110.9259
L190.9318 110.9259
" />
<path d="M190.9318 110.9259
L191.0232 110.8954
" />
<path d="M191.0232 110.8954
L191.0842 110.8345
" />
<path d="M191.0842 110.8345
L191.1146 110.7735
" />
<path d="M191.1146 110.7735
L191.1451 110.6516
" />
<path d="M191.1451 110.6516
L191.1451 110.5602
" />
<path d="M191.1451 110.5602
L191.1146 110.4383
" />
<path d="M191.1146 110.4383
L191.0842 110.3774
" />
<path d="M191.0842 110.3774
L191.0232 110.3164
" />
<path d="M191.0232 110.3164
L190.9318 110.2859
" />
<path d="M190.9318 110.2859
L190.8708 110.2859
" />
<path d="M190.8708 110.2859
L190.7794 110.3164
" />
<path d="M190.7794 110.3164
L190.7489 110.3469
" />
<path d="M190.2004 110.4993
L190.2004 110.9259
" />
<path d="M190.3527 110.2554
L190.5051 110.7126
" />
<path d="M190.5051 110.7126
L190.1089 110.7126
" />
<path d="M189.7737 110.5602
L189.8346 110.5297
" />
<path d="M189.8346 110.5297
L189.8651 110.4993
" />
<path d="M189.8651 110.4993
L189.8956 110.4383
" />
<path d="M189.8956 110.4383
L189.8956 110.4078
" />
<path d="M189.8956 110.4078
L189.8651 110.3469
" />
<path d="M189.8651 110.3469
L189.8346 110.3164
" />
<path d="M189.8346 110.3164
L189.7737 110.2859
" />
<path d="M189.7737 110.2859
L189.6518 110.2859
" />
<path d="M189.6518 110.2859
L189.5908 110.3164
" />
<path d="M189.5908 110.3164
L189.5604 110.3469
" />
<path d="M189.5604 110.3469
L189.5299 110.4078
" />
<path d="M189.5299 110.4078
L189.5299 110.4383
" />
<path d="M189.5299 110.4383
L189.5604 110.4993
" />
<path d="M189.5604 110.4993
L189.5908 110.5297
" />
<path d="M189.5908 110.5297
L189.6518 110.5602
" />
<path d="M189.6518 110.5602
L189.7737 110.5602
" />
<path d="M189.7737 110.5602
L189.8346 110.5907
" />
<path d="M189.8346 110.5907
L189.8651 110.6212
" />
<path d="M189.8651 110.6212
L189.8956 110.6821
" />
<path d="M189.8956 110.6821
L189.8956 110.8040
" />
<path d="M189.8956 110.8040
L189.8651 110.8650
" />
<path d="M189.8651 110.8650
L189.8346 110.8954
" />
<path d="M189.8346 110.8954
L189.7737 110.9259
" />
<path d="M189.7737 110.9259
L189.6518 110.9259
" />
<path d="M189.6518 110.9259
L189.5908 110.8954
" />
<path d="M189.5908 110.8954
L189.5604 110.8650
" />
<path d="M189.5604 110.8650
L189.5299 110.8040
" />
<path d="M189.5299 110.8040
L189.5299 110.6821
" />
<path d="M189.5299 110.6821
L189.5604 110.6212
" />
<path d="M189.5604 110.6212
L189.5908 110.5907
" />
<path d="M189.5908 110.5907
L189.6518 110.5602
" />
</g><g transform="rotate(-90.000000 124.3000 131.7000)">
<text x="124.3000" y="132.0200"
transform="scale(-1 1) translate(-248.600000 0)"
textLength="1.5715" font-size="0.8533" lengthAdjust="spacingAndGlyphs"
text-anchor="middle" opacity="0" stroke-opacity="0">R2</text>
</g>
<g class="stroked-text"><desc>R2</desc>
<path d="M124.5883 131.5933
L124.2835 131.3800
" />
<path d="M124.5883 131.2276
L123.9483 131.2276
" />
<path d="M123.9483 131.2276
L123.9483 131.4714
" />
<path d="M123.9483 131.4714
L123.9788 131.5324
" />
<path d="M123.9788 131.5324
L124.0092 131.5629
" />
<path d="M124.0092 131.5629
L124.0702 131.5933
" />
<path d="M124.0702 131.5933
L124.1616 131.5933
" />
<path d="M124.1616 131.5933
L124.2226 131.5629
" />
<path d="M124.2226 131.5629
L124.2530 131.5324
" />
<path d="M124.2530 131.5324
L124.2835 131.4714
" />
<path d="M124.2835 131.4714
L124.2835 131.2276
" />
<path d="M124.0092 131.8371
L123.9788 131.8676
" />
<path d="M123.9788 131.8676
L123.9483 131.9286
" />
<path d="M123.9483 131.9286
L123.9483 132.0810
" />
<path d="M123.9483 132.0810
L123.9788 132.1419
" />
<path d="M123.9788 132.1419
L124.0092 132.1724
" />
<path d="M124.0092 132.1724
L124.0702 132.2029
" />
<path d="M124.0702 132.2029
L124.1311 132.2029
" />
<path d="M124.1311 132.2029
L124.2226 132.1724
" />
<path d="M124.2226 132.1724
L124.5883 131.8067
" />
<path d="M124.5883 131.8067
L124.5883 132.2029
" />
</g></g>
<g style="fill:none; 
stroke:#000000; stroke-width:0.1200; stroke-opacity:1; 
stroke-linecap:round; stroke-linejoin:round;">
<path d="M125.5650 129.2271
L125.5650 128.7729
" />
<path d="M127.0350 129.2271
L127.0350 128.7729
" />
<path d="M184.4900 117.0639
L184.4900 118.4864
" />
<path d="M186.3100 117.0639
L186.3100 118.4864
" />
</g>
<g style="fill:none; 
stroke:#000000; stroke-width:0.1524; stroke-opacity:1; 
stroke-linecap:round; stroke-linejoin:round;">
<path d="M189.6763 114.6132
L195.3151 114.6132
" />
<path d="M189.6763 114.9282
L189.6763 114.6132
" />
<path d="M189.6763 120.2520
L189.6763 119.9371
" />
<path d="M195.3151 114.6132
L195.3151 114.9282
" />
<path d="M195.3151 119.9371
L195.3151 120.2520
" />
<path d="M195.3151 120.2520
L189.6763 120.2520
" />
</g>
<g style="fill:none; 
stroke:#000000; stroke-width:0.1200; stroke-opacity:1; 
stroke-linecap:round; stroke-linejoin:round;">
<path d="M198.9900 117.4889
L198.9900 118.9114
" />
<path d="M200.8100 117.4889
L200.8100 118.9114
" />
<path d="M189.6262 111.7276
L191.0488 111.7276
" />
<path d="M189.6262 113.5476
L191.0488 113.5476
" />
<path d="M123.5650 129.2271
L123.5650 128.7729
" />
<path d="M125.0350 129.2271
L125.0350 128.7729
" />
</g> 
</svg>
