<?xml version="1.0" standalone="no"?>
 <!DOCTYPE svg PUBLIC "-//W3C//DTD SVG 1.1//EN" 
 "http://www.w3.org/Graphics/SVG/1.1/DTD/svg11.dtd"> 
<svg
  xmlns:svg="http://www.w3.org/2000/svg"
  xmlns="http://www.w3.org/2000/svg"
  xmlns:xlink="http://www.w3.org/1999/xlink"
  version="1.1"
  width="297.0022mm" height="210.0072mm" viewBox="0.0000 0.0000 297.0022 210.0072">
<title>SVG Image created as LoRa Water Quality Management System Sensor Node-B_Paste.svg date 2025/11/23 13:52:41 </title>
  <desc>Image generated by PCBNEW </desc>
<g style="fill:#000000; fill-opacity:1.0000;stroke:#000000; stroke-opacity:1.0000;
stroke-linecap:round; stroke-linejoin:round;"
 transform="translate(0 0) scale(1 1)">
<path style="fill:#000000; fill-opacity:1.0000; stroke:none;fill-rule:evenodd;"
d="M 125.8500,130.6000
125.7543,130.5810
125.6732,130.5268
125.6190,130.4457
125.6000,130.3500
125.6000,129.6500
125.6190,129.5543
125.6732,129.4732
125.7543,129.4190
125.8500,129.4000
126.7500,129.4000
126.8457,129.4190
126.9268,129.4732
126.9810,129.5543
127.0000,129.6500
127.0000,130.3500
126.9810,130.4457
126.9268,130.5268
126.8457,130.5810
126.7500,130.6000
Z" /> 
<path style="fill:#000000; fill-opacity:1.0000; stroke:none;fill-rule:evenodd;"
d="M 125.8500,128.6000
125.7543,128.5810
125.6732,128.5268
125.6190,128.4457
125.6000,128.3500
125.6000,127.6500
125.6190,127.5543
125.6732,127.4732
125.7543,127.4190
125.8500,127.4000
126.7500,127.4000
126.8457,127.4190
126.9268,127.4732
126.9810,127.5543
127.0000,127.6500
127.0000,128.3500
126.9810,128.4457
126.9268,128.5268
126.8457,128.5810
126.7500,128.6000
Z" /> 
<path style="fill:#000000; fill-opacity:1.0000; stroke:none;fill-rule:evenodd;"
d="M 186.0500,115.5501
186.1457,115.5692
186.2268,115.6234
186.2810,115.7045
186.3000,115.8001
186.3000,116.6251
186.2810,116.7208
186.2268,116.8019
186.1457,116.8561
186.0500,116.8751
184.7500,116.8751
184.6543,116.8561
184.5732,116.8019
184.5190,116.7208
184.5000,116.6251
184.5000,115.8001
184.5190,115.7045
184.5732,115.6234
184.6543,115.5692
184.7500,115.5501
Z" /> 
<path style="fill:#000000; fill-opacity:1.0000; stroke:none;fill-rule:evenodd;"
d="M 186.0500,118.6751
186.1457,118.6942
186.2268,118.7484
186.2810,118.8295
186.3000,118.9251
186.3000,119.7501
186.2810,119.8458
186.2268,119.9269
186.1457,119.9811
186.0500,120.0001
184.7500,120.0001
184.6543,119.9811
184.5732,119.9269
184.5190,119.8458
184.5000,119.7501
184.5000,118.9251
184.5190,118.8295
184.5732,118.7484
184.6543,118.6942
184.7500,118.6751
Z" /> 
<path style="fill:#000000; fill-opacity:1.0000; stroke:none;fill-rule:evenodd;"
d="M 197.1058,115.2609
197.1058,115.7943
195.2770,115.7943
195.2770,115.2609
Z" /> 
<path style="fill:#000000; fill-opacity:1.0000; stroke:none;fill-rule:evenodd;"
d="M 197.1058,116.5309
197.1058,117.0643
195.2770,117.0643
195.2770,116.5309
Z" /> 
<path style="fill:#000000; fill-opacity:1.0000; stroke:none;fill-rule:evenodd;"
d="M 197.1058,117.8010
197.1058,118.3344
195.2770,118.3344
195.2770,117.8010
Z" /> 
<path style="fill:#000000; fill-opacity:1.0000; stroke:none;fill-rule:evenodd;"
d="M 197.1058,119.0709
197.1058,119.6043
195.2770,119.6043
195.2770,119.0709
Z" /> 
<path style="fill:#000000; fill-opacity:1.0000; stroke:none;fill-rule:evenodd;"
d="M 189.7144,119.0709
189.7144,119.6043
187.8856,119.6043
187.8856,119.0709
Z" /> 
<path style="fill:#000000; fill-opacity:1.0000; stroke:none;fill-rule:evenodd;"
d="M 189.7144,117.8010
189.7144,118.3344
187.8856,118.3344
187.8856,117.8010
Z" /> 
<path style="fill:#000000; fill-opacity:1.0000; stroke:none;fill-rule:evenodd;"
d="M 189.7144,116.5309
189.7144,117.0643
187.8856,117.0643
187.8856,116.5309
Z" /> 
<path style="fill:#000000; fill-opacity:1.0000; stroke:none;fill-rule:evenodd;"
d="M 189.7144,115.2609
189.7144,115.7943
187.8856,115.7943
187.8856,115.2609
Z" /> 
<path style="fill:#000000; fill-opacity:1.0000; stroke:none;fill-rule:evenodd;"
d="M 200.5500,115.9751
200.6457,115.9942
200.7268,116.0484
200.7810,116.1295
200.8000,116.2251
200.8000,117.0501
200.7810,117.1458
200.7268,117.2269
200.6457,117.2811
200.5500,117.3001
199.2500,117.3001
199.1543,117.2811
199.0732,117.2269
199.0190,117.1458
199.0000,117.0501
199.0000,116.2251
199.0190,116.1295
199.0732,116.0484
199.1543,115.9942
199.2500,115.9751
Z" /> 
<path style="fill:#000000; fill-opacity:1.0000; stroke:none;fill-rule:evenodd;"
d="M 200.5500,119.1001
200.6457,119.1192
200.7268,119.1734
200.7810,119.2545
200.8000,119.3501
200.8000,120.1751
200.7810,120.2708
200.7268,120.3519
200.6457,120.4061
200.5500,120.4251
199.2500,120.4251
199.1543,120.4061
199.0732,120.3519
199.0190,120.2708
199.0000,120.1751
199.0000,119.3501
199.0190,119.2545
199.0732,119.1734
199.1543,119.1192
199.2500,119.1001
Z" /> 
<path style="fill:#000000; fill-opacity:1.0000; stroke:none;fill-rule:evenodd;"
d="M 188.1125,111.9876
188.1315,111.8920
188.1857,111.8109
188.2668,111.7567
188.3625,111.7376
189.1875,111.7376
189.2832,111.7567
189.3643,111.8109
189.4185,111.8920
189.4375,111.9876
189.4375,113.2876
189.4185,113.3833
189.3643,113.4644
189.2832,113.5186
189.1875,113.5376
188.3625,113.5376
188.2668,113.5186
188.1857,113.4644
188.1315,113.3833
188.1125,113.2876
Z" /> 
<path style="fill:#000000; fill-opacity:1.0000; stroke:none;fill-rule:evenodd;"
d="M 191.2375,111.9876
191.2565,111.8920
191.3107,111.8109
191.3918,111.7567
191.4875,111.7376
192.3125,111.7376
192.4082,111.7567
192.4893,111.8109
192.5435,111.8920
192.5625,111.9876
192.5625,113.2876
192.5435,113.3833
192.4893,113.4644
192.4082,113.5186
192.3125,113.5376
191.4875,113.5376
191.3918,113.5186
191.3107,113.4644
191.2565,113.3833
191.2375,113.2876
Z" /> 
<path style="fill:#000000; fill-opacity:1.0000; stroke:none;fill-rule:evenodd;"
d="M 123.8500,130.6000
123.7543,130.5810
123.6732,130.5268
123.6190,130.4457
123.6000,130.3500
123.6000,129.6500
123.6190,129.5543
123.6732,129.4732
123.7543,129.4190
123.8500,129.4000
124.7500,129.4000
124.8457,129.4190
124.9268,129.4732
124.9810,129.5543
125.0000,129.6500
125.0000,130.3500
124.9810,130.4457
124.9268,130.5268
124.8457,130.5810
124.7500,130.6000
Z" /> 
<path style="fill:#000000; fill-opacity:1.0000; stroke:none;fill-rule:evenodd;"
d="M 123.8500,128.6000
123.7543,128.5810
123.6732,128.5268
123.6190,128.4457
123.6000,128.3500
123.6000,127.6500
123.6190,127.5543
123.6732,127.4732
123.7543,127.4190
123.8500,127.4000
124.7500,127.4000
124.8457,127.4190
124.9268,127.4732
124.9810,127.5543
125.0000,127.6500
125.0000,128.3500
124.9810,128.4457
124.9268,128.5268
124.8457,128.5810
124.7500,128.6000
Z" /> 
</g> 
</svg>
