%TF.GenerationSoftware,KiCad,Pcbnew,9.0.2*%
%TF.CreationDate,2025-07-09T22:06:22-04:00*%
%TF.ProjectId,inst_amp_ina333,696e7374-5f61-46d7-905f-696e61333333,rev?*%
%TF.SameCoordinates,Original*%
%TF.FileFunction,Drillmap*%
%TF.FilePolarity,Positive*%
%FSLAX45Y45*%
G04 Gerber Fmt 4.5, Leading zero omitted, Abs format (unit mm)*
G04 Created by KiCad (PCBNEW 9.0.2) date 2025-07-09 22:06:22*
%MOMM*%
%LPD*%
G01*
G04 APERTURE LIST*
%ADD10C,0.050000*%
%ADD11C,0.200000*%
G04 APERTURE END LIST*
D10*
X12750800Y-6019800D02*
X14947900Y-6019800D01*
X14947900Y-7454900D01*
X12750800Y-7454900D01*
X12750800Y-6019800D01*
D11*
X13009077Y-7768884D02*
X13009077Y-7568884D01*
X13009077Y-7568884D02*
X13056696Y-7568884D01*
X13056696Y-7568884D02*
X13085267Y-7578408D01*
X13085267Y-7578408D02*
X13104315Y-7597455D01*
X13104315Y-7597455D02*
X13113839Y-7616503D01*
X13113839Y-7616503D02*
X13123362Y-7654598D01*
X13123362Y-7654598D02*
X13123362Y-7683169D01*
X13123362Y-7683169D02*
X13113839Y-7721265D01*
X13113839Y-7721265D02*
X13104315Y-7740312D01*
X13104315Y-7740312D02*
X13085267Y-7759360D01*
X13085267Y-7759360D02*
X13056696Y-7768884D01*
X13056696Y-7768884D02*
X13009077Y-7768884D01*
X13209077Y-7768884D02*
X13209077Y-7635550D01*
X13209077Y-7673646D02*
X13218601Y-7654598D01*
X13218601Y-7654598D02*
X13228124Y-7645074D01*
X13228124Y-7645074D02*
X13247172Y-7635550D01*
X13247172Y-7635550D02*
X13266220Y-7635550D01*
X13332886Y-7768884D02*
X13332886Y-7635550D01*
X13332886Y-7568884D02*
X13323362Y-7578408D01*
X13323362Y-7578408D02*
X13332886Y-7587931D01*
X13332886Y-7587931D02*
X13342410Y-7578408D01*
X13342410Y-7578408D02*
X13332886Y-7568884D01*
X13332886Y-7568884D02*
X13332886Y-7587931D01*
X13456696Y-7768884D02*
X13437648Y-7759360D01*
X13437648Y-7759360D02*
X13428124Y-7740312D01*
X13428124Y-7740312D02*
X13428124Y-7568884D01*
X13561458Y-7768884D02*
X13542410Y-7759360D01*
X13542410Y-7759360D02*
X13532886Y-7740312D01*
X13532886Y-7740312D02*
X13532886Y-7568884D01*
X13790029Y-7768884D02*
X13790029Y-7568884D01*
X13790029Y-7568884D02*
X13856696Y-7711741D01*
X13856696Y-7711741D02*
X13923362Y-7568884D01*
X13923362Y-7568884D02*
X13923362Y-7768884D01*
X14104315Y-7768884D02*
X14104315Y-7664122D01*
X14104315Y-7664122D02*
X14094791Y-7645074D01*
X14094791Y-7645074D02*
X14075743Y-7635550D01*
X14075743Y-7635550D02*
X14037648Y-7635550D01*
X14037648Y-7635550D02*
X14018601Y-7645074D01*
X14104315Y-7759360D02*
X14085267Y-7768884D01*
X14085267Y-7768884D02*
X14037648Y-7768884D01*
X14037648Y-7768884D02*
X14018601Y-7759360D01*
X14018601Y-7759360D02*
X14009077Y-7740312D01*
X14009077Y-7740312D02*
X14009077Y-7721265D01*
X14009077Y-7721265D02*
X14018601Y-7702217D01*
X14018601Y-7702217D02*
X14037648Y-7692693D01*
X14037648Y-7692693D02*
X14085267Y-7692693D01*
X14085267Y-7692693D02*
X14104315Y-7683169D01*
X14199553Y-7635550D02*
X14199553Y-7835550D01*
X14199553Y-7645074D02*
X14218601Y-7635550D01*
X14218601Y-7635550D02*
X14256696Y-7635550D01*
X14256696Y-7635550D02*
X14275743Y-7645074D01*
X14275743Y-7645074D02*
X14285267Y-7654598D01*
X14285267Y-7654598D02*
X14294791Y-7673646D01*
X14294791Y-7673646D02*
X14294791Y-7730788D01*
X14294791Y-7730788D02*
X14285267Y-7749836D01*
X14285267Y-7749836D02*
X14275743Y-7759360D01*
X14275743Y-7759360D02*
X14256696Y-7768884D01*
X14256696Y-7768884D02*
X14218601Y-7768884D01*
X14218601Y-7768884D02*
X14199553Y-7759360D01*
X14380505Y-7749836D02*
X14390029Y-7759360D01*
X14390029Y-7759360D02*
X14380505Y-7768884D01*
X14380505Y-7768884D02*
X14370982Y-7759360D01*
X14370982Y-7759360D02*
X14380505Y-7749836D01*
X14380505Y-7749836D02*
X14380505Y-7768884D01*
X14380505Y-7645074D02*
X14390029Y-7654598D01*
X14390029Y-7654598D02*
X14380505Y-7664122D01*
X14380505Y-7664122D02*
X14370982Y-7654598D01*
X14370982Y-7654598D02*
X14380505Y-7645074D01*
X14380505Y-7645074D02*
X14380505Y-7664122D01*
M02*
