%TF.GenerationSoftware,KiCad,Pcbnew,9.0.2*%
%TF.CreationDate,2025-07-09T22:05:43-04:00*%
%TF.ProjectId,inst_amp_ina333,696e7374-5f61-46d7-905f-696e61333333,rev?*%
%TF.SameCoordinates,Original*%
%TF.FileFunction,Legend,Top*%
%TF.FilePolarity,Positive*%
%FSLAX46Y46*%
G04 Gerber Fmt 4.6, Leading zero omitted, Abs format (unit mm)*
G04 Created by KiCad (PCBNEW 9.0.2) date 2025-07-09 22:05:43*
%MOMM*%
%LPD*%
G01*
G04 APERTURE LIST*
%ADD10C,0.177800*%
%ADD11C,0.150000*%
%ADD12C,0.250000*%
%ADD13C,0.120000*%
G04 APERTURE END LIST*
D10*
X143699544Y-70763499D02*
X143953544Y-71525499D01*
X143953544Y-71525499D02*
X144207544Y-70763499D01*
X144461544Y-71525499D02*
X144461544Y-71017499D01*
X144461544Y-71162642D02*
X144497830Y-71090071D01*
X144497830Y-71090071D02*
X144534116Y-71053785D01*
X144534116Y-71053785D02*
X144606687Y-71017499D01*
X144606687Y-71017499D02*
X144679258Y-71017499D01*
X145223544Y-71489214D02*
X145150972Y-71525499D01*
X145150972Y-71525499D02*
X145005830Y-71525499D01*
X145005830Y-71525499D02*
X144933258Y-71489214D01*
X144933258Y-71489214D02*
X144896972Y-71416642D01*
X144896972Y-71416642D02*
X144896972Y-71126356D01*
X144896972Y-71126356D02*
X144933258Y-71053785D01*
X144933258Y-71053785D02*
X145005830Y-71017499D01*
X145005830Y-71017499D02*
X145150972Y-71017499D01*
X145150972Y-71017499D02*
X145223544Y-71053785D01*
X145223544Y-71053785D02*
X145259830Y-71126356D01*
X145259830Y-71126356D02*
X145259830Y-71198928D01*
X145259830Y-71198928D02*
X144896972Y-71271499D01*
X145477544Y-71017499D02*
X145767830Y-71017499D01*
X145586401Y-71525499D02*
X145586401Y-70872356D01*
X145586401Y-70872356D02*
X145622687Y-70799785D01*
X145622687Y-70799785D02*
X145695258Y-70763499D01*
X145695258Y-70763499D02*
X145767830Y-70763499D01*
X143445544Y-68223499D02*
X143699544Y-68985499D01*
X143699544Y-68985499D02*
X143953544Y-68223499D01*
X144316401Y-68985499D02*
X144243830Y-68949214D01*
X144243830Y-68949214D02*
X144207544Y-68912928D01*
X144207544Y-68912928D02*
X144171258Y-68840356D01*
X144171258Y-68840356D02*
X144171258Y-68622642D01*
X144171258Y-68622642D02*
X144207544Y-68550071D01*
X144207544Y-68550071D02*
X144243830Y-68513785D01*
X144243830Y-68513785D02*
X144316401Y-68477499D01*
X144316401Y-68477499D02*
X144425258Y-68477499D01*
X144425258Y-68477499D02*
X144497830Y-68513785D01*
X144497830Y-68513785D02*
X144534116Y-68550071D01*
X144534116Y-68550071D02*
X144570401Y-68622642D01*
X144570401Y-68622642D02*
X144570401Y-68840356D01*
X144570401Y-68840356D02*
X144534116Y-68912928D01*
X144534116Y-68912928D02*
X144497830Y-68949214D01*
X144497830Y-68949214D02*
X144425258Y-68985499D01*
X144425258Y-68985499D02*
X144316401Y-68985499D01*
X145223545Y-68477499D02*
X145223545Y-68985499D01*
X144896973Y-68477499D02*
X144896973Y-68876642D01*
X144896973Y-68876642D02*
X144933259Y-68949214D01*
X144933259Y-68949214D02*
X145005830Y-68985499D01*
X145005830Y-68985499D02*
X145114687Y-68985499D01*
X145114687Y-68985499D02*
X145187259Y-68949214D01*
X145187259Y-68949214D02*
X145223545Y-68912928D01*
X145477545Y-68477499D02*
X145767831Y-68477499D01*
X145586402Y-68223499D02*
X145586402Y-68876642D01*
X145586402Y-68876642D02*
X145622688Y-68949214D01*
X145622688Y-68949214D02*
X145695259Y-68985499D01*
X145695259Y-68985499D02*
X145767831Y-68985499D01*
X144207544Y-65683499D02*
X144461544Y-66445499D01*
X144461544Y-66445499D02*
X144715544Y-65683499D01*
X144969544Y-66155214D02*
X145550116Y-66155214D01*
X145259830Y-66445499D02*
X145259830Y-65864928D01*
X144243830Y-63905499D02*
X143989830Y-63542642D01*
X143808401Y-63905499D02*
X143808401Y-63143499D01*
X143808401Y-63143499D02*
X144098687Y-63143499D01*
X144098687Y-63143499D02*
X144171258Y-63179785D01*
X144171258Y-63179785D02*
X144207544Y-63216071D01*
X144207544Y-63216071D02*
X144243830Y-63288642D01*
X144243830Y-63288642D02*
X144243830Y-63397499D01*
X144243830Y-63397499D02*
X144207544Y-63470071D01*
X144207544Y-63470071D02*
X144171258Y-63506356D01*
X144171258Y-63506356D02*
X144098687Y-63542642D01*
X144098687Y-63542642D02*
X143808401Y-63542642D01*
X144969544Y-63179785D02*
X144896973Y-63143499D01*
X144896973Y-63143499D02*
X144788115Y-63143499D01*
X144788115Y-63143499D02*
X144679258Y-63179785D01*
X144679258Y-63179785D02*
X144606687Y-63252356D01*
X144606687Y-63252356D02*
X144570401Y-63324928D01*
X144570401Y-63324928D02*
X144534115Y-63470071D01*
X144534115Y-63470071D02*
X144534115Y-63578928D01*
X144534115Y-63578928D02*
X144570401Y-63724071D01*
X144570401Y-63724071D02*
X144606687Y-63796642D01*
X144606687Y-63796642D02*
X144679258Y-63869214D01*
X144679258Y-63869214D02*
X144788115Y-63905499D01*
X144788115Y-63905499D02*
X144860687Y-63905499D01*
X144860687Y-63905499D02*
X144969544Y-63869214D01*
X144969544Y-63869214D02*
X145005830Y-63832928D01*
X145005830Y-63832928D02*
X145005830Y-63578928D01*
X145005830Y-63578928D02*
X144860687Y-63578928D01*
X145332401Y-63615214D02*
X145912973Y-63615214D01*
X131761544Y-70799785D02*
X131688973Y-70763499D01*
X131688973Y-70763499D02*
X131580115Y-70763499D01*
X131580115Y-70763499D02*
X131471258Y-70799785D01*
X131471258Y-70799785D02*
X131398687Y-70872356D01*
X131398687Y-70872356D02*
X131362401Y-70944928D01*
X131362401Y-70944928D02*
X131326115Y-71090071D01*
X131326115Y-71090071D02*
X131326115Y-71198928D01*
X131326115Y-71198928D02*
X131362401Y-71344071D01*
X131362401Y-71344071D02*
X131398687Y-71416642D01*
X131398687Y-71416642D02*
X131471258Y-71489214D01*
X131471258Y-71489214D02*
X131580115Y-71525499D01*
X131580115Y-71525499D02*
X131652687Y-71525499D01*
X131652687Y-71525499D02*
X131761544Y-71489214D01*
X131761544Y-71489214D02*
X131797830Y-71452928D01*
X131797830Y-71452928D02*
X131797830Y-71198928D01*
X131797830Y-71198928D02*
X131652687Y-71198928D01*
X132124401Y-71525499D02*
X132124401Y-70763499D01*
X132124401Y-70763499D02*
X132559830Y-71525499D01*
X132559830Y-71525499D02*
X132559830Y-70763499D01*
X132922687Y-71525499D02*
X132922687Y-70763499D01*
X132922687Y-70763499D02*
X133104116Y-70763499D01*
X133104116Y-70763499D02*
X133212973Y-70799785D01*
X133212973Y-70799785D02*
X133285544Y-70872356D01*
X133285544Y-70872356D02*
X133321830Y-70944928D01*
X133321830Y-70944928D02*
X133358116Y-71090071D01*
X133358116Y-71090071D02*
X133358116Y-71198928D01*
X133358116Y-71198928D02*
X133321830Y-71344071D01*
X133321830Y-71344071D02*
X133285544Y-71416642D01*
X133285544Y-71416642D02*
X133212973Y-71489214D01*
X133212973Y-71489214D02*
X133104116Y-71525499D01*
X133104116Y-71525499D02*
X132922687Y-71525499D01*
X131253544Y-68223499D02*
X131507544Y-68985499D01*
X131507544Y-68985499D02*
X131761544Y-68223499D01*
X132015544Y-68985499D02*
X132015544Y-68477499D01*
X132015544Y-68223499D02*
X131979258Y-68259785D01*
X131979258Y-68259785D02*
X132015544Y-68296071D01*
X132015544Y-68296071D02*
X132051830Y-68259785D01*
X132051830Y-68259785D02*
X132015544Y-68223499D01*
X132015544Y-68223499D02*
X132015544Y-68296071D01*
X132378401Y-68477499D02*
X132378401Y-68985499D01*
X132378401Y-68550071D02*
X132414687Y-68513785D01*
X132414687Y-68513785D02*
X132487258Y-68477499D01*
X132487258Y-68477499D02*
X132596115Y-68477499D01*
X132596115Y-68477499D02*
X132668687Y-68513785D01*
X132668687Y-68513785D02*
X132704973Y-68586356D01*
X132704973Y-68586356D02*
X132704973Y-68985499D01*
X133067830Y-68695214D02*
X133648402Y-68695214D01*
X133358116Y-68985499D02*
X133358116Y-68404928D01*
X131797830Y-63905499D02*
X131543830Y-63542642D01*
X131362401Y-63905499D02*
X131362401Y-63143499D01*
X131362401Y-63143499D02*
X131652687Y-63143499D01*
X131652687Y-63143499D02*
X131725258Y-63179785D01*
X131725258Y-63179785D02*
X131761544Y-63216071D01*
X131761544Y-63216071D02*
X131797830Y-63288642D01*
X131797830Y-63288642D02*
X131797830Y-63397499D01*
X131797830Y-63397499D02*
X131761544Y-63470071D01*
X131761544Y-63470071D02*
X131725258Y-63506356D01*
X131725258Y-63506356D02*
X131652687Y-63542642D01*
X131652687Y-63542642D02*
X131362401Y-63542642D01*
X132523544Y-63179785D02*
X132450973Y-63143499D01*
X132450973Y-63143499D02*
X132342115Y-63143499D01*
X132342115Y-63143499D02*
X132233258Y-63179785D01*
X132233258Y-63179785D02*
X132160687Y-63252356D01*
X132160687Y-63252356D02*
X132124401Y-63324928D01*
X132124401Y-63324928D02*
X132088115Y-63470071D01*
X132088115Y-63470071D02*
X132088115Y-63578928D01*
X132088115Y-63578928D02*
X132124401Y-63724071D01*
X132124401Y-63724071D02*
X132160687Y-63796642D01*
X132160687Y-63796642D02*
X132233258Y-63869214D01*
X132233258Y-63869214D02*
X132342115Y-63905499D01*
X132342115Y-63905499D02*
X132414687Y-63905499D01*
X132414687Y-63905499D02*
X132523544Y-63869214D01*
X132523544Y-63869214D02*
X132559830Y-63832928D01*
X132559830Y-63832928D02*
X132559830Y-63578928D01*
X132559830Y-63578928D02*
X132414687Y-63578928D01*
X132886401Y-63615214D02*
X133466973Y-63615214D01*
X133176687Y-63905499D02*
X133176687Y-63324928D01*
X131253544Y-65683499D02*
X131507544Y-66445499D01*
X131507544Y-66445499D02*
X131761544Y-65683499D01*
X132015544Y-66445499D02*
X132015544Y-65937499D01*
X132015544Y-65683499D02*
X131979258Y-65719785D01*
X131979258Y-65719785D02*
X132015544Y-65756071D01*
X132015544Y-65756071D02*
X132051830Y-65719785D01*
X132051830Y-65719785D02*
X132015544Y-65683499D01*
X132015544Y-65683499D02*
X132015544Y-65756071D01*
X132378401Y-65937499D02*
X132378401Y-66445499D01*
X132378401Y-66010071D02*
X132414687Y-65973785D01*
X132414687Y-65973785D02*
X132487258Y-65937499D01*
X132487258Y-65937499D02*
X132596115Y-65937499D01*
X132596115Y-65937499D02*
X132668687Y-65973785D01*
X132668687Y-65973785D02*
X132704973Y-66046356D01*
X132704973Y-66046356D02*
X132704973Y-66445499D01*
X133067830Y-66155214D02*
X133648402Y-66155214D01*
D11*
X137414095Y-64224819D02*
X137414095Y-65034342D01*
X137414095Y-65034342D02*
X137461714Y-65129580D01*
X137461714Y-65129580D02*
X137509333Y-65177200D01*
X137509333Y-65177200D02*
X137604571Y-65224819D01*
X137604571Y-65224819D02*
X137795047Y-65224819D01*
X137795047Y-65224819D02*
X137890285Y-65177200D01*
X137890285Y-65177200D02*
X137937904Y-65129580D01*
X137937904Y-65129580D02*
X137985523Y-65034342D01*
X137985523Y-65034342D02*
X137985523Y-64224819D01*
X138985523Y-65224819D02*
X138414095Y-65224819D01*
X138699809Y-65224819D02*
X138699809Y-64224819D01*
X138699809Y-64224819D02*
X138604571Y-64367676D01*
X138604571Y-64367676D02*
X138509333Y-64462914D01*
X138509333Y-64462914D02*
X138414095Y-64510533D01*
X147240666Y-73114819D02*
X147240666Y-73829104D01*
X147240666Y-73829104D02*
X147193047Y-73971961D01*
X147193047Y-73971961D02*
X147097809Y-74067200D01*
X147097809Y-74067200D02*
X146954952Y-74114819D01*
X146954952Y-74114819D02*
X146859714Y-74114819D01*
X147669238Y-73210057D02*
X147716857Y-73162438D01*
X147716857Y-73162438D02*
X147812095Y-73114819D01*
X147812095Y-73114819D02*
X148050190Y-73114819D01*
X148050190Y-73114819D02*
X148145428Y-73162438D01*
X148145428Y-73162438D02*
X148193047Y-73210057D01*
X148193047Y-73210057D02*
X148240666Y-73305295D01*
X148240666Y-73305295D02*
X148240666Y-73400533D01*
X148240666Y-73400533D02*
X148193047Y-73543390D01*
X148193047Y-73543390D02*
X147621619Y-74114819D01*
X147621619Y-74114819D02*
X148240666Y-74114819D01*
X129333666Y-60574819D02*
X129333666Y-61289104D01*
X129333666Y-61289104D02*
X129286047Y-61431961D01*
X129286047Y-61431961D02*
X129190809Y-61527200D01*
X129190809Y-61527200D02*
X129047952Y-61574819D01*
X129047952Y-61574819D02*
X128952714Y-61574819D01*
X130333666Y-61574819D02*
X129762238Y-61574819D01*
X130047952Y-61574819D02*
X130047952Y-60574819D01*
X130047952Y-60574819D02*
X129952714Y-60717676D01*
X129952714Y-60717676D02*
X129857476Y-60812914D01*
X129857476Y-60812914D02*
X129762238Y-60860533D01*
X142327333Y-62589580D02*
X142279714Y-62637200D01*
X142279714Y-62637200D02*
X142136857Y-62684819D01*
X142136857Y-62684819D02*
X142041619Y-62684819D01*
X142041619Y-62684819D02*
X141898762Y-62637200D01*
X141898762Y-62637200D02*
X141803524Y-62541961D01*
X141803524Y-62541961D02*
X141755905Y-62446723D01*
X141755905Y-62446723D02*
X141708286Y-62256247D01*
X141708286Y-62256247D02*
X141708286Y-62113390D01*
X141708286Y-62113390D02*
X141755905Y-61922914D01*
X141755905Y-61922914D02*
X141803524Y-61827676D01*
X141803524Y-61827676D02*
X141898762Y-61732438D01*
X141898762Y-61732438D02*
X142041619Y-61684819D01*
X142041619Y-61684819D02*
X142136857Y-61684819D01*
X142136857Y-61684819D02*
X142279714Y-61732438D01*
X142279714Y-61732438D02*
X142327333Y-61780057D01*
X143279714Y-62684819D02*
X142708286Y-62684819D01*
X142994000Y-62684819D02*
X142994000Y-61684819D01*
X142994000Y-61684819D02*
X142898762Y-61827676D01*
X142898762Y-61827676D02*
X142803524Y-61922914D01*
X142803524Y-61922914D02*
X142708286Y-61970533D01*
%TO.C,U1*%
X137076000Y-65760001D02*
X139276000Y-65760001D01*
X137076000Y-68859999D02*
X139276000Y-68859999D01*
D12*
X134951000Y-66110000D02*
G75*
G02*
X134700998Y-66110000I-125001J0D01*
G01*
X134700998Y-66110000D02*
G75*
G02*
X134951000Y-66110000I125001J0D01*
G01*
D13*
%TO.C,J2*%
X145940000Y-62120000D02*
X147320000Y-62120000D01*
X145940000Y-63500000D02*
X145940000Y-62120000D01*
X145940000Y-64770000D02*
X145940000Y-72500000D01*
X145940000Y-64770000D02*
X148700000Y-64770000D01*
X145940000Y-72500000D02*
X148700000Y-72500000D01*
X148700000Y-64770000D02*
X148700000Y-72500000D01*
%TO.C,J1*%
X128287000Y-62120000D02*
X129667000Y-62120000D01*
X128287000Y-63500000D02*
X128287000Y-62120000D01*
X128287000Y-64770000D02*
X128287000Y-72500000D01*
X128287000Y-64770000D02*
X131047000Y-64770000D01*
X128287000Y-72500000D02*
X131047000Y-72500000D01*
X131047000Y-64770000D02*
X131047000Y-72500000D01*
%TO.C,C1*%
X143404000Y-64566748D02*
X143404000Y-65989252D01*
X141584000Y-64566748D02*
X141584000Y-65989252D01*
%TD*%
M02*
