%TF.GenerationSoftware,KiCad,Pcbnew,9.0.2*%
%TF.CreationDate,2025-07-09T22:05:43-04:00*%
%TF.ProjectId,inst_amp_ina333,696e7374-5f61-46d7-905f-696e61333333,rev?*%
%TF.SameCoordinates,Original*%
%TF.FileFunction,Copper,L1,Top*%
%TF.FilePolarity,Positive*%
%FSLAX46Y46*%
G04 Gerber Fmt 4.6, Leading zero omitted, Abs format (unit mm)*
G04 Created by KiCad (PCBNEW 9.0.2) date 2025-07-09 22:05:43*
%MOMM*%
%LPD*%
G01*
G04 APERTURE LIST*
G04 Aperture macros list*
%AMRoundRect*
0 Rectangle with rounded corners*
0 $1 Rounding radius*
0 $2 $3 $4 $5 $6 $7 $8 $9 X,Y pos of 4 corners*
0 Add a 4 corners polygon primitive as box body*
4,1,4,$2,$3,$4,$5,$6,$7,$8,$9,$2,$3,0*
0 Add four circle primitives for the rounded corners*
1,1,$1+$1,$2,$3*
1,1,$1+$1,$4,$5*
1,1,$1+$1,$6,$7*
1,1,$1+$1,$8,$9*
0 Add four rect primitives between the rounded corners*
20,1,$1+$1,$2,$3,$4,$5,0*
20,1,$1+$1,$4,$5,$6,$7,0*
20,1,$1+$1,$6,$7,$8,$9,0*
20,1,$1+$1,$8,$9,$2,$3,0*%
G04 Aperture macros list end*
%ADD10C,0.177800*%
%TA.AperFunction,NonConductor*%
%ADD11C,0.177800*%
%TD*%
%TA.AperFunction,SMDPad,CuDef*%
%ADD12R,1.450000X0.449999*%
%TD*%
%TA.AperFunction,ComponentPad*%
%ADD13R,1.700000X1.700000*%
%TD*%
%TA.AperFunction,ComponentPad*%
%ADD14C,1.700000*%
%TD*%
%TA.AperFunction,SMDPad,CuDef*%
%ADD15RoundRect,0.250000X-0.650000X0.325000X-0.650000X-0.325000X0.650000X-0.325000X0.650000X0.325000X0*%
%TD*%
%TA.AperFunction,ViaPad*%
%ADD16C,0.600000*%
%TD*%
%TA.AperFunction,Conductor*%
%ADD17C,0.457200*%
%TD*%
%TA.AperFunction,Conductor*%
%ADD18C,0.762000*%
%TD*%
G04 APERTURE END LIST*
D10*
D11*
X132692877Y-62096414D02*
X132692877Y-61080414D01*
X133176687Y-62096414D02*
X133176687Y-61080414D01*
X133176687Y-61080414D02*
X133757259Y-62096414D01*
X133757259Y-62096414D02*
X133757259Y-61080414D01*
X134192687Y-61806129D02*
X134676497Y-61806129D01*
X134095925Y-62096414D02*
X134434592Y-61080414D01*
X134434592Y-61080414D02*
X134773259Y-62096414D01*
X135015163Y-61080414D02*
X135644116Y-61080414D01*
X135644116Y-61080414D02*
X135305449Y-61467462D01*
X135305449Y-61467462D02*
X135450592Y-61467462D01*
X135450592Y-61467462D02*
X135547354Y-61515843D01*
X135547354Y-61515843D02*
X135595735Y-61564224D01*
X135595735Y-61564224D02*
X135644116Y-61660986D01*
X135644116Y-61660986D02*
X135644116Y-61902891D01*
X135644116Y-61902891D02*
X135595735Y-61999653D01*
X135595735Y-61999653D02*
X135547354Y-62048034D01*
X135547354Y-62048034D02*
X135450592Y-62096414D01*
X135450592Y-62096414D02*
X135160306Y-62096414D01*
X135160306Y-62096414D02*
X135063544Y-62048034D01*
X135063544Y-62048034D02*
X135015163Y-61999653D01*
X135982782Y-61080414D02*
X136611735Y-61080414D01*
X136611735Y-61080414D02*
X136273068Y-61467462D01*
X136273068Y-61467462D02*
X136418211Y-61467462D01*
X136418211Y-61467462D02*
X136514973Y-61515843D01*
X136514973Y-61515843D02*
X136563354Y-61564224D01*
X136563354Y-61564224D02*
X136611735Y-61660986D01*
X136611735Y-61660986D02*
X136611735Y-61902891D01*
X136611735Y-61902891D02*
X136563354Y-61999653D01*
X136563354Y-61999653D02*
X136514973Y-62048034D01*
X136514973Y-62048034D02*
X136418211Y-62096414D01*
X136418211Y-62096414D02*
X136127925Y-62096414D01*
X136127925Y-62096414D02*
X136031163Y-62048034D01*
X136031163Y-62048034D02*
X135982782Y-61999653D01*
X136950401Y-61080414D02*
X137579354Y-61080414D01*
X137579354Y-61080414D02*
X137240687Y-61467462D01*
X137240687Y-61467462D02*
X137385830Y-61467462D01*
X137385830Y-61467462D02*
X137482592Y-61515843D01*
X137482592Y-61515843D02*
X137530973Y-61564224D01*
X137530973Y-61564224D02*
X137579354Y-61660986D01*
X137579354Y-61660986D02*
X137579354Y-61902891D01*
X137579354Y-61902891D02*
X137530973Y-61999653D01*
X137530973Y-61999653D02*
X137482592Y-62048034D01*
X137482592Y-62048034D02*
X137385830Y-62096414D01*
X137385830Y-62096414D02*
X137095544Y-62096414D01*
X137095544Y-62096414D02*
X136998782Y-62048034D01*
X136998782Y-62048034D02*
X136950401Y-61999653D01*
X138692115Y-61419081D02*
X138934020Y-62096414D01*
X138934020Y-62096414D02*
X139175925Y-61419081D01*
X140095163Y-62096414D02*
X139514591Y-62096414D01*
X139804877Y-62096414D02*
X139804877Y-61080414D01*
X139804877Y-61080414D02*
X139708115Y-61225557D01*
X139708115Y-61225557D02*
X139611353Y-61322319D01*
X139611353Y-61322319D02*
X139514591Y-61370700D01*
D10*
D11*
X138873544Y-72994224D02*
X139018687Y-73042605D01*
X139018687Y-73042605D02*
X139067068Y-73090986D01*
X139067068Y-73090986D02*
X139115449Y-73187748D01*
X139115449Y-73187748D02*
X139115449Y-73332891D01*
X139115449Y-73332891D02*
X139067068Y-73429653D01*
X139067068Y-73429653D02*
X139018687Y-73478034D01*
X139018687Y-73478034D02*
X138921925Y-73526414D01*
X138921925Y-73526414D02*
X138534877Y-73526414D01*
X138534877Y-73526414D02*
X138534877Y-72510414D01*
X138534877Y-72510414D02*
X138873544Y-72510414D01*
X138873544Y-72510414D02*
X138970306Y-72558795D01*
X138970306Y-72558795D02*
X139018687Y-72607176D01*
X139018687Y-72607176D02*
X139067068Y-72703938D01*
X139067068Y-72703938D02*
X139067068Y-72800700D01*
X139067068Y-72800700D02*
X139018687Y-72897462D01*
X139018687Y-72897462D02*
X138970306Y-72945843D01*
X138970306Y-72945843D02*
X138873544Y-72994224D01*
X138873544Y-72994224D02*
X138534877Y-72994224D01*
X139937925Y-73478034D02*
X139841163Y-73526414D01*
X139841163Y-73526414D02*
X139647639Y-73526414D01*
X139647639Y-73526414D02*
X139550877Y-73478034D01*
X139550877Y-73478034D02*
X139502496Y-73381272D01*
X139502496Y-73381272D02*
X139502496Y-72994224D01*
X139502496Y-72994224D02*
X139550877Y-72897462D01*
X139550877Y-72897462D02*
X139647639Y-72849081D01*
X139647639Y-72849081D02*
X139841163Y-72849081D01*
X139841163Y-72849081D02*
X139937925Y-72897462D01*
X139937925Y-72897462D02*
X139986306Y-72994224D01*
X139986306Y-72994224D02*
X139986306Y-73090986D01*
X139986306Y-73090986D02*
X139502496Y-73187748D01*
X140857163Y-73526414D02*
X140857163Y-72994224D01*
X140857163Y-72994224D02*
X140808782Y-72897462D01*
X140808782Y-72897462D02*
X140712020Y-72849081D01*
X140712020Y-72849081D02*
X140518496Y-72849081D01*
X140518496Y-72849081D02*
X140421734Y-72897462D01*
X140857163Y-73478034D02*
X140760401Y-73526414D01*
X140760401Y-73526414D02*
X140518496Y-73526414D01*
X140518496Y-73526414D02*
X140421734Y-73478034D01*
X140421734Y-73478034D02*
X140373353Y-73381272D01*
X140373353Y-73381272D02*
X140373353Y-73284510D01*
X140373353Y-73284510D02*
X140421734Y-73187748D01*
X140421734Y-73187748D02*
X140518496Y-73139367D01*
X140518496Y-73139367D02*
X140760401Y-73139367D01*
X140760401Y-73139367D02*
X140857163Y-73090986D01*
X141340972Y-72849081D02*
X141340972Y-73526414D01*
X141340972Y-72945843D02*
X141389353Y-72897462D01*
X141389353Y-72897462D02*
X141486115Y-72849081D01*
X141486115Y-72849081D02*
X141631258Y-72849081D01*
X141631258Y-72849081D02*
X141728020Y-72897462D01*
X141728020Y-72897462D02*
X141776401Y-72994224D01*
X141776401Y-72994224D02*
X141776401Y-73526414D01*
D12*
%TO.P,U1,1,1_RG*%
%TO.N,/RG+*%
X135975999Y-66335001D03*
%TO.P,U1,2,VIN-*%
%TO.N,/Vin-*%
X135975999Y-66984999D03*
%TO.P,U1,3,VIN+*%
%TO.N,/Vin+*%
X135975999Y-67635001D03*
%TO.P,U1,4,V-*%
%TO.N,GND*%
X135975999Y-68284999D03*
%TO.P,U1,5,REF*%
%TO.N,/Vref*%
X140376001Y-68284999D03*
%TO.P,U1,6,VOUT*%
%TO.N,/Vout*%
X140376001Y-67635001D03*
%TO.P,U1,7,V+*%
%TO.N,V+*%
X140376001Y-66984999D03*
%TO.P,U1,8,2_RG*%
%TO.N,/RG-*%
X140376001Y-66335001D03*
%TD*%
D13*
%TO.P,J2,1,Pin_1*%
%TO.N,/RG-*%
X147320000Y-63500000D03*
D14*
%TO.P,J2,2,Pin_2*%
%TO.N,V+*%
X147320000Y-66040000D03*
%TO.P,J2,3,Pin_3*%
%TO.N,/Vout*%
X147320000Y-68580000D03*
%TO.P,J2,4,Pin_4*%
%TO.N,/Vref*%
X147320000Y-71120000D03*
%TD*%
D13*
%TO.P,J1,1,Pin_1*%
%TO.N,/RG+*%
X129667000Y-63500000D03*
D14*
%TO.P,J1,2,Pin_2*%
%TO.N,/Vin-*%
X129667000Y-66040000D03*
%TO.P,J1,3,Pin_3*%
%TO.N,/Vin+*%
X129667000Y-68580000D03*
%TO.P,J1,4,Pin_4*%
%TO.N,GND*%
X129667000Y-71120000D03*
%TD*%
D15*
%TO.P,C1,1*%
%TO.N,GND*%
X142494000Y-63803000D03*
%TO.P,C1,2*%
%TO.N,V+*%
X142494000Y-66753000D03*
%TD*%
D16*
%TO.N,/RG-*%
X140462000Y-65278000D03*
%TD*%
D17*
%TO.N,/RG-*%
X140376001Y-65363999D02*
X140462000Y-65278000D01*
X140376001Y-66335001D02*
X140376001Y-65363999D01*
D18*
%TO.N,GND*%
X139905000Y-63803000D02*
X142494000Y-63803000D01*
X138176000Y-68326000D02*
X138176000Y-65532000D01*
X138176000Y-65532000D02*
X139905000Y-63803000D01*
D17*
X135975999Y-68284999D02*
X138134999Y-68284999D01*
X138134999Y-68284999D02*
X138176000Y-68326000D01*
D18*
X138176000Y-70104000D02*
X138176000Y-68326000D01*
X137160000Y-71120000D02*
X138176000Y-70104000D01*
X129667000Y-71120000D02*
X137160000Y-71120000D01*
D17*
%TO.N,/Vref*%
X140376001Y-69256001D02*
X142240000Y-71120000D01*
X142240000Y-71120000D02*
X147320000Y-71120000D01*
X140376001Y-68284999D02*
X140376001Y-69256001D01*
%TO.N,/Vout*%
X145542000Y-68580000D02*
X147320000Y-68580000D01*
X145034000Y-68072000D02*
X145542000Y-68580000D01*
X141732000Y-68072000D02*
X145034000Y-68072000D01*
X141295001Y-67635001D02*
X141732000Y-68072000D01*
X140376001Y-67635001D02*
X141295001Y-67635001D01*
D18*
%TO.N,V+*%
X145034000Y-66040000D02*
X147320000Y-66040000D01*
X144321000Y-66753000D02*
X145034000Y-66040000D01*
X142494000Y-66753000D02*
X144321000Y-66753000D01*
D17*
X142262001Y-66984999D02*
X142494000Y-66753000D01*
X140376001Y-66984999D02*
X142262001Y-66984999D01*
%TO.N,/Vin+*%
X132842000Y-68580000D02*
X129667000Y-68580000D01*
X133786999Y-67635001D02*
X132842000Y-68580000D01*
X135975999Y-67635001D02*
X133786999Y-67635001D01*
%TO.N,/Vin-*%
X132588000Y-66040000D02*
X129667000Y-66040000D01*
X133532999Y-66984999D02*
X132588000Y-66040000D01*
X135975999Y-66984999D02*
X133532999Y-66984999D01*
%TO.N,/RG+*%
X131572000Y-63500000D02*
X129667000Y-63500000D01*
X134407001Y-66335001D02*
X131572000Y-63500000D01*
X135975999Y-66335001D02*
X134407001Y-66335001D01*
%TD*%
M02*
