%TF.GenerationSoftware,KiCad,Pcbnew,9.0.2*%
%TF.CreationDate,2025-07-09T22:05:44-04:00*%
%TF.ProjectId,inst_amp_ina333,696e7374-5f61-46d7-905f-696e61333333,rev?*%
%TF.SameCoordinates,Original*%
%TF.FileFunction,Soldermask,Bot*%
%TF.FilePolarity,Negative*%
%FSLAX46Y46*%
G04 Gerber Fmt 4.6, Leading zero omitted, Abs format (unit mm)*
G04 Created by KiCad (PCBNEW 9.0.2) date 2025-07-09 22:05:44*
%MOMM*%
%LPD*%
G01*
G04 APERTURE LIST*
G04 APERTURE END LIST*
G36*
X129921115Y-70282294D02*
G01*
X130079661Y-70347966D01*
X130222348Y-70443307D01*
X130343693Y-70564652D01*
X130439034Y-70707339D01*
X130504706Y-70865885D01*
X130538185Y-71034196D01*
X130538185Y-71205804D01*
X130504706Y-71374115D01*
X130439034Y-71532661D01*
X130343693Y-71675348D01*
X130222348Y-71796693D01*
X130079661Y-71892034D01*
X129921115Y-71957706D01*
X129752804Y-71991185D01*
X129581196Y-71991185D01*
X129412885Y-71957706D01*
X129254339Y-71892034D01*
X129111652Y-71796693D01*
X128990307Y-71675348D01*
X128894966Y-71532661D01*
X128829294Y-71374115D01*
X128795815Y-71205804D01*
X128795815Y-71034196D01*
X128829294Y-70865885D01*
X128894966Y-70707339D01*
X128990307Y-70564652D01*
X129111652Y-70443307D01*
X129254339Y-70347966D01*
X129412885Y-70282294D01*
X129581196Y-70248815D01*
X129752804Y-70248815D01*
X129921115Y-70282294D01*
G37*
G36*
X147574115Y-70282294D02*
G01*
X147732661Y-70347966D01*
X147875348Y-70443307D01*
X147996693Y-70564652D01*
X148092034Y-70707339D01*
X148157706Y-70865885D01*
X148191185Y-71034196D01*
X148191185Y-71205804D01*
X148157706Y-71374115D01*
X148092034Y-71532661D01*
X147996693Y-71675348D01*
X147875348Y-71796693D01*
X147732661Y-71892034D01*
X147574115Y-71957706D01*
X147405804Y-71991185D01*
X147234196Y-71991185D01*
X147065885Y-71957706D01*
X146907339Y-71892034D01*
X146764652Y-71796693D01*
X146643307Y-71675348D01*
X146547966Y-71532661D01*
X146482294Y-71374115D01*
X146448815Y-71205804D01*
X146448815Y-71034196D01*
X146482294Y-70865885D01*
X146547966Y-70707339D01*
X146643307Y-70564652D01*
X146764652Y-70443307D01*
X146907339Y-70347966D01*
X147065885Y-70282294D01*
X147234196Y-70248815D01*
X147405804Y-70248815D01*
X147574115Y-70282294D01*
G37*
G36*
X129921115Y-67742294D02*
G01*
X130079661Y-67807966D01*
X130222348Y-67903307D01*
X130343693Y-68024652D01*
X130439034Y-68167339D01*
X130504706Y-68325885D01*
X130538185Y-68494196D01*
X130538185Y-68665804D01*
X130504706Y-68834115D01*
X130439034Y-68992661D01*
X130343693Y-69135348D01*
X130222348Y-69256693D01*
X130079661Y-69352034D01*
X129921115Y-69417706D01*
X129752804Y-69451185D01*
X129581196Y-69451185D01*
X129412885Y-69417706D01*
X129254339Y-69352034D01*
X129111652Y-69256693D01*
X128990307Y-69135348D01*
X128894966Y-68992661D01*
X128829294Y-68834115D01*
X128795815Y-68665804D01*
X128795815Y-68494196D01*
X128829294Y-68325885D01*
X128894966Y-68167339D01*
X128990307Y-68024652D01*
X129111652Y-67903307D01*
X129254339Y-67807966D01*
X129412885Y-67742294D01*
X129581196Y-67708815D01*
X129752804Y-67708815D01*
X129921115Y-67742294D01*
G37*
G36*
X147574115Y-67742294D02*
G01*
X147732661Y-67807966D01*
X147875348Y-67903307D01*
X147996693Y-68024652D01*
X148092034Y-68167339D01*
X148157706Y-68325885D01*
X148191185Y-68494196D01*
X148191185Y-68665804D01*
X148157706Y-68834115D01*
X148092034Y-68992661D01*
X147996693Y-69135348D01*
X147875348Y-69256693D01*
X147732661Y-69352034D01*
X147574115Y-69417706D01*
X147405804Y-69451185D01*
X147234196Y-69451185D01*
X147065885Y-69417706D01*
X146907339Y-69352034D01*
X146764652Y-69256693D01*
X146643307Y-69135348D01*
X146547966Y-68992661D01*
X146482294Y-68834115D01*
X146448815Y-68665804D01*
X146448815Y-68494196D01*
X146482294Y-68325885D01*
X146547966Y-68167339D01*
X146643307Y-68024652D01*
X146764652Y-67903307D01*
X146907339Y-67807966D01*
X147065885Y-67742294D01*
X147234196Y-67708815D01*
X147405804Y-67708815D01*
X147574115Y-67742294D01*
G37*
G36*
X129921115Y-65202294D02*
G01*
X130079661Y-65267966D01*
X130222348Y-65363307D01*
X130343693Y-65484652D01*
X130439034Y-65627339D01*
X130504706Y-65785885D01*
X130538185Y-65954196D01*
X130538185Y-66125804D01*
X130504706Y-66294115D01*
X130439034Y-66452661D01*
X130343693Y-66595348D01*
X130222348Y-66716693D01*
X130079661Y-66812034D01*
X129921115Y-66877706D01*
X129752804Y-66911185D01*
X129581196Y-66911185D01*
X129412885Y-66877706D01*
X129254339Y-66812034D01*
X129111652Y-66716693D01*
X128990307Y-66595348D01*
X128894966Y-66452661D01*
X128829294Y-66294115D01*
X128795815Y-66125804D01*
X128795815Y-65954196D01*
X128829294Y-65785885D01*
X128894966Y-65627339D01*
X128990307Y-65484652D01*
X129111652Y-65363307D01*
X129254339Y-65267966D01*
X129412885Y-65202294D01*
X129581196Y-65168815D01*
X129752804Y-65168815D01*
X129921115Y-65202294D01*
G37*
G36*
X147574115Y-65202294D02*
G01*
X147732661Y-65267966D01*
X147875348Y-65363307D01*
X147996693Y-65484652D01*
X148092034Y-65627339D01*
X148157706Y-65785885D01*
X148191185Y-65954196D01*
X148191185Y-66125804D01*
X148157706Y-66294115D01*
X148092034Y-66452661D01*
X147996693Y-66595348D01*
X147875348Y-66716693D01*
X147732661Y-66812034D01*
X147574115Y-66877706D01*
X147405804Y-66911185D01*
X147234196Y-66911185D01*
X147065885Y-66877706D01*
X146907339Y-66812034D01*
X146764652Y-66716693D01*
X146643307Y-66595348D01*
X146547966Y-66452661D01*
X146482294Y-66294115D01*
X146448815Y-66125804D01*
X146448815Y-65954196D01*
X146482294Y-65785885D01*
X146547966Y-65627339D01*
X146643307Y-65484652D01*
X146764652Y-65363307D01*
X146907339Y-65267966D01*
X147065885Y-65202294D01*
X147234196Y-65168815D01*
X147405804Y-65168815D01*
X147574115Y-65202294D01*
G37*
G36*
X130526720Y-62626533D02*
G01*
X130534961Y-62632039D01*
X130540467Y-62640280D01*
X130542400Y-62650000D01*
X130542400Y-64350000D01*
X130540467Y-64359720D01*
X130534961Y-64367961D01*
X130526720Y-64373467D01*
X130517000Y-64375400D01*
X128817000Y-64375400D01*
X128807280Y-64373467D01*
X128799039Y-64367961D01*
X128793533Y-64359720D01*
X128791600Y-64350000D01*
X128791600Y-62650000D01*
X128793533Y-62640280D01*
X128799039Y-62632039D01*
X128807280Y-62626533D01*
X128817000Y-62624600D01*
X130517000Y-62624600D01*
X130526720Y-62626533D01*
G37*
G36*
X148179720Y-62626533D02*
G01*
X148187961Y-62632039D01*
X148193467Y-62640280D01*
X148195400Y-62650000D01*
X148195400Y-64350000D01*
X148193467Y-64359720D01*
X148187961Y-64367961D01*
X148179720Y-64373467D01*
X148170000Y-64375400D01*
X146470000Y-64375400D01*
X146460280Y-64373467D01*
X146452039Y-64367961D01*
X146446533Y-64359720D01*
X146444600Y-64350000D01*
X146444600Y-62650000D01*
X146446533Y-62640280D01*
X146452039Y-62632039D01*
X146460280Y-62626533D01*
X146470000Y-62624600D01*
X148170000Y-62624600D01*
X148179720Y-62626533D01*
G37*
M02*
