%TF.GenerationSoftware,KiCad,Pcbnew,9.0.3*%
%TF.CreationDate,2025-09-11T10:37:05-04:00*%
%TF.ProjectId,lmv324_breakout,6c6d7633-3234-45f6-9272-65616b6f7574,rev?*%
%TF.SameCoordinates,Original*%
%TF.FileFunction,Copper,L1,Top*%
%TF.FilePolarity,Positive*%
%FSLAX46Y46*%
G04 Gerber Fmt 4.6, Leading zero omitted, Abs format (unit mm)*
G04 Created by KiCad (PCBNEW 9.0.3) date 2025-09-11 10:37:05*
%MOMM*%
%LPD*%
G01*
G04 APERTURE LIST*
G04 Aperture macros list*
%AMRoundRect*
0 Rectangle with rounded corners*
0 $1 Rounding radius*
0 $2 $3 $4 $5 $6 $7 $8 $9 X,Y pos of 4 corners*
0 Add a 4 corners polygon primitive as box body*
4,1,4,$2,$3,$4,$5,$6,$7,$8,$9,$2,$3,0*
0 Add four circle primitives for the rounded corners*
1,1,$1+$1,$2,$3*
1,1,$1+$1,$4,$5*
1,1,$1+$1,$6,$7*
1,1,$1+$1,$8,$9*
0 Add four rect primitives between the rounded corners*
20,1,$1+$1,$2,$3,$4,$5,0*
20,1,$1+$1,$4,$5,$6,$7,0*
20,1,$1+$1,$6,$7,$8,$9,0*
20,1,$1+$1,$8,$9,$2,$3,0*%
G04 Aperture macros list end*
%TA.AperFunction,ComponentPad*%
%ADD10R,1.700000X1.700000*%
%TD*%
%TA.AperFunction,ComponentPad*%
%ADD11C,1.700000*%
%TD*%
%TA.AperFunction,SMDPad,CuDef*%
%ADD12RoundRect,0.100000X-0.100000X0.637500X-0.100000X-0.637500X0.100000X-0.637500X0.100000X0.637500X0*%
%TD*%
%TA.AperFunction,SMDPad,CuDef*%
%ADD13RoundRect,0.250000X0.350000X0.450000X-0.350000X0.450000X-0.350000X-0.450000X0.350000X-0.450000X0*%
%TD*%
%TA.AperFunction,SMDPad,CuDef*%
%ADD14RoundRect,0.250000X-0.350000X-0.450000X0.350000X-0.450000X0.350000X0.450000X-0.350000X0.450000X0*%
%TD*%
%TA.AperFunction,SMDPad,CuDef*%
%ADD15RoundRect,0.250000X-0.450000X0.350000X-0.450000X-0.350000X0.450000X-0.350000X0.450000X0.350000X0*%
%TD*%
%TA.AperFunction,SMDPad,CuDef*%
%ADD16RoundRect,0.250000X0.450000X-0.350000X0.450000X0.350000X-0.450000X0.350000X-0.450000X-0.350000X0*%
%TD*%
%TA.AperFunction,Conductor*%
%ADD17C,0.300000*%
%TD*%
G04 APERTURE END LIST*
D10*
%TO.P,J6,1,Pin_1*%
%TO.N,/IN+*%
X92964000Y-88392000D03*
D11*
%TO.P,J6,2,Pin_2*%
%TO.N,/OUT*%
X92964000Y-85852000D03*
%TO.P,J6,3,Pin_3*%
%TO.N,/VREF*%
X92964000Y-83312000D03*
%TD*%
D10*
%TO.P,J1,1,Pin_1*%
%TO.N,+5V*%
X121158000Y-83173341D03*
D11*
%TO.P,J1,2,Pin_2*%
%TO.N,GND*%
X121158000Y-80633341D03*
%TD*%
D12*
%TO.P,U1,1*%
%TO.N,Net-(R5-Pad1)*%
X107024000Y-76571000D03*
%TO.P,U1,2,-*%
%TO.N,/RGain+*%
X106374000Y-76571000D03*
%TO.P,U1,3,+*%
%TO.N,/IN-*%
X105724000Y-76571000D03*
%TO.P,U1,4,V+*%
%TO.N,+5V*%
X105074000Y-76571000D03*
%TO.P,U1,5,+*%
%TO.N,/V_SENSOR_WITH_DC_OFFSET*%
X104424000Y-76571000D03*
%TO.P,U1,6,-*%
%TO.N,/RGain-*%
X103774000Y-76571000D03*
%TO.P,U1,7*%
%TO.N,Net-(R6-Pad2)*%
X103124000Y-76571000D03*
%TO.P,U1,8*%
%TO.N,/OUT*%
X103124000Y-82296000D03*
%TO.P,U1,9,-*%
%TO.N,Net-(U1C--)*%
X103774000Y-82296000D03*
%TO.P,U1,10,+*%
%TO.N,Net-(U1C-+)*%
X104424000Y-82296000D03*
%TO.P,U1,11,V-*%
%TO.N,GND*%
X105074000Y-82296000D03*
%TO.P,U1,12,+*%
%TO.N,Net-(U1D-+)*%
X105724000Y-82296000D03*
%TO.P,U1,13,-*%
%TO.N,Net-(U1D--)*%
X106374000Y-82296000D03*
%TO.P,U1,14*%
%TO.N,/V_SENSOR_WITH_DC_OFFSET*%
X107024000Y-82296000D03*
%TD*%
D13*
%TO.P,R10,1*%
%TO.N,Net-(U1C-+)*%
X97758000Y-80772000D03*
%TO.P,R10,2*%
%TO.N,/VREF*%
X95758000Y-80772000D03*
%TD*%
D10*
%TO.P,J4,1,Pin_1*%
%TO.N,/RGain+*%
X104648000Y-67056000D03*
D11*
%TO.P,J4,2,Pin_2*%
%TO.N,/RGain-*%
X102108000Y-67056000D03*
%TD*%
D14*
%TO.P,R7,1*%
%TO.N,Net-(R5-Pad1)*%
X116840000Y-72898000D03*
%TO.P,R7,2*%
%TO.N,Net-(U1C--)*%
X118840000Y-72898000D03*
%TD*%
D10*
%TO.P,J2,1,Pin_1*%
%TO.N,/V_{offset+}*%
X121158000Y-89916000D03*
D11*
%TO.P,J2,2,Pin_2*%
%TO.N,/V_{offset-}*%
X121158000Y-87376000D03*
%TD*%
D13*
%TO.P,R8,1*%
%TO.N,Net-(R6-Pad2)*%
X97790000Y-77470000D03*
%TO.P,R8,2*%
%TO.N,Net-(U1C-+)*%
X95790000Y-77470000D03*
%TD*%
D15*
%TO.P,R6,1*%
%TO.N,/RGain-*%
X98044000Y-71644000D03*
%TO.P,R6,2*%
%TO.N,Net-(R6-Pad2)*%
X98044000Y-73644000D03*
%TD*%
D13*
%TO.P,R4,1*%
%TO.N,Net-(U1D--)*%
X112252000Y-82296000D03*
%TO.P,R4,2*%
%TO.N,/V_SENSOR_WITH_DC_OFFSET*%
X110252000Y-82296000D03*
%TD*%
D16*
%TO.P,R2,1*%
%TO.N,/V_{offset+}*%
X110714000Y-90227000D03*
%TO.P,R2,2*%
%TO.N,Net-(U1D-+)*%
X110714000Y-88227000D03*
%TD*%
D10*
%TO.P,J5,1,Pin_1*%
%TO.N,/IN-*%
X102870000Y-71374000D03*
%TD*%
D16*
%TO.P,R3,1*%
%TO.N,/V_{offset-}*%
X115714000Y-90227000D03*
%TO.P,R3,2*%
%TO.N,Net-(U1D--)*%
X115714000Y-88227000D03*
%TD*%
D15*
%TO.P,R9,1*%
%TO.N,Net-(U1C--)*%
X99568000Y-84852000D03*
%TO.P,R9,2*%
%TO.N,/OUT*%
X99568000Y-86852000D03*
%TD*%
D13*
%TO.P,R5,1*%
%TO.N,Net-(R5-Pad1)*%
X114046000Y-72898000D03*
%TO.P,R5,2*%
%TO.N,/RGain+*%
X112046000Y-72898000D03*
%TD*%
D16*
%TO.P,R1,1*%
%TO.N,/IN+*%
X105714000Y-90227000D03*
%TO.P,R1,2*%
%TO.N,Net-(U1D-+)*%
X105714000Y-88227000D03*
%TD*%
D17*
%TO.N,Net-(U1C--)*%
X118872000Y-69342000D02*
X118840000Y-69374000D01*
X114046000Y-64516000D02*
X118872000Y-69342000D01*
X100224101Y-64516000D02*
X114046000Y-64516000D01*
X96705000Y-87053000D02*
X91371000Y-87053000D01*
X90678000Y-86360000D02*
X90678000Y-74062101D01*
X101346000Y-88392000D02*
X98044000Y-88392000D01*
X118840000Y-69374000D02*
X118840000Y-72898000D01*
X90678000Y-74062101D02*
X100224101Y-64516000D01*
X101955499Y-87782501D02*
X101346000Y-88392000D01*
X98044000Y-88392000D02*
X96705000Y-87053000D01*
X91371000Y-87053000D02*
X90678000Y-86360000D01*
X101955499Y-84852000D02*
X101955499Y-87782501D01*
%TO.N,/VREF*%
X92964000Y-83312000D02*
X95504000Y-80772000D01*
X95504000Y-80772000D02*
X95758000Y-80772000D01*
%TO.N,/OUT*%
X98568000Y-85852000D02*
X92964000Y-85852000D01*
X99568000Y-86852000D02*
X98568000Y-85852000D01*
X96520000Y-82296000D02*
X103124000Y-82296000D01*
%TO.N,/IN+*%
X97847000Y-90227000D02*
X105714000Y-90227000D01*
X96012000Y-88392000D02*
X97847000Y-90227000D01*
%TO.N,/OUT*%
X92964000Y-85852000D02*
X96520000Y-82296000D01*
%TO.N,/IN+*%
X92964000Y-88392000D02*
X96012000Y-88392000D01*
%TO.N,/V_{offset+}*%
X112181000Y-91694000D02*
X110714000Y-90227000D01*
X119380000Y-91694000D02*
X112181000Y-91694000D01*
X121158000Y-89916000D02*
X119380000Y-91694000D01*
%TO.N,/V_{offset-}*%
X118307000Y-90227000D02*
X115714000Y-90227000D01*
X121158000Y-87376000D02*
X118307000Y-90227000D01*
%TO.N,/V_SENSOR_WITH_DC_OFFSET*%
X104424000Y-78516000D02*
X104424000Y-76571000D01*
X107024000Y-81116000D02*
X104424000Y-78516000D01*
X107024000Y-82296000D02*
X107024000Y-81116000D01*
%TO.N,+5V*%
X105074000Y-78150000D02*
X105074000Y-76571000D01*
X111760000Y-77470000D02*
X109982000Y-79248000D01*
X122428000Y-77470000D02*
X111760000Y-77470000D01*
X124206000Y-79248000D02*
X122428000Y-77470000D01*
X124206000Y-81788000D02*
X124206000Y-79248000D01*
X109982000Y-79248000D02*
X106172000Y-79248000D01*
X122820659Y-83173341D02*
X124206000Y-81788000D01*
X106172000Y-79248000D02*
X105074000Y-78150000D01*
X121158000Y-83173341D02*
X122820659Y-83173341D01*
%TO.N,GND*%
X105074000Y-84918000D02*
X105074000Y-82296000D01*
X103886000Y-88055870D02*
X103886000Y-86106000D01*
X117324000Y-89178000D02*
X105008130Y-89178000D01*
X105008130Y-89178000D02*
X103886000Y-88055870D01*
X117856000Y-88646000D02*
X117324000Y-89178000D01*
X119772659Y-80633341D02*
X117856000Y-82550000D01*
X117856000Y-82550000D02*
X117856000Y-88646000D01*
X121271320Y-80633341D02*
X119772659Y-80633341D01*
X103886000Y-86106000D02*
X105074000Y-84918000D01*
%TO.N,Net-(U1D--)*%
X115714000Y-87552000D02*
X112252000Y-84090000D01*
X115714000Y-88227000D02*
X115714000Y-87552000D01*
X108204000Y-85344000D02*
X106374000Y-83514000D01*
X110998000Y-85344000D02*
X108204000Y-85344000D01*
X112252000Y-84090000D02*
X110998000Y-85344000D01*
X112252000Y-82296000D02*
X112252000Y-84090000D01*
X106374000Y-83514000D02*
X106374000Y-82296000D01*
%TO.N,Net-(U1D-+)*%
X105714000Y-82306000D02*
X105724000Y-82296000D01*
X105714000Y-88227000D02*
X105714000Y-82306000D01*
%TO.N,/V_SENSOR_WITH_DC_OFFSET*%
X107024000Y-82296000D02*
X110252000Y-82296000D01*
%TO.N,Net-(U1C--)*%
X103774000Y-83033499D02*
X103774000Y-82296000D01*
X99568000Y-84852000D02*
X101955499Y-84852000D01*
X101955499Y-84852000D02*
X103774000Y-83033499D01*
%TO.N,/RGain-*%
X98044000Y-69088000D02*
X98044000Y-71644000D01*
X100076000Y-67056000D02*
X98044000Y-69088000D01*
X102108000Y-67056000D02*
X100076000Y-67056000D01*
%TO.N,/RGain+*%
X106374000Y-68782000D02*
X104648000Y-67056000D01*
X106374000Y-72898000D02*
X106374000Y-68782000D01*
%TO.N,/IN-*%
X105724000Y-75752000D02*
X105724000Y-76571000D01*
X102972000Y-73000000D02*
X105724000Y-75752000D01*
X102870000Y-71374000D02*
X102920000Y-71424000D01*
X102920000Y-71424000D02*
X102920000Y-73000000D01*
X102920000Y-73000000D02*
X102972000Y-73000000D01*
%TO.N,/RGain-*%
X98044000Y-71644000D02*
X99024000Y-71644000D01*
X100685000Y-73305000D02*
X101294000Y-73914000D01*
X99024000Y-71644000D02*
X100685000Y-73305000D01*
%TO.N,Net-(R6-Pad2)*%
X97840000Y-72644000D02*
X98044000Y-72848000D01*
X98044000Y-72848000D02*
X98044000Y-73644000D01*
%TO.N,Net-(U1C-+)*%
X104424000Y-81558501D02*
X104424000Y-82296000D01*
X103637499Y-80772000D02*
X104424000Y-81558501D01*
X97758000Y-80772000D02*
X103637499Y-80772000D01*
X95790000Y-78264000D02*
X95790000Y-77470000D01*
X97758000Y-80232000D02*
X95790000Y-78264000D01*
X97758000Y-80772000D02*
X97758000Y-80232000D01*
%TO.N,Net-(R6-Pad2)*%
X97790000Y-72694000D02*
X97840000Y-72644000D01*
X97790000Y-77470000D02*
X97790000Y-72694000D01*
%TO.N,Net-(R5-Pad1)*%
X107024000Y-75348000D02*
X107024000Y-76571000D01*
X107696000Y-74676000D02*
X107024000Y-75348000D01*
X114046000Y-73660000D02*
X113030000Y-74676000D01*
X113030000Y-74676000D02*
X107696000Y-74676000D01*
X114046000Y-72898000D02*
X114046000Y-73660000D01*
X114046000Y-72898000D02*
X116840000Y-72898000D01*
%TO.N,/RGain+*%
X106374000Y-76571000D02*
X106374000Y-72898000D01*
X112046000Y-72898000D02*
X106374000Y-72898000D01*
%TO.N,/RGain-*%
X103774000Y-75326000D02*
X103774000Y-76571000D01*
X102362000Y-73914000D02*
X103774000Y-75326000D01*
X101294000Y-73914000D02*
X102362000Y-73914000D01*
%TO.N,Net-(R6-Pad2)*%
X99516000Y-74676000D02*
X97840000Y-73000000D01*
X102362000Y-74676000D02*
X99516000Y-74676000D01*
X103124000Y-76571000D02*
X103124000Y-75438000D01*
X103124000Y-75438000D02*
X102362000Y-74676000D01*
%TO.N,Net-(U1D-+)*%
X105714000Y-88227000D02*
X110714000Y-88227000D01*
%TO.N,Net-(R6-Pad2)*%
X97840000Y-73000000D02*
X97840000Y-72644000D01*
%TD*%
M02*
