%TF.GenerationSoftware,KiCad,Pcbnew,9.0.3*%
%TF.CreationDate,2025-09-11T10:37:05-04:00*%
%TF.ProjectId,lmv324_breakout,6c6d7633-3234-45f6-9272-65616b6f7574,rev?*%
%TF.SameCoordinates,Original*%
%TF.FileFunction,Legend,Top*%
%TF.FilePolarity,Positive*%
%FSLAX46Y46*%
G04 Gerber Fmt 4.6, Leading zero omitted, Abs format (unit mm)*
G04 Created by KiCad (PCBNEW 9.0.3) date 2025-09-11 10:37:05*
%MOMM*%
%LPD*%
G01*
G04 APERTURE LIST*
%ADD10C,0.150000*%
%ADD11C,0.120000*%
G04 APERTURE END LIST*
D10*
X92630666Y-90226819D02*
X92630666Y-90941104D01*
X92630666Y-90941104D02*
X92583047Y-91083961D01*
X92583047Y-91083961D02*
X92487809Y-91179200D01*
X92487809Y-91179200D02*
X92344952Y-91226819D01*
X92344952Y-91226819D02*
X92249714Y-91226819D01*
X93535428Y-90226819D02*
X93344952Y-90226819D01*
X93344952Y-90226819D02*
X93249714Y-90274438D01*
X93249714Y-90274438D02*
X93202095Y-90322057D01*
X93202095Y-90322057D02*
X93106857Y-90464914D01*
X93106857Y-90464914D02*
X93059238Y-90655390D01*
X93059238Y-90655390D02*
X93059238Y-91036342D01*
X93059238Y-91036342D02*
X93106857Y-91131580D01*
X93106857Y-91131580D02*
X93154476Y-91179200D01*
X93154476Y-91179200D02*
X93249714Y-91226819D01*
X93249714Y-91226819D02*
X93440190Y-91226819D01*
X93440190Y-91226819D02*
X93535428Y-91179200D01*
X93535428Y-91179200D02*
X93583047Y-91131580D01*
X93583047Y-91131580D02*
X93630666Y-91036342D01*
X93630666Y-91036342D02*
X93630666Y-90798247D01*
X93630666Y-90798247D02*
X93583047Y-90703009D01*
X93583047Y-90703009D02*
X93535428Y-90655390D01*
X93535428Y-90655390D02*
X93440190Y-90607771D01*
X93440190Y-90607771D02*
X93249714Y-90607771D01*
X93249714Y-90607771D02*
X93154476Y-90655390D01*
X93154476Y-90655390D02*
X93106857Y-90703009D01*
X93106857Y-90703009D02*
X93059238Y-90798247D01*
X120824666Y-85008160D02*
X120824666Y-85722445D01*
X120824666Y-85722445D02*
X120777047Y-85865302D01*
X120777047Y-85865302D02*
X120681809Y-85960541D01*
X120681809Y-85960541D02*
X120538952Y-86008160D01*
X120538952Y-86008160D02*
X120443714Y-86008160D01*
X121824666Y-86008160D02*
X121253238Y-86008160D01*
X121538952Y-86008160D02*
X121538952Y-85008160D01*
X121538952Y-85008160D02*
X121443714Y-85151017D01*
X121443714Y-85151017D02*
X121348476Y-85246255D01*
X121348476Y-85246255D02*
X121253238Y-85293874D01*
X107978819Y-80195404D02*
X108788342Y-80195404D01*
X108788342Y-80195404D02*
X108883580Y-80147785D01*
X108883580Y-80147785D02*
X108931200Y-80100166D01*
X108931200Y-80100166D02*
X108978819Y-80004928D01*
X108978819Y-80004928D02*
X108978819Y-79814452D01*
X108978819Y-79814452D02*
X108931200Y-79719214D01*
X108931200Y-79719214D02*
X108883580Y-79671595D01*
X108883580Y-79671595D02*
X108788342Y-79623976D01*
X108788342Y-79623976D02*
X107978819Y-79623976D01*
X108978819Y-78623976D02*
X108978819Y-79195404D01*
X108978819Y-78909690D02*
X107978819Y-78909690D01*
X107978819Y-78909690D02*
X108121676Y-79004928D01*
X108121676Y-79004928D02*
X108216914Y-79100166D01*
X108216914Y-79100166D02*
X108264533Y-79195404D01*
X96115142Y-82876819D02*
X95781809Y-82400628D01*
X95543714Y-82876819D02*
X95543714Y-81876819D01*
X95543714Y-81876819D02*
X95924666Y-81876819D01*
X95924666Y-81876819D02*
X96019904Y-81924438D01*
X96019904Y-81924438D02*
X96067523Y-81972057D01*
X96067523Y-81972057D02*
X96115142Y-82067295D01*
X96115142Y-82067295D02*
X96115142Y-82210152D01*
X96115142Y-82210152D02*
X96067523Y-82305390D01*
X96067523Y-82305390D02*
X96019904Y-82353009D01*
X96019904Y-82353009D02*
X95924666Y-82400628D01*
X95924666Y-82400628D02*
X95543714Y-82400628D01*
X97067523Y-82876819D02*
X96496095Y-82876819D01*
X96781809Y-82876819D02*
X96781809Y-81876819D01*
X96781809Y-81876819D02*
X96686571Y-82019676D01*
X96686571Y-82019676D02*
X96591333Y-82114914D01*
X96591333Y-82114914D02*
X96496095Y-82162533D01*
X97686571Y-81876819D02*
X97781809Y-81876819D01*
X97781809Y-81876819D02*
X97877047Y-81924438D01*
X97877047Y-81924438D02*
X97924666Y-81972057D01*
X97924666Y-81972057D02*
X97972285Y-82067295D01*
X97972285Y-82067295D02*
X98019904Y-82257771D01*
X98019904Y-82257771D02*
X98019904Y-82495866D01*
X98019904Y-82495866D02*
X97972285Y-82686342D01*
X97972285Y-82686342D02*
X97924666Y-82781580D01*
X97924666Y-82781580D02*
X97877047Y-82829200D01*
X97877047Y-82829200D02*
X97781809Y-82876819D01*
X97781809Y-82876819D02*
X97686571Y-82876819D01*
X97686571Y-82876819D02*
X97591333Y-82829200D01*
X97591333Y-82829200D02*
X97543714Y-82781580D01*
X97543714Y-82781580D02*
X97496095Y-82686342D01*
X97496095Y-82686342D02*
X97448476Y-82495866D01*
X97448476Y-82495866D02*
X97448476Y-82257771D01*
X97448476Y-82257771D02*
X97496095Y-82067295D01*
X97496095Y-82067295D02*
X97543714Y-81972057D01*
X97543714Y-81972057D02*
X97591333Y-81924438D01*
X97591333Y-81924438D02*
X97686571Y-81876819D01*
X106482819Y-67389333D02*
X107197104Y-67389333D01*
X107197104Y-67389333D02*
X107339961Y-67436952D01*
X107339961Y-67436952D02*
X107435200Y-67532190D01*
X107435200Y-67532190D02*
X107482819Y-67675047D01*
X107482819Y-67675047D02*
X107482819Y-67770285D01*
X106816152Y-66484571D02*
X107482819Y-66484571D01*
X106435200Y-66722666D02*
X107149485Y-66960761D01*
X107149485Y-66960761D02*
X107149485Y-66341714D01*
X117673333Y-71702819D02*
X117340000Y-71226628D01*
X117101905Y-71702819D02*
X117101905Y-70702819D01*
X117101905Y-70702819D02*
X117482857Y-70702819D01*
X117482857Y-70702819D02*
X117578095Y-70750438D01*
X117578095Y-70750438D02*
X117625714Y-70798057D01*
X117625714Y-70798057D02*
X117673333Y-70893295D01*
X117673333Y-70893295D02*
X117673333Y-71036152D01*
X117673333Y-71036152D02*
X117625714Y-71131390D01*
X117625714Y-71131390D02*
X117578095Y-71179009D01*
X117578095Y-71179009D02*
X117482857Y-71226628D01*
X117482857Y-71226628D02*
X117101905Y-71226628D01*
X118006667Y-70702819D02*
X118673333Y-70702819D01*
X118673333Y-70702819D02*
X118244762Y-71702819D01*
X120824666Y-91750819D02*
X120824666Y-92465104D01*
X120824666Y-92465104D02*
X120777047Y-92607961D01*
X120777047Y-92607961D02*
X120681809Y-92703200D01*
X120681809Y-92703200D02*
X120538952Y-92750819D01*
X120538952Y-92750819D02*
X120443714Y-92750819D01*
X121253238Y-91846057D02*
X121300857Y-91798438D01*
X121300857Y-91798438D02*
X121396095Y-91750819D01*
X121396095Y-91750819D02*
X121634190Y-91750819D01*
X121634190Y-91750819D02*
X121729428Y-91798438D01*
X121729428Y-91798438D02*
X121777047Y-91846057D01*
X121777047Y-91846057D02*
X121824666Y-91941295D01*
X121824666Y-91941295D02*
X121824666Y-92036533D01*
X121824666Y-92036533D02*
X121777047Y-92179390D01*
X121777047Y-92179390D02*
X121205619Y-92750819D01*
X121205619Y-92750819D02*
X121824666Y-92750819D01*
X96623333Y-79574819D02*
X96290000Y-79098628D01*
X96051905Y-79574819D02*
X96051905Y-78574819D01*
X96051905Y-78574819D02*
X96432857Y-78574819D01*
X96432857Y-78574819D02*
X96528095Y-78622438D01*
X96528095Y-78622438D02*
X96575714Y-78670057D01*
X96575714Y-78670057D02*
X96623333Y-78765295D01*
X96623333Y-78765295D02*
X96623333Y-78908152D01*
X96623333Y-78908152D02*
X96575714Y-79003390D01*
X96575714Y-79003390D02*
X96528095Y-79051009D01*
X96528095Y-79051009D02*
X96432857Y-79098628D01*
X96432857Y-79098628D02*
X96051905Y-79098628D01*
X97194762Y-79003390D02*
X97099524Y-78955771D01*
X97099524Y-78955771D02*
X97051905Y-78908152D01*
X97051905Y-78908152D02*
X97004286Y-78812914D01*
X97004286Y-78812914D02*
X97004286Y-78765295D01*
X97004286Y-78765295D02*
X97051905Y-78670057D01*
X97051905Y-78670057D02*
X97099524Y-78622438D01*
X97099524Y-78622438D02*
X97194762Y-78574819D01*
X97194762Y-78574819D02*
X97385238Y-78574819D01*
X97385238Y-78574819D02*
X97480476Y-78622438D01*
X97480476Y-78622438D02*
X97528095Y-78670057D01*
X97528095Y-78670057D02*
X97575714Y-78765295D01*
X97575714Y-78765295D02*
X97575714Y-78812914D01*
X97575714Y-78812914D02*
X97528095Y-78908152D01*
X97528095Y-78908152D02*
X97480476Y-78955771D01*
X97480476Y-78955771D02*
X97385238Y-79003390D01*
X97385238Y-79003390D02*
X97194762Y-79003390D01*
X97194762Y-79003390D02*
X97099524Y-79051009D01*
X97099524Y-79051009D02*
X97051905Y-79098628D01*
X97051905Y-79098628D02*
X97004286Y-79193866D01*
X97004286Y-79193866D02*
X97004286Y-79384342D01*
X97004286Y-79384342D02*
X97051905Y-79479580D01*
X97051905Y-79479580D02*
X97099524Y-79527200D01*
X97099524Y-79527200D02*
X97194762Y-79574819D01*
X97194762Y-79574819D02*
X97385238Y-79574819D01*
X97385238Y-79574819D02*
X97480476Y-79527200D01*
X97480476Y-79527200D02*
X97528095Y-79479580D01*
X97528095Y-79479580D02*
X97575714Y-79384342D01*
X97575714Y-79384342D02*
X97575714Y-79193866D01*
X97575714Y-79193866D02*
X97528095Y-79098628D01*
X97528095Y-79098628D02*
X97480476Y-79051009D01*
X97480476Y-79051009D02*
X97385238Y-79003390D01*
X100148819Y-72810666D02*
X99672628Y-73143999D01*
X100148819Y-73382094D02*
X99148819Y-73382094D01*
X99148819Y-73382094D02*
X99148819Y-73001142D01*
X99148819Y-73001142D02*
X99196438Y-72905904D01*
X99196438Y-72905904D02*
X99244057Y-72858285D01*
X99244057Y-72858285D02*
X99339295Y-72810666D01*
X99339295Y-72810666D02*
X99482152Y-72810666D01*
X99482152Y-72810666D02*
X99577390Y-72858285D01*
X99577390Y-72858285D02*
X99625009Y-72905904D01*
X99625009Y-72905904D02*
X99672628Y-73001142D01*
X99672628Y-73001142D02*
X99672628Y-73382094D01*
X99148819Y-71953523D02*
X99148819Y-72143999D01*
X99148819Y-72143999D02*
X99196438Y-72239237D01*
X99196438Y-72239237D02*
X99244057Y-72286856D01*
X99244057Y-72286856D02*
X99386914Y-72382094D01*
X99386914Y-72382094D02*
X99577390Y-72429713D01*
X99577390Y-72429713D02*
X99958342Y-72429713D01*
X99958342Y-72429713D02*
X100053580Y-72382094D01*
X100053580Y-72382094D02*
X100101200Y-72334475D01*
X100101200Y-72334475D02*
X100148819Y-72239237D01*
X100148819Y-72239237D02*
X100148819Y-72048761D01*
X100148819Y-72048761D02*
X100101200Y-71953523D01*
X100101200Y-71953523D02*
X100053580Y-71905904D01*
X100053580Y-71905904D02*
X99958342Y-71858285D01*
X99958342Y-71858285D02*
X99720247Y-71858285D01*
X99720247Y-71858285D02*
X99625009Y-71905904D01*
X99625009Y-71905904D02*
X99577390Y-71953523D01*
X99577390Y-71953523D02*
X99529771Y-72048761D01*
X99529771Y-72048761D02*
X99529771Y-72239237D01*
X99529771Y-72239237D02*
X99577390Y-72334475D01*
X99577390Y-72334475D02*
X99625009Y-72382094D01*
X99625009Y-72382094D02*
X99720247Y-72429713D01*
X111085333Y-84400819D02*
X110752000Y-83924628D01*
X110513905Y-84400819D02*
X110513905Y-83400819D01*
X110513905Y-83400819D02*
X110894857Y-83400819D01*
X110894857Y-83400819D02*
X110990095Y-83448438D01*
X110990095Y-83448438D02*
X111037714Y-83496057D01*
X111037714Y-83496057D02*
X111085333Y-83591295D01*
X111085333Y-83591295D02*
X111085333Y-83734152D01*
X111085333Y-83734152D02*
X111037714Y-83829390D01*
X111037714Y-83829390D02*
X110990095Y-83877009D01*
X110990095Y-83877009D02*
X110894857Y-83924628D01*
X110894857Y-83924628D02*
X110513905Y-83924628D01*
X111942476Y-83734152D02*
X111942476Y-84400819D01*
X111704381Y-83353200D02*
X111466286Y-84067485D01*
X111466286Y-84067485D02*
X112085333Y-84067485D01*
X109518819Y-89393666D02*
X109042628Y-89726999D01*
X109518819Y-89965094D02*
X108518819Y-89965094D01*
X108518819Y-89965094D02*
X108518819Y-89584142D01*
X108518819Y-89584142D02*
X108566438Y-89488904D01*
X108566438Y-89488904D02*
X108614057Y-89441285D01*
X108614057Y-89441285D02*
X108709295Y-89393666D01*
X108709295Y-89393666D02*
X108852152Y-89393666D01*
X108852152Y-89393666D02*
X108947390Y-89441285D01*
X108947390Y-89441285D02*
X108995009Y-89488904D01*
X108995009Y-89488904D02*
X109042628Y-89584142D01*
X109042628Y-89584142D02*
X109042628Y-89965094D01*
X108614057Y-89012713D02*
X108566438Y-88965094D01*
X108566438Y-88965094D02*
X108518819Y-88869856D01*
X108518819Y-88869856D02*
X108518819Y-88631761D01*
X108518819Y-88631761D02*
X108566438Y-88536523D01*
X108566438Y-88536523D02*
X108614057Y-88488904D01*
X108614057Y-88488904D02*
X108709295Y-88441285D01*
X108709295Y-88441285D02*
X108804533Y-88441285D01*
X108804533Y-88441285D02*
X108947390Y-88488904D01*
X108947390Y-88488904D02*
X109518819Y-89060332D01*
X109518819Y-89060332D02*
X109518819Y-88441285D01*
X102536666Y-68448819D02*
X102536666Y-69163104D01*
X102536666Y-69163104D02*
X102489047Y-69305961D01*
X102489047Y-69305961D02*
X102393809Y-69401200D01*
X102393809Y-69401200D02*
X102250952Y-69448819D01*
X102250952Y-69448819D02*
X102155714Y-69448819D01*
X103489047Y-68448819D02*
X103012857Y-68448819D01*
X103012857Y-68448819D02*
X102965238Y-68925009D01*
X102965238Y-68925009D02*
X103012857Y-68877390D01*
X103012857Y-68877390D02*
X103108095Y-68829771D01*
X103108095Y-68829771D02*
X103346190Y-68829771D01*
X103346190Y-68829771D02*
X103441428Y-68877390D01*
X103441428Y-68877390D02*
X103489047Y-68925009D01*
X103489047Y-68925009D02*
X103536666Y-69020247D01*
X103536666Y-69020247D02*
X103536666Y-69258342D01*
X103536666Y-69258342D02*
X103489047Y-69353580D01*
X103489047Y-69353580D02*
X103441428Y-69401200D01*
X103441428Y-69401200D02*
X103346190Y-69448819D01*
X103346190Y-69448819D02*
X103108095Y-69448819D01*
X103108095Y-69448819D02*
X103012857Y-69401200D01*
X103012857Y-69401200D02*
X102965238Y-69353580D01*
X114518819Y-89393666D02*
X114042628Y-89726999D01*
X114518819Y-89965094D02*
X113518819Y-89965094D01*
X113518819Y-89965094D02*
X113518819Y-89584142D01*
X113518819Y-89584142D02*
X113566438Y-89488904D01*
X113566438Y-89488904D02*
X113614057Y-89441285D01*
X113614057Y-89441285D02*
X113709295Y-89393666D01*
X113709295Y-89393666D02*
X113852152Y-89393666D01*
X113852152Y-89393666D02*
X113947390Y-89441285D01*
X113947390Y-89441285D02*
X113995009Y-89488904D01*
X113995009Y-89488904D02*
X114042628Y-89584142D01*
X114042628Y-89584142D02*
X114042628Y-89965094D01*
X113518819Y-89060332D02*
X113518819Y-88441285D01*
X113518819Y-88441285D02*
X113899771Y-88774618D01*
X113899771Y-88774618D02*
X113899771Y-88631761D01*
X113899771Y-88631761D02*
X113947390Y-88536523D01*
X113947390Y-88536523D02*
X113995009Y-88488904D01*
X113995009Y-88488904D02*
X114090247Y-88441285D01*
X114090247Y-88441285D02*
X114328342Y-88441285D01*
X114328342Y-88441285D02*
X114423580Y-88488904D01*
X114423580Y-88488904D02*
X114471200Y-88536523D01*
X114471200Y-88536523D02*
X114518819Y-88631761D01*
X114518819Y-88631761D02*
X114518819Y-88917475D01*
X114518819Y-88917475D02*
X114471200Y-89012713D01*
X114471200Y-89012713D02*
X114423580Y-89060332D01*
X101672819Y-86018666D02*
X101196628Y-86351999D01*
X101672819Y-86590094D02*
X100672819Y-86590094D01*
X100672819Y-86590094D02*
X100672819Y-86209142D01*
X100672819Y-86209142D02*
X100720438Y-86113904D01*
X100720438Y-86113904D02*
X100768057Y-86066285D01*
X100768057Y-86066285D02*
X100863295Y-86018666D01*
X100863295Y-86018666D02*
X101006152Y-86018666D01*
X101006152Y-86018666D02*
X101101390Y-86066285D01*
X101101390Y-86066285D02*
X101149009Y-86113904D01*
X101149009Y-86113904D02*
X101196628Y-86209142D01*
X101196628Y-86209142D02*
X101196628Y-86590094D01*
X101672819Y-85542475D02*
X101672819Y-85351999D01*
X101672819Y-85351999D02*
X101625200Y-85256761D01*
X101625200Y-85256761D02*
X101577580Y-85209142D01*
X101577580Y-85209142D02*
X101434723Y-85113904D01*
X101434723Y-85113904D02*
X101244247Y-85066285D01*
X101244247Y-85066285D02*
X100863295Y-85066285D01*
X100863295Y-85066285D02*
X100768057Y-85113904D01*
X100768057Y-85113904D02*
X100720438Y-85161523D01*
X100720438Y-85161523D02*
X100672819Y-85256761D01*
X100672819Y-85256761D02*
X100672819Y-85447237D01*
X100672819Y-85447237D02*
X100720438Y-85542475D01*
X100720438Y-85542475D02*
X100768057Y-85590094D01*
X100768057Y-85590094D02*
X100863295Y-85637713D01*
X100863295Y-85637713D02*
X101101390Y-85637713D01*
X101101390Y-85637713D02*
X101196628Y-85590094D01*
X101196628Y-85590094D02*
X101244247Y-85542475D01*
X101244247Y-85542475D02*
X101291866Y-85447237D01*
X101291866Y-85447237D02*
X101291866Y-85256761D01*
X101291866Y-85256761D02*
X101244247Y-85161523D01*
X101244247Y-85161523D02*
X101196628Y-85113904D01*
X101196628Y-85113904D02*
X101101390Y-85066285D01*
X112879333Y-75002819D02*
X112546000Y-74526628D01*
X112307905Y-75002819D02*
X112307905Y-74002819D01*
X112307905Y-74002819D02*
X112688857Y-74002819D01*
X112688857Y-74002819D02*
X112784095Y-74050438D01*
X112784095Y-74050438D02*
X112831714Y-74098057D01*
X112831714Y-74098057D02*
X112879333Y-74193295D01*
X112879333Y-74193295D02*
X112879333Y-74336152D01*
X112879333Y-74336152D02*
X112831714Y-74431390D01*
X112831714Y-74431390D02*
X112784095Y-74479009D01*
X112784095Y-74479009D02*
X112688857Y-74526628D01*
X112688857Y-74526628D02*
X112307905Y-74526628D01*
X113784095Y-74002819D02*
X113307905Y-74002819D01*
X113307905Y-74002819D02*
X113260286Y-74479009D01*
X113260286Y-74479009D02*
X113307905Y-74431390D01*
X113307905Y-74431390D02*
X113403143Y-74383771D01*
X113403143Y-74383771D02*
X113641238Y-74383771D01*
X113641238Y-74383771D02*
X113736476Y-74431390D01*
X113736476Y-74431390D02*
X113784095Y-74479009D01*
X113784095Y-74479009D02*
X113831714Y-74574247D01*
X113831714Y-74574247D02*
X113831714Y-74812342D01*
X113831714Y-74812342D02*
X113784095Y-74907580D01*
X113784095Y-74907580D02*
X113736476Y-74955200D01*
X113736476Y-74955200D02*
X113641238Y-75002819D01*
X113641238Y-75002819D02*
X113403143Y-75002819D01*
X113403143Y-75002819D02*
X113307905Y-74955200D01*
X113307905Y-74955200D02*
X113260286Y-74907580D01*
X104518819Y-89393666D02*
X104042628Y-89726999D01*
X104518819Y-89965094D02*
X103518819Y-89965094D01*
X103518819Y-89965094D02*
X103518819Y-89584142D01*
X103518819Y-89584142D02*
X103566438Y-89488904D01*
X103566438Y-89488904D02*
X103614057Y-89441285D01*
X103614057Y-89441285D02*
X103709295Y-89393666D01*
X103709295Y-89393666D02*
X103852152Y-89393666D01*
X103852152Y-89393666D02*
X103947390Y-89441285D01*
X103947390Y-89441285D02*
X103995009Y-89488904D01*
X103995009Y-89488904D02*
X104042628Y-89584142D01*
X104042628Y-89584142D02*
X104042628Y-89965094D01*
X104518819Y-88441285D02*
X104518819Y-89012713D01*
X104518819Y-88726999D02*
X103518819Y-88726999D01*
X103518819Y-88726999D02*
X103661676Y-88822237D01*
X103661676Y-88822237D02*
X103756914Y-88917475D01*
X103756914Y-88917475D02*
X103804533Y-89012713D01*
D11*
%TO.C,J6*%
X94344000Y-89772000D02*
X92964000Y-89772000D01*
X94344000Y-88392000D02*
X94344000Y-89772000D01*
X94344000Y-87122000D02*
X94344000Y-81932000D01*
X94344000Y-87122000D02*
X91584000Y-87122000D01*
X94344000Y-81932000D02*
X91584000Y-81932000D01*
X91584000Y-87122000D02*
X91584000Y-81932000D01*
%TO.C,J1*%
X122538000Y-84553341D02*
X121158000Y-84553341D01*
X122538000Y-83173341D02*
X122538000Y-84553341D01*
X122538000Y-81903341D02*
X122538000Y-79253341D01*
X122538000Y-81903341D02*
X119778000Y-81903341D01*
X122538000Y-79253341D02*
X119778000Y-79253341D01*
X119778000Y-81903341D02*
X119778000Y-79253341D01*
%TO.C,U1*%
X107684000Y-79433500D02*
X107684000Y-77233500D01*
X107684000Y-79433500D02*
X107684000Y-81633500D01*
X102464000Y-79433500D02*
X102464000Y-77233500D01*
X102464000Y-79433500D02*
X102464000Y-81633500D01*
X107814000Y-76773500D02*
X107484000Y-76533500D01*
X107814000Y-76293500D01*
X107814000Y-76773500D01*
G36*
X107814000Y-76773500D02*
G01*
X107484000Y-76533500D01*
X107814000Y-76293500D01*
X107814000Y-76773500D01*
G37*
%TO.C,R10*%
X96985064Y-81507000D02*
X96530936Y-81507000D01*
X96985064Y-80037000D02*
X96530936Y-80037000D01*
%TO.C,J4*%
X100728000Y-65676000D02*
X100728000Y-68436000D01*
X103378000Y-65676000D02*
X100728000Y-65676000D01*
X103378000Y-65676000D02*
X103378000Y-68436000D01*
X103378000Y-68436000D02*
X100728000Y-68436000D01*
X104648000Y-65676000D02*
X106028000Y-65676000D01*
X106028000Y-65676000D02*
X106028000Y-67056000D01*
%TO.C,R7*%
X117612936Y-72163000D02*
X118067064Y-72163000D01*
X117612936Y-73633000D02*
X118067064Y-73633000D01*
%TO.C,J2*%
X122538000Y-91296000D02*
X121158000Y-91296000D01*
X122538000Y-89916000D02*
X122538000Y-91296000D01*
X119778000Y-88646000D02*
X119778000Y-85996000D01*
X122538000Y-88646000D02*
X119778000Y-88646000D01*
X122538000Y-88646000D02*
X122538000Y-85996000D01*
X122538000Y-85996000D02*
X119778000Y-85996000D01*
%TO.C,R8*%
X97017064Y-78205000D02*
X96562936Y-78205000D01*
X97017064Y-76735000D02*
X96562936Y-76735000D01*
%TO.C,R6*%
X97309000Y-72416936D02*
X97309000Y-72871064D01*
X98779000Y-72416936D02*
X98779000Y-72871064D01*
%TO.C,R4*%
X111479064Y-83031000D02*
X111024936Y-83031000D01*
X111479064Y-81561000D02*
X111024936Y-81561000D01*
%TO.C,R2*%
X109979000Y-89454064D02*
X109979000Y-88999936D01*
X111449000Y-89454064D02*
X111449000Y-88999936D01*
%TO.C,J5*%
X101490000Y-69994000D02*
X102870000Y-69994000D01*
X101490000Y-71374000D02*
X101490000Y-69994000D01*
X101490000Y-72644000D02*
X101490000Y-72754000D01*
X101490000Y-72644000D02*
X104250000Y-72644000D01*
X101490000Y-72754000D02*
X104250000Y-72754000D01*
X104250000Y-72644000D02*
X104250000Y-72754000D01*
%TO.C,R3*%
X114979000Y-89454064D02*
X114979000Y-88999936D01*
X116449000Y-89454064D02*
X116449000Y-88999936D01*
%TO.C,R9*%
X98833000Y-85624936D02*
X98833000Y-86079064D01*
X100303000Y-85624936D02*
X100303000Y-86079064D01*
%TO.C,R5*%
X113273064Y-73633000D02*
X112818936Y-73633000D01*
X113273064Y-72163000D02*
X112818936Y-72163000D01*
%TO.C,R1*%
X104979000Y-89454064D02*
X104979000Y-88999936D01*
X106449000Y-89454064D02*
X106449000Y-88999936D01*
%TD*%
M02*
