%TF.GenerationSoftware,KiCad,Pcbnew,9.0.4*%
%TF.CreationDate,2025-11-10T15:19:37-05:00*%
%TF.ProjectId,lwqms_receiver,6c77716d-735f-4726-9563-65697665722e,rev?*%
%TF.SameCoordinates,Original*%
%TF.FileFunction,Soldermask,Top*%
%TF.FilePolarity,Negative*%
%FSLAX46Y46*%
G04 Gerber Fmt 4.6, Leading zero omitted, Abs format (unit mm)*
G04 Created by KiCad (PCBNEW 9.0.4) date 2025-11-10 15:19:37*
%MOMM*%
%LPD*%
G01*
G04 APERTURE LIST*
G04 Aperture macros list*
%AMRoundRect*
0 Rectangle with rounded corners*
0 $1 Rounding radius*
0 $2 $3 $4 $5 $6 $7 $8 $9 X,Y pos of 4 corners*
0 Add a 4 corners polygon primitive as box body*
4,1,4,$2,$3,$4,$5,$6,$7,$8,$9,$2,$3,0*
0 Add four circle primitives for the rounded corners*
1,1,$1+$1,$2,$3*
1,1,$1+$1,$4,$5*
1,1,$1+$1,$6,$7*
1,1,$1+$1,$8,$9*
0 Add four rect primitives between the rounded corners*
20,1,$1+$1,$2,$3,$4,$5,0*
20,1,$1+$1,$4,$5,$6,$7,0*
20,1,$1+$1,$6,$7,$8,$9,0*
20,1,$1+$1,$8,$9,$2,$3,0*%
G04 Aperture macros list end*
%ADD10RoundRect,0.237500X0.287500X0.237500X-0.287500X0.237500X-0.287500X-0.237500X0.287500X-0.237500X0*%
%ADD11C,5.600000*%
%ADD12RoundRect,0.250000X-0.350000X-0.450000X0.350000X-0.450000X0.350000X0.450000X-0.350000X0.450000X0*%
%ADD13R,1.498600X1.498600*%
%ADD14C,1.498600*%
%ADD15R,1.900000X1.000000*%
%ADD16RoundRect,0.240000X-1.760000X0.560000X-1.760000X-0.560000X1.760000X-0.560000X1.760000X0.560000X0*%
%ADD17RoundRect,0.250000X-0.475000X0.337500X-0.475000X-0.337500X0.475000X-0.337500X0.475000X0.337500X0*%
%ADD18RoundRect,0.250000X-0.450000X0.350000X-0.450000X-0.350000X0.450000X-0.350000X0.450000X0.350000X0*%
G04 APERTURE END LIST*
D10*
%TO.C,D4*%
X158131000Y-66138000D03*
X156381000Y-66138000D03*
%TD*%
D11*
%TO.C,REF\u002A\u002A*%
X112000000Y-49000000D03*
%TD*%
D12*
%TO.C,R3*%
X150273000Y-71178000D03*
X152273000Y-71178000D03*
%TD*%
D13*
%TO.C,SW1*%
X152122999Y-85415999D03*
D14*
X158623000Y-85415999D03*
X152122999Y-89916000D03*
X158623000Y-89916000D03*
%TD*%
D15*
%TO.C,J1*%
X122680000Y-55880000D03*
X119380000Y-58420000D03*
X122680000Y-60960000D03*
X119380000Y-63500000D03*
X122680000Y-66040000D03*
X119380000Y-68580000D03*
X122680000Y-71120000D03*
X119380000Y-73660000D03*
X122680000Y-76200000D03*
X119380000Y-78740000D03*
X122680000Y-81280000D03*
X119380000Y-83820000D03*
X122680000Y-86360000D03*
X119380000Y-88900000D03*
X122680000Y-91440000D03*
X119380000Y-93980000D03*
X122680000Y-96520000D03*
X119380000Y-99060000D03*
X122680000Y-101600000D03*
X119380000Y-104140000D03*
%TD*%
D10*
%TO.C,D2*%
X158115000Y-60960000D03*
X156365000Y-60960000D03*
%TD*%
%TO.C,D3*%
X158115000Y-71120000D03*
X156365000Y-71120000D03*
%TD*%
D11*
%TO.C,REF\u002A\u002A*%
X160000000Y-141000000D03*
%TD*%
D12*
%TO.C,R1*%
X150269000Y-55880000D03*
X152269000Y-55880000D03*
%TD*%
D11*
%TO.C,REF\u002A\u002A*%
X160000000Y-49000000D03*
%TD*%
D15*
%TO.C,J2*%
X137160000Y-104140000D03*
X140460000Y-101600000D03*
X137160000Y-99060000D03*
X140460000Y-96520000D03*
X137160000Y-93980000D03*
X140460000Y-91440000D03*
X137160000Y-88900000D03*
X140460000Y-86360000D03*
X137160000Y-83820000D03*
X140460000Y-81280000D03*
X137160000Y-78740000D03*
X140460000Y-76200000D03*
X137160000Y-73660000D03*
X140460000Y-71120000D03*
X137160000Y-68580000D03*
X140460000Y-66040000D03*
X137160000Y-63500000D03*
X140460000Y-60960000D03*
X137160000Y-58420000D03*
X140460000Y-55880000D03*
%TD*%
D10*
%TO.C,D1*%
X158115000Y-55880000D03*
X156365000Y-55880000D03*
%TD*%
D16*
%TO.C,U1*%
X139421000Y-132735000D03*
X139421000Y-130195000D03*
X139421000Y-127655000D03*
X139421000Y-125115000D03*
X139421000Y-122575000D03*
X139421000Y-120035000D03*
X139421000Y-117495000D03*
X139421000Y-114955000D03*
X120421000Y-114955000D03*
X120421000Y-117495000D03*
X120421000Y-120035000D03*
X120421000Y-122575000D03*
X120421000Y-125115000D03*
X120421000Y-127655000D03*
X120421000Y-130195000D03*
X120421000Y-132735000D03*
%TD*%
D17*
%TO.C,C1*%
X146812000Y-115000000D03*
X146812000Y-117075000D03*
%TD*%
D12*
%TO.C,R4*%
X150273000Y-66098000D03*
X152273000Y-66098000D03*
%TD*%
%TO.C,R2*%
X150269000Y-60989000D03*
X152269000Y-60989000D03*
%TD*%
D18*
%TO.C,R5*%
X146251001Y-79227001D03*
X146251001Y-81227001D03*
%TD*%
D11*
%TO.C,REF\u002A\u002A*%
X112000000Y-141000000D03*
%TD*%
M02*
