%TF.GenerationSoftware,KiCad,Pcbnew,9.0.4*%
%TF.CreationDate,2025-11-10T15:19:37-05:00*%
%TF.ProjectId,lwqms_receiver,6c77716d-735f-4726-9563-65697665722e,rev?*%
%TF.SameCoordinates,Original*%
%TF.FileFunction,Copper,L1,Top*%
%TF.FilePolarity,Positive*%
%FSLAX46Y46*%
G04 Gerber Fmt 4.6, Leading zero omitted, Abs format (unit mm)*
G04 Created by KiCad (PCBNEW 9.0.4) date 2025-11-10 15:19:37*
%MOMM*%
%LPD*%
G01*
G04 APERTURE LIST*
G04 Aperture macros list*
%AMRoundRect*
0 Rectangle with rounded corners*
0 $1 Rounding radius*
0 $2 $3 $4 $5 $6 $7 $8 $9 X,Y pos of 4 corners*
0 Add a 4 corners polygon primitive as box body*
4,1,4,$2,$3,$4,$5,$6,$7,$8,$9,$2,$3,0*
0 Add four circle primitives for the rounded corners*
1,1,$1+$1,$2,$3*
1,1,$1+$1,$4,$5*
1,1,$1+$1,$6,$7*
1,1,$1+$1,$8,$9*
0 Add four rect primitives between the rounded corners*
20,1,$1+$1,$2,$3,$4,$5,0*
20,1,$1+$1,$4,$5,$6,$7,0*
20,1,$1+$1,$6,$7,$8,$9,0*
20,1,$1+$1,$8,$9,$2,$3,0*%
G04 Aperture macros list end*
%ADD10C,0.150000*%
%TA.AperFunction,NonConductor*%
%ADD11C,0.150000*%
%TD*%
%ADD12C,0.200000*%
%TA.AperFunction,NonConductor*%
%ADD13C,0.200000*%
%TD*%
%TA.AperFunction,SMDPad,CuDef*%
%ADD14RoundRect,0.237500X0.287500X0.237500X-0.287500X0.237500X-0.287500X-0.237500X0.287500X-0.237500X0*%
%TD*%
%TA.AperFunction,ComponentPad*%
%ADD15C,5.600000*%
%TD*%
%TA.AperFunction,SMDPad,CuDef*%
%ADD16RoundRect,0.250000X-0.350000X-0.450000X0.350000X-0.450000X0.350000X0.450000X-0.350000X0.450000X0*%
%TD*%
%TA.AperFunction,ComponentPad*%
%ADD17R,1.498600X1.498600*%
%TD*%
%TA.AperFunction,ComponentPad*%
%ADD18C,1.498600*%
%TD*%
%TA.AperFunction,SMDPad,CuDef*%
%ADD19R,1.900000X1.000000*%
%TD*%
%TA.AperFunction,SMDPad,CuDef*%
%ADD20RoundRect,0.240000X-1.760000X0.560000X-1.760000X-0.560000X1.760000X-0.560000X1.760000X0.560000X0*%
%TD*%
%TA.AperFunction,SMDPad,CuDef*%
%ADD21RoundRect,0.250000X-0.475000X0.337500X-0.475000X-0.337500X0.475000X-0.337500X0.475000X0.337500X0*%
%TD*%
%TA.AperFunction,SMDPad,CuDef*%
%ADD22RoundRect,0.250000X-0.450000X0.350000X-0.450000X-0.350000X0.450000X-0.350000X0.450000X0.350000X0*%
%TD*%
%TA.AperFunction,Conductor*%
%ADD23C,0.500000*%
%TD*%
%TA.AperFunction,Conductor*%
%ADD24C,1.000000*%
%TD*%
G04 APERTURE END LIST*
D10*
D11*
X112845342Y-116615601D02*
X111645342Y-116615601D01*
X111645342Y-116615601D02*
X111645342Y-116329887D01*
X111645342Y-116329887D02*
X111702485Y-116158458D01*
X111702485Y-116158458D02*
X111816771Y-116044173D01*
X111816771Y-116044173D02*
X111931057Y-115987030D01*
X111931057Y-115987030D02*
X112159628Y-115929887D01*
X112159628Y-115929887D02*
X112331057Y-115929887D01*
X112331057Y-115929887D02*
X112559628Y-115987030D01*
X112559628Y-115987030D02*
X112673914Y-116044173D01*
X112673914Y-116044173D02*
X112788200Y-116158458D01*
X112788200Y-116158458D02*
X112845342Y-116329887D01*
X112845342Y-116329887D02*
X112845342Y-116615601D01*
X112788200Y-114958458D02*
X112845342Y-115072744D01*
X112845342Y-115072744D02*
X112845342Y-115301316D01*
X112845342Y-115301316D02*
X112788200Y-115415601D01*
X112788200Y-115415601D02*
X112673914Y-115472744D01*
X112673914Y-115472744D02*
X112216771Y-115472744D01*
X112216771Y-115472744D02*
X112102485Y-115415601D01*
X112102485Y-115415601D02*
X112045342Y-115301316D01*
X112045342Y-115301316D02*
X112045342Y-115072744D01*
X112045342Y-115072744D02*
X112102485Y-114958458D01*
X112102485Y-114958458D02*
X112216771Y-114901316D01*
X112216771Y-114901316D02*
X112331057Y-114901316D01*
X112331057Y-114901316D02*
X112445342Y-115472744D01*
X112788200Y-114444173D02*
X112845342Y-114329887D01*
X112845342Y-114329887D02*
X112845342Y-114101316D01*
X112845342Y-114101316D02*
X112788200Y-113987030D01*
X112788200Y-113987030D02*
X112673914Y-113929887D01*
X112673914Y-113929887D02*
X112616771Y-113929887D01*
X112616771Y-113929887D02*
X112502485Y-113987030D01*
X112502485Y-113987030D02*
X112445342Y-114101316D01*
X112445342Y-114101316D02*
X112445342Y-114272745D01*
X112445342Y-114272745D02*
X112388200Y-114387030D01*
X112388200Y-114387030D02*
X112273914Y-114444173D01*
X112273914Y-114444173D02*
X112216771Y-114444173D01*
X112216771Y-114444173D02*
X112102485Y-114387030D01*
X112102485Y-114387030D02*
X112045342Y-114272745D01*
X112045342Y-114272745D02*
X112045342Y-114101316D01*
X112045342Y-114101316D02*
X112102485Y-113987030D01*
X112845342Y-113415601D02*
X112045342Y-113415601D01*
X111645342Y-113415601D02*
X111702485Y-113472744D01*
X111702485Y-113472744D02*
X111759628Y-113415601D01*
X111759628Y-113415601D02*
X111702485Y-113358458D01*
X111702485Y-113358458D02*
X111645342Y-113415601D01*
X111645342Y-113415601D02*
X111759628Y-113415601D01*
X112045342Y-112329887D02*
X113016771Y-112329887D01*
X113016771Y-112329887D02*
X113131057Y-112387029D01*
X113131057Y-112387029D02*
X113188200Y-112444172D01*
X113188200Y-112444172D02*
X113245342Y-112558458D01*
X113245342Y-112558458D02*
X113245342Y-112729887D01*
X113245342Y-112729887D02*
X113188200Y-112844172D01*
X112788200Y-112329887D02*
X112845342Y-112444172D01*
X112845342Y-112444172D02*
X112845342Y-112672744D01*
X112845342Y-112672744D02*
X112788200Y-112787029D01*
X112788200Y-112787029D02*
X112731057Y-112844172D01*
X112731057Y-112844172D02*
X112616771Y-112901315D01*
X112616771Y-112901315D02*
X112273914Y-112901315D01*
X112273914Y-112901315D02*
X112159628Y-112844172D01*
X112159628Y-112844172D02*
X112102485Y-112787029D01*
X112102485Y-112787029D02*
X112045342Y-112672744D01*
X112045342Y-112672744D02*
X112045342Y-112444172D01*
X112045342Y-112444172D02*
X112102485Y-112329887D01*
X112045342Y-111758458D02*
X112845342Y-111758458D01*
X112159628Y-111758458D02*
X112102485Y-111701315D01*
X112102485Y-111701315D02*
X112045342Y-111587030D01*
X112045342Y-111587030D02*
X112045342Y-111415601D01*
X112045342Y-111415601D02*
X112102485Y-111301315D01*
X112102485Y-111301315D02*
X112216771Y-111244173D01*
X112216771Y-111244173D02*
X112845342Y-111244173D01*
X112788200Y-110215601D02*
X112845342Y-110329887D01*
X112845342Y-110329887D02*
X112845342Y-110558459D01*
X112845342Y-110558459D02*
X112788200Y-110672744D01*
X112788200Y-110672744D02*
X112673914Y-110729887D01*
X112673914Y-110729887D02*
X112216771Y-110729887D01*
X112216771Y-110729887D02*
X112102485Y-110672744D01*
X112102485Y-110672744D02*
X112045342Y-110558459D01*
X112045342Y-110558459D02*
X112045342Y-110329887D01*
X112045342Y-110329887D02*
X112102485Y-110215601D01*
X112102485Y-110215601D02*
X112216771Y-110158459D01*
X112216771Y-110158459D02*
X112331057Y-110158459D01*
X112331057Y-110158459D02*
X112445342Y-110729887D01*
X112845342Y-109129888D02*
X111645342Y-109129888D01*
X112788200Y-109129888D02*
X112845342Y-109244173D01*
X112845342Y-109244173D02*
X112845342Y-109472745D01*
X112845342Y-109472745D02*
X112788200Y-109587030D01*
X112788200Y-109587030D02*
X112731057Y-109644173D01*
X112731057Y-109644173D02*
X112616771Y-109701316D01*
X112616771Y-109701316D02*
X112273914Y-109701316D01*
X112273914Y-109701316D02*
X112159628Y-109644173D01*
X112159628Y-109644173D02*
X112102485Y-109587030D01*
X112102485Y-109587030D02*
X112045342Y-109472745D01*
X112045342Y-109472745D02*
X112045342Y-109244173D01*
X112045342Y-109244173D02*
X112102485Y-109129888D01*
X112845342Y-107644173D02*
X111645342Y-107644173D01*
X112102485Y-107644173D02*
X112045342Y-107529888D01*
X112045342Y-107529888D02*
X112045342Y-107301316D01*
X112045342Y-107301316D02*
X112102485Y-107187030D01*
X112102485Y-107187030D02*
X112159628Y-107129888D01*
X112159628Y-107129888D02*
X112273914Y-107072745D01*
X112273914Y-107072745D02*
X112616771Y-107072745D01*
X112616771Y-107072745D02*
X112731057Y-107129888D01*
X112731057Y-107129888D02*
X112788200Y-107187030D01*
X112788200Y-107187030D02*
X112845342Y-107301316D01*
X112845342Y-107301316D02*
X112845342Y-107529888D01*
X112845342Y-107529888D02*
X112788200Y-107644173D01*
X112045342Y-106672745D02*
X112845342Y-106387031D01*
X112045342Y-106101316D02*
X112845342Y-106387031D01*
X112845342Y-106387031D02*
X113131057Y-106501316D01*
X113131057Y-106501316D02*
X113188200Y-106558459D01*
X113188200Y-106558459D02*
X113245342Y-106672745D01*
X112845342Y-104729887D02*
X111645342Y-104729887D01*
X111645342Y-104729887D02*
X112502485Y-104329887D01*
X112502485Y-104329887D02*
X111645342Y-103929887D01*
X111645342Y-103929887D02*
X112845342Y-103929887D01*
X112845342Y-102844173D02*
X112216771Y-102844173D01*
X112216771Y-102844173D02*
X112102485Y-102901315D01*
X112102485Y-102901315D02*
X112045342Y-103015601D01*
X112045342Y-103015601D02*
X112045342Y-103244173D01*
X112045342Y-103244173D02*
X112102485Y-103358458D01*
X112788200Y-102844173D02*
X112845342Y-102958458D01*
X112845342Y-102958458D02*
X112845342Y-103244173D01*
X112845342Y-103244173D02*
X112788200Y-103358458D01*
X112788200Y-103358458D02*
X112673914Y-103415601D01*
X112673914Y-103415601D02*
X112559628Y-103415601D01*
X112559628Y-103415601D02*
X112445342Y-103358458D01*
X112445342Y-103358458D02*
X112388200Y-103244173D01*
X112388200Y-103244173D02*
X112388200Y-102958458D01*
X112388200Y-102958458D02*
X112331057Y-102844173D01*
X112045342Y-102444173D02*
X112045342Y-101987030D01*
X111645342Y-102272744D02*
X112673914Y-102272744D01*
X112673914Y-102272744D02*
X112788200Y-102215601D01*
X112788200Y-102215601D02*
X112845342Y-102101316D01*
X112845342Y-102101316D02*
X112845342Y-101987030D01*
X112045342Y-101758459D02*
X112045342Y-101301316D01*
X111645342Y-101587030D02*
X112673914Y-101587030D01*
X112673914Y-101587030D02*
X112788200Y-101529887D01*
X112788200Y-101529887D02*
X112845342Y-101415602D01*
X112845342Y-101415602D02*
X112845342Y-101301316D01*
X112845342Y-100901316D02*
X111645342Y-100901316D01*
X112845342Y-100387031D02*
X112216771Y-100387031D01*
X112216771Y-100387031D02*
X112102485Y-100444173D01*
X112102485Y-100444173D02*
X112045342Y-100558459D01*
X112045342Y-100558459D02*
X112045342Y-100729888D01*
X112045342Y-100729888D02*
X112102485Y-100844173D01*
X112102485Y-100844173D02*
X112159628Y-100901316D01*
X112788200Y-99358459D02*
X112845342Y-99472745D01*
X112845342Y-99472745D02*
X112845342Y-99701317D01*
X112845342Y-99701317D02*
X112788200Y-99815602D01*
X112788200Y-99815602D02*
X112673914Y-99872745D01*
X112673914Y-99872745D02*
X112216771Y-99872745D01*
X112216771Y-99872745D02*
X112102485Y-99815602D01*
X112102485Y-99815602D02*
X112045342Y-99701317D01*
X112045342Y-99701317D02*
X112045342Y-99472745D01*
X112045342Y-99472745D02*
X112102485Y-99358459D01*
X112102485Y-99358459D02*
X112216771Y-99301317D01*
X112216771Y-99301317D02*
X112331057Y-99301317D01*
X112331057Y-99301317D02*
X112445342Y-99872745D01*
X112045342Y-98901317D02*
X112845342Y-98672746D01*
X112845342Y-98672746D02*
X112273914Y-98444174D01*
X112273914Y-98444174D02*
X112845342Y-98215603D01*
X112845342Y-98215603D02*
X112045342Y-97987031D01*
X112788200Y-96672745D02*
X112845342Y-96501317D01*
X112845342Y-96501317D02*
X112845342Y-96215602D01*
X112845342Y-96215602D02*
X112788200Y-96101317D01*
X112788200Y-96101317D02*
X112731057Y-96044174D01*
X112731057Y-96044174D02*
X112616771Y-95987031D01*
X112616771Y-95987031D02*
X112502485Y-95987031D01*
X112502485Y-95987031D02*
X112388200Y-96044174D01*
X112388200Y-96044174D02*
X112331057Y-96101317D01*
X112331057Y-96101317D02*
X112273914Y-96215602D01*
X112273914Y-96215602D02*
X112216771Y-96444174D01*
X112216771Y-96444174D02*
X112159628Y-96558459D01*
X112159628Y-96558459D02*
X112102485Y-96615602D01*
X112102485Y-96615602D02*
X111988200Y-96672745D01*
X111988200Y-96672745D02*
X111873914Y-96672745D01*
X111873914Y-96672745D02*
X111759628Y-96615602D01*
X111759628Y-96615602D02*
X111702485Y-96558459D01*
X111702485Y-96558459D02*
X111645342Y-96444174D01*
X111645342Y-96444174D02*
X111645342Y-96158459D01*
X111645342Y-96158459D02*
X111702485Y-95987031D01*
X112845342Y-95472745D02*
X111645342Y-95472745D01*
X112845342Y-94958460D02*
X112216771Y-94958460D01*
X112216771Y-94958460D02*
X112102485Y-95015602D01*
X112102485Y-95015602D02*
X112045342Y-95129888D01*
X112045342Y-95129888D02*
X112045342Y-95301317D01*
X112045342Y-95301317D02*
X112102485Y-95415602D01*
X112102485Y-95415602D02*
X112159628Y-95472745D01*
X112845342Y-93872746D02*
X112216771Y-93872746D01*
X112216771Y-93872746D02*
X112102485Y-93929888D01*
X112102485Y-93929888D02*
X112045342Y-94044174D01*
X112045342Y-94044174D02*
X112045342Y-94272746D01*
X112045342Y-94272746D02*
X112102485Y-94387031D01*
X112788200Y-93872746D02*
X112845342Y-93987031D01*
X112845342Y-93987031D02*
X112845342Y-94272746D01*
X112845342Y-94272746D02*
X112788200Y-94387031D01*
X112788200Y-94387031D02*
X112673914Y-94444174D01*
X112673914Y-94444174D02*
X112559628Y-94444174D01*
X112559628Y-94444174D02*
X112445342Y-94387031D01*
X112445342Y-94387031D02*
X112388200Y-94272746D01*
X112388200Y-94272746D02*
X112388200Y-93987031D01*
X112388200Y-93987031D02*
X112331057Y-93872746D01*
X112845342Y-93301317D02*
X112045342Y-93301317D01*
X112273914Y-93301317D02*
X112159628Y-93244174D01*
X112159628Y-93244174D02*
X112102485Y-93187032D01*
X112102485Y-93187032D02*
X112045342Y-93072746D01*
X112045342Y-93072746D02*
X112045342Y-92958460D01*
X112045342Y-92558460D02*
X113245342Y-92558460D01*
X112102485Y-92558460D02*
X112045342Y-92444175D01*
X112045342Y-92444175D02*
X112045342Y-92215603D01*
X112045342Y-92215603D02*
X112102485Y-92101317D01*
X112102485Y-92101317D02*
X112159628Y-92044175D01*
X112159628Y-92044175D02*
X112273914Y-91987032D01*
X112273914Y-91987032D02*
X112616771Y-91987032D01*
X112616771Y-91987032D02*
X112731057Y-92044175D01*
X112731057Y-92044175D02*
X112788200Y-92101317D01*
X112788200Y-92101317D02*
X112845342Y-92215603D01*
X112845342Y-92215603D02*
X112845342Y-92444175D01*
X112845342Y-92444175D02*
X112788200Y-92558460D01*
D12*
D13*
X160869006Y-61437742D02*
X160469006Y-60866314D01*
X160183292Y-61437742D02*
X160183292Y-60237742D01*
X160183292Y-60237742D02*
X160640435Y-60237742D01*
X160640435Y-60237742D02*
X160754720Y-60294885D01*
X160754720Y-60294885D02*
X160811863Y-60352028D01*
X160811863Y-60352028D02*
X160869006Y-60466314D01*
X160869006Y-60466314D02*
X160869006Y-60637742D01*
X160869006Y-60637742D02*
X160811863Y-60752028D01*
X160811863Y-60752028D02*
X160754720Y-60809171D01*
X160754720Y-60809171D02*
X160640435Y-60866314D01*
X160640435Y-60866314D02*
X160183292Y-60866314D01*
X161269006Y-60237742D02*
X162069006Y-61437742D01*
X162069006Y-60237742D02*
X161269006Y-61437742D01*
D12*
D13*
X160183292Y-55729171D02*
X160583292Y-55729171D01*
X160754720Y-56357742D02*
X160183292Y-56357742D01*
X160183292Y-56357742D02*
X160183292Y-55157742D01*
X160183292Y-55157742D02*
X160754720Y-55157742D01*
X161954720Y-56357742D02*
X161554720Y-55786314D01*
X161269006Y-56357742D02*
X161269006Y-55157742D01*
X161269006Y-55157742D02*
X161726149Y-55157742D01*
X161726149Y-55157742D02*
X161840434Y-55214885D01*
X161840434Y-55214885D02*
X161897577Y-55272028D01*
X161897577Y-55272028D02*
X161954720Y-55386314D01*
X161954720Y-55386314D02*
X161954720Y-55557742D01*
X161954720Y-55557742D02*
X161897577Y-55672028D01*
X161897577Y-55672028D02*
X161840434Y-55729171D01*
X161840434Y-55729171D02*
X161726149Y-55786314D01*
X161726149Y-55786314D02*
X161269006Y-55786314D01*
X163154720Y-56357742D02*
X162754720Y-55786314D01*
X162469006Y-56357742D02*
X162469006Y-55157742D01*
X162469006Y-55157742D02*
X162926149Y-55157742D01*
X162926149Y-55157742D02*
X163040434Y-55214885D01*
X163040434Y-55214885D02*
X163097577Y-55272028D01*
X163097577Y-55272028D02*
X163154720Y-55386314D01*
X163154720Y-55386314D02*
X163154720Y-55557742D01*
X163154720Y-55557742D02*
X163097577Y-55672028D01*
X163097577Y-55672028D02*
X163040434Y-55729171D01*
X163040434Y-55729171D02*
X162926149Y-55786314D01*
X162926149Y-55786314D02*
X162469006Y-55786314D01*
D12*
D13*
X160011863Y-70397742D02*
X160697578Y-70397742D01*
X160354720Y-71597742D02*
X160354720Y-70397742D01*
X160983292Y-70397742D02*
X161783292Y-71597742D01*
X161783292Y-70397742D02*
X160983292Y-71597742D01*
D12*
D13*
X153757006Y-83027742D02*
X153357006Y-82456314D01*
X153071292Y-83027742D02*
X153071292Y-81827742D01*
X153071292Y-81827742D02*
X153528435Y-81827742D01*
X153528435Y-81827742D02*
X153642720Y-81884885D01*
X153642720Y-81884885D02*
X153699863Y-81942028D01*
X153699863Y-81942028D02*
X153757006Y-82056314D01*
X153757006Y-82056314D02*
X153757006Y-82227742D01*
X153757006Y-82227742D02*
X153699863Y-82342028D01*
X153699863Y-82342028D02*
X153642720Y-82399171D01*
X153642720Y-82399171D02*
X153528435Y-82456314D01*
X153528435Y-82456314D02*
X153071292Y-82456314D01*
X154271292Y-82399171D02*
X154671292Y-82399171D01*
X154842720Y-83027742D02*
X154271292Y-83027742D01*
X154271292Y-83027742D02*
X154271292Y-81827742D01*
X154271292Y-81827742D02*
X154842720Y-81827742D01*
X155299863Y-82970600D02*
X155471292Y-83027742D01*
X155471292Y-83027742D02*
X155757006Y-83027742D01*
X155757006Y-83027742D02*
X155871292Y-82970600D01*
X155871292Y-82970600D02*
X155928434Y-82913457D01*
X155928434Y-82913457D02*
X155985577Y-82799171D01*
X155985577Y-82799171D02*
X155985577Y-82684885D01*
X155985577Y-82684885D02*
X155928434Y-82570600D01*
X155928434Y-82570600D02*
X155871292Y-82513457D01*
X155871292Y-82513457D02*
X155757006Y-82456314D01*
X155757006Y-82456314D02*
X155528434Y-82399171D01*
X155528434Y-82399171D02*
X155414149Y-82342028D01*
X155414149Y-82342028D02*
X155357006Y-82284885D01*
X155357006Y-82284885D02*
X155299863Y-82170600D01*
X155299863Y-82170600D02*
X155299863Y-82056314D01*
X155299863Y-82056314D02*
X155357006Y-81942028D01*
X155357006Y-81942028D02*
X155414149Y-81884885D01*
X155414149Y-81884885D02*
X155528434Y-81827742D01*
X155528434Y-81827742D02*
X155814149Y-81827742D01*
X155814149Y-81827742D02*
X155985577Y-81884885D01*
X156499863Y-82399171D02*
X156899863Y-82399171D01*
X157071291Y-83027742D02*
X156499863Y-83027742D01*
X156499863Y-83027742D02*
X156499863Y-81827742D01*
X156499863Y-81827742D02*
X157071291Y-81827742D01*
X157414148Y-81827742D02*
X158099863Y-81827742D01*
X157757005Y-83027742D02*
X157757005Y-81827742D01*
D12*
D13*
X160411863Y-65444742D02*
X160640435Y-65444742D01*
X160640435Y-65444742D02*
X160754720Y-65501885D01*
X160754720Y-65501885D02*
X160869006Y-65616171D01*
X160869006Y-65616171D02*
X160926149Y-65844742D01*
X160926149Y-65844742D02*
X160926149Y-66244742D01*
X160926149Y-66244742D02*
X160869006Y-66473314D01*
X160869006Y-66473314D02*
X160754720Y-66587600D01*
X160754720Y-66587600D02*
X160640435Y-66644742D01*
X160640435Y-66644742D02*
X160411863Y-66644742D01*
X160411863Y-66644742D02*
X160297578Y-66587600D01*
X160297578Y-66587600D02*
X160183292Y-66473314D01*
X160183292Y-66473314D02*
X160126149Y-66244742D01*
X160126149Y-66244742D02*
X160126149Y-65844742D01*
X160126149Y-65844742D02*
X160183292Y-65616171D01*
X160183292Y-65616171D02*
X160297578Y-65501885D01*
X160297578Y-65501885D02*
X160411863Y-65444742D01*
X161440435Y-66644742D02*
X161440435Y-65444742D01*
X162126149Y-66644742D02*
X161611863Y-65959028D01*
X162126149Y-65444742D02*
X161440435Y-66130457D01*
D10*
D11*
X110845342Y-116044173D02*
X110845342Y-116615601D01*
X110845342Y-116615601D02*
X109645342Y-116615601D01*
X110845342Y-115472744D02*
X110788200Y-115587029D01*
X110788200Y-115587029D02*
X110731057Y-115644172D01*
X110731057Y-115644172D02*
X110616771Y-115701315D01*
X110616771Y-115701315D02*
X110273914Y-115701315D01*
X110273914Y-115701315D02*
X110159628Y-115644172D01*
X110159628Y-115644172D02*
X110102485Y-115587029D01*
X110102485Y-115587029D02*
X110045342Y-115472744D01*
X110045342Y-115472744D02*
X110045342Y-115301315D01*
X110045342Y-115301315D02*
X110102485Y-115187029D01*
X110102485Y-115187029D02*
X110159628Y-115129887D01*
X110159628Y-115129887D02*
X110273914Y-115072744D01*
X110273914Y-115072744D02*
X110616771Y-115072744D01*
X110616771Y-115072744D02*
X110731057Y-115129887D01*
X110731057Y-115129887D02*
X110788200Y-115187029D01*
X110788200Y-115187029D02*
X110845342Y-115301315D01*
X110845342Y-115301315D02*
X110845342Y-115472744D01*
X110845342Y-113872744D02*
X110273914Y-114272744D01*
X110845342Y-114558458D02*
X109645342Y-114558458D01*
X109645342Y-114558458D02*
X109645342Y-114101315D01*
X109645342Y-114101315D02*
X109702485Y-113987030D01*
X109702485Y-113987030D02*
X109759628Y-113929887D01*
X109759628Y-113929887D02*
X109873914Y-113872744D01*
X109873914Y-113872744D02*
X110045342Y-113872744D01*
X110045342Y-113872744D02*
X110159628Y-113929887D01*
X110159628Y-113929887D02*
X110216771Y-113987030D01*
X110216771Y-113987030D02*
X110273914Y-114101315D01*
X110273914Y-114101315D02*
X110273914Y-114558458D01*
X110845342Y-112844173D02*
X110216771Y-112844173D01*
X110216771Y-112844173D02*
X110102485Y-112901315D01*
X110102485Y-112901315D02*
X110045342Y-113015601D01*
X110045342Y-113015601D02*
X110045342Y-113244173D01*
X110045342Y-113244173D02*
X110102485Y-113358458D01*
X110788200Y-112844173D02*
X110845342Y-112958458D01*
X110845342Y-112958458D02*
X110845342Y-113244173D01*
X110845342Y-113244173D02*
X110788200Y-113358458D01*
X110788200Y-113358458D02*
X110673914Y-113415601D01*
X110673914Y-113415601D02*
X110559628Y-113415601D01*
X110559628Y-113415601D02*
X110445342Y-113358458D01*
X110445342Y-113358458D02*
X110388200Y-113244173D01*
X110388200Y-113244173D02*
X110388200Y-112958458D01*
X110388200Y-112958458D02*
X110331057Y-112844173D01*
X109645342Y-111472744D02*
X110845342Y-111187030D01*
X110845342Y-111187030D02*
X109988200Y-110958458D01*
X109988200Y-110958458D02*
X110845342Y-110729887D01*
X110845342Y-110729887D02*
X109645342Y-110444173D01*
X110845342Y-109472744D02*
X110216771Y-109472744D01*
X110216771Y-109472744D02*
X110102485Y-109529886D01*
X110102485Y-109529886D02*
X110045342Y-109644172D01*
X110045342Y-109644172D02*
X110045342Y-109872744D01*
X110045342Y-109872744D02*
X110102485Y-109987029D01*
X110788200Y-109472744D02*
X110845342Y-109587029D01*
X110845342Y-109587029D02*
X110845342Y-109872744D01*
X110845342Y-109872744D02*
X110788200Y-109987029D01*
X110788200Y-109987029D02*
X110673914Y-110044172D01*
X110673914Y-110044172D02*
X110559628Y-110044172D01*
X110559628Y-110044172D02*
X110445342Y-109987029D01*
X110445342Y-109987029D02*
X110388200Y-109872744D01*
X110388200Y-109872744D02*
X110388200Y-109587029D01*
X110388200Y-109587029D02*
X110331057Y-109472744D01*
X110045342Y-109072744D02*
X110045342Y-108615601D01*
X109645342Y-108901315D02*
X110673914Y-108901315D01*
X110673914Y-108901315D02*
X110788200Y-108844172D01*
X110788200Y-108844172D02*
X110845342Y-108729887D01*
X110845342Y-108729887D02*
X110845342Y-108615601D01*
X110788200Y-107758458D02*
X110845342Y-107872744D01*
X110845342Y-107872744D02*
X110845342Y-108101316D01*
X110845342Y-108101316D02*
X110788200Y-108215601D01*
X110788200Y-108215601D02*
X110673914Y-108272744D01*
X110673914Y-108272744D02*
X110216771Y-108272744D01*
X110216771Y-108272744D02*
X110102485Y-108215601D01*
X110102485Y-108215601D02*
X110045342Y-108101316D01*
X110045342Y-108101316D02*
X110045342Y-107872744D01*
X110045342Y-107872744D02*
X110102485Y-107758458D01*
X110102485Y-107758458D02*
X110216771Y-107701316D01*
X110216771Y-107701316D02*
X110331057Y-107701316D01*
X110331057Y-107701316D02*
X110445342Y-108272744D01*
X110845342Y-107187030D02*
X110045342Y-107187030D01*
X110273914Y-107187030D02*
X110159628Y-107129887D01*
X110159628Y-107129887D02*
X110102485Y-107072745D01*
X110102485Y-107072745D02*
X110045342Y-106958459D01*
X110045342Y-106958459D02*
X110045342Y-106844173D01*
X110959628Y-104729887D02*
X110902485Y-104844173D01*
X110902485Y-104844173D02*
X110788200Y-104958459D01*
X110788200Y-104958459D02*
X110616771Y-105129887D01*
X110616771Y-105129887D02*
X110559628Y-105244173D01*
X110559628Y-105244173D02*
X110559628Y-105358459D01*
X110845342Y-105301316D02*
X110788200Y-105415602D01*
X110788200Y-105415602D02*
X110673914Y-105529887D01*
X110673914Y-105529887D02*
X110445342Y-105587030D01*
X110445342Y-105587030D02*
X110045342Y-105587030D01*
X110045342Y-105587030D02*
X109816771Y-105529887D01*
X109816771Y-105529887D02*
X109702485Y-105415602D01*
X109702485Y-105415602D02*
X109645342Y-105301316D01*
X109645342Y-105301316D02*
X109645342Y-105072744D01*
X109645342Y-105072744D02*
X109702485Y-104958459D01*
X109702485Y-104958459D02*
X109816771Y-104844173D01*
X109816771Y-104844173D02*
X110045342Y-104787030D01*
X110045342Y-104787030D02*
X110445342Y-104787030D01*
X110445342Y-104787030D02*
X110673914Y-104844173D01*
X110673914Y-104844173D02*
X110788200Y-104958459D01*
X110788200Y-104958459D02*
X110845342Y-105072744D01*
X110845342Y-105072744D02*
X110845342Y-105301316D01*
X110045342Y-103758459D02*
X110845342Y-103758459D01*
X110045342Y-104272744D02*
X110673914Y-104272744D01*
X110673914Y-104272744D02*
X110788200Y-104215601D01*
X110788200Y-104215601D02*
X110845342Y-104101316D01*
X110845342Y-104101316D02*
X110845342Y-103929887D01*
X110845342Y-103929887D02*
X110788200Y-103815601D01*
X110788200Y-103815601D02*
X110731057Y-103758459D01*
X110845342Y-102672745D02*
X110216771Y-102672745D01*
X110216771Y-102672745D02*
X110102485Y-102729887D01*
X110102485Y-102729887D02*
X110045342Y-102844173D01*
X110045342Y-102844173D02*
X110045342Y-103072745D01*
X110045342Y-103072745D02*
X110102485Y-103187030D01*
X110788200Y-102672745D02*
X110845342Y-102787030D01*
X110845342Y-102787030D02*
X110845342Y-103072745D01*
X110845342Y-103072745D02*
X110788200Y-103187030D01*
X110788200Y-103187030D02*
X110673914Y-103244173D01*
X110673914Y-103244173D02*
X110559628Y-103244173D01*
X110559628Y-103244173D02*
X110445342Y-103187030D01*
X110445342Y-103187030D02*
X110388200Y-103072745D01*
X110388200Y-103072745D02*
X110388200Y-102787030D01*
X110388200Y-102787030D02*
X110331057Y-102672745D01*
X110845342Y-101929888D02*
X110788200Y-102044173D01*
X110788200Y-102044173D02*
X110673914Y-102101316D01*
X110673914Y-102101316D02*
X109645342Y-102101316D01*
X110845342Y-101472745D02*
X110045342Y-101472745D01*
X109645342Y-101472745D02*
X109702485Y-101529888D01*
X109702485Y-101529888D02*
X109759628Y-101472745D01*
X109759628Y-101472745D02*
X109702485Y-101415602D01*
X109702485Y-101415602D02*
X109645342Y-101472745D01*
X109645342Y-101472745D02*
X109759628Y-101472745D01*
X110045342Y-101072745D02*
X110045342Y-100615602D01*
X109645342Y-100901316D02*
X110673914Y-100901316D01*
X110673914Y-100901316D02*
X110788200Y-100844173D01*
X110788200Y-100844173D02*
X110845342Y-100729888D01*
X110845342Y-100729888D02*
X110845342Y-100615602D01*
X110045342Y-100329888D02*
X110845342Y-100044174D01*
X110045342Y-99758459D02*
X110845342Y-100044174D01*
X110845342Y-100044174D02*
X111131057Y-100158459D01*
X111131057Y-100158459D02*
X111188200Y-100215602D01*
X111188200Y-100215602D02*
X111245342Y-100329888D01*
X110845342Y-98387030D02*
X109645342Y-98387030D01*
X109645342Y-98387030D02*
X110502485Y-97987030D01*
X110502485Y-97987030D02*
X109645342Y-97587030D01*
X109645342Y-97587030D02*
X110845342Y-97587030D01*
X110845342Y-96501316D02*
X110216771Y-96501316D01*
X110216771Y-96501316D02*
X110102485Y-96558458D01*
X110102485Y-96558458D02*
X110045342Y-96672744D01*
X110045342Y-96672744D02*
X110045342Y-96901316D01*
X110045342Y-96901316D02*
X110102485Y-97015601D01*
X110788200Y-96501316D02*
X110845342Y-96615601D01*
X110845342Y-96615601D02*
X110845342Y-96901316D01*
X110845342Y-96901316D02*
X110788200Y-97015601D01*
X110788200Y-97015601D02*
X110673914Y-97072744D01*
X110673914Y-97072744D02*
X110559628Y-97072744D01*
X110559628Y-97072744D02*
X110445342Y-97015601D01*
X110445342Y-97015601D02*
X110388200Y-96901316D01*
X110388200Y-96901316D02*
X110388200Y-96615601D01*
X110388200Y-96615601D02*
X110331057Y-96501316D01*
X110045342Y-95929887D02*
X110845342Y-95929887D01*
X110159628Y-95929887D02*
X110102485Y-95872744D01*
X110102485Y-95872744D02*
X110045342Y-95758459D01*
X110045342Y-95758459D02*
X110045342Y-95587030D01*
X110045342Y-95587030D02*
X110102485Y-95472744D01*
X110102485Y-95472744D02*
X110216771Y-95415602D01*
X110216771Y-95415602D02*
X110845342Y-95415602D01*
X110845342Y-94329888D02*
X110216771Y-94329888D01*
X110216771Y-94329888D02*
X110102485Y-94387030D01*
X110102485Y-94387030D02*
X110045342Y-94501316D01*
X110045342Y-94501316D02*
X110045342Y-94729888D01*
X110045342Y-94729888D02*
X110102485Y-94844173D01*
X110788200Y-94329888D02*
X110845342Y-94444173D01*
X110845342Y-94444173D02*
X110845342Y-94729888D01*
X110845342Y-94729888D02*
X110788200Y-94844173D01*
X110788200Y-94844173D02*
X110673914Y-94901316D01*
X110673914Y-94901316D02*
X110559628Y-94901316D01*
X110559628Y-94901316D02*
X110445342Y-94844173D01*
X110445342Y-94844173D02*
X110388200Y-94729888D01*
X110388200Y-94729888D02*
X110388200Y-94444173D01*
X110388200Y-94444173D02*
X110331057Y-94329888D01*
X110045342Y-93244174D02*
X111016771Y-93244174D01*
X111016771Y-93244174D02*
X111131057Y-93301316D01*
X111131057Y-93301316D02*
X111188200Y-93358459D01*
X111188200Y-93358459D02*
X111245342Y-93472745D01*
X111245342Y-93472745D02*
X111245342Y-93644174D01*
X111245342Y-93644174D02*
X111188200Y-93758459D01*
X110788200Y-93244174D02*
X110845342Y-93358459D01*
X110845342Y-93358459D02*
X110845342Y-93587031D01*
X110845342Y-93587031D02*
X110788200Y-93701316D01*
X110788200Y-93701316D02*
X110731057Y-93758459D01*
X110731057Y-93758459D02*
X110616771Y-93815602D01*
X110616771Y-93815602D02*
X110273914Y-93815602D01*
X110273914Y-93815602D02*
X110159628Y-93758459D01*
X110159628Y-93758459D02*
X110102485Y-93701316D01*
X110102485Y-93701316D02*
X110045342Y-93587031D01*
X110045342Y-93587031D02*
X110045342Y-93358459D01*
X110045342Y-93358459D02*
X110102485Y-93244174D01*
X110788200Y-92215602D02*
X110845342Y-92329888D01*
X110845342Y-92329888D02*
X110845342Y-92558460D01*
X110845342Y-92558460D02*
X110788200Y-92672745D01*
X110788200Y-92672745D02*
X110673914Y-92729888D01*
X110673914Y-92729888D02*
X110216771Y-92729888D01*
X110216771Y-92729888D02*
X110102485Y-92672745D01*
X110102485Y-92672745D02*
X110045342Y-92558460D01*
X110045342Y-92558460D02*
X110045342Y-92329888D01*
X110045342Y-92329888D02*
X110102485Y-92215602D01*
X110102485Y-92215602D02*
X110216771Y-92158460D01*
X110216771Y-92158460D02*
X110331057Y-92158460D01*
X110331057Y-92158460D02*
X110445342Y-92729888D01*
X110845342Y-91644174D02*
X110045342Y-91644174D01*
X110159628Y-91644174D02*
X110102485Y-91587031D01*
X110102485Y-91587031D02*
X110045342Y-91472746D01*
X110045342Y-91472746D02*
X110045342Y-91301317D01*
X110045342Y-91301317D02*
X110102485Y-91187031D01*
X110102485Y-91187031D02*
X110216771Y-91129889D01*
X110216771Y-91129889D02*
X110845342Y-91129889D01*
X110216771Y-91129889D02*
X110102485Y-91072746D01*
X110102485Y-91072746D02*
X110045342Y-90958460D01*
X110045342Y-90958460D02*
X110045342Y-90787031D01*
X110045342Y-90787031D02*
X110102485Y-90672746D01*
X110102485Y-90672746D02*
X110216771Y-90615603D01*
X110216771Y-90615603D02*
X110845342Y-90615603D01*
X110788200Y-89587031D02*
X110845342Y-89701317D01*
X110845342Y-89701317D02*
X110845342Y-89929889D01*
X110845342Y-89929889D02*
X110788200Y-90044174D01*
X110788200Y-90044174D02*
X110673914Y-90101317D01*
X110673914Y-90101317D02*
X110216771Y-90101317D01*
X110216771Y-90101317D02*
X110102485Y-90044174D01*
X110102485Y-90044174D02*
X110045342Y-89929889D01*
X110045342Y-89929889D02*
X110045342Y-89701317D01*
X110045342Y-89701317D02*
X110102485Y-89587031D01*
X110102485Y-89587031D02*
X110216771Y-89529889D01*
X110216771Y-89529889D02*
X110331057Y-89529889D01*
X110331057Y-89529889D02*
X110445342Y-90101317D01*
X110045342Y-89015603D02*
X110845342Y-89015603D01*
X110159628Y-89015603D02*
X110102485Y-88958460D01*
X110102485Y-88958460D02*
X110045342Y-88844175D01*
X110045342Y-88844175D02*
X110045342Y-88672746D01*
X110045342Y-88672746D02*
X110102485Y-88558460D01*
X110102485Y-88558460D02*
X110216771Y-88501318D01*
X110216771Y-88501318D02*
X110845342Y-88501318D01*
X110045342Y-88101318D02*
X110045342Y-87644175D01*
X109645342Y-87929889D02*
X110673914Y-87929889D01*
X110673914Y-87929889D02*
X110788200Y-87872746D01*
X110788200Y-87872746D02*
X110845342Y-87758461D01*
X110845342Y-87758461D02*
X110845342Y-87644175D01*
X110788200Y-86387032D02*
X110845342Y-86215604D01*
X110845342Y-86215604D02*
X110845342Y-85929889D01*
X110845342Y-85929889D02*
X110788200Y-85815604D01*
X110788200Y-85815604D02*
X110731057Y-85758461D01*
X110731057Y-85758461D02*
X110616771Y-85701318D01*
X110616771Y-85701318D02*
X110502485Y-85701318D01*
X110502485Y-85701318D02*
X110388200Y-85758461D01*
X110388200Y-85758461D02*
X110331057Y-85815604D01*
X110331057Y-85815604D02*
X110273914Y-85929889D01*
X110273914Y-85929889D02*
X110216771Y-86158461D01*
X110216771Y-86158461D02*
X110159628Y-86272746D01*
X110159628Y-86272746D02*
X110102485Y-86329889D01*
X110102485Y-86329889D02*
X109988200Y-86387032D01*
X109988200Y-86387032D02*
X109873914Y-86387032D01*
X109873914Y-86387032D02*
X109759628Y-86329889D01*
X109759628Y-86329889D02*
X109702485Y-86272746D01*
X109702485Y-86272746D02*
X109645342Y-86158461D01*
X109645342Y-86158461D02*
X109645342Y-85872746D01*
X109645342Y-85872746D02*
X109702485Y-85701318D01*
X110045342Y-85301318D02*
X110845342Y-85015604D01*
X110045342Y-84729889D02*
X110845342Y-85015604D01*
X110845342Y-85015604D02*
X111131057Y-85129889D01*
X111131057Y-85129889D02*
X111188200Y-85187032D01*
X111188200Y-85187032D02*
X111245342Y-85301318D01*
X110788200Y-84329889D02*
X110845342Y-84215603D01*
X110845342Y-84215603D02*
X110845342Y-83987032D01*
X110845342Y-83987032D02*
X110788200Y-83872746D01*
X110788200Y-83872746D02*
X110673914Y-83815603D01*
X110673914Y-83815603D02*
X110616771Y-83815603D01*
X110616771Y-83815603D02*
X110502485Y-83872746D01*
X110502485Y-83872746D02*
X110445342Y-83987032D01*
X110445342Y-83987032D02*
X110445342Y-84158461D01*
X110445342Y-84158461D02*
X110388200Y-84272746D01*
X110388200Y-84272746D02*
X110273914Y-84329889D01*
X110273914Y-84329889D02*
X110216771Y-84329889D01*
X110216771Y-84329889D02*
X110102485Y-84272746D01*
X110102485Y-84272746D02*
X110045342Y-84158461D01*
X110045342Y-84158461D02*
X110045342Y-83987032D01*
X110045342Y-83987032D02*
X110102485Y-83872746D01*
X110045342Y-83472746D02*
X110045342Y-83015603D01*
X109645342Y-83301317D02*
X110673914Y-83301317D01*
X110673914Y-83301317D02*
X110788200Y-83244174D01*
X110788200Y-83244174D02*
X110845342Y-83129889D01*
X110845342Y-83129889D02*
X110845342Y-83015603D01*
X110788200Y-82158460D02*
X110845342Y-82272746D01*
X110845342Y-82272746D02*
X110845342Y-82501318D01*
X110845342Y-82501318D02*
X110788200Y-82615603D01*
X110788200Y-82615603D02*
X110673914Y-82672746D01*
X110673914Y-82672746D02*
X110216771Y-82672746D01*
X110216771Y-82672746D02*
X110102485Y-82615603D01*
X110102485Y-82615603D02*
X110045342Y-82501318D01*
X110045342Y-82501318D02*
X110045342Y-82272746D01*
X110045342Y-82272746D02*
X110102485Y-82158460D01*
X110102485Y-82158460D02*
X110216771Y-82101318D01*
X110216771Y-82101318D02*
X110331057Y-82101318D01*
X110331057Y-82101318D02*
X110445342Y-82672746D01*
X110845342Y-81587032D02*
X110045342Y-81587032D01*
X110159628Y-81587032D02*
X110102485Y-81529889D01*
X110102485Y-81529889D02*
X110045342Y-81415604D01*
X110045342Y-81415604D02*
X110045342Y-81244175D01*
X110045342Y-81244175D02*
X110102485Y-81129889D01*
X110102485Y-81129889D02*
X110216771Y-81072747D01*
X110216771Y-81072747D02*
X110845342Y-81072747D01*
X110216771Y-81072747D02*
X110102485Y-81015604D01*
X110102485Y-81015604D02*
X110045342Y-80901318D01*
X110045342Y-80901318D02*
X110045342Y-80729889D01*
X110045342Y-80729889D02*
X110102485Y-80615604D01*
X110102485Y-80615604D02*
X110216771Y-80558461D01*
X110216771Y-80558461D02*
X110845342Y-80558461D01*
X110388200Y-79072746D02*
X110388200Y-78158461D01*
X110845342Y-75987032D02*
X110273914Y-76387032D01*
X110845342Y-76672746D02*
X109645342Y-76672746D01*
X109645342Y-76672746D02*
X109645342Y-76215603D01*
X109645342Y-76215603D02*
X109702485Y-76101318D01*
X109702485Y-76101318D02*
X109759628Y-76044175D01*
X109759628Y-76044175D02*
X109873914Y-75987032D01*
X109873914Y-75987032D02*
X110045342Y-75987032D01*
X110045342Y-75987032D02*
X110159628Y-76044175D01*
X110159628Y-76044175D02*
X110216771Y-76101318D01*
X110216771Y-76101318D02*
X110273914Y-76215603D01*
X110273914Y-76215603D02*
X110273914Y-76672746D01*
X110788200Y-75015603D02*
X110845342Y-75129889D01*
X110845342Y-75129889D02*
X110845342Y-75358461D01*
X110845342Y-75358461D02*
X110788200Y-75472746D01*
X110788200Y-75472746D02*
X110673914Y-75529889D01*
X110673914Y-75529889D02*
X110216771Y-75529889D01*
X110216771Y-75529889D02*
X110102485Y-75472746D01*
X110102485Y-75472746D02*
X110045342Y-75358461D01*
X110045342Y-75358461D02*
X110045342Y-75129889D01*
X110045342Y-75129889D02*
X110102485Y-75015603D01*
X110102485Y-75015603D02*
X110216771Y-74958461D01*
X110216771Y-74958461D02*
X110331057Y-74958461D01*
X110331057Y-74958461D02*
X110445342Y-75529889D01*
X110788200Y-73929890D02*
X110845342Y-74044175D01*
X110845342Y-74044175D02*
X110845342Y-74272747D01*
X110845342Y-74272747D02*
X110788200Y-74387032D01*
X110788200Y-74387032D02*
X110731057Y-74444175D01*
X110731057Y-74444175D02*
X110616771Y-74501318D01*
X110616771Y-74501318D02*
X110273914Y-74501318D01*
X110273914Y-74501318D02*
X110159628Y-74444175D01*
X110159628Y-74444175D02*
X110102485Y-74387032D01*
X110102485Y-74387032D02*
X110045342Y-74272747D01*
X110045342Y-74272747D02*
X110045342Y-74044175D01*
X110045342Y-74044175D02*
X110102485Y-73929890D01*
X110788200Y-72958461D02*
X110845342Y-73072747D01*
X110845342Y-73072747D02*
X110845342Y-73301319D01*
X110845342Y-73301319D02*
X110788200Y-73415604D01*
X110788200Y-73415604D02*
X110673914Y-73472747D01*
X110673914Y-73472747D02*
X110216771Y-73472747D01*
X110216771Y-73472747D02*
X110102485Y-73415604D01*
X110102485Y-73415604D02*
X110045342Y-73301319D01*
X110045342Y-73301319D02*
X110045342Y-73072747D01*
X110045342Y-73072747D02*
X110102485Y-72958461D01*
X110102485Y-72958461D02*
X110216771Y-72901319D01*
X110216771Y-72901319D02*
X110331057Y-72901319D01*
X110331057Y-72901319D02*
X110445342Y-73472747D01*
X110845342Y-72387033D02*
X110045342Y-72387033D01*
X109645342Y-72387033D02*
X109702485Y-72444176D01*
X109702485Y-72444176D02*
X109759628Y-72387033D01*
X109759628Y-72387033D02*
X109702485Y-72329890D01*
X109702485Y-72329890D02*
X109645342Y-72387033D01*
X109645342Y-72387033D02*
X109759628Y-72387033D01*
X110045342Y-71929890D02*
X110845342Y-71644176D01*
X110845342Y-71644176D02*
X110045342Y-71358461D01*
X110788200Y-70444175D02*
X110845342Y-70558461D01*
X110845342Y-70558461D02*
X110845342Y-70787033D01*
X110845342Y-70787033D02*
X110788200Y-70901318D01*
X110788200Y-70901318D02*
X110673914Y-70958461D01*
X110673914Y-70958461D02*
X110216771Y-70958461D01*
X110216771Y-70958461D02*
X110102485Y-70901318D01*
X110102485Y-70901318D02*
X110045342Y-70787033D01*
X110045342Y-70787033D02*
X110045342Y-70558461D01*
X110045342Y-70558461D02*
X110102485Y-70444175D01*
X110102485Y-70444175D02*
X110216771Y-70387033D01*
X110216771Y-70387033D02*
X110331057Y-70387033D01*
X110331057Y-70387033D02*
X110445342Y-70958461D01*
X110845342Y-69872747D02*
X110045342Y-69872747D01*
X110273914Y-69872747D02*
X110159628Y-69815604D01*
X110159628Y-69815604D02*
X110102485Y-69758462D01*
X110102485Y-69758462D02*
X110045342Y-69644176D01*
X110045342Y-69644176D02*
X110045342Y-69529890D01*
D14*
%TO.P,D4,1,K*%
%TO.N,GND2*%
X158131000Y-66138000D03*
%TO.P,D4,2,A*%
%TO.N,Net-(D4-A)*%
X156381000Y-66138000D03*
%TD*%
D15*
%TO.P,REF\u002A\u002A,1*%
%TO.N,N/C*%
X112000000Y-49000000D03*
%TD*%
D16*
%TO.P,R3,1*%
%TO.N,/TX_LED*%
X150273000Y-71178000D03*
%TO.P,R3,2*%
%TO.N,Net-(D3-A)*%
X152273000Y-71178000D03*
%TD*%
D17*
%TO.P,SW1,1,A1*%
%TO.N,Net-(J2-Pin_10)*%
X152122999Y-85415999D03*
D18*
%TO.P,SW1,2,A2*%
X158623000Y-85415999D03*
%TO.P,SW1,3,B1*%
%TO.N,GND1*%
X152122999Y-89916000D03*
%TO.P,SW1,4,B2*%
X158623000Y-89916000D03*
%TD*%
D19*
%TO.P,J1,1,Pin_1*%
%TO.N,unconnected-(J1-Pin_1-Pad1)*%
X122680000Y-55880000D03*
%TO.P,J1,2,Pin_2*%
%TO.N,unconnected-(J1-Pin_2-Pad2)*%
X119380000Y-58420000D03*
%TO.P,J1,3,Pin_3*%
%TO.N,unconnected-(J1-Pin_3-Pad3)*%
X122680000Y-60960000D03*
%TO.P,J1,4,Pin_4*%
%TO.N,unconnected-(J1-Pin_4-Pad4)*%
X119380000Y-63500000D03*
%TO.P,J1,5,Pin_5*%
%TO.N,/STATUS_LED*%
X122680000Y-66040000D03*
%TO.P,J1,6,Pin_6*%
%TO.N,/TX_LED*%
X119380000Y-68580000D03*
%TO.P,J1,7,Pin_7*%
%TO.N,/RX_LED*%
X122680000Y-71120000D03*
%TO.P,J1,8,Pin_8*%
%TO.N,unconnected-(J1-Pin_8-Pad8)*%
X119380000Y-73660000D03*
%TO.P,J1,9,Pin_9*%
%TO.N,/ERR_LED*%
X122680000Y-76200000D03*
%TO.P,J1,10,Pin_10*%
%TO.N,unconnected-(J1-Pin_10-Pad10)*%
X119380000Y-78740000D03*
%TO.P,J1,11,Pin_11*%
%TO.N,/LoRa_IRQ*%
X122680000Y-81280000D03*
%TO.P,J1,12,Pin_12*%
%TO.N,/LoRa_BUSY*%
X119380000Y-83820000D03*
%TO.P,J1,13,Pin_13*%
%TO.N,unconnected-(J1-Pin_13-Pad13)*%
X122680000Y-86360000D03*
%TO.P,J1,14,Pin_14*%
%TO.N,/LoRa_~{RESET}*%
X119380000Y-88900000D03*
%TO.P,J1,15,Pin_15*%
%TO.N,/LoRa_CS*%
X122680000Y-91440000D03*
%TO.P,J1,16,Pin_16*%
%TO.N,unconnected-(J1-Pin_16-Pad16)*%
X119380000Y-93980000D03*
%TO.P,J1,17,Pin_17*%
%TO.N,unconnected-(J1-Pin_17-Pad17)*%
X122680000Y-96520000D03*
%TO.P,J1,18,Pin_18*%
%TO.N,unconnected-(J1-Pin_18-Pad18)*%
X119380000Y-99060000D03*
%TO.P,J1,19,Pin_19*%
%TO.N,unconnected-(J1-Pin_19-Pad19)*%
X122680000Y-101600000D03*
%TO.P,J1,20,Pin_20*%
%TO.N,unconnected-(J1-Pin_20-Pad20)*%
X119380000Y-104140000D03*
%TD*%
D14*
%TO.P,D2,1,K*%
%TO.N,GND2*%
X158115000Y-60960000D03*
%TO.P,D2,2,A*%
%TO.N,Net-(D2-A)*%
X156365000Y-60960000D03*
%TD*%
%TO.P,D3,1,K*%
%TO.N,GND2*%
X158115000Y-71120000D03*
%TO.P,D3,2,A*%
%TO.N,Net-(D3-A)*%
X156365000Y-71120000D03*
%TD*%
D15*
%TO.P,REF\u002A\u002A,1*%
%TO.N,N/C*%
X160000000Y-141000000D03*
%TD*%
D16*
%TO.P,R1,1*%
%TO.N,/ERR_LED*%
X150269000Y-55880000D03*
%TO.P,R1,2*%
%TO.N,Net-(D1-A)*%
X152269000Y-55880000D03*
%TD*%
D15*
%TO.P,REF\u002A\u002A,1*%
%TO.N,N/C*%
X160000000Y-49000000D03*
%TD*%
D19*
%TO.P,J2,1,Pin_1*%
%TO.N,/SPI_MISO_{0}*%
X137160000Y-104140000D03*
%TO.P,J2,2,Pin_2*%
%TO.N,unconnected-(J2-Pin_2-Pad2)*%
X140460000Y-101600000D03*
%TO.P,J2,3,Pin_3*%
%TO.N,GND*%
X137160000Y-99060000D03*
%TO.P,J2,4,Pin_4*%
%TO.N,/SPI_SCK_{0}*%
X140460000Y-96520000D03*
%TO.P,J2,5,Pin_5*%
%TO.N,/SPI_MOSI_{0}*%
X137160000Y-93980000D03*
%TO.P,J2,6,Pin_6*%
%TO.N,unconnected-(J2-Pin_6-Pad6)*%
X140460000Y-91440000D03*
%TO.P,J2,7,Pin_7*%
%TO.N,unconnected-(J2-Pin_7-Pad7)*%
X137160000Y-88900000D03*
%TO.P,J2,8,Pin_8*%
%TO.N,GND1*%
X140460000Y-86360000D03*
%TO.P,J2,9,Pin_9*%
%TO.N,unconnected-(J2-Pin_9-Pad9)*%
X137160000Y-83820000D03*
%TO.P,J2,10,Pin_10*%
%TO.N,Net-(J2-Pin_10)*%
X140460000Y-81280000D03*
%TO.P,J2,11,Pin_11*%
%TO.N,unconnected-(J2-Pin_11-Pad11)*%
X137160000Y-78740000D03*
%TO.P,J2,12,Pin_12*%
%TO.N,unconnected-(J2-Pin_12-Pad12)*%
X140460000Y-76200000D03*
%TO.P,J2,13,Pin_13*%
%TO.N,unconnected-(J2-Pin_13-Pad13)*%
X137160000Y-73660000D03*
%TO.P,J2,14,Pin_14*%
%TO.N,unconnected-(J2-Pin_14-Pad14)*%
X140460000Y-71120000D03*
%TO.P,J2,15,Pin_15*%
%TO.N,unconnected-(J2-Pin_15-Pad15)*%
X137160000Y-68580000D03*
%TO.P,J2,16,Pin_16*%
%TO.N,+3V3*%
X140460000Y-66040000D03*
%TO.P,J2,17,Pin_17*%
%TO.N,unconnected-(J2-Pin_17-Pad17)*%
X137160000Y-63500000D03*
%TO.P,J2,18,Pin_18*%
%TO.N,GND2*%
X140460000Y-60960000D03*
%TO.P,J2,19,Pin_19*%
%TO.N,unconnected-(J2-Pin_19-Pad19)*%
X137160000Y-58420000D03*
%TO.P,J2,20,Pin_20*%
%TO.N,unconnected-(J2-Pin_20-Pad20)*%
X140460000Y-55880000D03*
%TD*%
D14*
%TO.P,D1,1,K*%
%TO.N,GND2*%
X158115000Y-55880000D03*
%TO.P,D1,2,A*%
%TO.N,Net-(D1-A)*%
X156365000Y-55880000D03*
%TD*%
D20*
%TO.P,U1,1,GND*%
%TO.N,GND*%
X139421000Y-132735000D03*
%TO.P,U1,2,GND*%
X139421000Y-130195000D03*
%TO.P,U1,3,RXEN*%
%TO.N,Net-(U1-DIO2)*%
X139421000Y-127655000D03*
%TO.P,U1,4,TXEN*%
%TO.N,+3V3*%
X139421000Y-125115000D03*
%TO.P,U1,5,DIO2*%
%TO.N,Net-(U1-DIO2)*%
X139421000Y-122575000D03*
%TO.P,U1,6,DIO1*%
%TO.N,/LoRa_IRQ*%
X139421000Y-120035000D03*
%TO.P,U1,7,GND*%
%TO.N,GND*%
X139421000Y-117495000D03*
%TO.P,U1,8,V_{DD}*%
%TO.N,+3V3*%
X139421000Y-114955000D03*
%TO.P,U1,9,BUSY*%
%TO.N,/LoRa_BUSY*%
X120421000Y-114955000D03*
%TO.P,U1,10,~{RESET}*%
%TO.N,/LoRa_~{RESET}*%
X120421000Y-117495000D03*
%TO.P,U1,11,MISO*%
%TO.N,/SPI_MISO_{0}*%
X120421000Y-120035000D03*
%TO.P,U1,12,MOSI*%
%TO.N,/SPI_MOSI_{0}*%
X120421000Y-122575000D03*
%TO.P,U1,13,SCK*%
%TO.N,/SPI_SCK_{0}*%
X120421000Y-125115000D03*
%TO.P,U1,14,~{CS}*%
%TO.N,/LoRa_CS*%
X120421000Y-127655000D03*
%TO.P,U1,15,GND*%
%TO.N,GND*%
X120421000Y-130195000D03*
%TO.P,U1,16,ANT*%
%TO.N,unconnected-(U1-ANT-Pad16)*%
X120421000Y-132735000D03*
%TD*%
D21*
%TO.P,C1,1*%
%TO.N,+3V3*%
X146812000Y-115000000D03*
%TO.P,C1,2*%
%TO.N,GND*%
X146812000Y-117075000D03*
%TD*%
D16*
%TO.P,R4,1*%
%TO.N,/STATUS_LED*%
X150273000Y-66098000D03*
%TO.P,R4,2*%
%TO.N,Net-(D4-A)*%
X152273000Y-66098000D03*
%TD*%
%TO.P,R2,1*%
%TO.N,/RX_LED*%
X150269000Y-60989000D03*
%TO.P,R2,2*%
%TO.N,Net-(D2-A)*%
X152269000Y-60989000D03*
%TD*%
D22*
%TO.P,R5,1*%
%TO.N,+3V3*%
X146251001Y-79227001D03*
%TO.P,R5,2*%
%TO.N,Net-(J2-Pin_10)*%
X146251001Y-81227001D03*
%TD*%
D15*
%TO.P,REF\u002A\u002A,1*%
%TO.N,N/C*%
X112000000Y-141000000D03*
%TD*%
D23*
%TO.N,+3V3*%
X131954747Y-123064747D02*
X131463252Y-122573252D01*
D24*
X136370641Y-66040000D02*
X140460000Y-66040000D01*
X133000000Y-111945359D02*
X133000000Y-79502000D01*
X139421000Y-114955000D02*
X136009641Y-114955000D01*
X133888320Y-114076320D02*
X133878679Y-114066679D01*
D23*
X127948534Y-86292534D02*
X127575466Y-85919466D01*
X124039932Y-84455000D02*
X123223214Y-84455000D01*
X120523000Y-81754786D02*
X120523000Y-80805214D01*
D24*
X144786535Y-68586535D02*
X142825786Y-66625786D01*
X133000000Y-79502000D02*
X133000000Y-69410641D01*
X146767000Y-114955000D02*
X146812000Y-115000000D01*
D23*
X121826214Y-79502000D02*
X133000000Y-79502000D01*
X122516107Y-84162107D02*
X120815893Y-82461893D01*
D24*
X133878680Y-67289320D02*
X134249321Y-66918679D01*
D23*
X129413000Y-117623505D02*
X129413000Y-89828068D01*
D24*
X146251001Y-79227001D02*
X146251001Y-72122069D01*
D23*
X120815893Y-80098107D02*
X121119107Y-79794893D01*
D24*
X139421000Y-114955000D02*
X146767000Y-114955000D01*
D23*
X139421000Y-125115000D02*
X136904495Y-125115000D01*
D24*
X141411573Y-66040000D02*
X140460000Y-66040000D01*
D23*
X120523000Y-80805214D02*
G75*
G02*
X120815886Y-80098100I1000000J14D01*
G01*
X136904495Y-125115000D02*
G75*
G02*
X131954750Y-123064744I5J7000000D01*
G01*
X129413000Y-89828068D02*
G75*
G03*
X127948518Y-86292550I-5000000J-32D01*
G01*
D24*
X133888320Y-114076320D02*
G75*
G03*
X136009641Y-114954971I2121280J2121320D01*
G01*
D23*
X120815893Y-82461893D02*
G75*
G02*
X120523010Y-81754786I707107J707093D01*
G01*
D24*
X146251001Y-72122069D02*
G75*
G03*
X144786520Y-68586550I-5000001J-31D01*
G01*
X133000000Y-111945359D02*
G75*
G03*
X133878659Y-114066699I3000000J-41D01*
G01*
X133000000Y-69410641D02*
G75*
G02*
X133878660Y-67289300I3000000J41D01*
G01*
D23*
X124039932Y-84455000D02*
G75*
G02*
X127575450Y-85919482I-32J-5000000D01*
G01*
X131463252Y-122573252D02*
G75*
G02*
X129412996Y-117623505I4949748J4949752D01*
G01*
X123223214Y-84455000D02*
G75*
G02*
X122516100Y-84162114I-14J1000000D01*
G01*
D24*
X141411573Y-66040000D02*
G75*
G02*
X142825800Y-66625772I27J-2000000D01*
G01*
D23*
X121119107Y-79794893D02*
G75*
G02*
X121826214Y-79502010I707093J-707107D01*
G01*
D24*
X136370641Y-66040000D02*
G75*
G03*
X134249301Y-66918659I-41J-3000000D01*
G01*
%TO.N,GND*%
X145121932Y-99060000D02*
X137160000Y-99060000D01*
X139421000Y-130195000D02*
X147581359Y-130195000D01*
X151619000Y-117075000D02*
X151638000Y-117094000D01*
X139421000Y-130195000D02*
X139421000Y-132735000D01*
X150173534Y-102040534D02*
X148657466Y-100524466D01*
X149702680Y-129316320D02*
X150173534Y-128845466D01*
X144037000Y-117075000D02*
X143617000Y-117495000D01*
X146812000Y-117075000D02*
X151619000Y-117075000D01*
X139421000Y-130195000D02*
X120421000Y-130195000D01*
X151638000Y-117094000D02*
X151638000Y-105576068D01*
X146812000Y-117075000D02*
X144037000Y-117075000D01*
X151638000Y-125309932D02*
X151638000Y-117094000D01*
X143617000Y-117495000D02*
X139421000Y-117495000D01*
X150173534Y-102040534D02*
G75*
G02*
X151638023Y-105576068I-3535534J-3535566D01*
G01*
X148657466Y-100524466D02*
G75*
G03*
X145121932Y-99059977I-3535566J-3535534D01*
G01*
X151638000Y-125309932D02*
G75*
G02*
X150173518Y-128845450I-5000000J32D01*
G01*
X147581359Y-130195000D02*
G75*
G03*
X149702700Y-129316340I41J3000000D01*
G01*
D23*
%TO.N,Net-(D1-A)*%
X152269000Y-55880000D02*
X156365000Y-55880000D01*
%TO.N,Net-(D2-A)*%
X152269000Y-60989000D02*
X156336000Y-60989000D01*
X156336000Y-60989000D02*
X156365000Y-60960000D01*
%TO.N,Net-(D3-A)*%
X156438000Y-71178000D02*
X156496000Y-71120000D01*
X156307000Y-71178000D02*
X156365000Y-71120000D01*
X152273000Y-71178000D02*
X156307000Y-71178000D01*
%TO.N,Net-(D4-A)*%
X156456000Y-66098000D02*
X156496000Y-66138000D01*
X152273000Y-66098000D02*
X156341000Y-66098000D01*
X156341000Y-66098000D02*
X156381000Y-66138000D01*
%TO.N,/LoRa_IRQ*%
X139421000Y-120035000D02*
X138934495Y-120035000D01*
X128949747Y-84245747D02*
X128034252Y-83330252D01*
X131000000Y-112100505D02*
X131000000Y-89195495D01*
X123084505Y-81280000D02*
X122680000Y-81280000D01*
X133984747Y-117984747D02*
X133050252Y-117050252D01*
X131000000Y-112100505D02*
G75*
G03*
X133050255Y-117050249I7000000J5D01*
G01*
X138934495Y-120035000D02*
G75*
G02*
X133984750Y-117984744I5J7000000D01*
G01*
X131000000Y-89195495D02*
G75*
G03*
X128949744Y-84245750I-7000000J-5D01*
G01*
X128034252Y-83330252D02*
G75*
G03*
X123084505Y-81279996I-4949752J-4949748D01*
G01*
%TO.N,/ERR_LED*%
X122680000Y-76200000D02*
X118557427Y-76200000D01*
X117143213Y-75614213D02*
X115266786Y-73737786D01*
X118811427Y-50546000D02*
X141284573Y-50546000D01*
X115266787Y-53262213D02*
X117397214Y-51131786D01*
X148275427Y-55880000D02*
X150269000Y-55880000D01*
X114681000Y-72323573D02*
X114681000Y-54676427D01*
X142698787Y-51131787D02*
X146861214Y-55294214D01*
X118811427Y-50546000D02*
G75*
G03*
X117397200Y-51131772I-27J-2000000D01*
G01*
X118557427Y-76200000D02*
G75*
G02*
X117143199Y-75614227I-27J2000000D01*
G01*
X148275427Y-55880000D02*
G75*
G02*
X146861200Y-55294228I-27J2000000D01*
G01*
X141284573Y-50546000D02*
G75*
G02*
X142698801Y-51131773I27J-2000000D01*
G01*
X115266787Y-53262213D02*
G75*
G03*
X114681019Y-54676427I1414213J-1414187D01*
G01*
X114681000Y-72323573D02*
G75*
G03*
X115266772Y-73737800I2000000J-27D01*
G01*
%TO.N,/RX_LED*%
X140539787Y-52147787D02*
X148795214Y-60403214D01*
X116409787Y-53770213D02*
X118032214Y-52147786D01*
X122680000Y-71120000D02*
X118811427Y-71120000D01*
X150209427Y-60989000D02*
X150269000Y-60989000D01*
X115824000Y-68132573D02*
X115824000Y-55184427D01*
X117397213Y-70534213D02*
X116409786Y-69546786D01*
X119446427Y-51562000D02*
X139125573Y-51562000D01*
X150209427Y-60989000D02*
G75*
G02*
X148795200Y-60403228I-27J2000000D01*
G01*
X140539787Y-52147787D02*
G75*
G03*
X139125573Y-51562019I-1414187J-1414213D01*
G01*
X118811427Y-71120000D02*
G75*
G02*
X117397199Y-70534227I-27J2000000D01*
G01*
X116409787Y-53770213D02*
G75*
G03*
X115824019Y-55184427I1414213J-1414187D01*
G01*
X115824000Y-68132573D02*
G75*
G03*
X116409772Y-69546800I2000000J-27D01*
G01*
X119446427Y-51562000D02*
G75*
G03*
X118032200Y-52147772I-27J-2000000D01*
G01*
%TO.N,/LoRa_~{RESET}*%
X116282787Y-89711213D02*
X116508214Y-89485786D01*
X116655213Y-116909213D02*
X116282786Y-116536786D01*
X115697000Y-115122573D02*
X115697000Y-91125427D01*
X117922427Y-88900000D02*
X119380000Y-88900000D01*
X120421000Y-117495000D02*
X118069427Y-117495000D01*
X116282786Y-116536786D02*
G75*
G02*
X115697019Y-115122573I1414214J1414186D01*
G01*
X116282787Y-89711213D02*
G75*
G03*
X115697019Y-91125427I1414213J-1414187D01*
G01*
X117922427Y-88900000D02*
G75*
G03*
X116508200Y-89485772I-27J-2000000D01*
G01*
X116655213Y-116909213D02*
G75*
G03*
X118069427Y-117494981I1414187J1414213D01*
G01*
%TO.N,/STATUS_LED*%
X122680000Y-66040000D02*
X128711573Y-66040000D01*
X130125787Y-65454213D02*
X135304214Y-60275786D01*
X150273000Y-66072000D02*
X150273000Y-66098000D01*
X144476787Y-60275787D02*
X150273000Y-66072000D01*
X136718427Y-59690000D02*
X143062573Y-59690000D01*
X143062573Y-59690000D02*
G75*
G02*
X144476801Y-60275773I27J-2000000D01*
G01*
X130125787Y-65454213D02*
G75*
G02*
X128711573Y-66039981I-1414187J1414213D01*
G01*
X136718427Y-59690000D02*
G75*
G03*
X135304200Y-60275772I-27J-2000000D01*
G01*
%TO.N,/LoRa_BUSY*%
X121735213Y-93414213D02*
X121585786Y-93264786D01*
X123651573Y-94000000D02*
X123149427Y-94000000D01*
X125025787Y-114369213D02*
X125398214Y-113996786D01*
X125984000Y-112582573D02*
X125984000Y-96332427D01*
X120421000Y-114955000D02*
X123611573Y-114955000D01*
X125398213Y-94918213D02*
X125065786Y-94585786D01*
X120414213Y-84854213D02*
X119380000Y-83820000D01*
X121000000Y-91850573D02*
X121000000Y-86268427D01*
X120414213Y-84854213D02*
G75*
G02*
X120999981Y-86268427I-1414213J-1414187D01*
G01*
X125065786Y-94585786D02*
G75*
G03*
X123651573Y-94000019I-1414186J-1414214D01*
G01*
X121735213Y-93414213D02*
G75*
G03*
X123149427Y-93999981I1414187J1414213D01*
G01*
X121585786Y-93264786D02*
G75*
G02*
X121000019Y-91850573I1414214J1414186D01*
G01*
X125025787Y-114369213D02*
G75*
G02*
X123611573Y-114954981I-1414187J1414213D01*
G01*
X125984000Y-96332427D02*
G75*
G03*
X125398227Y-94918199I-2000000J27D01*
G01*
X125398214Y-113996786D02*
G75*
G03*
X125983981Y-112582573I-1414214J1414186D01*
G01*
%TO.N,/TX_LED*%
X129617787Y-67994213D02*
X134796214Y-62815786D01*
X119380000Y-68580000D02*
X128203573Y-68580000D01*
X150141714Y-71178000D02*
X150273000Y-71178000D01*
X141365287Y-62815787D02*
X149434607Y-70885107D01*
X136210427Y-62230000D02*
X139951073Y-62230000D01*
X139951073Y-62230000D02*
G75*
G02*
X141365301Y-62815773I27J-2000000D01*
G01*
X136210427Y-62230000D02*
G75*
G03*
X134796200Y-62815772I-27J-2000000D01*
G01*
X129617787Y-67994213D02*
G75*
G02*
X128203573Y-68579981I-1414187J1414213D01*
G01*
X150141714Y-71178000D02*
G75*
G02*
X149434600Y-70885114I-14J1000000D01*
G01*
%TO.N,/LoRa_CS*%
X127508000Y-124901573D02*
X127508000Y-94554427D01*
X124393573Y-91440000D02*
X122680000Y-91440000D01*
X126168787Y-127069213D02*
X126922214Y-126315786D01*
X126922213Y-93140213D02*
X125807786Y-92025786D01*
X120421000Y-127655000D02*
X124754573Y-127655000D01*
X126922214Y-126315786D02*
G75*
G03*
X127507981Y-124901573I-1414214J1414186D01*
G01*
X126168787Y-127069213D02*
G75*
G02*
X124754573Y-127654981I-1414187J1414213D01*
G01*
X126922213Y-93140213D02*
G75*
G02*
X127507981Y-94554427I-1414213J-1414187D01*
G01*
X125807786Y-92025786D02*
G75*
G03*
X124393573Y-91440019I-1414186J-1414214D01*
G01*
%TO.N,/SPI_SCK_{0}*%
X115824000Y-134807573D02*
X115824000Y-126398214D01*
X116116893Y-125691107D02*
X116400107Y-125407893D01*
X116840000Y-136652000D02*
X116409787Y-136221787D01*
X145983573Y-136652000D02*
X116840000Y-136652000D01*
X140460000Y-96520000D02*
X145983573Y-96520000D01*
X147397786Y-97105786D02*
X152576213Y-102284213D01*
X117107214Y-125115000D02*
X120421000Y-125115000D01*
X153162000Y-103698427D02*
X153162000Y-129473573D01*
X152576214Y-130887786D02*
X147397787Y-136066213D01*
X145983573Y-96520000D02*
G75*
G02*
X147397800Y-97105772I27J-2000000D01*
G01*
X115824000Y-126398214D02*
G75*
G02*
X116116886Y-125691100I1000000J14D01*
G01*
X152576213Y-102284213D02*
G75*
G02*
X153161981Y-103698427I-1414213J-1414187D01*
G01*
X153162000Y-129473573D02*
G75*
G02*
X152576228Y-130887800I-2000000J-27D01*
G01*
X116409787Y-136221787D02*
G75*
G02*
X115824019Y-134807573I1414213J1414187D01*
G01*
X117107214Y-125115000D02*
G75*
G03*
X116400100Y-125407886I-14J-1000000D01*
G01*
X147397787Y-136066213D02*
G75*
G02*
X145983573Y-136651981I-1414187J1414213D01*
G01*
%TO.N,/SPI_MISO_{0}*%
X154481213Y-100633213D02*
X147397786Y-93549786D01*
X137634786Y-91694000D02*
X136304214Y-91694000D01*
X137160000Y-104140000D02*
X136050214Y-104140000D01*
X134620000Y-93378214D02*
X134620000Y-102709786D01*
X120421000Y-120035000D02*
X117013427Y-120035000D01*
X139026107Y-92671107D02*
X138341893Y-91986893D01*
X114377787Y-137237787D02*
X115238214Y-138098214D01*
X135597107Y-91986893D02*
X134912893Y-92671107D01*
X135343107Y-103847107D02*
X134912893Y-103416893D01*
X113792000Y-123256427D02*
X113792000Y-135823573D01*
X148413787Y-138098213D02*
X154481214Y-132030786D01*
X155067000Y-130616573D02*
X155067000Y-102047427D01*
X115599213Y-120620787D02*
X114377786Y-121842214D01*
X145983573Y-92964000D02*
X139733214Y-92964000D01*
X116652427Y-138684000D02*
X146999573Y-138684000D01*
X154481214Y-132030786D02*
G75*
G03*
X155066981Y-130616573I-1414214J1414186D01*
G01*
X114377786Y-121842214D02*
G75*
G03*
X113792019Y-123256427I1414214J-1414186D01*
G01*
X113792000Y-135823573D02*
G75*
G03*
X114377773Y-137237801I2000000J-27D01*
G01*
X139026107Y-92671107D02*
G75*
G03*
X139733214Y-92963990I707093J707107D01*
G01*
X115238214Y-138098214D02*
G75*
G03*
X116652427Y-138683981I1414186J1414214D01*
G01*
X147397786Y-93549786D02*
G75*
G03*
X145983573Y-92964019I-1414186J-1414214D01*
G01*
X137634786Y-91694000D02*
G75*
G02*
X138341900Y-91986886I14J-1000000D01*
G01*
X117013427Y-120035000D02*
G75*
G03*
X115599199Y-120620773I-27J-2000000D01*
G01*
X135597107Y-91986893D02*
G75*
G02*
X136304214Y-91694010I707093J-707107D01*
G01*
X134620000Y-102709786D02*
G75*
G03*
X134912886Y-103416900I1000000J-14D01*
G01*
X136050214Y-104140000D02*
G75*
G02*
X135343100Y-103847114I-14J1000000D01*
G01*
X155067000Y-102047427D02*
G75*
G03*
X154481227Y-100633199I-2000000J27D01*
G01*
X134912893Y-92671107D02*
G75*
G03*
X134620010Y-93378214I707107J-707093D01*
G01*
X146999573Y-138684000D02*
G75*
G03*
X148413801Y-138098227I27J2000000D01*
G01*
%TO.N,Net-(J2-Pin_10)*%
X146304000Y-81280000D02*
X146251001Y-81227001D01*
X152122999Y-85415999D02*
X148865679Y-82158679D01*
X140460000Y-81280000D02*
X146198002Y-81280000D01*
X158623000Y-85415999D02*
X152122999Y-85415999D01*
X146198002Y-81280000D02*
X146251001Y-81227001D01*
X146744359Y-81280000D02*
X146304000Y-81280000D01*
X146744359Y-81280000D02*
G75*
G02*
X148865699Y-82158659I41J-3000000D01*
G01*
%TO.N,/SPI_MOSI_{0}*%
X114808000Y-135315573D02*
X114808000Y-125288428D01*
X115746213Y-137082213D02*
X115393786Y-136729786D01*
X153592213Y-131395787D02*
X147905786Y-137082214D01*
X115393787Y-123874214D02*
X116107215Y-123160786D01*
X117521428Y-122575000D02*
X120421000Y-122575000D01*
X146889787Y-94565787D02*
X153592214Y-101268214D01*
X154178000Y-102682427D02*
X154178000Y-129981573D01*
X137160000Y-93980000D02*
X145475573Y-93980000D01*
X146491573Y-137668000D02*
X117160427Y-137668000D01*
X146491573Y-137668000D02*
G75*
G03*
X147905800Y-137082228I27J2000000D01*
G01*
X153592214Y-101268214D02*
G75*
G02*
X154177981Y-102682427I-1414214J-1414186D01*
G01*
X154178000Y-129981573D02*
G75*
G02*
X153592227Y-131395801I-2000000J-27D01*
G01*
X114808000Y-125288428D02*
G75*
G02*
X115393773Y-123874200I2000000J28D01*
G01*
X117160427Y-137668000D02*
G75*
G02*
X115746199Y-137082227I-27J2000000D01*
G01*
X146889787Y-94565787D02*
G75*
G03*
X145475573Y-93980019I-1414187J-1414213D01*
G01*
X115393786Y-136729786D02*
G75*
G02*
X114808019Y-135315573I1414214J1414186D01*
G01*
X117521428Y-122575000D02*
G75*
G03*
X116107201Y-123160772I-28J-2000000D01*
G01*
%TO.N,Net-(U1-DIO2)*%
X144000000Y-124573320D02*
X144000000Y-125870680D01*
X142215680Y-127655000D02*
X139199000Y-127655000D01*
X139199000Y-122575000D02*
X142001680Y-122575000D01*
X143062340Y-123014340D02*
X143560660Y-123512660D01*
X143560660Y-126931340D02*
X143276340Y-127215660D01*
X143062340Y-123014340D02*
G75*
G03*
X142001680Y-122575014I-1060640J-1060660D01*
G01*
X143560660Y-123512660D02*
G75*
G02*
X143999986Y-124573320I-1060660J-1060640D01*
G01*
X143276340Y-127215660D02*
G75*
G02*
X142215680Y-127654986I-1060640J1060660D01*
G01*
X143560660Y-126931340D02*
G75*
G03*
X143999986Y-125870680I-1060660J1060640D01*
G01*
%TO.N,GND2*%
X158115000Y-68707000D02*
X158115000Y-71120000D01*
X158115000Y-55880000D02*
X158115000Y-68707000D01*
X157988000Y-68580000D02*
X158115000Y-68707000D01*
X142444787Y-61545787D02*
X148893214Y-67994214D01*
X150307427Y-68580000D02*
X157988000Y-68580000D01*
X140460000Y-60960000D02*
X141030573Y-60960000D01*
X148893214Y-67994214D02*
G75*
G03*
X150307427Y-68579981I1414186J1414214D01*
G01*
X142444787Y-61545787D02*
G75*
G03*
X141030573Y-60960019I-1414187J-1414213D01*
G01*
%TO.N,GND1*%
X140460000Y-86360000D02*
X142551534Y-88451534D01*
X158623000Y-89916000D02*
X152122999Y-89916000D01*
X146087068Y-89916000D02*
X152122999Y-89916000D01*
X142551534Y-88451534D02*
G75*
G03*
X146087068Y-89916023I3535566J3535534D01*
G01*
%TD*%
M02*
