%TF.GenerationSoftware,KiCad,Pcbnew,9.0.4*%
%TF.CreationDate,2025-11-10T15:19:37-05:00*%
%TF.ProjectId,lwqms_receiver,6c77716d-735f-4726-9563-65697665722e,rev?*%
%TF.SameCoordinates,Original*%
%TF.FileFunction,Legend,Top*%
%TF.FilePolarity,Positive*%
%FSLAX46Y46*%
G04 Gerber Fmt 4.6, Leading zero omitted, Abs format (unit mm)*
G04 Created by KiCad (PCBNEW 9.0.4) date 2025-11-10 15:19:37*
%MOMM*%
%LPD*%
G01*
G04 APERTURE LIST*
%ADD10C,0.150000*%
%ADD11C,0.100000*%
%ADD12C,0.120000*%
%ADD13C,0.152400*%
G04 APERTURE END LIST*
D10*
X156517905Y-68145819D02*
X156517905Y-67145819D01*
X156517905Y-67145819D02*
X156756000Y-67145819D01*
X156756000Y-67145819D02*
X156898857Y-67193438D01*
X156898857Y-67193438D02*
X156994095Y-67288676D01*
X156994095Y-67288676D02*
X157041714Y-67383914D01*
X157041714Y-67383914D02*
X157089333Y-67574390D01*
X157089333Y-67574390D02*
X157089333Y-67717247D01*
X157089333Y-67717247D02*
X157041714Y-67907723D01*
X157041714Y-67907723D02*
X156994095Y-68002961D01*
X156994095Y-68002961D02*
X156898857Y-68098200D01*
X156898857Y-68098200D02*
X156756000Y-68145819D01*
X156756000Y-68145819D02*
X156517905Y-68145819D01*
X157946476Y-67479152D02*
X157946476Y-68145819D01*
X157708381Y-67098200D02*
X157470286Y-67812485D01*
X157470286Y-67812485D02*
X158089333Y-67812485D01*
X151106333Y-69982819D02*
X150773000Y-69506628D01*
X150534905Y-69982819D02*
X150534905Y-68982819D01*
X150534905Y-68982819D02*
X150915857Y-68982819D01*
X150915857Y-68982819D02*
X151011095Y-69030438D01*
X151011095Y-69030438D02*
X151058714Y-69078057D01*
X151058714Y-69078057D02*
X151106333Y-69173295D01*
X151106333Y-69173295D02*
X151106333Y-69316152D01*
X151106333Y-69316152D02*
X151058714Y-69411390D01*
X151058714Y-69411390D02*
X151011095Y-69459009D01*
X151011095Y-69459009D02*
X150915857Y-69506628D01*
X150915857Y-69506628D02*
X150534905Y-69506628D01*
X151439667Y-68982819D02*
X152058714Y-68982819D01*
X152058714Y-68982819D02*
X151725381Y-69363771D01*
X151725381Y-69363771D02*
X151868238Y-69363771D01*
X151868238Y-69363771D02*
X151963476Y-69411390D01*
X151963476Y-69411390D02*
X152011095Y-69459009D01*
X152011095Y-69459009D02*
X152058714Y-69554247D01*
X152058714Y-69554247D02*
X152058714Y-69792342D01*
X152058714Y-69792342D02*
X152011095Y-69887580D01*
X152011095Y-69887580D02*
X151963476Y-69935200D01*
X151963476Y-69935200D02*
X151868238Y-69982819D01*
X151868238Y-69982819D02*
X151582524Y-69982819D01*
X151582524Y-69982819D02*
X151487286Y-69935200D01*
X151487286Y-69935200D02*
X151439667Y-69887580D01*
X152123000Y-83052432D02*
X152123000Y-83290527D01*
X151884905Y-83195289D02*
X152123000Y-83290527D01*
X152123000Y-83290527D02*
X152361095Y-83195289D01*
X151980143Y-83481003D02*
X152123000Y-83290527D01*
X152123000Y-83290527D02*
X152265857Y-83481003D01*
X152122999Y-83647817D02*
X152122999Y-83885912D01*
X151884904Y-83790674D02*
X152122999Y-83885912D01*
X152122999Y-83885912D02*
X152361094Y-83790674D01*
X151980142Y-84076388D02*
X152122999Y-83885912D01*
X152122999Y-83885912D02*
X152265856Y-84076388D01*
X120696666Y-52464819D02*
X120696666Y-53179104D01*
X120696666Y-53179104D02*
X120649047Y-53321961D01*
X120649047Y-53321961D02*
X120553809Y-53417200D01*
X120553809Y-53417200D02*
X120410952Y-53464819D01*
X120410952Y-53464819D02*
X120315714Y-53464819D01*
X121696666Y-53464819D02*
X121125238Y-53464819D01*
X121410952Y-53464819D02*
X121410952Y-52464819D01*
X121410952Y-52464819D02*
X121315714Y-52607676D01*
X121315714Y-52607676D02*
X121220476Y-52702914D01*
X121220476Y-52702914D02*
X121125238Y-52750533D01*
X156501905Y-62844819D02*
X156501905Y-61844819D01*
X156501905Y-61844819D02*
X156740000Y-61844819D01*
X156740000Y-61844819D02*
X156882857Y-61892438D01*
X156882857Y-61892438D02*
X156978095Y-61987676D01*
X156978095Y-61987676D02*
X157025714Y-62082914D01*
X157025714Y-62082914D02*
X157073333Y-62273390D01*
X157073333Y-62273390D02*
X157073333Y-62416247D01*
X157073333Y-62416247D02*
X157025714Y-62606723D01*
X157025714Y-62606723D02*
X156978095Y-62701961D01*
X156978095Y-62701961D02*
X156882857Y-62797200D01*
X156882857Y-62797200D02*
X156740000Y-62844819D01*
X156740000Y-62844819D02*
X156501905Y-62844819D01*
X157454286Y-61940057D02*
X157501905Y-61892438D01*
X157501905Y-61892438D02*
X157597143Y-61844819D01*
X157597143Y-61844819D02*
X157835238Y-61844819D01*
X157835238Y-61844819D02*
X157930476Y-61892438D01*
X157930476Y-61892438D02*
X157978095Y-61940057D01*
X157978095Y-61940057D02*
X158025714Y-62035295D01*
X158025714Y-62035295D02*
X158025714Y-62130533D01*
X158025714Y-62130533D02*
X157978095Y-62273390D01*
X157978095Y-62273390D02*
X157406667Y-62844819D01*
X157406667Y-62844819D02*
X158025714Y-62844819D01*
X156501905Y-73098819D02*
X156501905Y-72098819D01*
X156501905Y-72098819D02*
X156740000Y-72098819D01*
X156740000Y-72098819D02*
X156882857Y-72146438D01*
X156882857Y-72146438D02*
X156978095Y-72241676D01*
X156978095Y-72241676D02*
X157025714Y-72336914D01*
X157025714Y-72336914D02*
X157073333Y-72527390D01*
X157073333Y-72527390D02*
X157073333Y-72670247D01*
X157073333Y-72670247D02*
X157025714Y-72860723D01*
X157025714Y-72860723D02*
X156978095Y-72955961D01*
X156978095Y-72955961D02*
X156882857Y-73051200D01*
X156882857Y-73051200D02*
X156740000Y-73098819D01*
X156740000Y-73098819D02*
X156501905Y-73098819D01*
X157406667Y-72098819D02*
X158025714Y-72098819D01*
X158025714Y-72098819D02*
X157692381Y-72479771D01*
X157692381Y-72479771D02*
X157835238Y-72479771D01*
X157835238Y-72479771D02*
X157930476Y-72527390D01*
X157930476Y-72527390D02*
X157978095Y-72575009D01*
X157978095Y-72575009D02*
X158025714Y-72670247D01*
X158025714Y-72670247D02*
X158025714Y-72908342D01*
X158025714Y-72908342D02*
X157978095Y-73003580D01*
X157978095Y-73003580D02*
X157930476Y-73051200D01*
X157930476Y-73051200D02*
X157835238Y-73098819D01*
X157835238Y-73098819D02*
X157549524Y-73098819D01*
X157549524Y-73098819D02*
X157454286Y-73051200D01*
X157454286Y-73051200D02*
X157406667Y-73003580D01*
X151102333Y-54684819D02*
X150769000Y-54208628D01*
X150530905Y-54684819D02*
X150530905Y-53684819D01*
X150530905Y-53684819D02*
X150911857Y-53684819D01*
X150911857Y-53684819D02*
X151007095Y-53732438D01*
X151007095Y-53732438D02*
X151054714Y-53780057D01*
X151054714Y-53780057D02*
X151102333Y-53875295D01*
X151102333Y-53875295D02*
X151102333Y-54018152D01*
X151102333Y-54018152D02*
X151054714Y-54113390D01*
X151054714Y-54113390D02*
X151007095Y-54161009D01*
X151007095Y-54161009D02*
X150911857Y-54208628D01*
X150911857Y-54208628D02*
X150530905Y-54208628D01*
X152054714Y-54684819D02*
X151483286Y-54684819D01*
X151769000Y-54684819D02*
X151769000Y-53684819D01*
X151769000Y-53684819D02*
X151673762Y-53827676D01*
X151673762Y-53827676D02*
X151578524Y-53922914D01*
X151578524Y-53922914D02*
X151483286Y-53970533D01*
X138476666Y-106464819D02*
X138476666Y-107179104D01*
X138476666Y-107179104D02*
X138429047Y-107321961D01*
X138429047Y-107321961D02*
X138333809Y-107417200D01*
X138333809Y-107417200D02*
X138190952Y-107464819D01*
X138190952Y-107464819D02*
X138095714Y-107464819D01*
X138905238Y-106560057D02*
X138952857Y-106512438D01*
X138952857Y-106512438D02*
X139048095Y-106464819D01*
X139048095Y-106464819D02*
X139286190Y-106464819D01*
X139286190Y-106464819D02*
X139381428Y-106512438D01*
X139381428Y-106512438D02*
X139429047Y-106560057D01*
X139429047Y-106560057D02*
X139476666Y-106655295D01*
X139476666Y-106655295D02*
X139476666Y-106750533D01*
X139476666Y-106750533D02*
X139429047Y-106893390D01*
X139429047Y-106893390D02*
X138857619Y-107464819D01*
X138857619Y-107464819D02*
X139476666Y-107464819D01*
X156501905Y-57764819D02*
X156501905Y-56764819D01*
X156501905Y-56764819D02*
X156740000Y-56764819D01*
X156740000Y-56764819D02*
X156882857Y-56812438D01*
X156882857Y-56812438D02*
X156978095Y-56907676D01*
X156978095Y-56907676D02*
X157025714Y-57002914D01*
X157025714Y-57002914D02*
X157073333Y-57193390D01*
X157073333Y-57193390D02*
X157073333Y-57336247D01*
X157073333Y-57336247D02*
X157025714Y-57526723D01*
X157025714Y-57526723D02*
X156978095Y-57621961D01*
X156978095Y-57621961D02*
X156882857Y-57717200D01*
X156882857Y-57717200D02*
X156740000Y-57764819D01*
X156740000Y-57764819D02*
X156501905Y-57764819D01*
X158025714Y-57764819D02*
X157454286Y-57764819D01*
X157740000Y-57764819D02*
X157740000Y-56764819D01*
X157740000Y-56764819D02*
X157644762Y-56907676D01*
X157644762Y-56907676D02*
X157549524Y-57002914D01*
X157549524Y-57002914D02*
X157454286Y-57050533D01*
D11*
X148963580Y-121813095D02*
X148154057Y-121813095D01*
X148154057Y-121813095D02*
X148058819Y-121860714D01*
X148058819Y-121860714D02*
X148011200Y-121908333D01*
X148011200Y-121908333D02*
X147963580Y-122003571D01*
X147963580Y-122003571D02*
X147963580Y-122194047D01*
X147963580Y-122194047D02*
X148011200Y-122289285D01*
X148011200Y-122289285D02*
X148058819Y-122336904D01*
X148058819Y-122336904D02*
X148154057Y-122384523D01*
X148154057Y-122384523D02*
X148963580Y-122384523D01*
X147963580Y-123384523D02*
X147963580Y-122813095D01*
X147963580Y-123098809D02*
X148963580Y-123098809D01*
X148963580Y-123098809D02*
X148820723Y-123003571D01*
X148820723Y-123003571D02*
X148725485Y-122908333D01*
X148725485Y-122908333D02*
X148677866Y-122813095D01*
X129643819Y-114950312D02*
X129596200Y-114902693D01*
X129596200Y-114902693D02*
X129548580Y-114759836D01*
X129548580Y-114759836D02*
X129548580Y-114664598D01*
X129548580Y-114664598D02*
X129596200Y-114521741D01*
X129596200Y-114521741D02*
X129691438Y-114426503D01*
X129691438Y-114426503D02*
X129786676Y-114378884D01*
X129786676Y-114378884D02*
X129977152Y-114331265D01*
X129977152Y-114331265D02*
X130120009Y-114331265D01*
X130120009Y-114331265D02*
X130310485Y-114378884D01*
X130310485Y-114378884D02*
X130405723Y-114426503D01*
X130405723Y-114426503D02*
X130500961Y-114521741D01*
X130500961Y-114521741D02*
X130548580Y-114664598D01*
X130548580Y-114664598D02*
X130548580Y-114759836D01*
X130548580Y-114759836D02*
X130500961Y-114902693D01*
X130500961Y-114902693D02*
X130453342Y-114950312D01*
X129548580Y-115521741D02*
X129596200Y-115426503D01*
X129596200Y-115426503D02*
X129643819Y-115378884D01*
X129643819Y-115378884D02*
X129739057Y-115331265D01*
X129739057Y-115331265D02*
X130024771Y-115331265D01*
X130024771Y-115331265D02*
X130120009Y-115378884D01*
X130120009Y-115378884D02*
X130167628Y-115426503D01*
X130167628Y-115426503D02*
X130215247Y-115521741D01*
X130215247Y-115521741D02*
X130215247Y-115664598D01*
X130215247Y-115664598D02*
X130167628Y-115759836D01*
X130167628Y-115759836D02*
X130120009Y-115807455D01*
X130120009Y-115807455D02*
X130024771Y-115855074D01*
X130024771Y-115855074D02*
X129739057Y-115855074D01*
X129739057Y-115855074D02*
X129643819Y-115807455D01*
X129643819Y-115807455D02*
X129596200Y-115759836D01*
X129596200Y-115759836D02*
X129548580Y-115664598D01*
X129548580Y-115664598D02*
X129548580Y-115521741D01*
X129548580Y-116283646D02*
X130215247Y-116283646D01*
X130024771Y-116283646D02*
X130120009Y-116331265D01*
X130120009Y-116331265D02*
X130167628Y-116378884D01*
X130167628Y-116378884D02*
X130215247Y-116474122D01*
X130215247Y-116474122D02*
X130215247Y-116569360D01*
X129596200Y-117283646D02*
X129548580Y-117188408D01*
X129548580Y-117188408D02*
X129548580Y-116997932D01*
X129548580Y-116997932D02*
X129596200Y-116902694D01*
X129596200Y-116902694D02*
X129691438Y-116855075D01*
X129691438Y-116855075D02*
X130072390Y-116855075D01*
X130072390Y-116855075D02*
X130167628Y-116902694D01*
X130167628Y-116902694D02*
X130215247Y-116997932D01*
X130215247Y-116997932D02*
X130215247Y-117188408D01*
X130215247Y-117188408D02*
X130167628Y-117283646D01*
X130167628Y-117283646D02*
X130072390Y-117331265D01*
X130072390Y-117331265D02*
X129977152Y-117331265D01*
X129977152Y-117331265D02*
X129881914Y-116855075D01*
X129548580Y-118283646D02*
X129548580Y-117712218D01*
X129548580Y-117997932D02*
X130548580Y-117997932D01*
X130548580Y-117997932D02*
X130405723Y-117902694D01*
X130405723Y-117902694D02*
X130310485Y-117807456D01*
X130310485Y-117807456D02*
X130262866Y-117712218D01*
X130453342Y-118664599D02*
X130500961Y-118712218D01*
X130500961Y-118712218D02*
X130548580Y-118807456D01*
X130548580Y-118807456D02*
X130548580Y-119045551D01*
X130548580Y-119045551D02*
X130500961Y-119140789D01*
X130500961Y-119140789D02*
X130453342Y-119188408D01*
X130453342Y-119188408D02*
X130358104Y-119236027D01*
X130358104Y-119236027D02*
X130262866Y-119236027D01*
X130262866Y-119236027D02*
X130120009Y-119188408D01*
X130120009Y-119188408D02*
X129548580Y-118616980D01*
X129548580Y-118616980D02*
X129548580Y-119236027D01*
X130548580Y-120093170D02*
X130548580Y-119902694D01*
X130548580Y-119902694D02*
X130500961Y-119807456D01*
X130500961Y-119807456D02*
X130453342Y-119759837D01*
X130453342Y-119759837D02*
X130310485Y-119664599D01*
X130310485Y-119664599D02*
X130120009Y-119616980D01*
X130120009Y-119616980D02*
X129739057Y-119616980D01*
X129739057Y-119616980D02*
X129643819Y-119664599D01*
X129643819Y-119664599D02*
X129596200Y-119712218D01*
X129596200Y-119712218D02*
X129548580Y-119807456D01*
X129548580Y-119807456D02*
X129548580Y-119997932D01*
X129548580Y-119997932D02*
X129596200Y-120093170D01*
X129596200Y-120093170D02*
X129643819Y-120140789D01*
X129643819Y-120140789D02*
X129739057Y-120188408D01*
X129739057Y-120188408D02*
X129977152Y-120188408D01*
X129977152Y-120188408D02*
X130072390Y-120140789D01*
X130072390Y-120140789D02*
X130120009Y-120093170D01*
X130120009Y-120093170D02*
X130167628Y-119997932D01*
X130167628Y-119997932D02*
X130167628Y-119807456D01*
X130167628Y-119807456D02*
X130120009Y-119712218D01*
X130120009Y-119712218D02*
X130072390Y-119664599D01*
X130072390Y-119664599D02*
X129977152Y-119616980D01*
X130453342Y-120569361D02*
X130500961Y-120616980D01*
X130500961Y-120616980D02*
X130548580Y-120712218D01*
X130548580Y-120712218D02*
X130548580Y-120950313D01*
X130548580Y-120950313D02*
X130500961Y-121045551D01*
X130500961Y-121045551D02*
X130453342Y-121093170D01*
X130453342Y-121093170D02*
X130358104Y-121140789D01*
X130358104Y-121140789D02*
X130262866Y-121140789D01*
X130262866Y-121140789D02*
X130120009Y-121093170D01*
X130120009Y-121093170D02*
X129548580Y-120521742D01*
X129548580Y-120521742D02*
X129548580Y-121140789D01*
X129548580Y-122807456D02*
X129548580Y-122331266D01*
X129548580Y-122331266D02*
X130548580Y-122331266D01*
X129548580Y-123283647D02*
X129596200Y-123188409D01*
X129596200Y-123188409D02*
X129643819Y-123140790D01*
X129643819Y-123140790D02*
X129739057Y-123093171D01*
X129739057Y-123093171D02*
X130024771Y-123093171D01*
X130024771Y-123093171D02*
X130120009Y-123140790D01*
X130120009Y-123140790D02*
X130167628Y-123188409D01*
X130167628Y-123188409D02*
X130215247Y-123283647D01*
X130215247Y-123283647D02*
X130215247Y-123426504D01*
X130215247Y-123426504D02*
X130167628Y-123521742D01*
X130167628Y-123521742D02*
X130120009Y-123569361D01*
X130120009Y-123569361D02*
X130024771Y-123616980D01*
X130024771Y-123616980D02*
X129739057Y-123616980D01*
X129739057Y-123616980D02*
X129643819Y-123569361D01*
X129643819Y-123569361D02*
X129596200Y-123521742D01*
X129596200Y-123521742D02*
X129548580Y-123426504D01*
X129548580Y-123426504D02*
X129548580Y-123283647D01*
X129548580Y-124616980D02*
X130024771Y-124283647D01*
X129548580Y-124045552D02*
X130548580Y-124045552D01*
X130548580Y-124045552D02*
X130548580Y-124426504D01*
X130548580Y-124426504D02*
X130500961Y-124521742D01*
X130500961Y-124521742D02*
X130453342Y-124569361D01*
X130453342Y-124569361D02*
X130358104Y-124616980D01*
X130358104Y-124616980D02*
X130215247Y-124616980D01*
X130215247Y-124616980D02*
X130120009Y-124569361D01*
X130120009Y-124569361D02*
X130072390Y-124521742D01*
X130072390Y-124521742D02*
X130024771Y-124426504D01*
X130024771Y-124426504D02*
X130024771Y-124045552D01*
X129548580Y-125474123D02*
X130072390Y-125474123D01*
X130072390Y-125474123D02*
X130167628Y-125426504D01*
X130167628Y-125426504D02*
X130215247Y-125331266D01*
X130215247Y-125331266D02*
X130215247Y-125140790D01*
X130215247Y-125140790D02*
X130167628Y-125045552D01*
X129596200Y-125474123D02*
X129548580Y-125378885D01*
X129548580Y-125378885D02*
X129548580Y-125140790D01*
X129548580Y-125140790D02*
X129596200Y-125045552D01*
X129596200Y-125045552D02*
X129691438Y-124997933D01*
X129691438Y-124997933D02*
X129786676Y-124997933D01*
X129786676Y-124997933D02*
X129881914Y-125045552D01*
X129881914Y-125045552D02*
X129929533Y-125140790D01*
X129929533Y-125140790D02*
X129929533Y-125378885D01*
X129929533Y-125378885D02*
X129977152Y-125474123D01*
X129548580Y-126712219D02*
X130548580Y-126712219D01*
X130548580Y-126712219D02*
X129834295Y-127045552D01*
X129834295Y-127045552D02*
X130548580Y-127378885D01*
X130548580Y-127378885D02*
X129548580Y-127378885D01*
X129548580Y-127997933D02*
X129596200Y-127902695D01*
X129596200Y-127902695D02*
X129643819Y-127855076D01*
X129643819Y-127855076D02*
X129739057Y-127807457D01*
X129739057Y-127807457D02*
X130024771Y-127807457D01*
X130024771Y-127807457D02*
X130120009Y-127855076D01*
X130120009Y-127855076D02*
X130167628Y-127902695D01*
X130167628Y-127902695D02*
X130215247Y-127997933D01*
X130215247Y-127997933D02*
X130215247Y-128140790D01*
X130215247Y-128140790D02*
X130167628Y-128236028D01*
X130167628Y-128236028D02*
X130120009Y-128283647D01*
X130120009Y-128283647D02*
X130024771Y-128331266D01*
X130024771Y-128331266D02*
X129739057Y-128331266D01*
X129739057Y-128331266D02*
X129643819Y-128283647D01*
X129643819Y-128283647D02*
X129596200Y-128236028D01*
X129596200Y-128236028D02*
X129548580Y-128140790D01*
X129548580Y-128140790D02*
X129548580Y-127997933D01*
X129548580Y-129188409D02*
X130548580Y-129188409D01*
X129596200Y-129188409D02*
X129548580Y-129093171D01*
X129548580Y-129093171D02*
X129548580Y-128902695D01*
X129548580Y-128902695D02*
X129596200Y-128807457D01*
X129596200Y-128807457D02*
X129643819Y-128759838D01*
X129643819Y-128759838D02*
X129739057Y-128712219D01*
X129739057Y-128712219D02*
X130024771Y-128712219D01*
X130024771Y-128712219D02*
X130120009Y-128759838D01*
X130120009Y-128759838D02*
X130167628Y-128807457D01*
X130167628Y-128807457D02*
X130215247Y-128902695D01*
X130215247Y-128902695D02*
X130215247Y-129093171D01*
X130215247Y-129093171D02*
X130167628Y-129188409D01*
X130215247Y-130093171D02*
X129548580Y-130093171D01*
X130215247Y-129664600D02*
X129691438Y-129664600D01*
X129691438Y-129664600D02*
X129596200Y-129712219D01*
X129596200Y-129712219D02*
X129548580Y-129807457D01*
X129548580Y-129807457D02*
X129548580Y-129950314D01*
X129548580Y-129950314D02*
X129596200Y-130045552D01*
X129596200Y-130045552D02*
X129643819Y-130093171D01*
X129548580Y-130712219D02*
X129596200Y-130616981D01*
X129596200Y-130616981D02*
X129691438Y-130569362D01*
X129691438Y-130569362D02*
X130548580Y-130569362D01*
X129548580Y-131521743D02*
X130072390Y-131521743D01*
X130072390Y-131521743D02*
X130167628Y-131474124D01*
X130167628Y-131474124D02*
X130215247Y-131378886D01*
X130215247Y-131378886D02*
X130215247Y-131188410D01*
X130215247Y-131188410D02*
X130167628Y-131093172D01*
X129596200Y-131521743D02*
X129548580Y-131426505D01*
X129548580Y-131426505D02*
X129548580Y-131188410D01*
X129548580Y-131188410D02*
X129596200Y-131093172D01*
X129596200Y-131093172D02*
X129691438Y-131045553D01*
X129691438Y-131045553D02*
X129786676Y-131045553D01*
X129786676Y-131045553D02*
X129881914Y-131093172D01*
X129881914Y-131093172D02*
X129929533Y-131188410D01*
X129929533Y-131188410D02*
X129929533Y-131426505D01*
X129929533Y-131426505D02*
X129977152Y-131521743D01*
X130215247Y-131855077D02*
X130215247Y-132236029D01*
X130548580Y-131997934D02*
X129691438Y-131997934D01*
X129691438Y-131997934D02*
X129596200Y-132045553D01*
X129596200Y-132045553D02*
X129548580Y-132140791D01*
X129548580Y-132140791D02*
X129548580Y-132236029D01*
X129548580Y-132712220D02*
X129596200Y-132616982D01*
X129596200Y-132616982D02*
X129643819Y-132569363D01*
X129643819Y-132569363D02*
X129739057Y-132521744D01*
X129739057Y-132521744D02*
X130024771Y-132521744D01*
X130024771Y-132521744D02*
X130120009Y-132569363D01*
X130120009Y-132569363D02*
X130167628Y-132616982D01*
X130167628Y-132616982D02*
X130215247Y-132712220D01*
X130215247Y-132712220D02*
X130215247Y-132855077D01*
X130215247Y-132855077D02*
X130167628Y-132950315D01*
X130167628Y-132950315D02*
X130120009Y-132997934D01*
X130120009Y-132997934D02*
X130024771Y-133045553D01*
X130024771Y-133045553D02*
X129739057Y-133045553D01*
X129739057Y-133045553D02*
X129643819Y-132997934D01*
X129643819Y-132997934D02*
X129596200Y-132950315D01*
X129596200Y-132950315D02*
X129548580Y-132855077D01*
X129548580Y-132855077D02*
X129548580Y-132712220D01*
X129548580Y-133474125D02*
X130215247Y-133474125D01*
X130024771Y-133474125D02*
X130120009Y-133521744D01*
X130120009Y-133521744D02*
X130167628Y-133569363D01*
X130167628Y-133569363D02*
X130215247Y-133664601D01*
X130215247Y-133664601D02*
X130215247Y-133759839D01*
D10*
X148851580Y-116204166D02*
X148899200Y-116251785D01*
X148899200Y-116251785D02*
X148946819Y-116394642D01*
X148946819Y-116394642D02*
X148946819Y-116489880D01*
X148946819Y-116489880D02*
X148899200Y-116632737D01*
X148899200Y-116632737D02*
X148803961Y-116727975D01*
X148803961Y-116727975D02*
X148708723Y-116775594D01*
X148708723Y-116775594D02*
X148518247Y-116823213D01*
X148518247Y-116823213D02*
X148375390Y-116823213D01*
X148375390Y-116823213D02*
X148184914Y-116775594D01*
X148184914Y-116775594D02*
X148089676Y-116727975D01*
X148089676Y-116727975D02*
X147994438Y-116632737D01*
X147994438Y-116632737D02*
X147946819Y-116489880D01*
X147946819Y-116489880D02*
X147946819Y-116394642D01*
X147946819Y-116394642D02*
X147994438Y-116251785D01*
X147994438Y-116251785D02*
X148042057Y-116204166D01*
X148946819Y-115251785D02*
X148946819Y-115823213D01*
X148946819Y-115537499D02*
X147946819Y-115537499D01*
X147946819Y-115537499D02*
X148089676Y-115632737D01*
X148089676Y-115632737D02*
X148184914Y-115727975D01*
X148184914Y-115727975D02*
X148232533Y-115823213D01*
X151106333Y-64902819D02*
X150773000Y-64426628D01*
X150534905Y-64902819D02*
X150534905Y-63902819D01*
X150534905Y-63902819D02*
X150915857Y-63902819D01*
X150915857Y-63902819D02*
X151011095Y-63950438D01*
X151011095Y-63950438D02*
X151058714Y-63998057D01*
X151058714Y-63998057D02*
X151106333Y-64093295D01*
X151106333Y-64093295D02*
X151106333Y-64236152D01*
X151106333Y-64236152D02*
X151058714Y-64331390D01*
X151058714Y-64331390D02*
X151011095Y-64379009D01*
X151011095Y-64379009D02*
X150915857Y-64426628D01*
X150915857Y-64426628D02*
X150534905Y-64426628D01*
X151963476Y-64236152D02*
X151963476Y-64902819D01*
X151725381Y-63855200D02*
X151487286Y-64569485D01*
X151487286Y-64569485D02*
X152106333Y-64569485D01*
X151090333Y-59538819D02*
X150757000Y-59062628D01*
X150518905Y-59538819D02*
X150518905Y-58538819D01*
X150518905Y-58538819D02*
X150899857Y-58538819D01*
X150899857Y-58538819D02*
X150995095Y-58586438D01*
X150995095Y-58586438D02*
X151042714Y-58634057D01*
X151042714Y-58634057D02*
X151090333Y-58729295D01*
X151090333Y-58729295D02*
X151090333Y-58872152D01*
X151090333Y-58872152D02*
X151042714Y-58967390D01*
X151042714Y-58967390D02*
X150995095Y-59015009D01*
X150995095Y-59015009D02*
X150899857Y-59062628D01*
X150899857Y-59062628D02*
X150518905Y-59062628D01*
X151471286Y-58634057D02*
X151518905Y-58586438D01*
X151518905Y-58586438D02*
X151614143Y-58538819D01*
X151614143Y-58538819D02*
X151852238Y-58538819D01*
X151852238Y-58538819D02*
X151947476Y-58586438D01*
X151947476Y-58586438D02*
X151995095Y-58634057D01*
X151995095Y-58634057D02*
X152042714Y-58729295D01*
X152042714Y-58729295D02*
X152042714Y-58824533D01*
X152042714Y-58824533D02*
X151995095Y-58967390D01*
X151995095Y-58967390D02*
X151423667Y-59538819D01*
X151423667Y-59538819D02*
X152042714Y-59538819D01*
X148355820Y-80393667D02*
X147879629Y-80727000D01*
X148355820Y-80965095D02*
X147355820Y-80965095D01*
X147355820Y-80965095D02*
X147355820Y-80584143D01*
X147355820Y-80584143D02*
X147403439Y-80488905D01*
X147403439Y-80488905D02*
X147451058Y-80441286D01*
X147451058Y-80441286D02*
X147546296Y-80393667D01*
X147546296Y-80393667D02*
X147689153Y-80393667D01*
X147689153Y-80393667D02*
X147784391Y-80441286D01*
X147784391Y-80441286D02*
X147832010Y-80488905D01*
X147832010Y-80488905D02*
X147879629Y-80584143D01*
X147879629Y-80584143D02*
X147879629Y-80965095D01*
X147355820Y-79488905D02*
X147355820Y-79965095D01*
X147355820Y-79965095D02*
X147832010Y-80012714D01*
X147832010Y-80012714D02*
X147784391Y-79965095D01*
X147784391Y-79965095D02*
X147736772Y-79869857D01*
X147736772Y-79869857D02*
X147736772Y-79631762D01*
X147736772Y-79631762D02*
X147784391Y-79536524D01*
X147784391Y-79536524D02*
X147832010Y-79488905D01*
X147832010Y-79488905D02*
X147927248Y-79441286D01*
X147927248Y-79441286D02*
X148165343Y-79441286D01*
X148165343Y-79441286D02*
X148260581Y-79488905D01*
X148260581Y-79488905D02*
X148308201Y-79536524D01*
X148308201Y-79536524D02*
X148355820Y-79631762D01*
X148355820Y-79631762D02*
X148355820Y-79869857D01*
X148355820Y-79869857D02*
X148308201Y-79965095D01*
X148308201Y-79965095D02*
X148260581Y-80012714D01*
D12*
%TO.C,D4*%
X156456000Y-66873000D02*
X158916000Y-66873000D01*
X158916000Y-65403000D02*
X156456000Y-65403000D01*
X158916000Y-66873000D02*
X158916000Y-65403000D01*
%TO.C,R3*%
X151045936Y-70443000D02*
X151500064Y-70443000D01*
X151045936Y-71913000D02*
X151500064Y-71913000D01*
D13*
%TO.C,SW1*%
X152248800Y-86498039D02*
X152248800Y-88841298D01*
X152760640Y-90790199D02*
X157985360Y-90790199D01*
X157985360Y-84541799D02*
X153180708Y-84541799D01*
X158497200Y-88841298D02*
X158497200Y-86490701D01*
D12*
%TO.C,J1*%
X119700000Y-54450000D02*
X119700000Y-57660000D01*
X119700000Y-54450000D02*
X122360000Y-54450000D01*
X119700000Y-59180000D02*
X119700000Y-62740000D01*
X119700000Y-64260000D02*
X119700000Y-67820000D01*
X119700000Y-69340000D02*
X119700000Y-72900000D01*
X119700000Y-74420000D02*
X119700000Y-77980000D01*
X119700000Y-79500000D02*
X119700000Y-83060000D01*
X119700000Y-84580000D02*
X119700000Y-88140000D01*
X119700000Y-89660000D02*
X119700000Y-93220000D01*
X119700000Y-94740000D02*
X119700000Y-98300000D01*
X119700000Y-99820000D02*
X119700000Y-103380000D01*
X119700000Y-104900000D02*
X119700000Y-105570000D01*
X119700000Y-105570000D02*
X122360000Y-105570000D01*
X122360000Y-54450000D02*
X122360000Y-55120000D01*
X122360000Y-55120000D02*
X123570000Y-55120000D01*
X122360000Y-56640000D02*
X122360000Y-60200000D01*
X122360000Y-61720000D02*
X122360000Y-65280000D01*
X122360000Y-66800000D02*
X122360000Y-70360000D01*
X122360000Y-71880000D02*
X122360000Y-75440000D01*
X122360000Y-76960000D02*
X122360000Y-80520000D01*
X122360000Y-82040000D02*
X122360000Y-85600000D01*
X122360000Y-87120000D02*
X122360000Y-90680000D01*
X122360000Y-92200000D02*
X122360000Y-95760000D01*
X122360000Y-97280000D02*
X122360000Y-100840000D01*
X122360000Y-102360000D02*
X122360000Y-105570000D01*
%TO.C,D2*%
X156440000Y-61695000D02*
X158900000Y-61695000D01*
X158900000Y-60225000D02*
X156440000Y-60225000D01*
X158900000Y-61695000D02*
X158900000Y-60225000D01*
%TO.C,D3*%
X156440000Y-71855000D02*
X158900000Y-71855000D01*
X158900000Y-70385000D02*
X156440000Y-70385000D01*
X158900000Y-71855000D02*
X158900000Y-70385000D01*
%TO.C,R1*%
X151041936Y-55145000D02*
X151496064Y-55145000D01*
X151041936Y-56615000D02*
X151496064Y-56615000D01*
%TO.C,J2*%
X137480000Y-57660000D02*
X137480000Y-54450000D01*
X137480000Y-62740000D02*
X137480000Y-59180000D01*
X137480000Y-67820000D02*
X137480000Y-64260000D01*
X137480000Y-72900000D02*
X137480000Y-69340000D01*
X137480000Y-77980000D02*
X137480000Y-74420000D01*
X137480000Y-83060000D02*
X137480000Y-79500000D01*
X137480000Y-88140000D02*
X137480000Y-84580000D01*
X137480000Y-93220000D02*
X137480000Y-89660000D01*
X137480000Y-98300000D02*
X137480000Y-94740000D01*
X137480000Y-103380000D02*
X137480000Y-99820000D01*
X137480000Y-104900000D02*
X136270000Y-104900000D01*
X137480000Y-105570000D02*
X137480000Y-104900000D01*
X140140000Y-54450000D02*
X137480000Y-54450000D01*
X140140000Y-55120000D02*
X140140000Y-54450000D01*
X140140000Y-60200000D02*
X140140000Y-56640000D01*
X140140000Y-65280000D02*
X140140000Y-61720000D01*
X140140000Y-70360000D02*
X140140000Y-66800000D01*
X140140000Y-75440000D02*
X140140000Y-71880000D01*
X140140000Y-80520000D02*
X140140000Y-76960000D01*
X140140000Y-85600000D02*
X140140000Y-82040000D01*
X140140000Y-90680000D02*
X140140000Y-87120000D01*
X140140000Y-95760000D02*
X140140000Y-92200000D01*
X140140000Y-100840000D02*
X140140000Y-97280000D01*
X140140000Y-105570000D02*
X137480000Y-105570000D01*
X140140000Y-105570000D02*
X140140000Y-102360000D01*
%TO.C,D1*%
X156440000Y-56615000D02*
X158900000Y-56615000D01*
X158900000Y-55145000D02*
X156440000Y-55145000D01*
X158900000Y-56615000D02*
X158900000Y-55145000D01*
D11*
%TO.C,U1*%
X119421000Y-112575000D02*
X119421000Y-113575000D01*
X119421000Y-112575000D02*
X140421000Y-112575000D01*
X119421000Y-135075000D02*
X119421000Y-134075000D01*
X119421000Y-135075000D02*
X140421000Y-135075000D01*
X140421000Y-112575000D02*
X140421000Y-113575000D01*
X140421000Y-135075000D02*
X140421000Y-134075000D01*
X142921000Y-133825000D02*
X141921000Y-132825000D01*
X142921000Y-131825000D01*
X142921000Y-133825000D01*
G36*
X142921000Y-133825000D02*
G01*
X141921000Y-132825000D01*
X142921000Y-131825000D01*
X142921000Y-133825000D01*
G37*
D12*
%TO.C,C1*%
X146077000Y-115776248D02*
X146077000Y-116298752D01*
X147547000Y-115776248D02*
X147547000Y-116298752D01*
%TO.C,R4*%
X151045936Y-65363000D02*
X151500064Y-65363000D01*
X151045936Y-66833000D02*
X151500064Y-66833000D01*
%TO.C,R2*%
X151041936Y-60254000D02*
X151496064Y-60254000D01*
X151041936Y-61724000D02*
X151496064Y-61724000D01*
%TO.C,R5*%
X145516001Y-79999937D02*
X145516001Y-80454065D01*
X146986001Y-79999937D02*
X146986001Y-80454065D01*
%TD*%
M02*
