%TF.GenerationSoftware,KiCad,Pcbnew,9.0.3*%
%TF.CreationDate,2025-08-28T11:24:01-04:00*%
%TF.ProjectId,signal_conditioner,7369676e-616c-45f6-936f-6e646974696f,rev?*%
%TF.SameCoordinates,Original*%
%TF.FileFunction,Legend,Top*%
%TF.FilePolarity,Positive*%
%FSLAX46Y46*%
G04 Gerber Fmt 4.6, Leading zero omitted, Abs format (unit mm)*
G04 Created by KiCad (PCBNEW 9.0.3) date 2025-08-28 11:24:01*
%MOMM*%
%LPD*%
G01*
G04 APERTURE LIST*
%ADD10C,0.150000*%
%ADD11C,0.100000*%
%ADD12C,0.120000*%
G04 APERTURE END LIST*
D10*
X135556666Y-57399819D02*
X135556666Y-58114104D01*
X135556666Y-58114104D02*
X135509047Y-58256961D01*
X135509047Y-58256961D02*
X135413809Y-58352200D01*
X135413809Y-58352200D02*
X135270952Y-58399819D01*
X135270952Y-58399819D02*
X135175714Y-58399819D01*
X135985238Y-57495057D02*
X136032857Y-57447438D01*
X136032857Y-57447438D02*
X136128095Y-57399819D01*
X136128095Y-57399819D02*
X136366190Y-57399819D01*
X136366190Y-57399819D02*
X136461428Y-57447438D01*
X136461428Y-57447438D02*
X136509047Y-57495057D01*
X136509047Y-57495057D02*
X136556666Y-57590295D01*
X136556666Y-57590295D02*
X136556666Y-57685533D01*
X136556666Y-57685533D02*
X136509047Y-57828390D01*
X136509047Y-57828390D02*
X135937619Y-58399819D01*
X135937619Y-58399819D02*
X136556666Y-58399819D01*
D11*
X234984580Y-50292095D02*
X234175057Y-50292095D01*
X234175057Y-50292095D02*
X234079819Y-50339714D01*
X234079819Y-50339714D02*
X234032200Y-50387333D01*
X234032200Y-50387333D02*
X233984580Y-50482571D01*
X233984580Y-50482571D02*
X233984580Y-50673047D01*
X233984580Y-50673047D02*
X234032200Y-50768285D01*
X234032200Y-50768285D02*
X234079819Y-50815904D01*
X234079819Y-50815904D02*
X234175057Y-50863523D01*
X234175057Y-50863523D02*
X234984580Y-50863523D01*
X234984580Y-51815904D02*
X234984580Y-51339714D01*
X234984580Y-51339714D02*
X234508390Y-51292095D01*
X234508390Y-51292095D02*
X234556009Y-51339714D01*
X234556009Y-51339714D02*
X234603628Y-51434952D01*
X234603628Y-51434952D02*
X234603628Y-51673047D01*
X234603628Y-51673047D02*
X234556009Y-51768285D01*
X234556009Y-51768285D02*
X234508390Y-51815904D01*
X234508390Y-51815904D02*
X234413152Y-51863523D01*
X234413152Y-51863523D02*
X234175057Y-51863523D01*
X234175057Y-51863523D02*
X234079819Y-51815904D01*
X234079819Y-51815904D02*
X234032200Y-51768285D01*
X234032200Y-51768285D02*
X233984580Y-51673047D01*
X233984580Y-51673047D02*
X233984580Y-51434952D01*
X233984580Y-51434952D02*
X234032200Y-51339714D01*
X234032200Y-51339714D02*
X234079819Y-51292095D01*
X215473598Y-51815371D02*
X215425979Y-51767752D01*
X215425979Y-51767752D02*
X215330741Y-51624895D01*
X215330741Y-51624895D02*
X215283122Y-51529657D01*
X215283122Y-51529657D02*
X215235503Y-51386800D01*
X215235503Y-51386800D02*
X215187884Y-51148704D01*
X215187884Y-51148704D02*
X215187884Y-50958228D01*
X215187884Y-50958228D02*
X215235503Y-50720133D01*
X215235503Y-50720133D02*
X215283122Y-50577276D01*
X215283122Y-50577276D02*
X215330741Y-50482038D01*
X215330741Y-50482038D02*
X215425979Y-50339180D01*
X215425979Y-50339180D02*
X215473598Y-50291561D01*
X215806932Y-51386800D02*
X215949789Y-51434419D01*
X215949789Y-51434419D02*
X216187884Y-51434419D01*
X216187884Y-51434419D02*
X216283122Y-51386800D01*
X216283122Y-51386800D02*
X216330741Y-51339180D01*
X216330741Y-51339180D02*
X216378360Y-51243942D01*
X216378360Y-51243942D02*
X216378360Y-51148704D01*
X216378360Y-51148704D02*
X216330741Y-51053466D01*
X216330741Y-51053466D02*
X216283122Y-51005847D01*
X216283122Y-51005847D02*
X216187884Y-50958228D01*
X216187884Y-50958228D02*
X215997408Y-50910609D01*
X215997408Y-50910609D02*
X215902170Y-50862990D01*
X215902170Y-50862990D02*
X215854551Y-50815371D01*
X215854551Y-50815371D02*
X215806932Y-50720133D01*
X215806932Y-50720133D02*
X215806932Y-50624895D01*
X215806932Y-50624895D02*
X215854551Y-50529657D01*
X215854551Y-50529657D02*
X215902170Y-50482038D01*
X215902170Y-50482038D02*
X215997408Y-50434419D01*
X215997408Y-50434419D02*
X216235503Y-50434419D01*
X216235503Y-50434419D02*
X216378360Y-50482038D01*
X216711694Y-51815371D02*
X216759313Y-51767752D01*
X216759313Y-51767752D02*
X216854551Y-51624895D01*
X216854551Y-51624895D02*
X216902170Y-51529657D01*
X216902170Y-51529657D02*
X216949789Y-51386800D01*
X216949789Y-51386800D02*
X216997408Y-51148704D01*
X216997408Y-51148704D02*
X216997408Y-50958228D01*
X216997408Y-50958228D02*
X216949789Y-50720133D01*
X216949789Y-50720133D02*
X216902170Y-50577276D01*
X216902170Y-50577276D02*
X216854551Y-50482038D01*
X216854551Y-50482038D02*
X216759313Y-50339180D01*
X216759313Y-50339180D02*
X216711694Y-50291561D01*
X217425980Y-51386800D02*
X217568837Y-51434419D01*
X217568837Y-51434419D02*
X217806932Y-51434419D01*
X217806932Y-51434419D02*
X217902170Y-51386800D01*
X217902170Y-51386800D02*
X217949789Y-51339180D01*
X217949789Y-51339180D02*
X217997408Y-51243942D01*
X217997408Y-51243942D02*
X217997408Y-51148704D01*
X217997408Y-51148704D02*
X217949789Y-51053466D01*
X217949789Y-51053466D02*
X217902170Y-51005847D01*
X217902170Y-51005847D02*
X217806932Y-50958228D01*
X217806932Y-50958228D02*
X217616456Y-50910609D01*
X217616456Y-50910609D02*
X217521218Y-50862990D01*
X217521218Y-50862990D02*
X217473599Y-50815371D01*
X217473599Y-50815371D02*
X217425980Y-50720133D01*
X217425980Y-50720133D02*
X217425980Y-50624895D01*
X217425980Y-50624895D02*
X217473599Y-50529657D01*
X217473599Y-50529657D02*
X217521218Y-50482038D01*
X217521218Y-50482038D02*
X217616456Y-50434419D01*
X217616456Y-50434419D02*
X217854551Y-50434419D01*
X217854551Y-50434419D02*
X217997408Y-50482038D01*
X218616456Y-50434419D02*
X218806932Y-50434419D01*
X218806932Y-50434419D02*
X218902170Y-50482038D01*
X218902170Y-50482038D02*
X218997408Y-50577276D01*
X218997408Y-50577276D02*
X219045027Y-50767752D01*
X219045027Y-50767752D02*
X219045027Y-51101085D01*
X219045027Y-51101085D02*
X218997408Y-51291561D01*
X218997408Y-51291561D02*
X218902170Y-51386800D01*
X218902170Y-51386800D02*
X218806932Y-51434419D01*
X218806932Y-51434419D02*
X218616456Y-51434419D01*
X218616456Y-51434419D02*
X218521218Y-51386800D01*
X218521218Y-51386800D02*
X218425980Y-51291561D01*
X218425980Y-51291561D02*
X218378361Y-51101085D01*
X218378361Y-51101085D02*
X218378361Y-50767752D01*
X218378361Y-50767752D02*
X218425980Y-50577276D01*
X218425980Y-50577276D02*
X218521218Y-50482038D01*
X218521218Y-50482038D02*
X218616456Y-50434419D01*
X219473599Y-51434419D02*
X219473599Y-50434419D01*
X219473599Y-50434419D02*
X219854551Y-50434419D01*
X219854551Y-50434419D02*
X219949789Y-50482038D01*
X219949789Y-50482038D02*
X219997408Y-50529657D01*
X219997408Y-50529657D02*
X220045027Y-50624895D01*
X220045027Y-50624895D02*
X220045027Y-50767752D01*
X220045027Y-50767752D02*
X219997408Y-50862990D01*
X219997408Y-50862990D02*
X219949789Y-50910609D01*
X219949789Y-50910609D02*
X219854551Y-50958228D01*
X219854551Y-50958228D02*
X219473599Y-50958228D01*
X220997408Y-51434419D02*
X220425980Y-51434419D01*
X220711694Y-51434419D02*
X220711694Y-50434419D01*
X220711694Y-50434419D02*
X220616456Y-50577276D01*
X220616456Y-50577276D02*
X220521218Y-50672514D01*
X220521218Y-50672514D02*
X220425980Y-50720133D01*
X221854551Y-50767752D02*
X221854551Y-51434419D01*
X221616456Y-50386800D02*
X221378361Y-51101085D01*
X221378361Y-51101085D02*
X221997408Y-51101085D01*
X174888180Y-76719695D02*
X174078657Y-76719695D01*
X174078657Y-76719695D02*
X173983419Y-76767314D01*
X173983419Y-76767314D02*
X173935800Y-76814933D01*
X173935800Y-76814933D02*
X173888180Y-76910171D01*
X173888180Y-76910171D02*
X173888180Y-77100647D01*
X173888180Y-77100647D02*
X173935800Y-77195885D01*
X173935800Y-77195885D02*
X173983419Y-77243504D01*
X173983419Y-77243504D02*
X174078657Y-77291123D01*
X174078657Y-77291123D02*
X174888180Y-77291123D01*
X173888180Y-78291123D02*
X173888180Y-77719695D01*
X173888180Y-78005409D02*
X174888180Y-78005409D01*
X174888180Y-78005409D02*
X174745323Y-77910171D01*
X174745323Y-77910171D02*
X174650085Y-77814933D01*
X174650085Y-77814933D02*
X174602466Y-77719695D01*
X156393198Y-78242971D02*
X156345579Y-78195352D01*
X156345579Y-78195352D02*
X156250341Y-78052495D01*
X156250341Y-78052495D02*
X156202722Y-77957257D01*
X156202722Y-77957257D02*
X156155103Y-77814400D01*
X156155103Y-77814400D02*
X156107484Y-77576304D01*
X156107484Y-77576304D02*
X156107484Y-77385828D01*
X156107484Y-77385828D02*
X156155103Y-77147733D01*
X156155103Y-77147733D02*
X156202722Y-77004876D01*
X156202722Y-77004876D02*
X156250341Y-76909638D01*
X156250341Y-76909638D02*
X156345579Y-76766780D01*
X156345579Y-76766780D02*
X156393198Y-76719161D01*
X156726532Y-77814400D02*
X156869389Y-77862019D01*
X156869389Y-77862019D02*
X157107484Y-77862019D01*
X157107484Y-77862019D02*
X157202722Y-77814400D01*
X157202722Y-77814400D02*
X157250341Y-77766780D01*
X157250341Y-77766780D02*
X157297960Y-77671542D01*
X157297960Y-77671542D02*
X157297960Y-77576304D01*
X157297960Y-77576304D02*
X157250341Y-77481066D01*
X157250341Y-77481066D02*
X157202722Y-77433447D01*
X157202722Y-77433447D02*
X157107484Y-77385828D01*
X157107484Y-77385828D02*
X156917008Y-77338209D01*
X156917008Y-77338209D02*
X156821770Y-77290590D01*
X156821770Y-77290590D02*
X156774151Y-77242971D01*
X156774151Y-77242971D02*
X156726532Y-77147733D01*
X156726532Y-77147733D02*
X156726532Y-77052495D01*
X156726532Y-77052495D02*
X156774151Y-76957257D01*
X156774151Y-76957257D02*
X156821770Y-76909638D01*
X156821770Y-76909638D02*
X156917008Y-76862019D01*
X156917008Y-76862019D02*
X157155103Y-76862019D01*
X157155103Y-76862019D02*
X157297960Y-76909638D01*
X157631294Y-78242971D02*
X157678913Y-78195352D01*
X157678913Y-78195352D02*
X157774151Y-78052495D01*
X157774151Y-78052495D02*
X157821770Y-77957257D01*
X157821770Y-77957257D02*
X157869389Y-77814400D01*
X157869389Y-77814400D02*
X157917008Y-77576304D01*
X157917008Y-77576304D02*
X157917008Y-77385828D01*
X157917008Y-77385828D02*
X157869389Y-77147733D01*
X157869389Y-77147733D02*
X157821770Y-77004876D01*
X157821770Y-77004876D02*
X157774151Y-76909638D01*
X157774151Y-76909638D02*
X157678913Y-76766780D01*
X157678913Y-76766780D02*
X157631294Y-76719161D01*
X158345580Y-77814400D02*
X158488437Y-77862019D01*
X158488437Y-77862019D02*
X158726532Y-77862019D01*
X158726532Y-77862019D02*
X158821770Y-77814400D01*
X158821770Y-77814400D02*
X158869389Y-77766780D01*
X158869389Y-77766780D02*
X158917008Y-77671542D01*
X158917008Y-77671542D02*
X158917008Y-77576304D01*
X158917008Y-77576304D02*
X158869389Y-77481066D01*
X158869389Y-77481066D02*
X158821770Y-77433447D01*
X158821770Y-77433447D02*
X158726532Y-77385828D01*
X158726532Y-77385828D02*
X158536056Y-77338209D01*
X158536056Y-77338209D02*
X158440818Y-77290590D01*
X158440818Y-77290590D02*
X158393199Y-77242971D01*
X158393199Y-77242971D02*
X158345580Y-77147733D01*
X158345580Y-77147733D02*
X158345580Y-77052495D01*
X158345580Y-77052495D02*
X158393199Y-76957257D01*
X158393199Y-76957257D02*
X158440818Y-76909638D01*
X158440818Y-76909638D02*
X158536056Y-76862019D01*
X158536056Y-76862019D02*
X158774151Y-76862019D01*
X158774151Y-76862019D02*
X158917008Y-76909638D01*
X159536056Y-76862019D02*
X159726532Y-76862019D01*
X159726532Y-76862019D02*
X159821770Y-76909638D01*
X159821770Y-76909638D02*
X159917008Y-77004876D01*
X159917008Y-77004876D02*
X159964627Y-77195352D01*
X159964627Y-77195352D02*
X159964627Y-77528685D01*
X159964627Y-77528685D02*
X159917008Y-77719161D01*
X159917008Y-77719161D02*
X159821770Y-77814400D01*
X159821770Y-77814400D02*
X159726532Y-77862019D01*
X159726532Y-77862019D02*
X159536056Y-77862019D01*
X159536056Y-77862019D02*
X159440818Y-77814400D01*
X159440818Y-77814400D02*
X159345580Y-77719161D01*
X159345580Y-77719161D02*
X159297961Y-77528685D01*
X159297961Y-77528685D02*
X159297961Y-77195352D01*
X159297961Y-77195352D02*
X159345580Y-77004876D01*
X159345580Y-77004876D02*
X159440818Y-76909638D01*
X159440818Y-76909638D02*
X159536056Y-76862019D01*
X160393199Y-77862019D02*
X160393199Y-76862019D01*
X160393199Y-76862019D02*
X160774151Y-76862019D01*
X160774151Y-76862019D02*
X160869389Y-76909638D01*
X160869389Y-76909638D02*
X160917008Y-76957257D01*
X160917008Y-76957257D02*
X160964627Y-77052495D01*
X160964627Y-77052495D02*
X160964627Y-77195352D01*
X160964627Y-77195352D02*
X160917008Y-77290590D01*
X160917008Y-77290590D02*
X160869389Y-77338209D01*
X160869389Y-77338209D02*
X160774151Y-77385828D01*
X160774151Y-77385828D02*
X160393199Y-77385828D01*
X161917008Y-77862019D02*
X161345580Y-77862019D01*
X161631294Y-77862019D02*
X161631294Y-76862019D01*
X161631294Y-76862019D02*
X161536056Y-77004876D01*
X161536056Y-77004876D02*
X161440818Y-77100114D01*
X161440818Y-77100114D02*
X161345580Y-77147733D01*
X162774151Y-76862019D02*
X162583675Y-76862019D01*
X162583675Y-76862019D02*
X162488437Y-76909638D01*
X162488437Y-76909638D02*
X162440818Y-76957257D01*
X162440818Y-76957257D02*
X162345580Y-77100114D01*
X162345580Y-77100114D02*
X162297961Y-77290590D01*
X162297961Y-77290590D02*
X162297961Y-77671542D01*
X162297961Y-77671542D02*
X162345580Y-77766780D01*
X162345580Y-77766780D02*
X162393199Y-77814400D01*
X162393199Y-77814400D02*
X162488437Y-77862019D01*
X162488437Y-77862019D02*
X162678913Y-77862019D01*
X162678913Y-77862019D02*
X162774151Y-77814400D01*
X162774151Y-77814400D02*
X162821770Y-77766780D01*
X162821770Y-77766780D02*
X162869389Y-77671542D01*
X162869389Y-77671542D02*
X162869389Y-77433447D01*
X162869389Y-77433447D02*
X162821770Y-77338209D01*
X162821770Y-77338209D02*
X162774151Y-77290590D01*
X162774151Y-77290590D02*
X162678913Y-77242971D01*
X162678913Y-77242971D02*
X162488437Y-77242971D01*
X162488437Y-77242971D02*
X162393199Y-77290590D01*
X162393199Y-77290590D02*
X162345580Y-77338209D01*
X162345580Y-77338209D02*
X162297961Y-77433447D01*
D10*
X135556666Y-83434819D02*
X135556666Y-84149104D01*
X135556666Y-84149104D02*
X135509047Y-84291961D01*
X135509047Y-84291961D02*
X135413809Y-84387200D01*
X135413809Y-84387200D02*
X135270952Y-84434819D01*
X135270952Y-84434819D02*
X135175714Y-84434819D01*
X136556666Y-84434819D02*
X135985238Y-84434819D01*
X136270952Y-84434819D02*
X136270952Y-83434819D01*
X136270952Y-83434819D02*
X136175714Y-83577676D01*
X136175714Y-83577676D02*
X136080476Y-83672914D01*
X136080476Y-83672914D02*
X135985238Y-83720533D01*
D11*
X235111580Y-76708095D02*
X234302057Y-76708095D01*
X234302057Y-76708095D02*
X234206819Y-76755714D01*
X234206819Y-76755714D02*
X234159200Y-76803333D01*
X234159200Y-76803333D02*
X234111580Y-76898571D01*
X234111580Y-76898571D02*
X234111580Y-77089047D01*
X234111580Y-77089047D02*
X234159200Y-77184285D01*
X234159200Y-77184285D02*
X234206819Y-77231904D01*
X234206819Y-77231904D02*
X234302057Y-77279523D01*
X234302057Y-77279523D02*
X235111580Y-77279523D01*
X234778247Y-78184285D02*
X234111580Y-78184285D01*
X235159200Y-77946190D02*
X234444914Y-77708095D01*
X234444914Y-77708095D02*
X234444914Y-78327142D01*
X215600598Y-78231371D02*
X215552979Y-78183752D01*
X215552979Y-78183752D02*
X215457741Y-78040895D01*
X215457741Y-78040895D02*
X215410122Y-77945657D01*
X215410122Y-77945657D02*
X215362503Y-77802800D01*
X215362503Y-77802800D02*
X215314884Y-77564704D01*
X215314884Y-77564704D02*
X215314884Y-77374228D01*
X215314884Y-77374228D02*
X215362503Y-77136133D01*
X215362503Y-77136133D02*
X215410122Y-76993276D01*
X215410122Y-76993276D02*
X215457741Y-76898038D01*
X215457741Y-76898038D02*
X215552979Y-76755180D01*
X215552979Y-76755180D02*
X215600598Y-76707561D01*
X215933932Y-77802800D02*
X216076789Y-77850419D01*
X216076789Y-77850419D02*
X216314884Y-77850419D01*
X216314884Y-77850419D02*
X216410122Y-77802800D01*
X216410122Y-77802800D02*
X216457741Y-77755180D01*
X216457741Y-77755180D02*
X216505360Y-77659942D01*
X216505360Y-77659942D02*
X216505360Y-77564704D01*
X216505360Y-77564704D02*
X216457741Y-77469466D01*
X216457741Y-77469466D02*
X216410122Y-77421847D01*
X216410122Y-77421847D02*
X216314884Y-77374228D01*
X216314884Y-77374228D02*
X216124408Y-77326609D01*
X216124408Y-77326609D02*
X216029170Y-77278990D01*
X216029170Y-77278990D02*
X215981551Y-77231371D01*
X215981551Y-77231371D02*
X215933932Y-77136133D01*
X215933932Y-77136133D02*
X215933932Y-77040895D01*
X215933932Y-77040895D02*
X215981551Y-76945657D01*
X215981551Y-76945657D02*
X216029170Y-76898038D01*
X216029170Y-76898038D02*
X216124408Y-76850419D01*
X216124408Y-76850419D02*
X216362503Y-76850419D01*
X216362503Y-76850419D02*
X216505360Y-76898038D01*
X216838694Y-78231371D02*
X216886313Y-78183752D01*
X216886313Y-78183752D02*
X216981551Y-78040895D01*
X216981551Y-78040895D02*
X217029170Y-77945657D01*
X217029170Y-77945657D02*
X217076789Y-77802800D01*
X217076789Y-77802800D02*
X217124408Y-77564704D01*
X217124408Y-77564704D02*
X217124408Y-77374228D01*
X217124408Y-77374228D02*
X217076789Y-77136133D01*
X217076789Y-77136133D02*
X217029170Y-76993276D01*
X217029170Y-76993276D02*
X216981551Y-76898038D01*
X216981551Y-76898038D02*
X216886313Y-76755180D01*
X216886313Y-76755180D02*
X216838694Y-76707561D01*
X217552980Y-77802800D02*
X217695837Y-77850419D01*
X217695837Y-77850419D02*
X217933932Y-77850419D01*
X217933932Y-77850419D02*
X218029170Y-77802800D01*
X218029170Y-77802800D02*
X218076789Y-77755180D01*
X218076789Y-77755180D02*
X218124408Y-77659942D01*
X218124408Y-77659942D02*
X218124408Y-77564704D01*
X218124408Y-77564704D02*
X218076789Y-77469466D01*
X218076789Y-77469466D02*
X218029170Y-77421847D01*
X218029170Y-77421847D02*
X217933932Y-77374228D01*
X217933932Y-77374228D02*
X217743456Y-77326609D01*
X217743456Y-77326609D02*
X217648218Y-77278990D01*
X217648218Y-77278990D02*
X217600599Y-77231371D01*
X217600599Y-77231371D02*
X217552980Y-77136133D01*
X217552980Y-77136133D02*
X217552980Y-77040895D01*
X217552980Y-77040895D02*
X217600599Y-76945657D01*
X217600599Y-76945657D02*
X217648218Y-76898038D01*
X217648218Y-76898038D02*
X217743456Y-76850419D01*
X217743456Y-76850419D02*
X217981551Y-76850419D01*
X217981551Y-76850419D02*
X218124408Y-76898038D01*
X218743456Y-76850419D02*
X218933932Y-76850419D01*
X218933932Y-76850419D02*
X219029170Y-76898038D01*
X219029170Y-76898038D02*
X219124408Y-76993276D01*
X219124408Y-76993276D02*
X219172027Y-77183752D01*
X219172027Y-77183752D02*
X219172027Y-77517085D01*
X219172027Y-77517085D02*
X219124408Y-77707561D01*
X219124408Y-77707561D02*
X219029170Y-77802800D01*
X219029170Y-77802800D02*
X218933932Y-77850419D01*
X218933932Y-77850419D02*
X218743456Y-77850419D01*
X218743456Y-77850419D02*
X218648218Y-77802800D01*
X218648218Y-77802800D02*
X218552980Y-77707561D01*
X218552980Y-77707561D02*
X218505361Y-77517085D01*
X218505361Y-77517085D02*
X218505361Y-77183752D01*
X218505361Y-77183752D02*
X218552980Y-76993276D01*
X218552980Y-76993276D02*
X218648218Y-76898038D01*
X218648218Y-76898038D02*
X218743456Y-76850419D01*
X219600599Y-77850419D02*
X219600599Y-76850419D01*
X219600599Y-76850419D02*
X219981551Y-76850419D01*
X219981551Y-76850419D02*
X220076789Y-76898038D01*
X220076789Y-76898038D02*
X220124408Y-76945657D01*
X220124408Y-76945657D02*
X220172027Y-77040895D01*
X220172027Y-77040895D02*
X220172027Y-77183752D01*
X220172027Y-77183752D02*
X220124408Y-77278990D01*
X220124408Y-77278990D02*
X220076789Y-77326609D01*
X220076789Y-77326609D02*
X219981551Y-77374228D01*
X219981551Y-77374228D02*
X219600599Y-77374228D01*
X221124408Y-77850419D02*
X220552980Y-77850419D01*
X220838694Y-77850419D02*
X220838694Y-76850419D01*
X220838694Y-76850419D02*
X220743456Y-76993276D01*
X220743456Y-76993276D02*
X220648218Y-77088514D01*
X220648218Y-77088514D02*
X220552980Y-77136133D01*
X221981551Y-77183752D02*
X221981551Y-77850419D01*
X221743456Y-76802800D02*
X221505361Y-77517085D01*
X221505361Y-77517085D02*
X222124408Y-77517085D01*
D10*
X135556666Y-45969819D02*
X135556666Y-46684104D01*
X135556666Y-46684104D02*
X135509047Y-46826961D01*
X135509047Y-46826961D02*
X135413809Y-46922200D01*
X135413809Y-46922200D02*
X135270952Y-46969819D01*
X135270952Y-46969819D02*
X135175714Y-46969819D01*
X136461428Y-46303152D02*
X136461428Y-46969819D01*
X136223333Y-45922200D02*
X135985238Y-46636485D01*
X135985238Y-46636485D02*
X136604285Y-46636485D01*
X236394666Y-78415819D02*
X236394666Y-79130104D01*
X236394666Y-79130104D02*
X236347047Y-79272961D01*
X236347047Y-79272961D02*
X236251809Y-79368200D01*
X236251809Y-79368200D02*
X236108952Y-79415819D01*
X236108952Y-79415819D02*
X236013714Y-79415819D01*
X236775619Y-78415819D02*
X237442285Y-78415819D01*
X237442285Y-78415819D02*
X237013714Y-79415819D01*
X236394666Y-86162819D02*
X236394666Y-86877104D01*
X236394666Y-86877104D02*
X236347047Y-87019961D01*
X236347047Y-87019961D02*
X236251809Y-87115200D01*
X236251809Y-87115200D02*
X236108952Y-87162819D01*
X236108952Y-87162819D02*
X236013714Y-87162819D01*
X237299428Y-86162819D02*
X237108952Y-86162819D01*
X237108952Y-86162819D02*
X237013714Y-86210438D01*
X237013714Y-86210438D02*
X236966095Y-86258057D01*
X236966095Y-86258057D02*
X236870857Y-86400914D01*
X236870857Y-86400914D02*
X236823238Y-86591390D01*
X236823238Y-86591390D02*
X236823238Y-86972342D01*
X236823238Y-86972342D02*
X236870857Y-87067580D01*
X236870857Y-87067580D02*
X236918476Y-87115200D01*
X236918476Y-87115200D02*
X237013714Y-87162819D01*
X237013714Y-87162819D02*
X237204190Y-87162819D01*
X237204190Y-87162819D02*
X237299428Y-87115200D01*
X237299428Y-87115200D02*
X237347047Y-87067580D01*
X237347047Y-87067580D02*
X237394666Y-86972342D01*
X237394666Y-86972342D02*
X237394666Y-86734247D01*
X237394666Y-86734247D02*
X237347047Y-86639009D01*
X237347047Y-86639009D02*
X237299428Y-86591390D01*
X237299428Y-86591390D02*
X237204190Y-86543771D01*
X237204190Y-86543771D02*
X237013714Y-86543771D01*
X237013714Y-86543771D02*
X236918476Y-86591390D01*
X236918476Y-86591390D02*
X236870857Y-86639009D01*
X236870857Y-86639009D02*
X236823238Y-86734247D01*
D11*
X205647580Y-76708095D02*
X204838057Y-76708095D01*
X204838057Y-76708095D02*
X204742819Y-76755714D01*
X204742819Y-76755714D02*
X204695200Y-76803333D01*
X204695200Y-76803333D02*
X204647580Y-76898571D01*
X204647580Y-76898571D02*
X204647580Y-77089047D01*
X204647580Y-77089047D02*
X204695200Y-77184285D01*
X204695200Y-77184285D02*
X204742819Y-77231904D01*
X204742819Y-77231904D02*
X204838057Y-77279523D01*
X204838057Y-77279523D02*
X205647580Y-77279523D01*
X205647580Y-77660476D02*
X205647580Y-78279523D01*
X205647580Y-78279523D02*
X205266628Y-77946190D01*
X205266628Y-77946190D02*
X205266628Y-78089047D01*
X205266628Y-78089047D02*
X205219009Y-78184285D01*
X205219009Y-78184285D02*
X205171390Y-78231904D01*
X205171390Y-78231904D02*
X205076152Y-78279523D01*
X205076152Y-78279523D02*
X204838057Y-78279523D01*
X204838057Y-78279523D02*
X204742819Y-78231904D01*
X204742819Y-78231904D02*
X204695200Y-78184285D01*
X204695200Y-78184285D02*
X204647580Y-78089047D01*
X204647580Y-78089047D02*
X204647580Y-77803333D01*
X204647580Y-77803333D02*
X204695200Y-77708095D01*
X204695200Y-77708095D02*
X204742819Y-77660476D01*
X186136598Y-78231371D02*
X186088979Y-78183752D01*
X186088979Y-78183752D02*
X185993741Y-78040895D01*
X185993741Y-78040895D02*
X185946122Y-77945657D01*
X185946122Y-77945657D02*
X185898503Y-77802800D01*
X185898503Y-77802800D02*
X185850884Y-77564704D01*
X185850884Y-77564704D02*
X185850884Y-77374228D01*
X185850884Y-77374228D02*
X185898503Y-77136133D01*
X185898503Y-77136133D02*
X185946122Y-76993276D01*
X185946122Y-76993276D02*
X185993741Y-76898038D01*
X185993741Y-76898038D02*
X186088979Y-76755180D01*
X186088979Y-76755180D02*
X186136598Y-76707561D01*
X186469932Y-77802800D02*
X186612789Y-77850419D01*
X186612789Y-77850419D02*
X186850884Y-77850419D01*
X186850884Y-77850419D02*
X186946122Y-77802800D01*
X186946122Y-77802800D02*
X186993741Y-77755180D01*
X186993741Y-77755180D02*
X187041360Y-77659942D01*
X187041360Y-77659942D02*
X187041360Y-77564704D01*
X187041360Y-77564704D02*
X186993741Y-77469466D01*
X186993741Y-77469466D02*
X186946122Y-77421847D01*
X186946122Y-77421847D02*
X186850884Y-77374228D01*
X186850884Y-77374228D02*
X186660408Y-77326609D01*
X186660408Y-77326609D02*
X186565170Y-77278990D01*
X186565170Y-77278990D02*
X186517551Y-77231371D01*
X186517551Y-77231371D02*
X186469932Y-77136133D01*
X186469932Y-77136133D02*
X186469932Y-77040895D01*
X186469932Y-77040895D02*
X186517551Y-76945657D01*
X186517551Y-76945657D02*
X186565170Y-76898038D01*
X186565170Y-76898038D02*
X186660408Y-76850419D01*
X186660408Y-76850419D02*
X186898503Y-76850419D01*
X186898503Y-76850419D02*
X187041360Y-76898038D01*
X187374694Y-78231371D02*
X187422313Y-78183752D01*
X187422313Y-78183752D02*
X187517551Y-78040895D01*
X187517551Y-78040895D02*
X187565170Y-77945657D01*
X187565170Y-77945657D02*
X187612789Y-77802800D01*
X187612789Y-77802800D02*
X187660408Y-77564704D01*
X187660408Y-77564704D02*
X187660408Y-77374228D01*
X187660408Y-77374228D02*
X187612789Y-77136133D01*
X187612789Y-77136133D02*
X187565170Y-76993276D01*
X187565170Y-76993276D02*
X187517551Y-76898038D01*
X187517551Y-76898038D02*
X187422313Y-76755180D01*
X187422313Y-76755180D02*
X187374694Y-76707561D01*
X188088980Y-77802800D02*
X188231837Y-77850419D01*
X188231837Y-77850419D02*
X188469932Y-77850419D01*
X188469932Y-77850419D02*
X188565170Y-77802800D01*
X188565170Y-77802800D02*
X188612789Y-77755180D01*
X188612789Y-77755180D02*
X188660408Y-77659942D01*
X188660408Y-77659942D02*
X188660408Y-77564704D01*
X188660408Y-77564704D02*
X188612789Y-77469466D01*
X188612789Y-77469466D02*
X188565170Y-77421847D01*
X188565170Y-77421847D02*
X188469932Y-77374228D01*
X188469932Y-77374228D02*
X188279456Y-77326609D01*
X188279456Y-77326609D02*
X188184218Y-77278990D01*
X188184218Y-77278990D02*
X188136599Y-77231371D01*
X188136599Y-77231371D02*
X188088980Y-77136133D01*
X188088980Y-77136133D02*
X188088980Y-77040895D01*
X188088980Y-77040895D02*
X188136599Y-76945657D01*
X188136599Y-76945657D02*
X188184218Y-76898038D01*
X188184218Y-76898038D02*
X188279456Y-76850419D01*
X188279456Y-76850419D02*
X188517551Y-76850419D01*
X188517551Y-76850419D02*
X188660408Y-76898038D01*
X189279456Y-76850419D02*
X189469932Y-76850419D01*
X189469932Y-76850419D02*
X189565170Y-76898038D01*
X189565170Y-76898038D02*
X189660408Y-76993276D01*
X189660408Y-76993276D02*
X189708027Y-77183752D01*
X189708027Y-77183752D02*
X189708027Y-77517085D01*
X189708027Y-77517085D02*
X189660408Y-77707561D01*
X189660408Y-77707561D02*
X189565170Y-77802800D01*
X189565170Y-77802800D02*
X189469932Y-77850419D01*
X189469932Y-77850419D02*
X189279456Y-77850419D01*
X189279456Y-77850419D02*
X189184218Y-77802800D01*
X189184218Y-77802800D02*
X189088980Y-77707561D01*
X189088980Y-77707561D02*
X189041361Y-77517085D01*
X189041361Y-77517085D02*
X189041361Y-77183752D01*
X189041361Y-77183752D02*
X189088980Y-76993276D01*
X189088980Y-76993276D02*
X189184218Y-76898038D01*
X189184218Y-76898038D02*
X189279456Y-76850419D01*
X190136599Y-77850419D02*
X190136599Y-76850419D01*
X190136599Y-76850419D02*
X190517551Y-76850419D01*
X190517551Y-76850419D02*
X190612789Y-76898038D01*
X190612789Y-76898038D02*
X190660408Y-76945657D01*
X190660408Y-76945657D02*
X190708027Y-77040895D01*
X190708027Y-77040895D02*
X190708027Y-77183752D01*
X190708027Y-77183752D02*
X190660408Y-77278990D01*
X190660408Y-77278990D02*
X190612789Y-77326609D01*
X190612789Y-77326609D02*
X190517551Y-77374228D01*
X190517551Y-77374228D02*
X190136599Y-77374228D01*
X191660408Y-77850419D02*
X191088980Y-77850419D01*
X191374694Y-77850419D02*
X191374694Y-76850419D01*
X191374694Y-76850419D02*
X191279456Y-76993276D01*
X191279456Y-76993276D02*
X191184218Y-77088514D01*
X191184218Y-77088514D02*
X191088980Y-77136133D01*
X192517551Y-77183752D02*
X192517551Y-77850419D01*
X192279456Y-76802800D02*
X192041361Y-77517085D01*
X192041361Y-77517085D02*
X192660408Y-77517085D01*
D10*
X135556666Y-72004819D02*
X135556666Y-72719104D01*
X135556666Y-72719104D02*
X135509047Y-72861961D01*
X135509047Y-72861961D02*
X135413809Y-72957200D01*
X135413809Y-72957200D02*
X135270952Y-73004819D01*
X135270952Y-73004819D02*
X135175714Y-73004819D01*
X135937619Y-72004819D02*
X136556666Y-72004819D01*
X136556666Y-72004819D02*
X136223333Y-72385771D01*
X136223333Y-72385771D02*
X136366190Y-72385771D01*
X136366190Y-72385771D02*
X136461428Y-72433390D01*
X136461428Y-72433390D02*
X136509047Y-72481009D01*
X136509047Y-72481009D02*
X136556666Y-72576247D01*
X136556666Y-72576247D02*
X136556666Y-72814342D01*
X136556666Y-72814342D02*
X136509047Y-72909580D01*
X136509047Y-72909580D02*
X136461428Y-72957200D01*
X136461428Y-72957200D02*
X136366190Y-73004819D01*
X136366190Y-73004819D02*
X136080476Y-73004819D01*
X136080476Y-73004819D02*
X135985238Y-72957200D01*
X135985238Y-72957200D02*
X135937619Y-72909580D01*
X135556666Y-37074819D02*
X135556666Y-37789104D01*
X135556666Y-37789104D02*
X135509047Y-37931961D01*
X135509047Y-37931961D02*
X135413809Y-38027200D01*
X135413809Y-38027200D02*
X135270952Y-38074819D01*
X135270952Y-38074819D02*
X135175714Y-38074819D01*
X136509047Y-37074819D02*
X136032857Y-37074819D01*
X136032857Y-37074819D02*
X135985238Y-37551009D01*
X135985238Y-37551009D02*
X136032857Y-37503390D01*
X136032857Y-37503390D02*
X136128095Y-37455771D01*
X136128095Y-37455771D02*
X136366190Y-37455771D01*
X136366190Y-37455771D02*
X136461428Y-37503390D01*
X136461428Y-37503390D02*
X136509047Y-37551009D01*
X136509047Y-37551009D02*
X136556666Y-37646247D01*
X136556666Y-37646247D02*
X136556666Y-37884342D01*
X136556666Y-37884342D02*
X136509047Y-37979580D01*
X136509047Y-37979580D02*
X136461428Y-38027200D01*
X136461428Y-38027200D02*
X136366190Y-38074819D01*
X136366190Y-38074819D02*
X136128095Y-38074819D01*
X136128095Y-38074819D02*
X136032857Y-38027200D01*
X136032857Y-38027200D02*
X135985238Y-37979580D01*
D11*
X169047580Y-50038095D02*
X168238057Y-50038095D01*
X168238057Y-50038095D02*
X168142819Y-50085714D01*
X168142819Y-50085714D02*
X168095200Y-50133333D01*
X168095200Y-50133333D02*
X168047580Y-50228571D01*
X168047580Y-50228571D02*
X168047580Y-50419047D01*
X168047580Y-50419047D02*
X168095200Y-50514285D01*
X168095200Y-50514285D02*
X168142819Y-50561904D01*
X168142819Y-50561904D02*
X168238057Y-50609523D01*
X168238057Y-50609523D02*
X169047580Y-50609523D01*
X168952342Y-51038095D02*
X168999961Y-51085714D01*
X168999961Y-51085714D02*
X169047580Y-51180952D01*
X169047580Y-51180952D02*
X169047580Y-51419047D01*
X169047580Y-51419047D02*
X168999961Y-51514285D01*
X168999961Y-51514285D02*
X168952342Y-51561904D01*
X168952342Y-51561904D02*
X168857104Y-51609523D01*
X168857104Y-51609523D02*
X168761866Y-51609523D01*
X168761866Y-51609523D02*
X168619009Y-51561904D01*
X168619009Y-51561904D02*
X168047580Y-50990476D01*
X168047580Y-50990476D02*
X168047580Y-51609523D01*
D12*
%TO.C,J2*%
X134510000Y-58945000D02*
X135890000Y-58945000D01*
X134510000Y-60325000D02*
X134510000Y-58945000D01*
X134510000Y-61595000D02*
X134510000Y-69325000D01*
X134510000Y-61595000D02*
X137270000Y-61595000D01*
X134510000Y-69325000D02*
X137270000Y-69325000D01*
X137270000Y-61595000D02*
X137270000Y-69325000D01*
%TO.C,U5*%
D11*
X229362000Y-42164000D02*
X209042000Y-42164000D01*
X209042000Y-59944000D01*
X229362000Y-59944000D01*
X229362000Y-42164000D01*
X226822000Y-41656000D02*
X226060000Y-40386000D01*
X227584000Y-40386000D01*
X226822000Y-41656000D01*
G36*
X226822000Y-41656000D02*
G01*
X226060000Y-40386000D01*
X227584000Y-40386000D01*
X226822000Y-41656000D01*
G37*
X223520000Y-50038000D02*
X222504000Y-50038000D01*
X222504000Y-52070000D01*
X223520000Y-52070000D01*
X223520000Y-53848000D01*
X214376000Y-53848000D01*
X214376000Y-48260000D01*
X223520000Y-48260000D01*
X223520000Y-50038000D01*
%TO.C,U1*%
X169859600Y-69681600D02*
X148605600Y-69681600D01*
X148605600Y-85281600D01*
X169859600Y-85281600D01*
X169859600Y-69681600D01*
X168249600Y-69353600D02*
X167487600Y-68083600D01*
X169011600Y-68083600D01*
X168249600Y-69353600D01*
G36*
X168249600Y-69353600D02*
G01*
X167487600Y-68083600D01*
X169011600Y-68083600D01*
X168249600Y-69353600D01*
G37*
X164439600Y-76465600D02*
X163423600Y-76465600D01*
X163423600Y-78497600D01*
X164439600Y-78497600D01*
X164439600Y-80275600D01*
X155295600Y-80275600D01*
X155295600Y-74687600D01*
X164439600Y-74687600D01*
X164439600Y-76465600D01*
D12*
%TO.C,J1*%
X134510000Y-84980000D02*
X135890000Y-84980000D01*
X134510000Y-86360000D02*
X134510000Y-84980000D01*
X134510000Y-87630000D02*
X134510000Y-95360000D01*
X134510000Y-87630000D02*
X137270000Y-87630000D01*
X134510000Y-95360000D02*
X137270000Y-95360000D01*
X137270000Y-87630000D02*
X137270000Y-95360000D01*
%TO.C,U4*%
D11*
X229489000Y-68580000D02*
X209169000Y-68580000D01*
X209169000Y-86360000D01*
X229489000Y-86360000D01*
X229489000Y-68580000D01*
X226949000Y-68072000D02*
X226187000Y-66802000D01*
X227711000Y-66802000D01*
X226949000Y-68072000D01*
G36*
X226949000Y-68072000D02*
G01*
X226187000Y-66802000D01*
X227711000Y-66802000D01*
X226949000Y-68072000D01*
G37*
X223647000Y-76454000D02*
X222631000Y-76454000D01*
X222631000Y-78486000D01*
X223647000Y-78486000D01*
X223647000Y-80264000D01*
X214503000Y-80264000D01*
X214503000Y-74676000D01*
X223647000Y-74676000D01*
X223647000Y-76454000D01*
D12*
%TO.C,J4*%
X134510000Y-47515000D02*
X135890000Y-47515000D01*
X134510000Y-48895000D02*
X134510000Y-47515000D01*
X134510000Y-50165000D02*
X134510000Y-55355000D01*
X134510000Y-50165000D02*
X137270000Y-50165000D01*
X134510000Y-55355000D02*
X137270000Y-55355000D01*
X137270000Y-50165000D02*
X137270000Y-55355000D01*
%TO.C,J7*%
X235348000Y-75311000D02*
X235348000Y-72661000D01*
X238108000Y-72661000D02*
X235348000Y-72661000D01*
X238108000Y-75311000D02*
X235348000Y-75311000D01*
X238108000Y-75311000D02*
X238108000Y-72661000D01*
X238108000Y-76581000D02*
X238108000Y-77961000D01*
X238108000Y-77961000D02*
X236728000Y-77961000D01*
%TO.C,J6*%
X235348000Y-83058000D02*
X235348000Y-80408000D01*
X238108000Y-80408000D02*
X235348000Y-80408000D01*
X238108000Y-83058000D02*
X235348000Y-83058000D01*
X238108000Y-83058000D02*
X238108000Y-80408000D01*
X238108000Y-84328000D02*
X238108000Y-85708000D01*
X238108000Y-85708000D02*
X236728000Y-85708000D01*
%TO.C,U3*%
D11*
X200025000Y-68580000D02*
X179705000Y-68580000D01*
X179705000Y-86360000D01*
X200025000Y-86360000D01*
X200025000Y-68580000D01*
X197485000Y-68072000D02*
X196723000Y-66802000D01*
X198247000Y-66802000D01*
X197485000Y-68072000D01*
G36*
X197485000Y-68072000D02*
G01*
X196723000Y-66802000D01*
X198247000Y-66802000D01*
X197485000Y-68072000D01*
G37*
X194183000Y-76454000D02*
X193167000Y-76454000D01*
X193167000Y-78486000D01*
X194183000Y-78486000D01*
X194183000Y-80264000D01*
X185039000Y-80264000D01*
X185039000Y-74676000D01*
X194183000Y-74676000D01*
X194183000Y-76454000D01*
D12*
%TO.C,J3*%
X134510000Y-73550000D02*
X135890000Y-73550000D01*
X134510000Y-74930000D02*
X134510000Y-73550000D01*
X134510000Y-76200000D02*
X134510000Y-81390000D01*
X134510000Y-76200000D02*
X137270000Y-76200000D01*
X134510000Y-81390000D02*
X137270000Y-81390000D01*
X137270000Y-76200000D02*
X137270000Y-81390000D01*
%TO.C,J5*%
X134510000Y-38620000D02*
X135890000Y-38620000D01*
X134510000Y-40000000D02*
X134510000Y-38620000D01*
X134510000Y-41270000D02*
X134510000Y-43920000D01*
X134510000Y-41270000D02*
X137270000Y-41270000D01*
X134510000Y-43920000D02*
X137270000Y-43920000D01*
X137270000Y-41270000D02*
X137270000Y-43920000D01*
%TO.C,U2*%
D11*
X163195000Y-44450000D02*
X150495000Y-44450000D01*
X150495000Y-57150000D01*
X163195000Y-57150000D01*
X163195000Y-44450000D01*
X160655000Y-44196000D02*
X159893000Y-43180000D01*
X161417000Y-43180000D01*
X160655000Y-44196000D01*
G36*
X160655000Y-44196000D02*
G01*
X159893000Y-43180000D01*
X161417000Y-43180000D01*
X160655000Y-44196000D01*
G37*
%TD*%
M02*
