%TF.GenerationSoftware,KiCad,Pcbnew,9.0.3*%
%TF.CreationDate,2025-08-28T11:24:01-04:00*%
%TF.ProjectId,signal_conditioner,7369676e-616c-45f6-936f-6e646974696f,rev?*%
%TF.SameCoordinates,Original*%
%TF.FileFunction,Legend,Bot*%
%TF.FilePolarity,Positive*%
%FSLAX46Y46*%
G04 Gerber Fmt 4.6, Leading zero omitted, Abs format (unit mm)*
G04 Created by KiCad (PCBNEW 9.0.3) date 2025-08-28 11:24:01*
%MOMM*%
%LPD*%
G01*
G04 APERTURE LIST*
%ADD10C,0.150000*%
%ADD11C,0.120000*%
G04 APERTURE END LIST*
D10*
X160204819Y-40133333D02*
X159728628Y-39800000D01*
X160204819Y-39561905D02*
X159204819Y-39561905D01*
X159204819Y-39561905D02*
X159204819Y-39942857D01*
X159204819Y-39942857D02*
X159252438Y-40038095D01*
X159252438Y-40038095D02*
X159300057Y-40085714D01*
X159300057Y-40085714D02*
X159395295Y-40133333D01*
X159395295Y-40133333D02*
X159538152Y-40133333D01*
X159538152Y-40133333D02*
X159633390Y-40085714D01*
X159633390Y-40085714D02*
X159681009Y-40038095D01*
X159681009Y-40038095D02*
X159728628Y-39942857D01*
X159728628Y-39942857D02*
X159728628Y-39561905D01*
X159300057Y-40514286D02*
X159252438Y-40561905D01*
X159252438Y-40561905D02*
X159204819Y-40657143D01*
X159204819Y-40657143D02*
X159204819Y-40895238D01*
X159204819Y-40895238D02*
X159252438Y-40990476D01*
X159252438Y-40990476D02*
X159300057Y-41038095D01*
X159300057Y-41038095D02*
X159395295Y-41085714D01*
X159395295Y-41085714D02*
X159490533Y-41085714D01*
X159490533Y-41085714D02*
X159633390Y-41038095D01*
X159633390Y-41038095D02*
X160204819Y-40466667D01*
X160204819Y-40466667D02*
X160204819Y-41085714D01*
X206620904Y-82382819D02*
X206049476Y-82382819D01*
X206335190Y-83382819D02*
X206335190Y-82382819D01*
X205716142Y-83382819D02*
X205716142Y-82382819D01*
X205716142Y-82382819D02*
X205335190Y-82382819D01*
X205335190Y-82382819D02*
X205239952Y-82430438D01*
X205239952Y-82430438D02*
X205192333Y-82478057D01*
X205192333Y-82478057D02*
X205144714Y-82573295D01*
X205144714Y-82573295D02*
X205144714Y-82716152D01*
X205144714Y-82716152D02*
X205192333Y-82811390D01*
X205192333Y-82811390D02*
X205239952Y-82859009D01*
X205239952Y-82859009D02*
X205335190Y-82906628D01*
X205335190Y-82906628D02*
X205716142Y-82906628D01*
X204287571Y-82716152D02*
X204287571Y-83382819D01*
X204525666Y-82335200D02*
X204763761Y-83049485D01*
X204763761Y-83049485D02*
X204144714Y-83049485D01*
X193804819Y-58301142D02*
X193328628Y-57967809D01*
X193804819Y-57729714D02*
X192804819Y-57729714D01*
X192804819Y-57729714D02*
X192804819Y-58110666D01*
X192804819Y-58110666D02*
X192852438Y-58205904D01*
X192852438Y-58205904D02*
X192900057Y-58253523D01*
X192900057Y-58253523D02*
X192995295Y-58301142D01*
X192995295Y-58301142D02*
X193138152Y-58301142D01*
X193138152Y-58301142D02*
X193233390Y-58253523D01*
X193233390Y-58253523D02*
X193281009Y-58205904D01*
X193281009Y-58205904D02*
X193328628Y-58110666D01*
X193328628Y-58110666D02*
X193328628Y-57729714D01*
X193804819Y-59253523D02*
X193804819Y-58682095D01*
X193804819Y-58967809D02*
X192804819Y-58967809D01*
X192804819Y-58967809D02*
X192947676Y-58872571D01*
X192947676Y-58872571D02*
X193042914Y-58777333D01*
X193042914Y-58777333D02*
X193090533Y-58682095D01*
X192804819Y-59872571D02*
X192804819Y-59967809D01*
X192804819Y-59967809D02*
X192852438Y-60063047D01*
X192852438Y-60063047D02*
X192900057Y-60110666D01*
X192900057Y-60110666D02*
X192995295Y-60158285D01*
X192995295Y-60158285D02*
X193185771Y-60205904D01*
X193185771Y-60205904D02*
X193423866Y-60205904D01*
X193423866Y-60205904D02*
X193614342Y-60158285D01*
X193614342Y-60158285D02*
X193709580Y-60110666D01*
X193709580Y-60110666D02*
X193757200Y-60063047D01*
X193757200Y-60063047D02*
X193804819Y-59967809D01*
X193804819Y-59967809D02*
X193804819Y-59872571D01*
X193804819Y-59872571D02*
X193757200Y-59777333D01*
X193757200Y-59777333D02*
X193709580Y-59729714D01*
X193709580Y-59729714D02*
X193614342Y-59682095D01*
X193614342Y-59682095D02*
X193423866Y-59634476D01*
X193423866Y-59634476D02*
X193185771Y-59634476D01*
X193185771Y-59634476D02*
X192995295Y-59682095D01*
X192995295Y-59682095D02*
X192900057Y-59729714D01*
X192900057Y-59729714D02*
X192852438Y-59777333D01*
X192852438Y-59777333D02*
X192804819Y-59872571D01*
X180454819Y-99342142D02*
X179978628Y-99008809D01*
X180454819Y-98770714D02*
X179454819Y-98770714D01*
X179454819Y-98770714D02*
X179454819Y-99151666D01*
X179454819Y-99151666D02*
X179502438Y-99246904D01*
X179502438Y-99246904D02*
X179550057Y-99294523D01*
X179550057Y-99294523D02*
X179645295Y-99342142D01*
X179645295Y-99342142D02*
X179788152Y-99342142D01*
X179788152Y-99342142D02*
X179883390Y-99294523D01*
X179883390Y-99294523D02*
X179931009Y-99246904D01*
X179931009Y-99246904D02*
X179978628Y-99151666D01*
X179978628Y-99151666D02*
X179978628Y-98770714D01*
X180454819Y-100294523D02*
X180454819Y-99723095D01*
X180454819Y-100008809D02*
X179454819Y-100008809D01*
X179454819Y-100008809D02*
X179597676Y-99913571D01*
X179597676Y-99913571D02*
X179692914Y-99818333D01*
X179692914Y-99818333D02*
X179740533Y-99723095D01*
X179550057Y-100675476D02*
X179502438Y-100723095D01*
X179502438Y-100723095D02*
X179454819Y-100818333D01*
X179454819Y-100818333D02*
X179454819Y-101056428D01*
X179454819Y-101056428D02*
X179502438Y-101151666D01*
X179502438Y-101151666D02*
X179550057Y-101199285D01*
X179550057Y-101199285D02*
X179645295Y-101246904D01*
X179645295Y-101246904D02*
X179740533Y-101246904D01*
X179740533Y-101246904D02*
X179883390Y-101199285D01*
X179883390Y-101199285D02*
X180454819Y-100627857D01*
X180454819Y-100627857D02*
X180454819Y-101246904D01*
X206366904Y-75270819D02*
X205795476Y-75270819D01*
X206081190Y-76270819D02*
X206081190Y-75270819D01*
X205462142Y-76270819D02*
X205462142Y-75270819D01*
X205462142Y-75270819D02*
X205081190Y-75270819D01*
X205081190Y-75270819D02*
X204985952Y-75318438D01*
X204985952Y-75318438D02*
X204938333Y-75366057D01*
X204938333Y-75366057D02*
X204890714Y-75461295D01*
X204890714Y-75461295D02*
X204890714Y-75604152D01*
X204890714Y-75604152D02*
X204938333Y-75699390D01*
X204938333Y-75699390D02*
X204985952Y-75747009D01*
X204985952Y-75747009D02*
X205081190Y-75794628D01*
X205081190Y-75794628D02*
X205462142Y-75794628D01*
X203985952Y-75270819D02*
X204462142Y-75270819D01*
X204462142Y-75270819D02*
X204509761Y-75747009D01*
X204509761Y-75747009D02*
X204462142Y-75699390D01*
X204462142Y-75699390D02*
X204366904Y-75651771D01*
X204366904Y-75651771D02*
X204128809Y-75651771D01*
X204128809Y-75651771D02*
X204033571Y-75699390D01*
X204033571Y-75699390D02*
X203985952Y-75747009D01*
X203985952Y-75747009D02*
X203938333Y-75842247D01*
X203938333Y-75842247D02*
X203938333Y-76080342D01*
X203938333Y-76080342D02*
X203985952Y-76175580D01*
X203985952Y-76175580D02*
X204033571Y-76223200D01*
X204033571Y-76223200D02*
X204128809Y-76270819D01*
X204128809Y-76270819D02*
X204366904Y-76270819D01*
X204366904Y-76270819D02*
X204462142Y-76223200D01*
X204462142Y-76223200D02*
X204509761Y-76175580D01*
X181049819Y-58301142D02*
X180573628Y-57967809D01*
X181049819Y-57729714D02*
X180049819Y-57729714D01*
X180049819Y-57729714D02*
X180049819Y-58110666D01*
X180049819Y-58110666D02*
X180097438Y-58205904D01*
X180097438Y-58205904D02*
X180145057Y-58253523D01*
X180145057Y-58253523D02*
X180240295Y-58301142D01*
X180240295Y-58301142D02*
X180383152Y-58301142D01*
X180383152Y-58301142D02*
X180478390Y-58253523D01*
X180478390Y-58253523D02*
X180526009Y-58205904D01*
X180526009Y-58205904D02*
X180573628Y-58110666D01*
X180573628Y-58110666D02*
X180573628Y-57729714D01*
X181049819Y-59253523D02*
X181049819Y-58682095D01*
X181049819Y-58967809D02*
X180049819Y-58967809D01*
X180049819Y-58967809D02*
X180192676Y-58872571D01*
X180192676Y-58872571D02*
X180287914Y-58777333D01*
X180287914Y-58777333D02*
X180335533Y-58682095D01*
X181049819Y-60205904D02*
X181049819Y-59634476D01*
X181049819Y-59920190D02*
X180049819Y-59920190D01*
X180049819Y-59920190D02*
X180192676Y-59824952D01*
X180192676Y-59824952D02*
X180287914Y-59729714D01*
X180287914Y-59729714D02*
X180335533Y-59634476D01*
X221352904Y-96733819D02*
X220781476Y-96733819D01*
X221067190Y-97733819D02*
X221067190Y-96733819D01*
X220448142Y-97733819D02*
X220448142Y-96733819D01*
X220448142Y-96733819D02*
X220067190Y-96733819D01*
X220067190Y-96733819D02*
X219971952Y-96781438D01*
X219971952Y-96781438D02*
X219924333Y-96829057D01*
X219924333Y-96829057D02*
X219876714Y-96924295D01*
X219876714Y-96924295D02*
X219876714Y-97067152D01*
X219876714Y-97067152D02*
X219924333Y-97162390D01*
X219924333Y-97162390D02*
X219971952Y-97210009D01*
X219971952Y-97210009D02*
X220067190Y-97257628D01*
X220067190Y-97257628D02*
X220448142Y-97257628D01*
X219543380Y-96733819D02*
X218924333Y-96733819D01*
X218924333Y-96733819D02*
X219257666Y-97114771D01*
X219257666Y-97114771D02*
X219114809Y-97114771D01*
X219114809Y-97114771D02*
X219019571Y-97162390D01*
X219019571Y-97162390D02*
X218971952Y-97210009D01*
X218971952Y-97210009D02*
X218924333Y-97305247D01*
X218924333Y-97305247D02*
X218924333Y-97543342D01*
X218924333Y-97543342D02*
X218971952Y-97638580D01*
X218971952Y-97638580D02*
X219019571Y-97686200D01*
X219019571Y-97686200D02*
X219114809Y-97733819D01*
X219114809Y-97733819D02*
X219400523Y-97733819D01*
X219400523Y-97733819D02*
X219495761Y-97686200D01*
X219495761Y-97686200D02*
X219543380Y-97638580D01*
X168093819Y-55475333D02*
X167617628Y-55142000D01*
X168093819Y-54903905D02*
X167093819Y-54903905D01*
X167093819Y-54903905D02*
X167093819Y-55284857D01*
X167093819Y-55284857D02*
X167141438Y-55380095D01*
X167141438Y-55380095D02*
X167189057Y-55427714D01*
X167189057Y-55427714D02*
X167284295Y-55475333D01*
X167284295Y-55475333D02*
X167427152Y-55475333D01*
X167427152Y-55475333D02*
X167522390Y-55427714D01*
X167522390Y-55427714D02*
X167570009Y-55380095D01*
X167570009Y-55380095D02*
X167617628Y-55284857D01*
X167617628Y-55284857D02*
X167617628Y-54903905D01*
X167093819Y-55808667D02*
X167093819Y-56427714D01*
X167093819Y-56427714D02*
X167474771Y-56094381D01*
X167474771Y-56094381D02*
X167474771Y-56237238D01*
X167474771Y-56237238D02*
X167522390Y-56332476D01*
X167522390Y-56332476D02*
X167570009Y-56380095D01*
X167570009Y-56380095D02*
X167665247Y-56427714D01*
X167665247Y-56427714D02*
X167903342Y-56427714D01*
X167903342Y-56427714D02*
X167998580Y-56380095D01*
X167998580Y-56380095D02*
X168046200Y-56332476D01*
X168046200Y-56332476D02*
X168093819Y-56237238D01*
X168093819Y-56237238D02*
X168093819Y-55951524D01*
X168093819Y-55951524D02*
X168046200Y-55856286D01*
X168046200Y-55856286D02*
X167998580Y-55808667D01*
X176476819Y-53884142D02*
X176000628Y-53550809D01*
X176476819Y-53312714D02*
X175476819Y-53312714D01*
X175476819Y-53312714D02*
X175476819Y-53693666D01*
X175476819Y-53693666D02*
X175524438Y-53788904D01*
X175524438Y-53788904D02*
X175572057Y-53836523D01*
X175572057Y-53836523D02*
X175667295Y-53884142D01*
X175667295Y-53884142D02*
X175810152Y-53884142D01*
X175810152Y-53884142D02*
X175905390Y-53836523D01*
X175905390Y-53836523D02*
X175953009Y-53788904D01*
X175953009Y-53788904D02*
X176000628Y-53693666D01*
X176000628Y-53693666D02*
X176000628Y-53312714D01*
X176476819Y-54836523D02*
X176476819Y-54265095D01*
X176476819Y-54550809D02*
X175476819Y-54550809D01*
X175476819Y-54550809D02*
X175619676Y-54455571D01*
X175619676Y-54455571D02*
X175714914Y-54360333D01*
X175714914Y-54360333D02*
X175762533Y-54265095D01*
X175476819Y-55169857D02*
X175476819Y-55788904D01*
X175476819Y-55788904D02*
X175857771Y-55455571D01*
X175857771Y-55455571D02*
X175857771Y-55598428D01*
X175857771Y-55598428D02*
X175905390Y-55693666D01*
X175905390Y-55693666D02*
X175953009Y-55741285D01*
X175953009Y-55741285D02*
X176048247Y-55788904D01*
X176048247Y-55788904D02*
X176286342Y-55788904D01*
X176286342Y-55788904D02*
X176381580Y-55741285D01*
X176381580Y-55741285D02*
X176429200Y-55693666D01*
X176429200Y-55693666D02*
X176476819Y-55598428D01*
X176476819Y-55598428D02*
X176476819Y-55312714D01*
X176476819Y-55312714D02*
X176429200Y-55217476D01*
X176429200Y-55217476D02*
X176381580Y-55169857D01*
X173554819Y-55475333D02*
X173078628Y-55142000D01*
X173554819Y-54903905D02*
X172554819Y-54903905D01*
X172554819Y-54903905D02*
X172554819Y-55284857D01*
X172554819Y-55284857D02*
X172602438Y-55380095D01*
X172602438Y-55380095D02*
X172650057Y-55427714D01*
X172650057Y-55427714D02*
X172745295Y-55475333D01*
X172745295Y-55475333D02*
X172888152Y-55475333D01*
X172888152Y-55475333D02*
X172983390Y-55427714D01*
X172983390Y-55427714D02*
X173031009Y-55380095D01*
X173031009Y-55380095D02*
X173078628Y-55284857D01*
X173078628Y-55284857D02*
X173078628Y-54903905D01*
X172888152Y-56332476D02*
X173554819Y-56332476D01*
X172507200Y-56094381D02*
X173221485Y-55856286D01*
X173221485Y-55856286D02*
X173221485Y-56475333D01*
X175454819Y-99357142D02*
X174978628Y-99023809D01*
X175454819Y-98785714D02*
X174454819Y-98785714D01*
X174454819Y-98785714D02*
X174454819Y-99166666D01*
X174454819Y-99166666D02*
X174502438Y-99261904D01*
X174502438Y-99261904D02*
X174550057Y-99309523D01*
X174550057Y-99309523D02*
X174645295Y-99357142D01*
X174645295Y-99357142D02*
X174788152Y-99357142D01*
X174788152Y-99357142D02*
X174883390Y-99309523D01*
X174883390Y-99309523D02*
X174931009Y-99261904D01*
X174931009Y-99261904D02*
X174978628Y-99166666D01*
X174978628Y-99166666D02*
X174978628Y-98785714D01*
X175454819Y-100309523D02*
X175454819Y-99738095D01*
X175454819Y-100023809D02*
X174454819Y-100023809D01*
X174454819Y-100023809D02*
X174597676Y-99928571D01*
X174597676Y-99928571D02*
X174692914Y-99833333D01*
X174692914Y-99833333D02*
X174740533Y-99738095D01*
X174788152Y-101166666D02*
X175454819Y-101166666D01*
X174407200Y-100928571D02*
X175121485Y-100690476D01*
X175121485Y-100690476D02*
X175121485Y-101309523D01*
X187779819Y-99230142D02*
X187303628Y-98896809D01*
X187779819Y-98658714D02*
X186779819Y-98658714D01*
X186779819Y-98658714D02*
X186779819Y-99039666D01*
X186779819Y-99039666D02*
X186827438Y-99134904D01*
X186827438Y-99134904D02*
X186875057Y-99182523D01*
X186875057Y-99182523D02*
X186970295Y-99230142D01*
X186970295Y-99230142D02*
X187113152Y-99230142D01*
X187113152Y-99230142D02*
X187208390Y-99182523D01*
X187208390Y-99182523D02*
X187256009Y-99134904D01*
X187256009Y-99134904D02*
X187303628Y-99039666D01*
X187303628Y-99039666D02*
X187303628Y-98658714D01*
X187779819Y-100182523D02*
X187779819Y-99611095D01*
X187779819Y-99896809D02*
X186779819Y-99896809D01*
X186779819Y-99896809D02*
X186922676Y-99801571D01*
X186922676Y-99801571D02*
X187017914Y-99706333D01*
X187017914Y-99706333D02*
X187065533Y-99611095D01*
X186779819Y-101087285D02*
X186779819Y-100611095D01*
X186779819Y-100611095D02*
X187256009Y-100563476D01*
X187256009Y-100563476D02*
X187208390Y-100611095D01*
X187208390Y-100611095D02*
X187160771Y-100706333D01*
X187160771Y-100706333D02*
X187160771Y-100944428D01*
X187160771Y-100944428D02*
X187208390Y-101039666D01*
X187208390Y-101039666D02*
X187256009Y-101087285D01*
X187256009Y-101087285D02*
X187351247Y-101134904D01*
X187351247Y-101134904D02*
X187589342Y-101134904D01*
X187589342Y-101134904D02*
X187684580Y-101087285D01*
X187684580Y-101087285D02*
X187732200Y-101039666D01*
X187732200Y-101039666D02*
X187779819Y-100944428D01*
X187779819Y-100944428D02*
X187779819Y-100706333D01*
X187779819Y-100706333D02*
X187732200Y-100611095D01*
X187732200Y-100611095D02*
X187684580Y-100563476D01*
X205454819Y-99833333D02*
X204978628Y-99500000D01*
X205454819Y-99261905D02*
X204454819Y-99261905D01*
X204454819Y-99261905D02*
X204454819Y-99642857D01*
X204454819Y-99642857D02*
X204502438Y-99738095D01*
X204502438Y-99738095D02*
X204550057Y-99785714D01*
X204550057Y-99785714D02*
X204645295Y-99833333D01*
X204645295Y-99833333D02*
X204788152Y-99833333D01*
X204788152Y-99833333D02*
X204883390Y-99785714D01*
X204883390Y-99785714D02*
X204931009Y-99738095D01*
X204931009Y-99738095D02*
X204978628Y-99642857D01*
X204978628Y-99642857D02*
X204978628Y-99261905D01*
X204883390Y-100404762D02*
X204835771Y-100309524D01*
X204835771Y-100309524D02*
X204788152Y-100261905D01*
X204788152Y-100261905D02*
X204692914Y-100214286D01*
X204692914Y-100214286D02*
X204645295Y-100214286D01*
X204645295Y-100214286D02*
X204550057Y-100261905D01*
X204550057Y-100261905D02*
X204502438Y-100309524D01*
X204502438Y-100309524D02*
X204454819Y-100404762D01*
X204454819Y-100404762D02*
X204454819Y-100595238D01*
X204454819Y-100595238D02*
X204502438Y-100690476D01*
X204502438Y-100690476D02*
X204550057Y-100738095D01*
X204550057Y-100738095D02*
X204645295Y-100785714D01*
X204645295Y-100785714D02*
X204692914Y-100785714D01*
X204692914Y-100785714D02*
X204788152Y-100738095D01*
X204788152Y-100738095D02*
X204835771Y-100690476D01*
X204835771Y-100690476D02*
X204883390Y-100595238D01*
X204883390Y-100595238D02*
X204883390Y-100404762D01*
X204883390Y-100404762D02*
X204931009Y-100309524D01*
X204931009Y-100309524D02*
X204978628Y-100261905D01*
X204978628Y-100261905D02*
X205073866Y-100214286D01*
X205073866Y-100214286D02*
X205264342Y-100214286D01*
X205264342Y-100214286D02*
X205359580Y-100261905D01*
X205359580Y-100261905D02*
X205407200Y-100309524D01*
X205407200Y-100309524D02*
X205454819Y-100404762D01*
X205454819Y-100404762D02*
X205454819Y-100595238D01*
X205454819Y-100595238D02*
X205407200Y-100690476D01*
X205407200Y-100690476D02*
X205359580Y-100738095D01*
X205359580Y-100738095D02*
X205264342Y-100785714D01*
X205264342Y-100785714D02*
X205073866Y-100785714D01*
X205073866Y-100785714D02*
X204978628Y-100738095D01*
X204978628Y-100738095D02*
X204931009Y-100690476D01*
X204931009Y-100690476D02*
X204883390Y-100595238D01*
X149678819Y-45569333D02*
X149202628Y-45236000D01*
X149678819Y-44997905D02*
X148678819Y-44997905D01*
X148678819Y-44997905D02*
X148678819Y-45378857D01*
X148678819Y-45378857D02*
X148726438Y-45474095D01*
X148726438Y-45474095D02*
X148774057Y-45521714D01*
X148774057Y-45521714D02*
X148869295Y-45569333D01*
X148869295Y-45569333D02*
X149012152Y-45569333D01*
X149012152Y-45569333D02*
X149107390Y-45521714D01*
X149107390Y-45521714D02*
X149155009Y-45474095D01*
X149155009Y-45474095D02*
X149202628Y-45378857D01*
X149202628Y-45378857D02*
X149202628Y-44997905D01*
X149678819Y-46521714D02*
X149678819Y-45950286D01*
X149678819Y-46236000D02*
X148678819Y-46236000D01*
X148678819Y-46236000D02*
X148821676Y-46140762D01*
X148821676Y-46140762D02*
X148916914Y-46045524D01*
X148916914Y-46045524D02*
X148964533Y-45950286D01*
X195454819Y-99738333D02*
X194978628Y-99405000D01*
X195454819Y-99166905D02*
X194454819Y-99166905D01*
X194454819Y-99166905D02*
X194454819Y-99547857D01*
X194454819Y-99547857D02*
X194502438Y-99643095D01*
X194502438Y-99643095D02*
X194550057Y-99690714D01*
X194550057Y-99690714D02*
X194645295Y-99738333D01*
X194645295Y-99738333D02*
X194788152Y-99738333D01*
X194788152Y-99738333D02*
X194883390Y-99690714D01*
X194883390Y-99690714D02*
X194931009Y-99643095D01*
X194931009Y-99643095D02*
X194978628Y-99547857D01*
X194978628Y-99547857D02*
X194978628Y-99166905D01*
X194454819Y-100595476D02*
X194454819Y-100405000D01*
X194454819Y-100405000D02*
X194502438Y-100309762D01*
X194502438Y-100309762D02*
X194550057Y-100262143D01*
X194550057Y-100262143D02*
X194692914Y-100166905D01*
X194692914Y-100166905D02*
X194883390Y-100119286D01*
X194883390Y-100119286D02*
X195264342Y-100119286D01*
X195264342Y-100119286D02*
X195359580Y-100166905D01*
X195359580Y-100166905D02*
X195407200Y-100214524D01*
X195407200Y-100214524D02*
X195454819Y-100309762D01*
X195454819Y-100309762D02*
X195454819Y-100500238D01*
X195454819Y-100500238D02*
X195407200Y-100595476D01*
X195407200Y-100595476D02*
X195359580Y-100643095D01*
X195359580Y-100643095D02*
X195264342Y-100690714D01*
X195264342Y-100690714D02*
X195026247Y-100690714D01*
X195026247Y-100690714D02*
X194931009Y-100643095D01*
X194931009Y-100643095D02*
X194883390Y-100595476D01*
X194883390Y-100595476D02*
X194835771Y-100500238D01*
X194835771Y-100500238D02*
X194835771Y-100309762D01*
X194835771Y-100309762D02*
X194883390Y-100214524D01*
X194883390Y-100214524D02*
X194931009Y-100166905D01*
X194931009Y-100166905D02*
X195026247Y-100119286D01*
X210454819Y-99833333D02*
X209978628Y-99500000D01*
X210454819Y-99261905D02*
X209454819Y-99261905D01*
X209454819Y-99261905D02*
X209454819Y-99642857D01*
X209454819Y-99642857D02*
X209502438Y-99738095D01*
X209502438Y-99738095D02*
X209550057Y-99785714D01*
X209550057Y-99785714D02*
X209645295Y-99833333D01*
X209645295Y-99833333D02*
X209788152Y-99833333D01*
X209788152Y-99833333D02*
X209883390Y-99785714D01*
X209883390Y-99785714D02*
X209931009Y-99738095D01*
X209931009Y-99738095D02*
X209978628Y-99642857D01*
X209978628Y-99642857D02*
X209978628Y-99261905D01*
X210454819Y-100309524D02*
X210454819Y-100500000D01*
X210454819Y-100500000D02*
X210407200Y-100595238D01*
X210407200Y-100595238D02*
X210359580Y-100642857D01*
X210359580Y-100642857D02*
X210216723Y-100738095D01*
X210216723Y-100738095D02*
X210026247Y-100785714D01*
X210026247Y-100785714D02*
X209645295Y-100785714D01*
X209645295Y-100785714D02*
X209550057Y-100738095D01*
X209550057Y-100738095D02*
X209502438Y-100690476D01*
X209502438Y-100690476D02*
X209454819Y-100595238D01*
X209454819Y-100595238D02*
X209454819Y-100404762D01*
X209454819Y-100404762D02*
X209502438Y-100309524D01*
X209502438Y-100309524D02*
X209550057Y-100261905D01*
X209550057Y-100261905D02*
X209645295Y-100214286D01*
X209645295Y-100214286D02*
X209883390Y-100214286D01*
X209883390Y-100214286D02*
X209978628Y-100261905D01*
X209978628Y-100261905D02*
X210026247Y-100309524D01*
X210026247Y-100309524D02*
X210073866Y-100404762D01*
X210073866Y-100404762D02*
X210073866Y-100595238D01*
X210073866Y-100595238D02*
X210026247Y-100690476D01*
X210026247Y-100690476D02*
X209978628Y-100738095D01*
X209978628Y-100738095D02*
X209883390Y-100785714D01*
X200454819Y-99833333D02*
X199978628Y-99500000D01*
X200454819Y-99261905D02*
X199454819Y-99261905D01*
X199454819Y-99261905D02*
X199454819Y-99642857D01*
X199454819Y-99642857D02*
X199502438Y-99738095D01*
X199502438Y-99738095D02*
X199550057Y-99785714D01*
X199550057Y-99785714D02*
X199645295Y-99833333D01*
X199645295Y-99833333D02*
X199788152Y-99833333D01*
X199788152Y-99833333D02*
X199883390Y-99785714D01*
X199883390Y-99785714D02*
X199931009Y-99738095D01*
X199931009Y-99738095D02*
X199978628Y-99642857D01*
X199978628Y-99642857D02*
X199978628Y-99261905D01*
X199454819Y-100166667D02*
X199454819Y-100833333D01*
X199454819Y-100833333D02*
X200454819Y-100404762D01*
X145868819Y-55443333D02*
X145392628Y-55110000D01*
X145868819Y-54871905D02*
X144868819Y-54871905D01*
X144868819Y-54871905D02*
X144868819Y-55252857D01*
X144868819Y-55252857D02*
X144916438Y-55348095D01*
X144916438Y-55348095D02*
X144964057Y-55395714D01*
X144964057Y-55395714D02*
X145059295Y-55443333D01*
X145059295Y-55443333D02*
X145202152Y-55443333D01*
X145202152Y-55443333D02*
X145297390Y-55395714D01*
X145297390Y-55395714D02*
X145345009Y-55348095D01*
X145345009Y-55348095D02*
X145392628Y-55252857D01*
X145392628Y-55252857D02*
X145392628Y-54871905D01*
X144868819Y-56348095D02*
X144868819Y-55871905D01*
X144868819Y-55871905D02*
X145345009Y-55824286D01*
X145345009Y-55824286D02*
X145297390Y-55871905D01*
X145297390Y-55871905D02*
X145249771Y-55967143D01*
X145249771Y-55967143D02*
X145249771Y-56205238D01*
X145249771Y-56205238D02*
X145297390Y-56300476D01*
X145297390Y-56300476D02*
X145345009Y-56348095D01*
X145345009Y-56348095D02*
X145440247Y-56395714D01*
X145440247Y-56395714D02*
X145678342Y-56395714D01*
X145678342Y-56395714D02*
X145773580Y-56348095D01*
X145773580Y-56348095D02*
X145821200Y-56300476D01*
X145821200Y-56300476D02*
X145868819Y-56205238D01*
X145868819Y-56205238D02*
X145868819Y-55967143D01*
X145868819Y-55967143D02*
X145821200Y-55871905D01*
X145821200Y-55871905D02*
X145773580Y-55824286D01*
D11*
%TO.C,R2*%
X157365000Y-40527064D02*
X157365000Y-40072936D01*
X158835000Y-40527064D02*
X158835000Y-40072936D01*
%TO.C,TP4*%
X206309000Y-81280000D02*
G75*
G02*
X204409000Y-81280000I-950000J0D01*
G01*
X204409000Y-81280000D02*
G75*
G02*
X206309000Y-81280000I950000J0D01*
G01*
%TO.C,R10*%
X194265000Y-58716936D02*
X194265000Y-59171064D01*
X195735000Y-58716936D02*
X195735000Y-59171064D01*
%TO.C,R12*%
X179265000Y-95827064D02*
X179265000Y-95372936D01*
X180735000Y-95827064D02*
X180735000Y-95372936D01*
%TO.C,TP5*%
X206055000Y-74168000D02*
G75*
G02*
X204155000Y-74168000I-950000J0D01*
G01*
X204155000Y-74168000D02*
G75*
G02*
X206055000Y-74168000I950000J0D01*
G01*
%TO.C,R11*%
X181510000Y-58716936D02*
X181510000Y-59171064D01*
X182980000Y-58716936D02*
X182980000Y-59171064D01*
%TO.C,TP3*%
X221041000Y-95631000D02*
G75*
G02*
X219141000Y-95631000I-950000J0D01*
G01*
X219141000Y-95631000D02*
G75*
G02*
X221041000Y-95631000I950000J0D01*
G01*
%TO.C,R3*%
X165254000Y-55869064D02*
X165254000Y-55414936D01*
X166724000Y-55869064D02*
X166724000Y-55414936D01*
%TO.C,R13*%
X175287000Y-58684936D02*
X175287000Y-59139064D01*
X176757000Y-58684936D02*
X176757000Y-59139064D01*
%TO.C,R4*%
X170715000Y-55869064D02*
X170715000Y-55414936D01*
X172185000Y-55869064D02*
X172185000Y-55414936D01*
%TO.C,R14*%
X174265000Y-95842064D02*
X174265000Y-95387936D01*
X175735000Y-95842064D02*
X175735000Y-95387936D01*
%TO.C,R15*%
X186590000Y-95260936D02*
X186590000Y-95715064D01*
X188060000Y-95260936D02*
X188060000Y-95715064D01*
%TO.C,R8*%
X204265000Y-95842064D02*
X204265000Y-95387936D01*
X205735000Y-95842064D02*
X205735000Y-95387936D01*
%TO.C,R1*%
X146839000Y-45963064D02*
X146839000Y-45508936D01*
X148309000Y-45963064D02*
X148309000Y-45508936D01*
%TO.C,R6*%
X194265000Y-95747064D02*
X194265000Y-95292936D01*
X195735000Y-95747064D02*
X195735000Y-95292936D01*
%TO.C,R9*%
X209265000Y-95747064D02*
X209265000Y-95292936D01*
X210735000Y-95747064D02*
X210735000Y-95292936D01*
%TO.C,R7*%
X199265000Y-95842064D02*
X199265000Y-95387936D01*
X200735000Y-95842064D02*
X200735000Y-95387936D01*
%TO.C,R5*%
X143029000Y-55837064D02*
X143029000Y-55382936D01*
X144499000Y-55837064D02*
X144499000Y-55382936D01*
%TD*%
M02*
