M48
; DRILL file {KiCad 9.0.3} date 2025-08-28T11:24:08-0400
; FORMAT={-:-/ absolute / inch / decimal}
; #@! TF.CreationDate,2025-08-28T11:24:08-04:00
; #@! TF.GenerationSoftware,Kicad,Pcbnew,9.0.3
; #@! TF.FileFunction,Plated,1,2,PTH
FMAT,2
INCH
; #@! TA.AperFunction,Plated,PTH,ComponentDrill
T1C0.0394
%
G90
G05
T1
X5.35Y-1.5748
X5.35Y-1.6748
X5.35Y-1.925
X5.35Y-2.025
X5.35Y-2.125
X5.35Y-2.375
X5.35Y-2.475
X5.35Y-2.575
X5.35Y-2.675
X5.35Y-2.95
X5.35Y-3.05
X5.35Y-3.15
X5.35Y-3.4
X5.35Y-3.5
X5.35Y-3.6
X5.35Y-3.7
X5.924Y-2.8005
X5.924Y-3.3005
X6.024Y-2.8005
X6.024Y-3.3005
X6.025Y-1.85
X6.025Y-2.15
X6.124Y-2.8005
X6.124Y-3.3005
X6.125Y-1.85
X6.125Y-2.15
X6.224Y-2.8005
X6.224Y-3.3005
X6.225Y-1.85
X6.225Y-2.15
X6.324Y-2.8005
X6.324Y-3.3005
X6.325Y-1.85
X6.325Y-2.15
X6.424Y-2.8005
X6.424Y-3.3005
X6.524Y-2.8005
X6.524Y-3.3005
X6.624Y-2.8005
X6.624Y-3.3005
X7.175Y-2.75
X7.175Y-3.35
X7.275Y-2.75
X7.275Y-3.35
X7.375Y-2.75
X7.375Y-3.35
X7.475Y-2.75
X7.475Y-3.35
X7.575Y-2.75
X7.575Y-3.35
X7.675Y-2.75
X7.675Y-3.35
X7.775Y-2.75
X7.775Y-3.35
X8.33Y-1.71
X8.33Y-2.31
X8.335Y-2.75
X8.335Y-3.35
X8.43Y-1.71
X8.43Y-2.31
X8.435Y-2.75
X8.435Y-3.35
X8.53Y-1.71
X8.53Y-2.31
X8.535Y-2.75
X8.535Y-3.35
X8.63Y-1.71
X8.63Y-2.31
X8.635Y-2.75
X8.635Y-3.35
X8.73Y-1.71
X8.73Y-2.31
X8.735Y-2.75
X8.735Y-3.35
X8.83Y-1.71
X8.83Y-2.31
X8.835Y-2.75
X8.835Y-3.35
X8.93Y-1.71
X8.93Y-2.31
X8.935Y-2.75
X8.935Y-3.35
X9.32Y-2.915
X9.32Y-3.015
X9.32Y-3.22
X9.32Y-3.32
M30
