%TF.GenerationSoftware,KiCad,Pcbnew,9.0.3*%
%TF.CreationDate,2025-09-25T19:21:43-04:00*%
%TF.ProjectId,buckboost,6275636b-626f-46f7-9374-2e6b69636164,rev?*%
%TF.SameCoordinates,Original*%
%TF.FileFunction,Copper,L1,Top*%
%TF.FilePolarity,Positive*%
%FSLAX46Y46*%
G04 Gerber Fmt 4.6, Leading zero omitted, Abs format (unit mm)*
G04 Created by KiCad (PCBNEW 9.0.3) date 2025-09-25 19:21:43*
%MOMM*%
%LPD*%
G01*
G04 APERTURE LIST*
G04 Aperture macros list*
%AMRoundRect*
0 Rectangle with rounded corners*
0 $1 Rounding radius*
0 $2 $3 $4 $5 $6 $7 $8 $9 X,Y pos of 4 corners*
0 Add a 4 corners polygon primitive as box body*
4,1,4,$2,$3,$4,$5,$6,$7,$8,$9,$2,$3,0*
0 Add four circle primitives for the rounded corners*
1,1,$1+$1,$2,$3*
1,1,$1+$1,$4,$5*
1,1,$1+$1,$6,$7*
1,1,$1+$1,$8,$9*
0 Add four rect primitives between the rounded corners*
20,1,$1+$1,$2,$3,$4,$5,0*
20,1,$1+$1,$4,$5,$6,$7,0*
20,1,$1+$1,$6,$7,$8,$9,0*
20,1,$1+$1,$8,$9,$2,$3,0*%
G04 Aperture macros list end*
%TA.AperFunction,SMDPad,CuDef*%
%ADD10C,1.500000*%
%TD*%
%TA.AperFunction,SMDPad,CuDef*%
%ADD11R,2.700000X0.800000*%
%TD*%
%TA.AperFunction,SMDPad,CuDef*%
%ADD12RoundRect,0.250000X-0.450000X0.350000X-0.450000X-0.350000X0.450000X-0.350000X0.450000X0.350000X0*%
%TD*%
%TA.AperFunction,SMDPad,CuDef*%
%ADD13R,0.600000X0.240000*%
%TD*%
%TA.AperFunction,SMDPad,CuDef*%
%ADD14R,1.650000X2.400000*%
%TD*%
%TA.AperFunction,SMDPad,CuDef*%
%ADD15R,0.250000X0.500000*%
%TD*%
%TA.AperFunction,SMDPad,CuDef*%
%ADD16RoundRect,0.250000X0.350000X0.450000X-0.350000X0.450000X-0.350000X-0.450000X0.350000X-0.450000X0*%
%TD*%
%TA.AperFunction,SMDPad,CuDef*%
%ADD17RoundRect,0.250000X-0.475000X0.337500X-0.475000X-0.337500X0.475000X-0.337500X0.475000X0.337500X0*%
%TD*%
%TA.AperFunction,SMDPad,CuDef*%
%ADD18RoundRect,0.250000X0.412500X0.650000X-0.412500X0.650000X-0.412500X-0.650000X0.412500X-0.650000X0*%
%TD*%
%TA.AperFunction,SMDPad,CuDef*%
%ADD19RoundRect,0.250000X-0.350000X-0.450000X0.350000X-0.450000X0.350000X0.450000X-0.350000X0.450000X0*%
%TD*%
%TA.AperFunction,SMDPad,CuDef*%
%ADD20RoundRect,0.250000X-0.337500X-0.475000X0.337500X-0.475000X0.337500X0.475000X-0.337500X0.475000X0*%
%TD*%
%TA.AperFunction,SMDPad,CuDef*%
%ADD21RoundRect,0.250000X0.337500X0.475000X-0.337500X0.475000X-0.337500X-0.475000X0.337500X-0.475000X0*%
%TD*%
%TA.AperFunction,ComponentPad*%
%ADD22R,1.700000X1.700000*%
%TD*%
%TA.AperFunction,ComponentPad*%
%ADD23C,1.700000*%
%TD*%
%TA.AperFunction,Conductor*%
%ADD24C,1.000000*%
%TD*%
%TA.AperFunction,Conductor*%
%ADD25C,0.200000*%
%TD*%
%TA.AperFunction,Conductor*%
%ADD26C,0.300000*%
%TD*%
%TA.AperFunction,Conductor*%
%ADD27C,0.500000*%
%TD*%
G04 APERTURE END LIST*
D10*
%TO.P,TP1,1,1*%
%TO.N,Net-(C3-Pad2)*%
X126800000Y-76200000D03*
%TD*%
%TO.P,TP2,1,1*%
%TO.N,/Buck-Boost Regulator Layout/FB*%
X116600000Y-74200000D03*
%TD*%
D11*
%TO.P,L3,1,1*%
%TO.N,Net-(U9-L2)*%
X124000000Y-72200000D03*
%TO.P,L3,2,2*%
%TO.N,Net-(U9-L1)*%
X124000000Y-70000000D03*
%TD*%
D12*
%TO.P,R27,1*%
%TO.N,/V_{IN}*%
X109600000Y-70800000D03*
%TO.P,R27,2*%
%TO.N,Net-(U9-PS{slash}SYNC)*%
X109600000Y-72800000D03*
%TD*%
D13*
%TO.P,U9,1,VOUT*%
%TO.N,+3V3*%
X120150000Y-72150000D03*
%TO.P,U9,2,L2*%
%TO.N,Net-(U9-L2)*%
X120150000Y-71650000D03*
%TO.P,U9,3,PGND*%
%TO.N,GND*%
X120150000Y-71150000D03*
%TO.P,U9,4,L1*%
%TO.N,Net-(U9-L1)*%
X120150000Y-70650000D03*
%TO.P,U9,5,VIN*%
%TO.N,/V_{IN}*%
X120150000Y-70150000D03*
%TO.P,U9,6,EN*%
X117350000Y-70150000D03*
%TO.P,U9,7,PS/SYNC*%
%TO.N,Net-(U9-PS{slash}SYNC)*%
X117350000Y-70650000D03*
%TO.P,U9,8,VINA*%
X117350000Y-71150000D03*
%TO.P,U9,9,GND*%
%TO.N,GND*%
X117350000Y-71650000D03*
%TO.P,U9,10,FB*%
%TO.N,/Buck-Boost Regulator Layout/FB*%
X117350000Y-72150000D03*
D14*
%TO.P,U9,11,PGND*%
%TO.N,GND*%
X118750000Y-71150000D03*
D15*
%TO.P,U9,11_1,PGND*%
X119000000Y-72600000D03*
%TO.P,U9,11_2,PGND*%
X118500000Y-72600000D03*
%TO.P,U9,11_3,PGND*%
X118500000Y-69700000D03*
%TO.P,U9,11_4,PGND*%
X119000000Y-69700000D03*
%TD*%
D16*
%TO.P,R5,1*%
%TO.N,/Buck-Boost Regulator Layout/FB*%
X114450000Y-72750000D03*
%TO.P,R5,2*%
%TO.N,GND*%
X112450000Y-72750000D03*
%TD*%
D17*
%TO.P,C33,1*%
%TO.N,Net-(U9-PS{slash}SYNC)*%
X109600000Y-75362500D03*
%TO.P,C33,2*%
%TO.N,GND*%
X109600000Y-77437500D03*
%TD*%
D18*
%TO.P,C4,1*%
%TO.N,+3V3*%
X114800000Y-77400000D03*
%TO.P,C4,2*%
%TO.N,GND*%
X111675000Y-77400000D03*
%TD*%
D19*
%TO.P,R4,1*%
%TO.N,+3V3*%
X122350000Y-77250000D03*
%TO.P,R4,2*%
%TO.N,Net-(C3-Pad2)*%
X124350000Y-77250000D03*
%TD*%
D20*
%TO.P,C3,1*%
%TO.N,+3V3*%
X122325000Y-75200000D03*
%TO.P,C3,2*%
%TO.N,Net-(C3-Pad2)*%
X124400000Y-75200000D03*
%TD*%
D21*
%TO.P,C1,1*%
%TO.N,/V_{IN}*%
X109600000Y-68800000D03*
%TO.P,C1,2*%
%TO.N,GND*%
X107525000Y-68800000D03*
%TD*%
D22*
%TO.P,J1,1,Pin_1*%
%TO.N,/V_{IN}*%
X120340000Y-80400000D03*
D23*
%TO.P,J1,2,Pin_2*%
%TO.N,+3V3*%
X117800000Y-80400000D03*
%TO.P,J1,3,Pin_3*%
%TO.N,GND*%
X115260000Y-80400000D03*
%TD*%
D24*
%TO.N,GND*%
X111675000Y-75400000D02*
X111675000Y-73525000D01*
D25*
X113550000Y-71650000D02*
X112450000Y-72750000D01*
X117350000Y-71650000D02*
X117957842Y-71650000D01*
D26*
X112075000Y-75800000D02*
X111675000Y-75400000D01*
D24*
X111675000Y-79275000D02*
X111675000Y-77400000D01*
D25*
X118175000Y-71432842D02*
X118175000Y-71150000D01*
D24*
X111675000Y-77400000D02*
X109637500Y-77400000D01*
X111675000Y-73525000D02*
X112450000Y-72750000D01*
D25*
X120150000Y-71150000D02*
X118750000Y-71150000D01*
D24*
X109637500Y-77400000D02*
X109600000Y-77437500D01*
D26*
X117600000Y-75400000D02*
X111675000Y-75400000D01*
D24*
X107525000Y-76525000D02*
X107525000Y-68800000D01*
D26*
X118500000Y-72600000D02*
X118500000Y-74500000D01*
X118000000Y-75800000D02*
X112075000Y-75800000D01*
D24*
X112600000Y-80200000D02*
X111675000Y-79275000D01*
D26*
X118500000Y-74500000D02*
X117600000Y-75400000D01*
X119000000Y-74800000D02*
X118000000Y-75800000D01*
D24*
X108437500Y-77437500D02*
X107525000Y-76525000D01*
D25*
X117957842Y-71650000D02*
X118175000Y-71432842D01*
D24*
X115260000Y-80400000D02*
X115060000Y-80200000D01*
X111675000Y-77400000D02*
X111675000Y-75400000D01*
X115060000Y-80200000D02*
X112600000Y-80200000D01*
X109600000Y-77437500D02*
X108437500Y-77437500D01*
D25*
X117350000Y-71650000D02*
X113550000Y-71650000D01*
D26*
X119000000Y-72600000D02*
X119000000Y-74800000D01*
D24*
%TO.N,/V_{IN}*%
X120540000Y-80200000D02*
X126400000Y-80200000D01*
D25*
X110850000Y-70150000D02*
X110200000Y-70800000D01*
X110200000Y-70800000D02*
X109600000Y-70800000D01*
D24*
X127400000Y-68200000D02*
X118600000Y-68200000D01*
D25*
X117350000Y-70150000D02*
X110850000Y-70150000D01*
D24*
X120340000Y-80400000D02*
X120540000Y-80200000D01*
X130000000Y-76600000D02*
X130000000Y-70800000D01*
X126400000Y-80200000D02*
X130000000Y-76600000D01*
X130000000Y-70800000D02*
X127400000Y-68200000D01*
%TO.N,+3V3*%
X117800000Y-80400000D02*
X117800000Y-77400000D01*
D25*
%TO.N,/Buck-Boost Regulator Layout/FB*%
X115700000Y-73300000D02*
X115700000Y-72750000D01*
X115925000Y-72525000D02*
X116300000Y-72150000D01*
X116300000Y-72150000D02*
X117350000Y-72150000D01*
X114450000Y-72750000D02*
X115700000Y-72750000D01*
X115700000Y-72750000D02*
X115925000Y-72525000D01*
X114450000Y-72850000D02*
X114450000Y-72750000D01*
X116600000Y-74200000D02*
X115700000Y-73300000D01*
%TO.N,Net-(U9-PS{slash}SYNC)*%
X117350000Y-71150000D02*
X117350000Y-70650000D01*
X111850000Y-71150000D02*
X110200000Y-72800000D01*
D27*
X109600000Y-75362500D02*
X109600000Y-72800000D01*
D25*
X110200000Y-72800000D02*
X109600000Y-72800000D01*
X117350000Y-71150000D02*
X111850000Y-71150000D01*
D24*
%TO.N,Net-(C3-Pad2)*%
X124400000Y-75200000D02*
X125800000Y-75200000D01*
X125800000Y-75200000D02*
X126800000Y-76200000D01*
X124350000Y-75250000D02*
X124400000Y-75200000D01*
X124350000Y-77250000D02*
X124350000Y-75250000D01*
%TD*%
%TA.AperFunction,Conductor*%
%TO.N,Net-(U9-L1)*%
G36*
X125383177Y-69389685D02*
G01*
X125403819Y-69406319D01*
X125483681Y-69486181D01*
X125517166Y-69547504D01*
X125520000Y-69573862D01*
X125520000Y-70388638D01*
X125500315Y-70455677D01*
X125483681Y-70476319D01*
X125216319Y-70743681D01*
X125154996Y-70777166D01*
X125128638Y-70780000D01*
X119924000Y-70780000D01*
X119915314Y-70777449D01*
X119906353Y-70778738D01*
X119882312Y-70767759D01*
X119856961Y-70760315D01*
X119851033Y-70753474D01*
X119842797Y-70749713D01*
X119828507Y-70727478D01*
X119811206Y-70707511D01*
X119808918Y-70696996D01*
X119805023Y-70690935D01*
X119800000Y-70656000D01*
X119800000Y-70614000D01*
X119819685Y-70546961D01*
X119872489Y-70501206D01*
X119924000Y-70490000D01*
X121410000Y-70490000D01*
X122493681Y-69406319D01*
X122555004Y-69372834D01*
X122581362Y-69370000D01*
X125316138Y-69370000D01*
X125383177Y-69389685D01*
G37*
%TD.AperFunction*%
%TD*%
%TA.AperFunction,Conductor*%
%TO.N,/V_{IN}*%
G36*
X119965677Y-67619685D02*
G01*
X119986319Y-67636319D01*
X120763681Y-68413681D01*
X120797166Y-68475004D01*
X120800000Y-68501362D01*
X120800000Y-70160500D01*
X120780315Y-70227539D01*
X120727511Y-70273294D01*
X120676000Y-70284500D01*
X119923990Y-70284500D01*
X119912748Y-70285709D01*
X119843989Y-70273300D01*
X119792855Y-70225686D01*
X119775500Y-70162419D01*
X119775500Y-69930249D01*
X119775499Y-69930247D01*
X119763868Y-69871770D01*
X119763867Y-69871769D01*
X119719552Y-69805447D01*
X119653230Y-69761132D01*
X119653229Y-69761131D01*
X119594752Y-69749500D01*
X119594748Y-69749500D01*
X119449500Y-69749500D01*
X119382461Y-69729815D01*
X119336706Y-69677011D01*
X119325500Y-69625500D01*
X119325500Y-69430249D01*
X119325499Y-69430247D01*
X119313868Y-69371770D01*
X119313867Y-69371769D01*
X119269552Y-69305447D01*
X119203230Y-69261132D01*
X119203229Y-69261131D01*
X119144752Y-69249500D01*
X119144748Y-69249500D01*
X118855252Y-69249500D01*
X118855249Y-69249500D01*
X118784791Y-69263515D01*
X118784537Y-69262239D01*
X118727977Y-69268317D01*
X118704089Y-69261303D01*
X118644751Y-69249500D01*
X118644748Y-69249500D01*
X118355252Y-69249500D01*
X118355247Y-69249500D01*
X118296770Y-69261131D01*
X118296769Y-69261132D01*
X118230447Y-69305447D01*
X118186132Y-69371769D01*
X118186131Y-69371770D01*
X118174500Y-69430247D01*
X118174500Y-69625500D01*
X118154815Y-69692539D01*
X118102011Y-69738294D01*
X118050500Y-69749500D01*
X117905247Y-69749500D01*
X117846770Y-69761131D01*
X117846769Y-69761132D01*
X117780447Y-69805447D01*
X117736132Y-69871769D01*
X117736131Y-69871770D01*
X117724500Y-69930247D01*
X117724500Y-70205500D01*
X117704815Y-70272539D01*
X117652011Y-70318294D01*
X117600500Y-70329500D01*
X117030247Y-70329500D01*
X116971770Y-70341131D01*
X116971768Y-70341132D01*
X116914947Y-70379101D01*
X116848270Y-70399980D01*
X116846055Y-70400000D01*
X112599999Y-70400000D01*
X112186819Y-70813181D01*
X112125496Y-70846666D01*
X112099138Y-70849500D01*
X111810438Y-70849500D01*
X111772224Y-70859739D01*
X111734009Y-70869979D01*
X111734004Y-70869982D01*
X111665495Y-70909535D01*
X111665487Y-70909541D01*
X110761347Y-71813681D01*
X110700024Y-71847166D01*
X110673666Y-71850000D01*
X108974000Y-71850000D01*
X108906961Y-71830315D01*
X108861206Y-71777511D01*
X108850000Y-71726000D01*
X108850000Y-68313862D01*
X108869685Y-68246823D01*
X108886319Y-68226181D01*
X109476181Y-67636319D01*
X109537504Y-67602834D01*
X109563862Y-67600000D01*
X119898638Y-67600000D01*
X119965677Y-67619685D01*
G37*
%TD.AperFunction*%
%TD*%
%TA.AperFunction,Conductor*%
%TO.N,Net-(U9-L2)*%
G36*
X125463039Y-71519685D02*
G01*
X125508794Y-71572489D01*
X125520000Y-71624000D01*
X125520000Y-72506138D01*
X125511355Y-72535578D01*
X125504832Y-72565565D01*
X125501077Y-72570580D01*
X125500315Y-72573177D01*
X125483681Y-72593819D01*
X125403819Y-72673681D01*
X125342496Y-72707166D01*
X125316138Y-72710000D01*
X122381362Y-72710000D01*
X122314323Y-72690315D01*
X122293681Y-72673681D01*
X121400000Y-71780000D01*
X119924000Y-71780000D01*
X119856961Y-71760315D01*
X119811206Y-71707511D01*
X119800000Y-71656000D01*
X119800000Y-71624000D01*
X119819685Y-71556961D01*
X119872489Y-71511206D01*
X119924000Y-71500000D01*
X125396000Y-71500000D01*
X125463039Y-71519685D01*
G37*
%TD.AperFunction*%
%TD*%
%TA.AperFunction,Conductor*%
%TO.N,+3V3*%
G36*
X119924000Y-71985500D02*
G01*
X120288145Y-71985500D01*
X120355184Y-72005185D01*
X120367563Y-72014270D01*
X121010553Y-72550500D01*
X122656005Y-73922748D01*
X122955418Y-74172447D01*
X122994296Y-74230501D01*
X123000000Y-74267677D01*
X123000000Y-78276000D01*
X122980315Y-78343039D01*
X122927511Y-78388794D01*
X122876000Y-78400000D01*
X113842048Y-78400000D01*
X113775009Y-78380315D01*
X113750641Y-78359790D01*
X113470093Y-78053737D01*
X113439303Y-77991017D01*
X113437500Y-77969947D01*
X113437500Y-76274500D01*
X113457185Y-76207461D01*
X113509989Y-76161706D01*
X113561500Y-76150500D01*
X118046142Y-76150500D01*
X118046144Y-76150500D01*
X118135288Y-76126614D01*
X118215212Y-76080470D01*
X119280470Y-75015212D01*
X119326614Y-74935288D01*
X119350500Y-74846143D01*
X119350500Y-74753856D01*
X119350500Y-72674500D01*
X119370185Y-72607461D01*
X119422989Y-72561706D01*
X119474500Y-72550500D01*
X119594750Y-72550500D01*
X119594751Y-72550499D01*
X119609568Y-72547552D01*
X119653229Y-72538868D01*
X119653229Y-72538867D01*
X119653231Y-72538867D01*
X119719552Y-72494552D01*
X119763867Y-72428231D01*
X119763867Y-72428229D01*
X119763868Y-72428229D01*
X119772552Y-72384568D01*
X119775500Y-72369748D01*
X119775500Y-72107252D01*
X119795185Y-72040213D01*
X119847989Y-71994458D01*
X119917144Y-71984514D01*
X119924000Y-71985500D01*
G37*
%TD.AperFunction*%
%TD*%
M02*
